<svg width="26" height="26" viewBox="0 0 26 26" fill="none" xmlns="http://www.w3.org/2000/svg">
<g clip-path="url(#clip0_3603_4605)">
<path d="M23.1735 19.325V16.6739C23.1735 15.2714 22.0325 14.1304 20.6301 14.1304H13.8475V11.8088C16.7197 11.3961 18.9344 8.91942 18.9344 5.9348C18.9344 2.66236 16.2721 0 12.9996 0C9.72718 0 7.06482 2.66236 7.06482 5.9348C7.06482 8.91942 9.27955 11.3961 12.1518 11.8088V14.1304H5.36919C3.96671 14.1304 2.82571 15.2714 2.82571 16.6739V19.325C1.36473 19.7025 0.282227 21.0314 0.282227 22.6087C0.282227 24.4786 1.80358 26 3.67355 26C5.54352 26 7.06487 24.4786 7.06487 22.6087C7.06487 21.0314 5.98237 19.7025 4.52139 19.325V16.6739C4.52139 16.2064 4.90175 15.8261 5.36924 15.8261H12.1518V19.3247C10.6908 19.7021 9.60835 21.0314 9.60835 22.6087C9.6083 24.4786 11.1297 26 12.9996 26C14.8696 26 16.391 24.4786 16.391 22.6087C16.391 21.0314 15.3085 19.7021 13.8475 19.3247V15.8261H20.6301C21.0976 15.8261 21.4779 16.2064 21.4779 16.6739V19.325C20.0169 19.7024 18.9344 21.0314 18.9344 22.6087C18.9344 24.4786 20.4558 26 22.3258 26C24.1957 26 25.7171 24.4786 25.7171 22.6087C25.717 21.0314 24.6345 19.7025 23.1735 19.325ZM5.36919 22.6087C5.36919 23.5437 4.60853 24.3043 3.67355 24.3043C2.73857 24.3043 1.97791 23.5437 1.97791 22.6087C1.97791 21.6737 2.73857 20.913 3.67355 20.913C4.60853 20.913 5.36919 21.6737 5.36919 22.6087ZM14.6953 22.6087C14.6953 23.5437 13.9346 24.3043 12.9996 24.3043C12.0646 24.3043 11.304 23.5437 11.304 22.6087C11.304 21.6737 12.0646 20.913 12.9996 20.913C13.9346 20.913 14.6953 21.6737 14.6953 22.6087ZM12.9996 10.1739C10.6622 10.1739 8.76051 8.27227 8.76051 5.9348C8.76051 3.59734 10.6622 1.69564 12.9996 1.69564C15.3371 1.69564 17.2387 3.59729 17.2387 5.93475C17.2387 8.27221 15.3371 10.1739 12.9996 10.1739ZM22.3257 24.3044C21.3907 24.3044 20.6301 23.5437 20.6301 22.6087C20.6301 21.6737 21.3907 20.9131 22.3257 20.9131C23.2607 20.9131 24.0213 21.6737 24.0213 22.6087C24.0213 23.5437 23.2607 24.3044 22.3257 24.3044Z" fill="#282828"/>
</g>
<defs>
<clipPath id="clip0_3603_4605">
<rect width="26" height="26" fill="white"/>
</clipPath>
</defs>
</svg>
