<svg width="24" height="24" viewBox="0 0 24 24" fill="none" xmlns="http://www.w3.org/2000/svg">
<path d="M11.75 3.91675C10.0071 3.91675 8.30325 4.43359 6.85404 5.40192C5.40483 6.37025 4.27531 7.74658 3.60832 9.35685C2.94132 10.9671 2.7668 12.739 3.10683 14.4485C3.44687 16.1579 4.28618 17.7282 5.51863 18.9606C6.75108 20.1931 8.32131 21.0324 10.0308 21.3724C11.7402 21.7125 13.5121 21.5379 15.1224 20.8709C16.7327 20.2039 18.109 19.0744 19.0773 17.6252C20.0457 16.176 20.5625 14.4722 20.5625 12.7292C20.5625 10.392 19.634 8.15053 17.9814 6.49787C16.3287 4.84521 14.0872 3.91675 11.75 3.91675ZM14.4035 15.3828C14.3125 15.4746 14.2042 15.5474 14.0849 15.5971C13.9656 15.6468 13.8376 15.6724 13.7083 15.6724C13.5791 15.6724 13.4511 15.6468 13.3318 15.5971C13.2125 15.5474 13.1042 15.4746 13.0131 15.3828L11.0548 13.4245C10.964 13.333 10.8922 13.2245 10.8435 13.1052C10.7948 12.9859 10.7701 12.8581 10.7708 12.7292V8.81258C10.7708 8.55289 10.874 8.30383 11.0576 8.12021C11.2413 7.93658 11.4903 7.83341 11.75 7.83341C12.0097 7.83341 12.2587 7.93658 12.4424 8.12021C12.626 8.30383 12.7292 8.55289 12.7292 8.81258V12.3278L14.4035 13.9924C14.4953 14.0834 14.5682 14.1917 14.6179 14.311C14.6676 14.4303 14.6932 14.5583 14.6932 14.6876C14.6932 14.8168 14.6676 14.9448 14.6179 15.0641C14.5682 15.1835 14.4953 15.2918 14.4035 15.3828Z" fill="white"/>
<path d="M18.604 5.87503C18.4115 5.87723 18.2232 5.81901 18.0655 5.70857L15.128 3.75024C15.0079 3.68584 14.9026 3.59709 14.8188 3.48967C14.735 3.38225 14.6745 3.25853 14.6413 3.12641C14.608 2.99429 14.6027 2.85668 14.6257 2.72239C14.6486 2.58809 14.6993 2.46007 14.7746 2.3465C14.8499 2.23293 14.948 2.13631 15.0627 2.06283C15.1774 1.98935 15.3062 1.94062 15.4409 1.91975C15.5755 1.89889 15.713 1.90635 15.8446 1.94166C15.9762 1.97697 16.099 2.03935 16.2051 2.12482L19.1426 4.08315C19.3162 4.19983 19.4479 4.36905 19.5184 4.56603C19.5889 4.763 19.5944 4.97737 19.5342 5.17772C19.474 5.37807 19.3512 5.55387 19.1838 5.67936C19.0164 5.80484 18.8132 5.87341 18.604 5.87503ZM4.89568 5.87503C4.68648 5.87341 4.4833 5.80484 4.31591 5.67936C4.14852 5.55387 4.02572 5.37807 3.96551 5.17772C3.90529 4.97737 3.91083 4.763 3.98131 4.56603C4.05178 4.36905 4.18349 4.19983 4.35714 4.08315L7.29464 2.12482C7.40074 2.03935 7.52351 1.97697 7.6551 1.94166C7.78668 1.90635 7.92419 1.89889 8.05883 1.91975C8.19346 1.94062 8.32226 1.98935 8.43699 2.06283C8.55171 2.13631 8.64984 2.23293 8.7251 2.3465C8.80036 2.46007 8.85109 2.58809 8.87404 2.72239C8.897 2.85668 8.89168 2.99429 8.85842 3.12641C8.82516 3.25853 8.76469 3.38225 8.68089 3.48967C8.59708 3.59709 8.49178 3.68584 8.37172 3.75024L5.43422 5.70857C5.27653 5.81901 5.08819 5.87723 4.89568 5.87503Z" fill="white"/>
</svg>
