<svg width="26" height="26" viewBox="0 0 26 26" fill="none" xmlns="http://www.w3.org/2000/svg">
<path d="M13.0001 2.6001C15.7583 2.6001 18.4036 3.69581 20.354 5.64619C22.3044 7.59657 23.4001 10.2418 23.4001 13.0001C23.4001 15.7583 22.3044 18.4036 20.354 20.354C18.4036 22.3044 15.7583 23.4001 13.0001 23.4001C10.2418 23.4001 7.59657 22.3044 5.64619 20.354C3.69581 18.4036 2.6001 15.7583 2.6001 13.0001C2.6001 10.2418 3.69581 7.59657 5.64619 5.64619C7.59657 3.69581 10.2418 2.6001 13.0001 2.6001ZM13.0001 3.9001C11.8051 3.9001 10.6217 4.13548 9.51768 4.59279C8.41362 5.05011 7.41044 5.72041 6.56543 6.56543C5.72041 7.41044 5.05011 8.41362 4.59279 9.51768C4.13548 10.6217 3.9001 11.8051 3.9001 13.0001C3.9001 14.1951 4.13548 15.3785 4.59279 16.4825C5.05011 17.5866 5.72041 18.5898 6.56543 19.4348C7.41044 20.2798 8.41362 20.9501 9.51768 21.4074C10.6217 21.8647 11.8051 22.1001 13.0001 22.1001C15.4136 22.1001 17.7282 21.1413 19.4348 19.4348C21.1413 17.7282 22.1001 15.4136 22.1001 13.0001C22.1001 10.5866 21.1413 8.27201 19.4348 6.56543C17.7282 4.85884 15.4136 3.9001 13.0001 3.9001ZM9.3016 16.1552C10.2413 17.1012 11.5076 17.6514 12.8404 17.6925C14.1732 17.7336 15.471 17.2625 16.4672 16.3762L16.6986 16.1552C16.8128 16.0391 16.9664 15.9702 17.129 15.9619C17.2917 15.9537 17.4515 16.0068 17.5768 16.1107C17.7022 16.2147 17.7839 16.3619 17.8059 16.5232C17.828 16.6846 17.7886 16.8483 17.6957 16.982L17.6216 17.073L17.5917 17.1016C16.9848 17.7046 16.2651 18.1822 15.4736 18.507C14.6822 18.8319 13.8345 18.9977 12.979 18.9949C12.1234 18.9921 11.2768 18.8209 10.4875 18.4909C9.69815 18.1609 8.98155 17.6786 8.3786 17.0717C8.25706 16.9493 8.18913 16.7836 8.18974 16.6111C8.19035 16.4387 8.25945 16.2735 8.38185 16.1519C8.50425 16.0304 8.66991 15.9625 8.8424 15.9631C9.01488 15.9637 9.18006 16.0328 9.3016 16.1552ZM16.2501 9.7501C16.5949 9.7501 16.9255 9.88706 17.1693 10.1309C17.4131 10.3747 17.5501 10.7053 17.5501 11.0501C17.5501 11.3949 17.4131 11.7255 17.1693 11.9693C16.9255 12.2131 16.5949 12.3501 16.2501 12.3501C15.9053 12.3501 15.5747 12.2131 15.3309 11.9693C15.0871 11.7255 14.9501 11.3949 14.9501 11.0501C14.9501 10.7053 15.0871 10.3747 15.3309 10.1309C15.5747 9.88706 15.9053 9.7501 16.2501 9.7501ZM9.7501 9.7501C10.0949 9.7501 10.4255 9.88706 10.6693 10.1309C10.9131 10.3747 11.0501 10.7053 11.0501 11.0501C11.0501 11.3949 10.9131 11.7255 10.6693 11.9693C10.4255 12.2131 10.0949 12.3501 9.7501 12.3501C9.40532 12.3501 9.07466 12.2131 8.83086 11.9693C8.58706 11.7255 8.4501 11.3949 8.4501 11.0501C8.4501 10.7053 8.58706 10.3747 8.83086 10.1309C9.07466 9.88706 9.40532 9.7501 9.7501 9.7501Z" fill="#666666"/>
</svg>
