<svg width="18" height="18" viewBox="0 0 18 18" fill="none" xmlns="http://www.w3.org/2000/svg">
<g clip-path="url(#clip0_9353_10756)">
<path d="M14.9469 1.98096H14.4352V14.5522C14.4352 15.3874 13.7553 16.0672 12.9202 16.0672H3.61279V16.5332C3.61279 17.0668 4.04591 17.4999 4.57953 17.4999H14.945C15.4787 17.4999 15.9118 17.0668 15.9118 16.5332V2.9477C15.9118 2.41407 15.4805 1.98096 14.9469 1.98096Z" fill="white"/>
<path d="M7.73555 15.519H12.9183C13.4519 15.519 13.885 15.0859 13.885 14.5523V0.96674C13.885 0.433114 13.4519 0 12.9183 0H6.01223V0.31981C6.01587 0.352705 6.01772 0.387427 6.01772 0.422149V3.07018C6.01772 3.82127 5.40734 4.43165 4.65624 4.43165H2.00821C1.9808 4.43165 1.95156 4.42982 1.92415 4.428H1.58789V14.5523C1.58789 15.0859 2.021 15.519 2.55463 15.519H7.73555ZM7.93109 12.2332H4.55207C4.29988 12.2332 4.0952 12.0285 4.0952 11.7763C4.0952 11.5241 4.29988 11.3194 4.55207 11.3194H7.93292C8.18511 11.3194 8.38979 11.5241 8.38979 11.7763C8.38979 12.0285 8.18329 12.2332 7.93109 12.2332ZM11.3119 9.90133H4.55207C4.29988 9.90133 4.0952 9.69664 4.0952 9.44446C4.0952 9.19225 4.29988 8.98759 4.55207 8.98759H11.3119C11.5641 8.98759 11.7688 9.19225 11.7688 9.44446C11.7688 9.69664 11.5641 9.90133 11.3119 9.90133ZM4.55207 6.51133H11.3119C11.5641 6.51133 11.7688 6.71601 11.7688 6.9682C11.7688 7.22039 11.5641 7.42507 11.3119 7.42507H4.55207C4.29988 7.42507 4.0952 7.22039 4.0952 6.9682C4.0952 6.71601 4.29988 6.51133 4.55207 6.51133Z" fill="white"/>
<path d="M2.00837 3.88368H4.66371C5.10596 3.88002 5.46415 3.52184 5.4678 3.07959V0.422422C5.4678 0.177539 5.26678 0.0148926 5.05846 0.0148926C4.95795 0.0148926 4.85744 0.0514423 4.77337 0.135507L1.71963 3.18923C1.46378 3.44508 1.6447 3.88368 2.00837 3.88368Z" fill="white"/>
</g>
<defs>
<clipPath id="clip0_9353_10756">
<rect width="17.5" height="17.5" fill="white"/>
</clipPath>
</defs>
</svg>
