<svg width="24" height="24" xmlns="http://www.w3.org/2000/svg" id="missed-call" viewBox="0 0 512 402">
    <path fill-rule="evenodd" clip-rule="evenodd" d="M255.61 132.6L354.566 34.1L303.477 32.01C299.237 31.8365 295.239 29.9857 292.363 26.8646C289.487 23.7436 287.969 19.6079 288.142 15.3675C288.316 11.1271 290.167 7.12925 293.288 4.25347C296.409 1.3777 300.545 -0.140452 304.785 0.0329994L394.309 3.694C396.409 3.77958 398.471 4.27789 400.378 5.16046C402.285 6.04304 403.999 7.2926 405.423 8.83779C406.847 10.383 407.953 12.1935 408.677 14.1661C409.401 16.1386 409.73 18.2345 409.644 20.334L405.986 109.863C405.815 113.986 404.057 117.884 401.08 120.742C398.103 123.6 394.137 125.197 390.01 125.2C389.791 125.2 389.569 125.2 389.346 125.191C387.247 125.105 385.185 124.607 383.278 123.724C381.371 122.842 379.657 121.592 378.233 120.047C376.809 118.502 375.703 116.691 374.979 114.719C374.255 112.746 373.926 110.65 374.012 108.551L376.085 57.83L278.185 155.281C271.802 161.612 263.173 165.16 254.183 165.151C245.193 165.142 236.571 161.577 230.2 155.234L136.624 61.652C135.138 60.1663 133.959 58.4024 133.155 56.4611C132.35 54.5198 131.936 52.4391 131.936 50.3378C131.936 48.2364 132.349 46.1556 133.153 44.2141C133.957 42.2727 135.136 40.5085 136.621 39.0225C139.622 36.0213 143.692 34.335 147.936 34.3345C150.037 34.3343 152.118 34.748 154.059 35.5519C156.001 36.3558 157.765 37.5343 159.251 39.02L252.829 132.6C253.202 132.961 253.701 133.162 254.219 133.162C254.738 133.162 255.237 132.961 255.61 132.6ZM480.01 367.848C480.005 368.41 479.779 368.948 479.383 369.346C478.986 369.745 478.449 369.972 477.887 369.98H365.361C364.799 369.972 364.261 369.745 363.864 369.347C363.467 368.948 363.242 368.41 363.236 367.848V308.033C363.251 301.677 361.007 295.523 356.904 290.668C352.801 285.814 347.106 282.576 340.836 281.533C315.071 277.183 285.542 275.013 256.011 275.013C226.48 275.013 196.955 277.183 171.191 281.533C164.921 282.576 159.226 285.814 155.123 290.668C151.02 295.523 148.776 301.677 148.791 308.033V367.85C148.785 368.412 148.56 368.95 148.163 369.349C147.766 369.747 147.228 369.974 146.666 369.982H34.135C33.5726 369.974 33.0356 369.747 32.6386 369.349C32.2417 368.95 32.0164 368.412 32.011 367.85V305.221C31.8842 299.028 33.3175 292.902 36.1789 287.408C39.0402 281.914 43.2378 277.228 48.385 273.782C94.67 241.389 172.285 222.051 256.009 222.051C339.733 222.051 417.351 241.389 463.636 273.782C468.784 277.228 472.981 281.914 475.843 287.408C478.704 292.902 480.138 299.028 480.011 305.221V367.85L480.01 367.848ZM481.982 247.558C429.754 211.01 347.39 190.048 256.008 190.048C164.626 190.048 82.268 211.012 30.039 247.56C10.675 261.11 0.0109863 281.58 0.0109863 305.221V367.85C0.0202474 376.898 3.61813 385.573 10.0154 391.972C16.4126 398.371 25.0868 401.971 34.135 401.983H146.662C155.71 401.971 164.385 398.371 170.782 391.972C177.179 385.573 180.777 376.898 180.787 367.85V312.392C226.4 305.292 285.623 305.292 331.236 312.392V367.85C331.246 376.898 334.844 385.573 341.241 391.972C347.638 398.371 356.313 401.971 365.361 401.983H477.888C486.936 401.971 495.61 398.371 502.007 391.972C508.404 385.573 512.003 376.898 512.012 367.85V305.221C512.012 281.58 501.345 261.11 481.983 247.56L481.982 247.558Z"></path>
</svg>