<svg width="22" height="22" viewBox="0 0 22 22" fill="none" xmlns="http://www.w3.org/2000/svg">
<path d="M10.9999 11.9163C11.5062 11.9163 11.9166 11.5059 11.9166 10.9997C11.9166 10.4934 11.5062 10.083 10.9999 10.083C10.4937 10.083 10.0833 10.4934 10.0833 10.9997C10.0833 11.5059 10.4937 11.9163 10.9999 11.9163Z" stroke="#282828" stroke-width="1.83333" stroke-linecap="round" stroke-linejoin="round"/>
<path d="M17.4167 11.9163C17.9229 11.9163 18.3333 11.5059 18.3333 10.9997C18.3333 10.4934 17.9229 10.083 17.4167 10.083C16.9104 10.083 16.5 10.4934 16.5 10.9997C16.5 11.5059 16.9104 11.9163 17.4167 11.9163Z" stroke="#282828" stroke-width="1.83333" stroke-linecap="round" stroke-linejoin="round"/>
<path d="M4.58341 11.9163C5.08968 11.9163 5.50008 11.5059 5.50008 10.9997C5.50008 10.4934 5.08968 10.083 4.58341 10.083C4.07715 10.083 3.66675 10.4934 3.66675 10.9997C3.66675 11.5059 4.07715 11.9163 4.58341 11.9163Z" stroke="#282828" stroke-width="1.83333" stroke-linecap="round" stroke-linejoin="round"/>
</svg>
