<svg width="28" height="28" viewBox="0 0 28 28" fill="none" xmlns="http://www.w3.org/2000/svg">
<path d="M23.8984 14.6645H21.1576C20.7846 14.6645 20.4234 14.7155 20.0797 14.8092C19.4017 13.4764 18.0175 12.5606 16.4224 12.5606H11.5776C9.98255 12.5606 8.5983 13.4764 7.92028 14.8092C7.56903 14.7133 7.20653 14.6646 6.84239 14.6645H4.10156C1.83996 14.6645 0 16.5045 0 18.7661V23.1476C0 24.5045 1.10398 25.6085 2.46094 25.6085H25.5391C26.896 25.6085 28 24.5045 28 23.1476V18.7661C28 16.5045 26.16 14.6645 23.8984 14.6645ZM7.47605 16.6623V23.9679H2.46094C2.00862 23.9679 1.64062 23.5999 1.64062 23.1476V18.7662C1.64062 17.4092 2.7446 16.3052 4.10156 16.3052H6.84239C7.06508 16.3052 7.28071 16.3355 7.48601 16.3912C7.47972 16.4814 7.4764 16.5718 7.47605 16.6623ZM18.8833 23.9679H9.11668V16.6622C9.11668 15.3053 10.2207 14.2013 11.5776 14.2013H16.4224C17.7793 14.2013 18.8833 15.3053 18.8833 16.6622V23.9679ZM26.3594 23.1476C26.3594 23.5999 25.9914 23.9679 25.5391 23.9679H20.5239V16.6622C20.5236 16.5718 20.5203 16.4814 20.514 16.3911C20.7238 16.3341 20.9402 16.3052 21.1576 16.3052H23.8984C25.2554 16.3052 26.3594 17.4091 26.3594 18.7661V23.1476Z" fill="#282828"/>
<path d="M5.47234 6.91818C3.46263 6.91818 1.82764 8.55317 1.82764 10.5629C1.82758 12.5726 3.46263 14.2076 5.47234 14.2076C7.482 14.2076 9.11704 12.5726 9.11704 10.5629C9.11704 8.55317 7.48205 6.91818 5.47234 6.91818ZM5.47228 12.567C4.36721 12.567 3.46821 11.6679 3.46821 10.5629C3.46821 9.45781 4.36721 8.5588 5.47228 8.5588C6.57735 8.5588 7.47636 9.45781 7.47636 10.5629C7.47636 11.6679 6.57735 12.567 5.47228 12.567ZM14.0003 2.39142C11.3154 2.39142 9.13104 4.57575 9.13104 7.26068C9.13104 9.94562 11.3154 12.1299 14.0003 12.1299C16.6852 12.1299 18.8696 9.94562 18.8696 7.26068C18.8696 4.5758 16.6852 2.39142 14.0003 2.39142ZM14.0003 10.4893C12.22 10.4893 10.7717 9.04098 10.7717 7.26068C10.7717 5.48044 12.22 4.03204 14.0003 4.03204C15.7806 4.03204 17.2289 5.48039 17.2289 7.26068C17.2289 9.04098 15.7806 10.4893 14.0003 10.4893ZM22.5283 6.91818C20.5186 6.91818 18.8836 8.55317 18.8836 10.5629C18.8836 12.5726 20.5186 14.2076 22.5283 14.2076C24.538 14.2076 26.173 12.5726 26.173 10.5629C26.173 8.55317 24.538 6.91818 22.5283 6.91818ZM22.5283 12.567C21.4233 12.567 20.5242 11.6679 20.5242 10.5629C20.5243 9.45781 21.4233 8.5588 22.5283 8.5588C23.6333 8.5588 24.5324 9.45781 24.5324 10.5629C24.5324 11.6679 23.6333 12.567 22.5283 12.567Z" fill="#282828"/>
</svg>
