<svg width="18" height="18" viewBox="0 0 18 18" fill="none" xmlns="http://www.w3.org/2000/svg">
<path d="M15.8063 7.14365L10.8563 2.19365C10.6313 1.96865 10.2938 1.96865 10.0688 2.19365L8.2688 3.99365C7.98755 4.2749 8.10005 4.6124 8.2688 4.78115L8.66255 5.1749L6.97505 6.8624C6.1313 6.69365 3.82505 6.2999 2.58755 7.5374C2.36255 7.7624 2.36255 8.0999 2.58755 8.3249L5.7938 11.5312L2.25005 15.0749C2.02505 15.2999 2.02505 15.6374 2.25005 15.8624C2.47505 16.0874 2.8688 16.0312 3.03755 15.8624L6.5813 12.3187L9.78755 15.5249C10.125 15.8062 10.4625 15.6937 10.575 15.5249C11.8125 14.2874 11.4188 11.9812 11.25 11.1374L12.9375 9.4499L13.3313 9.84365C13.5563 10.0687 13.8938 10.0687 14.1188 9.84365L15.9188 8.04365C16.0313 7.70615 16.0313 7.36865 15.8063 7.14365Z" fill="#5579F8"/>
</svg>
