<svg width="19" height="19" viewBox="0 0 19 19" fill="none" xmlns="http://www.w3.org/2000/svg">
<path d="M11.2851 0.902345C11.3672 0.902198 11.4486 0.918241 11.5245 0.949555C11.6004 0.98087 11.6694 1.02684 11.7276 1.08484L17.9151 7.27234C18.0322 7.38955 18.0981 7.54849 18.0981 7.71422C18.0981 7.87995 18.0322 8.03889 17.9151 8.1561C17.3151 8.75609 16.5751 8.89109 16.0363 8.89109C15.8151 8.89109 15.6176 8.86859 15.4613 8.84234L11.5438 12.7598C11.6469 13.1754 11.7139 13.599 11.7438 14.0261C11.8013 14.9036 11.7038 16.1348 10.8438 16.9948C10.7266 17.112 10.5677 17.1778 10.4019 17.1778C10.2362 17.1778 10.0773 17.112 9.96006 16.9948L6.42382 13.4598L2.44632 17.4373C2.20257 17.6811 0.922567 18.5648 0.678817 18.3211C0.435067 18.0773 1.31882 16.7961 1.56257 16.5536L5.54007 12.5761L2.00507 9.03984C1.8879 8.92264 1.82207 8.7637 1.82207 8.59797C1.82207 8.43224 1.8879 8.2733 2.00507 8.1561C2.86507 7.2961 4.09632 7.19734 4.97382 7.25609C5.40089 7.28602 5.82456 7.35294 6.24007 7.4561L10.1576 3.53984C10.1249 3.34949 10.1081 3.15674 10.1076 2.96359C10.1076 2.42609 10.2426 1.68609 10.8438 1.08484C10.9609 0.968009 11.1196 0.90238 11.2851 0.902345ZM11.4376 3.53984V3.54235C11.4737 3.65231 11.4785 3.77013 11.4516 3.88269C11.4247 3.99525 11.367 4.09812 11.2851 4.17984L6.86632 8.59734C6.78421 8.6791 6.681 8.73642 6.56821 8.7629C6.45541 8.78939 6.33748 8.78401 6.22757 8.74734H6.22507L6.20757 8.74234C6.08865 8.70672 5.96858 8.67504 5.84757 8.64735C5.53311 8.57399 5.21338 8.52551 4.89132 8.50235C4.36382 8.46735 3.84632 8.51235 3.42257 8.68985L10.3101 15.5761C10.4863 15.1511 10.5313 14.6348 10.4963 14.1073C10.4645 13.6608 10.384 13.219 10.2563 12.7898L10.2513 12.7736C10.2144 12.6635 10.2089 12.5441 10.2354 12.431C10.2619 12.318 10.3193 12.2146 10.4013 12.1323L14.8213 7.71359C14.9064 7.62796 15.0145 7.56881 15.1325 7.5433C15.2506 7.51779 15.3734 7.52701 15.4863 7.56985L15.6063 7.59734C15.7151 7.61859 15.8663 7.63984 16.0363 7.63984C16.1788 7.63984 16.3238 7.62609 16.4651 7.58984L11.4088 2.53484C11.3726 2.67609 11.3588 2.82234 11.3588 2.96359C11.3594 3.15782 11.3855 3.35114 11.4363 3.53859L11.4376 3.53984Z" fill="#282828"/>
</svg>
