<svg width="34" height="35" viewBox="0 0 34 35" fill="none" xmlns="http://www.w3.org/2000/svg">
<g clip-path="url(#clip0_8220_4721)">
<path d="M17.0109 5.85571C9.95822 5.85571 4.22021 11.5938 4.22021 18.6464C4.22021 25.6995 9.95829 31.4375 17.0109 31.4375C24.064 31.4375 29.8016 25.6994 29.8016 18.6464C29.8016 11.5938 24.0636 5.85571 17.0109 5.85571ZM17.0109 29.1194C11.2365 29.1194 6.53873 24.4212 6.53873 18.6469C6.53873 12.8725 11.2365 8.17468 17.0109 8.17468C22.7853 8.17468 27.4831 12.8725 27.4831 18.6469C27.4831 24.4216 22.7853 29.1194 17.0109 29.1194Z" fill="white"/>
<path d="M20.566 18.2603H17.4747V13.7777C17.4747 13.1374 16.9557 12.6184 16.3154 12.6184C15.6751 12.6184 15.1561 13.1374 15.1561 13.7777V19.4195C15.1561 20.0599 15.6751 20.5788 16.3154 20.5788H20.5661C21.2064 20.5788 21.7254 20.0599 21.7254 19.4195C21.7253 18.7792 21.2063 18.2603 20.566 18.2603ZM10.4444 26.9437C9.96832 26.5151 9.23524 26.5541 8.80713 27.0298L5.32926 30.8941C4.90069 31.3697 4.93973 32.1028 5.41541 32.531C5.62784 32.7231 5.90417 32.8293 6.19061 32.8289C6.50788 32.8289 6.82397 32.6995 7.05273 32.4448L10.5306 28.5806C10.9591 28.1048 10.9201 27.3718 10.4444 26.9437ZM28.693 30.8944L25.2151 27.0302C24.7877 26.5541 24.0543 26.5155 23.5782 26.944C23.1021 27.3722 23.0638 28.1052 23.492 28.581L26.9699 32.4452C27.1982 32.6995 27.5143 32.8289 27.8316 32.8289C28.1075 32.8289 28.385 32.7308 28.6068 32.5314C29.0829 32.1032 29.1211 31.3701 28.693 30.8944ZM10.2477 4.02353C7.94421 1.76798 4.2311 1.77145 1.97089 4.03205C0.846324 5.15616 0.231893 6.64353 0.240016 8.22012C0.248533 9.77779 0.866043 11.2362 1.97934 12.3267C2.19587 12.5391 2.48716 12.6579 2.79044 12.6575C3.0872 12.6575 3.38397 12.5439 3.61005 12.3182L10.2566 5.67167C10.3648 5.56325 10.4506 5.43445 10.5088 5.29272C10.567 5.15099 10.5966 4.99912 10.5958 4.8459C10.5951 4.69261 10.564 4.54099 10.5042 4.39983C10.4444 4.25866 10.3573 4.13076 10.2477 4.02353ZM2.91759 9.7314C2.68536 9.26346 2.56128 8.74565 2.55859 8.20774C2.55355 7.2556 2.92683 6.35443 3.61005 5.67121C4.29169 4.98996 5.19287 4.64949 6.09902 4.64949C6.63566 4.64938 7.16561 4.76856 7.65053 4.99841L2.91759 9.7314ZM32.051 4.03166C29.7904 1.77145 26.0772 1.76758 23.7738 4.02314C23.6643 4.13042 23.5772 4.25832 23.5174 4.39945C23.4577 4.54059 23.4264 4.69217 23.4256 4.84544C23.4248 4.9987 23.4545 5.15058 23.5128 5.29232C23.5711 5.43406 23.6569 5.56284 23.7653 5.67121L30.4118 12.3177C30.5192 12.4256 30.647 12.5111 30.7876 12.5694C30.9283 12.6277 31.0791 12.6576 31.2314 12.6574C31.5349 12.6579 31.8263 12.5388 32.0425 12.3258C33.1562 11.2357 33.7737 9.77739 33.7818 8.21966C33.7899 6.64353 33.1751 5.15616 32.051 4.03166ZM31.1043 9.7314L26.3714 4.99847C27.6999 4.36779 29.3318 4.59158 30.4118 5.6716C31.0951 6.35482 31.4683 7.25553 31.4633 8.20813C31.4605 8.74565 31.3365 9.26385 31.1043 9.7314Z" fill="white"/>
</g>
<defs>
<clipPath id="clip0_8220_4721">
<rect width="33.5419" height="33.5419" fill="white" transform="translate(0.239922 0.811035)"/>
</clipPath>
</defs>
</svg>
