<svg width="25" height="24" viewBox="0 0 25 24" fill="none" xmlns="http://www.w3.org/2000/svg">
<path fill-rule="evenodd" clip-rule="evenodd" d="M12.3552 5.72206C12.3552 4.18706 10.5212 3.39606 9.40522 4.44906L3.55722 9.96006C3.33416 10.1704 3.15643 10.4241 3.03496 10.7056C2.91349 10.9871 2.85083 11.2905 2.85083 11.5971C2.85083 11.9037 2.91349 12.207 3.03496 12.4885C3.15643 12.77 3.33416 13.0237 3.55722 13.2341L9.40322 18.7501C10.5192 19.8031 12.3542 19.0111 12.3542 17.4771V15.5021C13.5131 15.2927 14.7078 15.4204 15.7963 15.8702C16.8847 16.3199 17.8211 17.0727 18.4942 18.0391L19.2962 19.1911C20.3882 20.7601 22.8502 19.9871 22.8502 18.0761V17.6071C22.8502 11.8391 18.0162 7.31506 12.3542 7.58606L12.3552 5.72206ZM10.4342 5.54006C10.4698 5.50673 10.5143 5.48451 10.5623 5.47614C10.6103 5.46778 10.6597 5.47362 10.7044 5.49295C10.7492 5.51229 10.7873 5.54428 10.814 5.58498C10.8408 5.62569 10.8551 5.67333 10.8552 5.72206V8.31006C10.8552 8.81006 11.2932 9.19806 11.7892 9.13806C16.8722 8.52006 21.3512 12.4871 21.3512 17.6081V18.0761C21.3512 18.5181 20.7812 18.6971 20.5282 18.3341L19.7252 17.1821C18.8249 15.8893 17.5473 14.906 16.0671 14.3665C14.5869 13.8271 12.9763 13.7577 11.4552 14.1681C11.283 14.2147 11.1308 14.3167 11.0224 14.4584C10.9139 14.6001 10.8552 14.7736 10.8552 14.9521V17.4761C10.8551 17.5248 10.8408 17.5724 10.814 17.6131C10.7873 17.6538 10.7492 17.6858 10.7044 17.7052C10.6597 17.7245 10.6103 17.7303 10.5623 17.722C10.5143 17.7136 10.4698 17.6914 10.4342 17.6581L4.58722 12.1431C4.51292 12.073 4.45372 11.9884 4.41326 11.8946C4.3728 11.8008 4.35193 11.6997 4.35193 11.5976C4.35193 11.4954 4.3728 11.3943 4.41326 11.3005C4.45372 11.2067 4.51292 11.1222 4.58722 11.0521L10.4342 5.54006Z" fill="#282828"/>
</svg>
