<svg width="26" height="26" viewBox="0 0 26 26" fill="none" xmlns="http://www.w3.org/2000/svg">
<g clip-path="url(#clip0_3603_4552)">
<path d="M25.8874 0.783733C25.8684 0.611782 25.7913 0.451445 25.669 0.329113C25.5467 0.20678 25.3863 0.129742 25.2144 0.110678C19.1865 -0.558822 14.0481 1.85248 9.8566 6.1671C8.65715 7.40195 7.61669 8.70896 6.72863 9.97037C5.2256 9.90928 3.55917 10.5892 2.37769 11.7707L0.22304 13.9254C0.104489 14.044 0.0283778 14.1984 0.00650812 14.3646C-0.0153616 14.5309 0.0182315 14.6997 0.102079 14.845C0.185963 14.9902 0.315403 15.1036 0.470334 15.1678C0.625265 15.2319 0.797033 15.2432 0.959013 15.1998C1.45885 15.0656 2.2712 14.9095 3.05156 14.8731C3.33679 14.8598 3.57384 14.864 3.77082 14.8791C3.29536 15.7936 2.9309 16.5596 2.81014 16.7514C2.7182 16.8976 2.67863 17.0706 2.69791 17.2422C2.71719 17.4138 2.79419 17.5738 2.91627 17.6959L4.16295 18.9426C2.34854 21.4171 2.31858 22.6845 2.32493 22.864C2.33823 23.2443 2.63479 23.6006 3.12595 23.6006C3.55124 23.6006 4.77096 23.42 6.99142 21.7711L8.30284 23.0824C8.42585 23.2054 8.5872 23.2825 8.76012 23.3011C8.93303 23.3197 9.1071 23.2786 9.25342 23.1846C9.45852 23.0527 10.1796 22.7036 11.0442 22.2517C11.0585 22.8961 10.971 23.8426 10.7812 25.1254C10.6733 25.853 11.5578 26.291 12.0734 25.7756L14.228 23.621C15.339 22.5099 15.9833 20.8597 15.9357 19.3117C17.2645 18.3832 18.6469 17.2878 19.9377 16.0221C24.2112 11.8312 26.5484 6.73164 25.8874 0.783733ZM24.4303 1.56759C24.5518 3.21006 24.4221 4.8021 24.0442 6.34281C23.1058 6.04726 22.1883 5.46663 21.3598 4.63828C20.5282 3.80649 19.9464 2.88532 19.652 1.94348C21.1921 1.57115 22.7852 1.44501 24.4303 1.56759ZM2.95218 13.3509L3.45481 12.848C4.06281 12.2402 4.85348 11.8025 5.63977 11.6057C5.25771 12.2128 4.89095 12.8295 4.53985 13.455C4.04098 13.3449 3.48634 13.3245 2.95218 13.3509ZM4.39365 17.0189C4.55854 16.6935 4.75786 16.2857 5.12389 15.5942L6.12656 16.5971C5.75347 16.9974 5.41664 17.3777 5.11312 17.7381L4.39365 17.0189ZM8.11876 16.7274C8.6738 16.1726 9.20599 16.0712 9.86716 16.057C9.85264 16.7013 9.74935 17.2515 9.19609 17.8047C6.8312 20.1696 5.21017 21.2257 4.24075 21.6971C4.71901 20.709 5.7779 19.0683 8.11876 16.7274ZM8.97549 21.6006L8.18996 20.815C8.54863 20.5103 8.92771 20.1724 9.32761 19.7979L10.395 20.8653C9.69318 21.24 9.40038 21.3811 8.97549 21.6006ZM13.1505 22.5437L12.5407 23.1536C12.5901 22.4148 12.573 21.8764 12.5032 21.461C13.1137 21.1177 13.7159 20.7598 14.3093 20.3878C14.1276 21.1932 13.7192 21.9751 13.1505 22.5437ZM11.7818 20.0977L10.416 18.7317C11.4267 17.6197 11.389 16.5481 11.389 15.2963C11.389 14.8755 11.048 14.5345 10.6273 14.5345C9.45776 14.5345 8.3322 14.4718 7.1918 15.5077L5.88754 14.2034C9.44898 7.95836 13.5657 4.00453 18.1909 2.37639C18.5571 3.56121 19.2698 4.70278 20.2826 5.71566C21.2908 6.72392 22.427 7.43486 23.6066 7.80241C21.9689 12.4023 18.0162 16.5164 11.7818 20.0977Z" fill="#282828"/>
<path d="M19.2054 6.79276C17.7202 5.30777 15.3037 5.30777 13.8188 6.79276C12.3338 8.27791 12.3338 10.6944 13.8188 12.1793C15.3037 13.6643 17.7202 13.6645 19.2054 12.1793C20.6903 10.6944 20.6903 8.27791 19.2054 6.79276H19.2054ZM18.128 11.102C17.237 11.9931 15.787 11.9931 14.8961 11.102C14.0051 10.211 14.0051 8.7611 14.8961 7.87004C15.787 6.97923 17.2368 6.97903 18.128 7.87004C19.0191 8.7611 19.0191 10.211 18.128 11.102Z" fill="#282828"/>
</g>
<defs>
<clipPath id="clip0_3603_4552">
<rect width="26" height="26" fill="white"/>
</clipPath>
</defs>
</svg>
