<svg width="21" height="21" viewBox="0 0 21 21" fill="none" xmlns="http://www.w3.org/2000/svg">
<path d="M10.0129 12.5162C11.3954 12.5162 12.5161 11.3955 12.5161 10.013C12.5161 8.6305 11.3954 7.50977 10.0129 7.50977C8.63041 7.50977 7.50967 8.6305 7.50967 10.013C7.50967 11.3955 8.63041 12.5162 10.0129 12.5162Z" stroke="white" stroke-opacity="0.63" stroke-width="1.5" stroke-miterlimit="10" stroke-linecap="round" stroke-linejoin="round"/>
<path d="M1.66882 10.7471V9.27859C1.66882 8.4108 2.37807 7.69321 3.2542 7.69321C4.76448 7.69321 5.38194 6.62517 4.62263 5.31515C4.18874 4.56418 4.44741 3.58792 5.20672 3.15403L6.65025 2.32796C7.30943 1.93579 8.16053 2.16942 8.5527 2.82861L8.64448 2.98714C9.39545 4.29717 10.6304 4.29717 11.3897 2.98714L11.4815 2.82861C11.8736 2.16942 12.7247 1.93579 13.3839 2.32796L14.8275 3.15403C15.5868 3.58792 15.8454 4.56418 15.4115 5.31515C14.6522 6.62517 15.2697 7.69321 16.78 7.69321C17.6478 7.69321 18.3654 8.40246 18.3654 9.27859V10.7471C18.3654 11.6149 17.6561 12.3325 16.78 12.3325C15.2697 12.3325 14.6522 13.4006 15.4115 14.7106C15.8454 15.4699 15.5868 16.4378 14.8275 16.8717L13.3839 17.6978C12.7247 18.09 11.8736 17.8563 11.4815 17.1971L11.3897 17.0386C10.6387 15.7286 9.4038 15.7286 8.64448 17.0386L8.5527 17.1971C8.16053 17.8563 7.30943 18.09 6.65025 17.6978L5.20672 16.8717C4.44741 16.4378 4.18874 15.4616 4.62263 14.7106C5.38194 13.4006 4.76448 12.3325 3.2542 12.3325C2.37807 12.3325 1.66882 11.6149 1.66882 10.7471Z" stroke="white" stroke-opacity="0.63" stroke-width="1.5" stroke-miterlimit="10" stroke-linecap="round" stroke-linejoin="round"/>
</svg>
