<svg width="17" height="17" viewBox="0 0 17 17" fill="none" xmlns="http://www.w3.org/2000/svg">
<g clip-path="url(#clip0_9353_10763)">
<path d="M16.9543 6.51015C16.8233 6.10703 16.4321 5.82994 15.8809 5.74989L11.5096 5.11463L9.55477 1.15364C9.30824 0.654157 8.92381 0.367676 8.49999 0.367676C8.07618 0.367676 7.69175 0.654157 7.44525 1.15364L5.49045 5.1146L1.11916 5.74985C0.567909 5.82991 0.176671 6.10703 0.0456822 6.51008C-0.085273 6.91318 0.0683935 7.3673 0.467202 7.75608L3.63028 10.8392L2.88356 15.1929C2.78538 15.7656 2.95213 16.1081 3.10935 16.2945C3.29323 16.5126 3.56148 16.6327 3.8647 16.6327C4.09394 16.6327 4.33808 16.5655 4.5902 16.4329L8.49999 14.3774L12.4098 16.4328C12.662 16.5654 12.9061 16.6327 13.1354 16.6327H13.1354C13.4387 16.6327 13.7069 16.5126 13.8908 16.2945C14.048 16.1081 14.2148 15.7656 14.1166 15.1929L13.3697 10.8393L16.5328 7.75615C16.9317 7.36737 17.0853 6.91321 16.9543 6.51015Z" fill="white"/>
</g>
<defs>
<clipPath id="clip0_9353_10763">
<rect width="17" height="17" fill="white"/>
</clipPath>
</defs>
</svg>
