<svg width="569" height="743" viewBox="0 0 569 743" fill="none" xmlns="http://www.w3.org/2000/svg">
<path d="M0 21.9728C0 9.83755 9.83758 0 21.9728 0H546.05C558.185 0 568.023 9.83758 568.023 21.9728V720.189C568.023 732.324 558.185 742.162 546.05 742.162H21.9728C9.83757 742.162 0 732.324 0 720.189V21.9728Z" fill="url(#paint0_linear_8122_18945)" fill-opacity="0.13"/>
<path d="M21.9727 1.93848H546.05C557.114 1.93848 566.084 10.9082 566.084 21.9727V720.188C566.084 731.253 557.114 740.223 546.05 740.223H21.9727C10.9082 740.223 1.93848 731.253 1.93848 720.188V21.9727C1.93857 10.9083 10.9083 1.93858 21.9727 1.93848Z" stroke="url(#paint1_linear_8122_18945)" stroke-opacity="0.5" stroke-width="3.87756"/>
<rect x="12.5205" y="12.4385" width="543.146" height="48.7173" rx="8.29231" fill="url(#paint2_linear_8122_18945)" fill-opacity="0.2"/>
<circle cx="36.0541" cy="37.0082" r="5.9125" fill="#6789FE" fill-opacity="0.5"/>
<circle cx="52.4271" cy="37.0082" r="5.9125" fill="#6789FE" fill-opacity="0.5"/>
<circle cx="68.8002" cy="37.0082" r="5.9125" fill="#6789FE" fill-opacity="0.5"/>
<path d="M313.302 529.629C313.302 535.91 295.253 541 272.988 541C250.722 541 232.673 535.91 232.673 529.629C232.673 523.349 250.722 518.259 272.988 518.259C295.253 518.259 313.302 523.349 313.302 529.629Z" fill="#597CF9" fill-opacity="0.1"/>
<path d="M171.685 477.943C171.685 484.224 153.636 489.314 131.371 489.314C109.105 489.314 91.0557 484.224 91.0557 477.943C91.0557 471.662 109.105 466.572 131.371 466.572C153.636 466.572 171.685 471.662 171.685 477.943Z" fill="#597CF9" fill-opacity="0.1"/>
<path d="M454.921 480.01C454.921 486.291 436.872 491.381 414.607 491.381C392.341 491.381 374.292 486.291 374.292 480.01C374.292 473.73 392.341 468.64 414.607 468.64C436.872 468.64 454.921 473.73 454.921 480.01Z" fill="#597CF9" fill-opacity="0.1"/>
<path d="M522.112 460.37C522.112 464.938 509.154 468.64 493.169 468.64C477.183 468.64 464.225 464.938 464.225 460.37C464.225 455.802 477.183 452.101 493.169 452.101C509.154 452.101 522.112 455.802 522.112 460.37Z" fill="#597CF9" fill-opacity="0.1"/>
<path fill-rule="evenodd" clip-rule="evenodd" d="M174.822 176.109C167.908 177.094 131.494 181.833 131.472 181.798C123.393 182.868 115.292 183.972 107.18 184.991C105.507 185.2 105.452 186.12 105.625 187.42C108.604 209.79 111.596 232.161 114.493 254.542C114.79 256.819 115.605 257.54 117.883 257.175C122.538 256.432 127.225 255.899 131.899 255.281C149.216 252.987 166.533 250.696 183.848 248.4C187.008 247.981 187.006 247.974 186.579 244.771C185.928 239.867 185.278 234.964 184.626 230.061C184.254 227.253 183.881 224.443 183.443 221.125C182.365 222.183 181.759 222.884 181.05 223.453C176.678 226.96 171.847 227.62 166.729 225.438C161.903 223.38 158.729 218.23 158.885 213.099C159.211 202.464 169.593 196.466 179.063 201.424C179.552 201.68 180.033 202.428 180.664 201.931C181.136 201.558 180.759 200.922 180.69 200.409C179.725 193.053 178.673 185.705 177.828 178.336C177.585 176.213 176.728 175.839 174.822 176.109Z" fill="#5579F8"/>
<path d="M78.4494 258.122C78.4494 258.122 78.4494 250.878 75.0696 247.497L72.655 248.946C72.655 248.946 69.2741 242.186 66.8596 243.151C64.4451 244.117 54.7859 250.396 77.0014 263.918" fill="#FFBE9D"/>
<path d="M116.812 451.05C116.812 451.05 113.666 457.379 114.678 460.414C114.678 460.414 117.714 464.463 122.268 464.967C122.268 464.967 127.328 479.135 135.929 477.111C135.929 477.111 138.459 471.04 132.387 464.463C126.317 457.884 125.81 451.812 125.81 451.812" fill="#5579F8"/>
<path d="M136.186 349.879C136.186 349.879 142.351 390.966 140.466 403.533C140.466 403.533 131.787 442.252 124.876 454.193C124.876 454.193 117.963 454.193 116.706 451.051C115.451 447.908 120.79 413.503 125.818 402.192C125.818 402.192 114.822 376.274 115.451 362.448" fill="#1A1C20"/>
<path d="M57.1999 405.418C57.1229 405.487 52.4699 411.743 51.4187 411.706L44.8613 408.608C39.9058 408.538 36.0389 409.036 32.3754 405.281C31.3264 404.203 25.2275 396.86 29.5024 396.382C29.5024 396.382 33.9158 396.859 37.7794 397.405C41.642 397.955 45.6485 401.33 45.6485 401.33L55.3736 401.529" fill="#5579F8"/>
<path d="M121.867 365.834C121.867 365.834 116.889 374.35 84.6284 372.736C84.6284 372.736 79.7884 390.48 55.5939 406.611L48.335 400.964C48.335 400.964 70.9165 362.253 82.2084 357.414C82.2084 357.414 111.756 349.392 119.015 351.813C119.015 351.813 125.9 365.026 121.867 365.834Z" fill="#1A1C20"/>
<path d="M171.495 272.931C175.036 249.43 169.935 253.293 169.24 252.81C167.157 251.36 163.928 253.292 163.928 253.292C163.445 275.024 142.519 302.551 142.519 302.551C142.519 302.551 128.997 303.838 127.065 302.551C125.133 301.263 113.543 302.551 113.543 302.551C109.037 294.824 78.9322 256.189 78.9322 256.189C77.0004 254.258 73.1367 264.399 73.1367 264.399C76.3561 274.703 101.308 307.702 101.308 307.702C101.308 307.702 105.815 310.277 109.035 323.805C110.659 330.628 108.83 337.076 106.785 343.57C104.861 349.682 102.342 353.376 107.683 357.978C114.105 363.509 133.586 370.21 139.904 364.886C146.194 359.584 144.388 339.671 146.207 332.154C147.593 326.43 148.781 320.619 149.602 314.786C159.905 308.348 170.721 278.066 171.495 272.931Z" fill="#5579F8"/>
<path opacity="0.2" d="M170.201 252.837C170.075 292.076 146.124 308.229 146.626 312.237C147.186 316.718 143.265 330.16 143.265 330.16C146.066 353.685 136.544 362.087 136.544 362.087C125.88 364.931 112.741 358.301 104.559 353.076C104.811 354.699 105.708 356.277 107.683 357.98C114.106 363.512 133.587 370.212 139.904 364.888C146.195 359.586 144.388 339.673 146.208 332.156C147.593 326.432 148.782 320.621 149.602 314.788C159.904 308.349 170.721 278.067 171.495 272.932C174.255 254.608 171.762 252.92 170.201 252.837Z" fill="#8C523B"/>
<path d="M142.089 298.784C142.073 301.324 137.125 304.46 135.432 301.804L138.998 295.898C140.529 294.213 142.097 297.192 142.089 298.784Z" fill="#F3A082"/>
<path d="M116.028 295.251L119.376 301.287C117.583 303.877 112.758 300.555 112.833 298.023C112.885 296.426 114.564 293.513 116.028 295.251Z" fill="#F3A082"/>
<path d="M113.811 286.794C113.412 279.661 123.909 275.782 128.473 275.656V275.649V275.653V275.656C131.492 275.893 141.453 280.184 140.781 287.301C140.781 287.301 141.038 311.461 125.845 311.672L125.836 311.789L125.881 311.198V311.201L125.844 311.671C113.327 310.758 113.811 286.794 113.811 286.794Z" fill="#FFBE9D"/>
<path d="M129.303 307.9C127.235 308.934 125.168 308.934 123.531 307.641" stroke="#013148" stroke-width="0.65981" stroke-miterlimit="10" stroke-linecap="round" stroke-linejoin="round"/>
<path d="M128.011 298.901C127.967 300.964 129.287 302.989 129.305 303.528C129.322 304.067 127.818 305.198 126.63 304.729" stroke="#013148" stroke-width="0.65981" stroke-miterlimit="10" stroke-linecap="round" stroke-linejoin="round"/>
<path d="M133.339 297.909C133.322 298.656 132.847 299.256 132.284 299.249C131.712 299.241 131.263 298.625 131.281 297.879C131.298 297.132 131.773 296.531 132.336 296.539C132.908 296.547 133.357 297.163 133.339 297.909Z" fill="#013148"/>
<path d="M130.734 294.515C132.573 294.184 133.708 294.392 134.931 294.946" stroke="#013148" stroke-width="1.31962" stroke-miterlimit="10" stroke-linecap="round" stroke-linejoin="round"/>
<path d="M121.592 297.695C121.575 298.442 122.023 299.057 122.595 299.065C123.167 299.073 123.642 298.472 123.651 297.726C123.668 296.979 123.22 296.363 122.648 296.356C122.076 296.348 121.601 296.948 121.592 297.695Z" fill="#013148"/>
<path d="M124.734 294.108C122.526 293.769 121.303 293.969 120.001 294.654" stroke="#013148" stroke-width="1.31962" stroke-miterlimit="10" stroke-linecap="round" stroke-linejoin="round"/>
<path d="M139.149 280.281C139.149 280.281 136.349 287.752 113.475 294.285C113.475 294.285 108.806 288.685 113.007 283.549C113.007 283.549 111.606 274.679 115.341 272.344C115.341 272.344 129.347 265.809 140.549 272.811C140.549 272.811 142.416 279.348 139.149 280.281Z" fill="#1A1C20"/>
<path d="M140.082 275.146C140.082 275.146 148.485 279.815 140.082 296.154C140.082 296.154 135.415 288.217 136.348 281.682" fill="#1A1C20"/>
<path d="M154.623 195.966C154.714 197.361 153.623 198.523 152.305 198.61L143.546 199.186L146.154 238.802C146.246 240.197 145.231 241.354 143.836 241.446C142.441 241.539 141.282 240.525 141.192 239.129L138.583 199.513L129.824 200.09C128.429 200.18 127.272 199.166 127.18 197.772C127.087 196.377 128.101 195.22 129.495 195.128L151.978 193.647C153.296 193.561 154.532 194.57 154.623 195.966Z" fill="white"/>
<path d="M164.949 255.359C164.949 255.359 150.575 248.417 153.973 247.569C156.199 247.013 160.582 249.139 160.582 249.139L168.321 250.097C168.321 250.097 177.259 251.466 170.729 254.946" fill="#FFBE9D"/>
<path fill-rule="evenodd" clip-rule="evenodd" d="M400.166 247.759C399.513 242.855 398.863 237.952 398.212 233.047C397.841 230.239 397.466 227.43 397.029 224.111C395.952 225.169 395.346 225.871 394.634 226.439C390.265 229.947 385.433 229.486 380.315 227.305C375.489 225.247 373.434 221.217 373.592 216.085C373.918 205.45 383.18 199.452 392.649 204.41C393.138 204.666 393.62 205.412 394.25 204.917C394.724 204.544 394.344 203.907 394.275 203.395C393.312 196.038 392.258 188.689 391.414 181.321C391.171 179.2 390.314 178.824 388.407 179.096C381.493 180.081 345.08 184.82 345.058 184.785C336.978 185.855 328.877 186.96 320.763 187.979C319.091 188.188 319.035 189.108 319.21 190.406C320.221 198.008 321.233 205.611 322.243 213.213C324.585 211.392 327.52 211.416 330.715 211.416C338.344 211.416 343.411 216.482 343.411 224.112C343.411 231.741 338.345 237.927 330.715 237.927C328.818 237.927 327.012 237.543 325.365 236.85C326.272 243.742 327.186 250.634 328.078 257.529C328.375 259.806 329.19 260.527 331.469 260.162C336.122 259.419 340.811 258.886 345.485 258.268C362.801 255.974 380.119 253.683 397.436 251.387C400.595 250.969 400.593 250.961 400.166 247.759Z" fill="#5579F8"/>
<path d="M347.15 245.202C347.049 244.53 354.022 203.685 354.595 200.389C354.723 199.224 355.692 198.544 356.661 198.397C357.632 198.252 358.682 198.627 359.225 199.691C359.608 200.702 361.852 204.946 364.596 210.489C370.662 222.33 379.481 239.788 379.561 240.309C379.741 241.505 378.726 242.881 377.531 243.061C376.56 243.206 375.413 242.694 374.956 241.692L367.739 227.277L354.596 229.259C353.743 234.735 352.745 239.774 351.881 245.175C351.664 246.277 350.869 247.083 349.898 247.23C348.558 247.434 347.331 246.396 347.15 245.202ZM355.445 224.244L365.377 222.746L358.138 208.18L355.445 224.244Z" fill="white"/>
<path d="M359.612 319.024L368.291 316.47L367.712 296.144L361.656 296.557L359.612 319.024Z" fill="#FFA97D"/>
<path d="M357.956 273.205L372.189 273.45L376.964 283.357C376.837 292.269 375.37 306.847 365.283 307.324C365.072 307.338 364.079 307.333 363.872 307.317C354.075 307.311 352.434 292.268 352.306 283.357L357.956 273.205Z" fill="#FFBE9D"/>
<path d="M367.057 301.696C364.989 302.73 362.922 302.73 361.285 301.436" stroke="#013148" stroke-width="0.65981" stroke-miterlimit="10" stroke-linecap="round" stroke-linejoin="round"/>
<path d="M365.762 292.699C365.718 294.762 367.038 296.787 367.056 297.326C367.073 297.864 365.569 298.996 364.381 298.526" stroke="#013148" stroke-width="0.65981" stroke-miterlimit="10" stroke-linecap="round" stroke-linejoin="round"/>
<path d="M371.09 291.705C371.073 292.452 370.598 293.052 370.035 293.045C369.463 293.037 369.014 292.421 369.032 291.674C369.049 290.928 369.524 290.327 370.087 290.335C370.659 290.343 371.108 290.959 371.09 291.705Z" fill="#013148"/>
<path d="M368.485 288.312C370.324 287.981 371.459 288.189 372.682 288.743" stroke="#013148" stroke-width="1.31962" stroke-miterlimit="10" stroke-linecap="round" stroke-linejoin="round"/>
<path d="M359.346 291.492C359.329 292.239 359.777 292.854 360.349 292.862C360.921 292.87 361.396 292.269 361.405 291.523C361.422 290.776 360.974 290.16 360.402 290.152C359.83 290.145 359.355 290.745 359.346 291.492Z" fill="#013148"/>
<path d="M362.485 287.904C360.277 287.565 359.054 287.765 357.752 288.45" stroke="#013148" stroke-width="1.31962" stroke-miterlimit="10" stroke-linecap="round" stroke-linejoin="round"/>
<path d="M355.652 319.586C355.674 314.813 340.446 304.331 333.597 295.877C333.597 295.877 338.286 284.377 338.702 262.345L331.669 265.55C329.121 276.263 321.814 289.391 326.118 299.498C326.118 299.498 338.648 322.185 351.037 327.633C363.425 333.079 355.637 322.626 355.652 319.586Z" fill="#FFBE9D"/>
<path d="M377.716 317.968C376.783 313.289 389.731 300.094 394.838 290.486C394.838 290.486 391.381 282.019 386.767 260.473L390.941 260.348C395.488 270.378 405.166 281.869 402.871 292.611C402.871 292.611 394.903 317.272 383.782 324.986C372.661 332.698 378.31 320.951 377.716 317.968Z" fill="#FFBE9D"/>
<path d="M392.312 456.054C392.312 456.054 399.018 465.444 401.033 468.129C403.044 470.811 405.727 481.545 408.41 478.862C411.093 476.179 411.093 470.14 407.069 464.105C403.044 458.068 403.713 454.715 403.713 454.715C403.713 454.715 400.361 452.703 394.994 452.703" fill="#5579F8"/>
<path d="M409.849 449.889C409.849 449.889 415.213 460.108 416.84 463.04C418.467 465.975 419.659 476.972 422.683 474.679C425.708 472.388 426.531 466.409 423.367 459.878C420.206 453.348 421.327 450.118 421.327 450.118C421.327 450.118 418.282 447.667 412.966 446.934" fill="#5579F8"/>
<path d="M356.09 368.859C356.09 368.859 354.078 407.764 363.468 419.166C363.468 419.166 389.626 456.726 393.651 458.739C393.651 458.739 399.688 454.715 398.347 452.03C397.006 449.348 383.591 419.164 376.212 417.822C376.212 417.822 374.2 372.883 369.505 364.835" fill="#1A1C20"/>
<path d="M376.213 417.822C376.213 417.822 374.2 372.883 369.506 364.835L367.494 370.201C367.601 376.777 364.794 411.57 374.033 421.402C374.033 421.402 381.713 429.314 389.717 437.212C385.445 428.08 380.159 418.539 376.213 417.822Z" fill="#01354E"/>
<path d="M367.684 365.619C367.684 365.619 367.942 410.639 378.057 421.403C378.057 421.403 406.887 451.109 411.035 452.853C411.035 452.853 415.59 450.539 414.075 447.947C412.561 445.36 395.734 413.987 388.285 413.129C388.285 413.129 396.333 358.801 380.806 360.726" fill="#1A1C20"/>
<path d="M380.548 328.888C380.548 328.888 391.555 319.984 392.897 314.618C392.897 314.618 384.318 309.799 385.661 303.764C373.667 310.519 364.785 310.883 351.492 306.958C348.681 306.128 345.145 304.278 341.853 303.24C342.484 303.439 336.454 313.046 336.453 313.451C336.427 317.879 341.226 319.333 343.612 323.004C350.73 333.955 354.246 351.229 355.419 364.164L356.088 371.541C356.088 371.541 386.945 364.833 387.615 361.48C387.615 361.48 384.26 353.431 380.906 348.067C377.555 342.699 378.533 338.277 380.548 328.888Z" fill="#5579F8"/>
<path d="M372.651 284.012C377.319 289.864 376.898 296.483 374.075 303.03C393.355 304.36 387.754 261.952 365.887 263.209C360.077 263.543 352.886 269.142 357.315 274.813C360.564 278.973 368.726 279.091 372.651 284.012Z" fill="#1A1C20"/>
<path d="M361.201 267.384C351.277 267.88 344.046 274.835 346.86 285.887C347.707 289.211 349.172 293.546 349.386 297.113C349.542 299.726 349.305 300.928 348.865 303.221C349.826 303.754 352.4 304.431 353.426 304.599C353.88 304.08 354.338 303.618 354.877 303.187C357.367 301.191 349.525 285.608 355.959 279.953C360.104 276.313 366.926 274.68 372.191 273.45" fill="#1A1C20"/>
<path d="M331.669 265.549C331.669 265.549 325.957 252.179 330.793 249.415C330.793 249.415 341.158 244.579 339.777 249.415L336.32 253.561C336.32 253.561 335.629 256.326 337.703 257.017C339.777 257.708 338.319 260.761 338.702 262.344C339.087 263.928 334.938 270.147 334.938 270.147" fill="#FFBE9D"/>
<path d="M392.023 264.512C392.023 264.512 397.738 251.143 392.9 248.378C392.9 248.378 382.536 243.541 383.918 248.378L387.373 252.524C387.373 252.524 388.064 255.289 385.992 255.98C383.918 256.671 385.376 259.724 384.992 261.308C384.608 262.89 388.755 269.11 388.755 269.11" fill="#FFBE9D"/>
<path d="M244.574 265.363C244.574 265.363 249.609 260.754 249.806 256.255L247.263 255.498C247.263 255.498 249.81 248.846 247.603 247.783C245.394 246.719 234.887 244.002 239.625 268.045" fill="#FFBE9D"/>
<path fill-rule="evenodd" clip-rule="evenodd" d="M314.224 228.8C314.719 224.718 313.283 221.006 309.813 218.913C306.231 216.753 302.112 215.519 297.965 217.927C296.376 218.849 294.816 219.313 293.236 218.104C291.784 216.99 292.095 215.476 292.343 213.891C293.57 206.14 295.12 198.459 296.953 190.83C297.526 188.445 296.859 187.498 294.364 186.992C286.751 185.453 279.137 183.91 271.519 182.411C269.863 182.086 250 178.081 248.237 177.723C241.102 176.272 233.961 174.842 226.82 173.418C222.676 172.591 222.616 172.643 221.762 176.879C220.26 184.334 218.751 191.788 217.257 199.246C216.972 200.666 216.466 201.858 214.895 202.299C213.254 202.759 212.081 202.109 211.07 200.892C210.558 200.271 210.017 199.662 209.427 199.115C206.226 196.143 201.173 195.426 197.215 197.356C193.067 199.379 190.56 203.659 190.865 208.2C191.166 212.695 194.164 216.438 198.517 217.827C201.674 218.834 204.678 218.708 207.602 216.999C208.878 216.254 210.253 215.831 211.693 216.868C213.189 217.946 213.248 219.315 212.923 220.954C212.323 223.962 211.892 227.005 211.325 230.023C210.264 235.666 209.156 241.302 208.071 246.939C208.187 247.11 208.307 247.28 208.426 247.448C208.585 247.528 208.745 247.608 208.905 247.687C217.391 249.356 225.877 251.022 234.362 252.693C235.917 252.998 255.489 256.71 257.433 257.451C264.738 258.924 272.04 260.395 279.346 261.867C279.666 261.933 279.993 261.999 280.316 262.065C282.575 262.346 283 260.826 283.266 259.101C284.508 251.026 286.138 243.024 288.142 235.106C288.817 232.43 291.631 231.73 293.611 233.653C294.131 234.157 294.547 234.77 295.059 235.28C298.34 238.531 302.311 239.539 306.646 238.243C311.213 236.875 313.663 233.421 314.224 228.8Z" fill="#5579F8"/>
<path d="M264.501 497.253C264.582 497.334 268.155 501.788 268.155 502.968L264.932 510.439C265.042 515.997 265.744 520.311 261.678 524.566C260.509 525.783 252.509 532.897 251.809 528.123C251.809 528.123 252.175 523.159 252.641 518.803C253.109 514.452 256.739 509.836 256.739 509.836L256.591 498.922" fill="#1A1C20"/>
<path d="M283.661 483.7C283.591 483.79 280.568 488.636 280.708 489.808L284.79 496.846C285.339 502.376 285.151 506.744 289.691 510.487C290.997 511.557 299.781 517.677 299.912 512.853C299.912 512.853 298.963 507.969 297.982 503.698C297.002 499.433 292.853 495.278 292.853 495.278L291.712 484.424" fill="#1A1C20"/>
<path d="M247.225 370.935C247.225 370.935 254.859 361.664 264.129 368.753C269.162 372.603 272.096 377.409 273.909 381.44C275.954 378.299 278.358 377.312 281.034 380.75C281.034 380.75 301.499 419.098 298.226 435.458L291.019 487.392C291.019 487.392 283.344 495.248 281.796 485.493C278.422 464.226 279.271 449.409 282.543 440.684C285.324 433.27 270.24 419.358 267.424 411.273C267.446 419.732 269.847 433.962 265.366 449.459C272.596 480.702 266.75 481.26 264.62 500.428C264.62 500.428 257.294 502.063 255.658 500.428C255.658 500.428 248.996 462.244 251.178 451.885C251.178 451.885 245.044 393.837 247.225 370.935Z" fill="#5579F8"/>
<g opacity="0.3">
<path d="M282.543 440.685C279.271 449.409 278.422 464.227 281.795 485.494C282.546 490.228 284.742 490.81 286.801 490.159C283.767 476.994 282.851 450.033 282.615 440.438C282.59 440.52 282.574 440.606 282.543 440.685Z" fill="#232A43"/>
<path d="M264.62 500.431C266.75 481.261 272.596 480.704 265.366 449.461C269.847 433.964 267.446 419.734 267.424 411.275C267.424 411.275 263.872 429.484 262.379 440.686C260.886 451.888 263.126 458.61 263.126 458.61C268.535 477.843 261.855 495.132 259.039 501.151C261.628 501.095 264.62 500.431 264.62 500.431Z" fill="#232A43"/>
</g>
<path d="M305.265 396.776C305.265 396.776 305.677 403.308 308.917 406.167L311.014 404.723C311.014 404.723 314.447 410.629 316.57 409.621C318.693 408.611 327.046 402.401 306.242 391.468" fill="#FFBE9D"/>
<path d="M282.594 377.434L285.532 381.128L288.893 392.89C288.893 392.89 248.958 404.192 246.885 398.491C246.885 398.491 243.203 359.293 242.686 349.446C242.167 339.597 238.02 321.976 238.02 321.976C238.02 321.976 232.837 271.182 238.02 261.335L247.35 263.926C247.35 263.926 246.831 291.915 248.385 299.689C249.94 307.462 250.459 315.237 254.605 328.714C254.605 328.714 281.037 329.231 285.185 335.451C289.331 341.67 300.094 369.366 300.094 369.366C300.094 369.366 309.545 386.244 311.1 393.499C311.1 393.499 309.026 399.201 305.918 398.684C302.807 398.165 291.922 383.652 286.74 372.25C281.557 360.848 282.075 360.848 282.075 362.402" fill="#1A1C20"/>
<path opacity="0.3" d="M269.102 339.866C269.102 339.866 274.937 336.946 278.511 331.732C270.688 329.409 258.885 328.853 255.535 328.74C257.881 335.309 262.01 340.11 269.102 339.866Z" fill="white" fill-opacity="0.08"/>
<path opacity="0.3" d="M237.313 314.152C237.708 318.913 238.02 321.976 238.02 321.976C238.02 321.976 242.167 339.598 242.686 349.446C242.871 352.976 243.464 360.276 244.147 368.19C245.174 360.553 247.448 340.472 244.459 330.907C242.914 325.964 240.092 319.748 237.313 314.152Z" fill="white" fill-opacity="0.08"/>
<path opacity="0.3" d="M288.892 392.889L285.532 381.127L282.594 377.433L282.076 362.401C282.076 360.847 281.557 360.847 286.741 372.25C291.923 383.651 302.808 398.164 305.919 398.683C307.604 398.964 308.982 397.416 309.893 395.941C300.404 387.354 288.519 362.271 288.519 362.271L277.317 351.815L279.558 373.472L272.837 385.421L281.036 380.75C285.812 380.287 286.54 388.245 286.502 393.546C288 393.141 288.892 392.889 288.892 392.889Z" fill="white" fill-opacity="0.08"/>
<path d="M278.97 318.158C280.598 316.361 282.27 319.536 282.261 321.234C282.245 323.936 276.971 327.281 275.169 324.453" fill="#EB976C"/>
<path d="M254.49 317.464C252.93 315.611 251.14 318.719 251.087 320.419C251.003 323.117 256.147 326.657 258.057 323.898" fill="#EB976C"/>
<path d="M252.422 308.457C251.996 300.852 263.183 296.723 268.044 296.586V296.58V296.583V296.587C271.263 296.841 281.878 301.412 281.161 308.993C281.161 308.993 281.435 334.743 265.245 334.965L265.234 335.091C265.234 335.091 265.284 334.461 265.284 334.459C265.284 334.462 265.283 334.466 265.283 334.466L265.244 334.965C251.903 333.99 252.422 308.457 252.422 308.457Z" fill="#FFBE9D"/>
<path d="M268.849 328.57C266.781 329.604 264.714 329.604 263.077 328.31" stroke="#013148" stroke-width="0.65981" stroke-miterlimit="10" stroke-linecap="round" stroke-linejoin="round"/>
<path d="M267.555 319.573C267.511 321.636 268.831 323.661 268.848 324.2C268.866 324.738 267.362 325.87 266.174 325.4" stroke="#013148" stroke-width="0.65981" stroke-miterlimit="10" stroke-linecap="round" stroke-linejoin="round"/>
<path d="M272.885 318.578C272.868 319.325 272.393 319.925 271.83 319.918C271.258 319.91 270.809 319.294 270.827 318.548C270.844 317.801 271.319 317.2 271.882 317.208C272.454 317.216 272.903 317.832 272.885 318.578Z" fill="#013148"/>
<path d="M270.279 315.185C272.118 314.854 273.253 315.062 274.476 315.616" stroke="#013148" stroke-width="1.31962" stroke-miterlimit="10" stroke-linecap="round" stroke-linejoin="round"/>
<path d="M261.138 318.365C261.121 319.112 261.569 319.727 262.141 319.735C262.713 319.743 263.188 319.142 263.197 318.396C263.214 317.649 262.766 317.033 262.194 317.025C261.622 317.018 261.147 317.618 261.138 318.365Z" fill="#013148"/>
<path d="M264.279 314.777C262.071 314.438 260.848 314.638 259.546 315.323" stroke="#013148" stroke-width="1.31962" stroke-miterlimit="10" stroke-linecap="round" stroke-linejoin="round"/>
<path d="M278.894 300.708C278.894 300.708 275.874 308.467 253 315C253 315 248.551 309.111 252.753 303.976C252.753 303.976 251.352 295.106 255.087 292.771C255.087 292.771 269.092 286.236 280.295 293.238C280.295 293.238 282.162 299.774 278.894 300.708Z" fill="#1A1C20"/>
<path d="M279.828 295.573C279.828 295.573 288.903 300.161 280.5 316.5C280.5 316.5 275.16 308.644 276.094 302.109" fill="#1A1C20"/>
<path d="M239.262 235.158L245.987 193.175C246.184 191.956 247.445 190.907 248.816 191.127L268.094 194.217C269.465 194.435 270.337 195.825 270.141 197.045C269.92 198.417 268.683 199.313 267.313 199.094L250.472 196.396L248.153 210.873L258.669 212.558C259.962 212.765 260.912 214.166 260.715 215.387C260.495 216.759 259.181 217.643 257.887 217.434L247.372 215.749L244.527 233.502L261.367 236.2C262.738 236.42 263.634 237.656 263.413 239.029C263.218 240.247 261.957 241.295 260.585 241.077L241.308 237.986C239.938 237.768 239.066 236.377 239.262 235.158Z" fill="white"/>
<path d="M247.145 262.546C248.355 260.871 250.804 258.066 251.672 256.262C253.929 251.567 247.262 256.535 247.262 256.535L246.073 260.892C246.881 261.013 246.449 262.163 247.145 262.546Z" fill="#FFBE9D"/>
<path d="M482.55 263.969C482.55 263.969 475.504 259.217 474.436 253.712L477.426 252.312C477.426 252.312 473.071 244.59 475.593 242.877C478.117 241.161 490.555 235.889 489.135 266.357" fill="#FFBE9D"/>
<path fill-rule="evenodd" clip-rule="evenodd" d="M499.511 208.853C499.633 201.457 500.068 194.085 500.774 186.723C500.994 184.421 500.246 183.625 497.852 183.482C490.544 183.048 483.235 182.613 475.928 182.218C474.341 182.133 455.277 181.013 453.585 180.911C446.734 180.498 439.882 180.105 433.029 179.716C429.053 179.491 429.004 179.546 428.767 183.613C428.346 190.768 427.92 197.923 427.509 205.08C427.429 206.442 427.114 207.622 425.705 208.241C424.235 208.885 423.056 208.433 421.951 207.43C421.39 206.918 420.805 206.42 420.183 205.988C416.805 203.637 411.995 203.634 408.557 205.956C404.953 208.391 403.176 212.716 404.059 216.913C404.932 221.069 408.223 224.166 412.466 224.888C415.545 225.413 418.332 224.899 420.837 222.918C421.927 222.056 423.155 221.48 424.636 222.258C426.174 223.067 426.412 224.336 426.323 225.907C426.16 228.795 426.158 231.691 426.026 234.582C425.779 239.988 425.489 245.394 425.218 250.798C425.348 250.941 425.484 251.085 425.617 251.226C425.774 251.28 425.936 251.332 426.094 251.385C434.231 251.824 442.374 252.26 450.512 252.701C452.001 252.783 470.756 253.668 472.669 254.102C479.68 254.513 486.688 254.924 493.701 255.336C494.01 255.354 494.322 255.373 494.633 255.392C496.779 255.356 496.974 253.882 496.993 252.236C497.092 244.54 499.488 210.364 499.511 208.853Z" fill="#5579F8"/>
<path d="M446.239 239.489L446.824 197.443C446.844 196.072 447.925 195.019 449.297 195.038C450.363 195.053 451.493 196.059 451.784 197.054V196.978L464.095 232.044C468.522 220.448 473.184 208.553 477.533 197.032V197.107C477.93 196.046 478.775 195.448 479.917 195.465C481.137 195.484 482.341 196.564 482.324 197.936L481.735 239.984C481.717 241.355 480.485 242.405 479.265 242.388C477.894 242.369 476.843 241.288 476.862 239.916L477.255 211.58C473.62 221.055 470.063 230.224 466.501 239.695C466.259 240.836 465.255 241.811 464.037 241.796C463.048 241.781 462.143 241.083 461.774 240.01V240.088C457.524 227.915 455.76 223.319 451.512 211.069L451.115 239.557C451.096 240.929 450.015 241.98 448.645 241.961C447.274 241.942 446.222 240.861 446.239 239.489Z" fill="white"/>
<path d="M484.516 432.821C484.516 432.821 495.421 430.969 495.742 432.275C496.062 433.582 500.036 454.214 494.924 460.462C494.924 460.462 487.029 459.909 487.391 450.125C487.391 450.125 488.471 439.882 484.629 437.781" fill="#1A1C20"/>
<path d="M515.222 392.106C515.222 392.106 523.02 384.265 524.043 385.143C525.061 386.02 540.283 400.508 539.748 408.562C539.748 408.562 533.001 412.7 527.612 404.521C527.612 404.521 522.543 395.557 518.194 396.079" fill="#1A1C20"/>
<path d="M428.733 327.243C428.733 327.243 429.774 320.792 427.249 317.295L424.888 318.237C424.888 318.237 422.849 311.727 420.56 312.241C418.27 312.755 408.766 316.958 426.609 332.197" fill="#FFBE9D"/>
<path d="M435.353 288.864C435.353 288.864 439.251 334.438 462.717 325.436C465.117 324.514 484.921 322.102 491.279 317.558C497.633 313.015 508.26 302.298 519.672 313.468C519.672 313.468 519.159 304.11 504.624 303.369C504.624 303.369 507.263 299.279 511.672 299.369C511.672 299.369 505.124 292.003 494.043 299.005C482.964 306.009 477.349 270.263 461.167 276.631" fill="#1A1C20"/>
<path d="M445.844 303.302C445.844 303.302 443.252 305.272 445.226 307.863C447.198 310.453 451.355 308.225 451.355 308.225" fill="#FFAA80"/>
<path d="M465.823 295.799C465.823 295.799 469.069 295.578 469.289 298.826C469.51 302.075 464.913 303.134 464.913 303.134" fill="#FFAA80"/>
<path d="M469.802 321.314L461.021 321.955L454.588 303.233L460.252 301.534L469.802 321.314Z" fill="#FFAA80"/>
<path d="M455.63 278.98L442.739 284.079L441.777 294.742C444.947 302.82 451.273 315.607 460.63 312.589C460.828 312.534 461.728 312.187 461.915 312.101C470.84 308.743 467.189 294.468 464.254 286.3L455.63 278.98Z" fill="#FFBE9D"/>
<path d="M462.258 308.982C460.674 310.665 458.733 311.378 456.751 310.728" stroke="#013148" stroke-width="0.65981" stroke-miterlimit="10" stroke-linecap="round" stroke-linejoin="round"/>
<path d="M457.945 300.983C458.615 302.935 460.551 304.38 460.754 304.88C460.956 305.38 459.934 306.961 458.657 306.929" stroke="#013148" stroke-width="0.65981" stroke-miterlimit="10" stroke-linecap="round" stroke-linejoin="round"/>
<path d="M462.603 298.212C462.844 298.919 462.605 299.647 462.073 299.833C461.534 300.023 460.901 299.6 460.66 298.893C460.419 298.186 460.658 297.459 461.189 297.272C461.728 297.082 462.362 297.505 462.603 298.212Z" fill="#013148"/>
<path d="M458.987 295.923C460.598 294.979 461.735 294.783 463.074 294.882" stroke="#013148" stroke-width="1.31962" stroke-miterlimit="10" stroke-linecap="round" stroke-linejoin="round"/>
<path d="M451.502 302.058C451.743 302.765 452.377 303.188 452.916 302.999C453.456 302.809 453.695 302.081 453.445 301.377C453.205 300.67 452.571 300.247 452.032 300.437C451.492 300.627 451.253 301.354 451.502 302.058Z" fill="#013148"/>
<path d="M453.214 297.608C451.024 298.051 449.945 298.66 448.959 299.752" stroke="#013148" stroke-width="1.31962" stroke-miterlimit="10" stroke-linecap="round" stroke-linejoin="round"/>
<path d="M465.952 278.683C448.777 264.576 435.894 283.848 435.35 288.864C434.811 293.874 438.452 298.408 438.452 298.408C444.503 298.497 452.891 295.413 459.337 292.557L459.111 286.612L461.576 291.537C465.898 289.523 468.906 287.849 468.906 287.849C469.315 283.945 465.952 278.683 465.952 278.683Z" fill="#1A1C20"/>
<path d="M519.768 392.477C503.607 389.443 490.601 392.828 484.114 395.111C486.361 378.966 489.117 345.252 475.685 331.392L461.834 334.292C461.834 334.292 454.589 351.624 452.702 361.903C451.193 370.116 440.631 390.996 439.34 404.478L439.139 404.56C439.156 405.16 439.183 405.748 439.212 406.33C439.162 408.04 439.307 409.588 439.665 410.947C440.241 414.781 441.323 417.925 443.18 419.844C443.18 419.844 464.573 438.587 486.59 439.487L488.681 433.198C488.681 433.198 467.238 418.213 457.255 412.854C457.887 413.022 458.516 413.206 459.134 413.409C457.605 411.788 458.609 410.256 457.437 409.167C457.437 409.167 464.843 386.726 465.553 382.245C465.553 382.245 465.379 406.408 470.592 411.268C471.062 411.268 471.534 411.319 472.013 411.396C472.755 412.14 473.496 412.629 474.227 412.771C474.227 412.771 518.016 404.778 522.744 396.707C522.746 396.71 523.068 393.097 519.768 392.477Z" fill="#5579F8"/>
<g opacity="0.3">
<path d="M465.68 378.037C465.724 377.784 465.753 377.548 465.762 377.331C465.762 377.331 465.731 377.595 465.68 378.037Z" fill="#F2899C"/>
</g>
<path d="M485.244 327.229C484.663 325.07 484.311 322.962 484.295 320.8C484.056 320.268 483.82 319.749 483.607 319.266C482.139 315.954 483.283 313.121 485.436 311.393C478.338 308.654 476.106 309.041 476.106 309.041C476.106 309.041 458.46 313.703 451.166 320.873C443.875 328.044 436.099 341.554 436.099 341.554L428.733 327.243C428.733 327.243 423.588 323.922 422.185 327.863C420.781 331.802 429.113 356.508 433.823 359.075C433.823 359.075 445.574 354.848 451.855 336.806C451.855 336.806 453.793 347.56 451.754 356.605C449.715 365.647 445.902 370.142 449.148 371.004C452.392 371.865 461.261 355.53 485.176 365.41C490.882 367.766 485.66 346.19 486.069 339.231C486.478 332.274 484.78 326.997 484.78 326.997C484.938 327.081 485.086 327.15 485.244 327.229Z" fill="#1A1C20"/>
<path opacity="0.1" d="M485.246 327.227C484.918 326.012 484.662 324.813 484.5 323.613C483.159 322.882 482.298 322.368 482.298 322.368L481.676 330.55C481.676 330.55 483.088 346.586 482.529 355.299C481.969 364.012 470.61 359.452 470.61 359.452L475.725 361.531L476.603 362.798C479.223 363.29 482.069 364.125 485.175 365.409C490.881 367.764 485.659 346.189 486.068 339.23C486.477 332.272 484.78 326.996 484.78 326.996C484.939 327.078 485.087 327.148 485.246 327.227Z" fill="#232A43"/>
<path d="M488.762 258.977C488.762 258.977 481.491 261.715 482.213 263.55C482.932 265.384 486.627 284.685 488.548 287.962C488.515 287.906 485.056 294.948 484.793 295.47C481.981 301.027 478.356 302.442 475.138 312.097C474.576 313.785 485.553 322.179 484.499 323.616C486.146 321.37 493.585 311.021 498.257 291.987C498.257 291.987 504.797 284.019 488.762 258.977Z" fill="#1A1C20"/>
<path opacity="0.3" d="M472.46 405.415C469.777 401.124 467.633 377.525 467.633 377.525L456.905 378.063L461.196 381.817L455.297 405.951L457.442 409.169C457.442 409.169 464.848 386.728 465.558 382.247C465.558 382.247 465.385 406.41 470.598 411.27C471.067 411.27 471.54 411.321 472.018 411.398C472.76 412.142 473.501 412.631 474.232 412.773C474.232 412.773 518.021 404.78 522.749 396.709C522.749 396.709 522.854 395.481 522.291 394.335C489.953 406.819 474.989 409.464 472.46 405.415Z" fill="white" fill-opacity="0.29"/>
<path d="M474.789 249.704C476.074 251.396 478.661 254.223 479.597 256.057C482.033 260.83 475.055 255.883 475.055 255.883L473.728 251.431C474.555 251.286 474.083 250.113 474.789 249.704Z" fill="#FFBE9D"/>
<defs>
<linearGradient id="paint0_linear_8122_18945" x1="284.012" y1="0" x2="284.012" y2="742.162" gradientUnits="userSpaceOnUse">
<stop stop-color="#5579F8"/>
<stop offset="1" stop-color="#999999" stop-opacity="0"/>
</linearGradient>
<linearGradient id="paint1_linear_8122_18945" x1="284.012" y1="0" x2="284.012" y2="717.695" gradientUnits="userSpaceOnUse">
<stop stop-color="#5579F8" stop-opacity="0.69"/>
<stop offset="1" stop-color="white" stop-opacity="0"/>
</linearGradient>
<linearGradient id="paint2_linear_8122_18945" x1="284.094" y1="12.4385" x2="284.094" y2="61.1558" gradientUnits="userSpaceOnUse">
<stop stop-color="#6B8BFF"/>
<stop offset="1" stop-color="#5579F8"/>
</linearGradient>
</defs>
</svg>
