<svg width="598" height="743" viewBox="0 0 598 743" fill="none" xmlns="http://www.w3.org/2000/svg">
<path d="M0.0831604 21.9728C0.0831604 9.83755 9.92074 0 22.056 0H546.133C558.269 0 568.106 9.83758 568.106 21.9728V720.189C568.106 732.324 558.269 742.162 546.133 742.162H22.056C9.92073 742.162 0.0831604 732.324 0.0831604 720.189V21.9728Z" fill="url(#paint0_linear_0_46)" fill-opacity="0.13"/>
<path d="M22.0558 1.93848H546.133C557.197 1.93848 566.167 10.9082 566.167 21.9727V720.188C566.167 731.253 557.197 740.223 546.133 740.223H22.0558C10.9914 740.223 2.02164 731.253 2.02164 720.188V21.9727C2.02173 10.9083 10.9914 1.93858 22.0558 1.93848Z" stroke="url(#paint1_linear_0_46)" stroke-opacity="0.5" stroke-width="3.87756"/>
<rect x="12.5217" y="12.4385" width="543.146" height="48.7173" rx="8.29231" fill="url(#paint2_linear_0_46)" fill-opacity="0.2"/>
<circle cx="36.0556" cy="37.0091" r="5.9125" fill="#6789FE" fill-opacity="0.5"/>
<circle cx="52.4286" cy="37.0091" r="5.9125" fill="#6789FE" fill-opacity="0.5"/>
<circle cx="68.8018" cy="37.0091" r="5.9125" fill="#6789FE" fill-opacity="0.5"/>
<path d="M531.496 619.829C534.768 630.665 525.51 640 514.19 640H24.8111C16.5901 640 9.01575 635.053 6.34487 627.278C-7.36344 587.373 3.48528 569.22 16.7396 560.973C28.1856 553.851 39.0977 541.145 38.4481 527.68C32.9919 414.588 183.265 405.091 259.192 480.7C265.786 487.266 275.729 489.561 284.514 486.492C337.949 467.821 358.477 493.511 366.363 516.005C370.89 528.917 384.502 538.885 398.105 537.418C468.544 529.818 518.724 577.524 531.496 619.829Z" fill="url(#paint3_linear_0_46)" fill-opacity="0.16"/>
<path d="M204.656 506.884V537.825H171.847V505.057L204.656 506.884Z" fill="#FFBE9D"/>
<path d="M204.656 513.075C193.125 516.617 180.715 518.025 171.847 518.555V505.057L204.656 506.884V513.075Z" fill="#333538"/>
<path d="M208.268 527.632C208.268 522.988 195.886 523.881 194.199 526.586C193.167 528.217 192.107 533.126 189.36 534.562C186.613 535.998 179.168 537.309 176.156 534.562C173.144 531.815 173.144 529.207 171.847 529.207C170.68 529.207 170.914 554.356 171.603 560.895C171.695 561.775 172.424 562.324 173.309 562.324H251.533C252.714 562.324 253.701 561.378 253.566 560.204C252.351 549.629 239.796 543.341 231.456 542.621C222.56 541.826 208.268 539.219 208.268 527.632Z" fill="url(#paint4_linear_0_46)"/>
<path d="M253.654 564.583H170.787C170.787 564.583 168.346 553.958 170.787 553.163C173.227 552.368 172.348 559.006 177.41 559.968C182.471 560.93 253.654 559.968 253.654 559.968C254.114 561.794 253.654 564.583 253.654 564.583Z" fill="#013148"/>
<path d="M213.566 538.438C208.365 539.4 204.085 541.659 204.085 541.659" stroke="#013148" stroke-width="1.04578" stroke-miterlimit="10" stroke-linecap="round" stroke-linejoin="round"/>
<path d="M217.08 540.641C211.879 541.603 210.08 543.179 210.08 543.179" stroke="#013148" stroke-width="1.04578" stroke-miterlimit="10" stroke-linecap="round" stroke-linejoin="round"/>
<path d="M221.807 542.259C216.606 543.221 215.463 544.099 215.463 544.099" stroke="#013148" stroke-width="1.04578" stroke-miterlimit="10" stroke-linecap="round" stroke-linejoin="round"/>
<path d="M171.038 546.274C181.872 546.093 189.541 554.459 190.057 561.696" stroke="#013148" stroke-width="1.04578" stroke-miterlimit="10" stroke-linecap="round" stroke-linejoin="round"/>
<path d="M277.735 488.214L290.256 516.492L260.263 529.794L246.989 499.829L277.735 488.214Z" fill="#FFBE9D"/>
<path d="M280.23 493.861C271.125 501.781 260.347 508.084 252.455 512.169L246.989 499.829L277.734 488.214L280.23 493.861Z" fill="#333538"/>
<path d="M289.434 505.713C287.552 501.46 276.606 507.302 276.146 510.453C275.867 512.364 276.885 517.272 274.96 519.698C273.036 522.124 266.748 526.335 262.885 525.052C259.023 523.756 257.963 521.371 256.764 521.901C255.684 522.378 266.097 545.3 269.378 550.977C269.818 551.739 270.7 551.941 271.504 551.585L343.03 519.889C344.111 519.41 344.63 518.146 344.03 517.127C338.63 507.955 324.614 507.297 316.694 510.007C308.258 512.908 294.133 516.296 289.434 505.713Z" fill="url(#paint5_linear_0_46)"/>
<path d="M345.906 521.094L270.15 554.67C270.15 554.67 263.61 545.941 265.52 544.226C267.431 542.525 269.327 548.925 274.333 547.754C279.339 546.583 344.037 516.869 344.037 516.869C345.195 518.361 345.906 521.094 345.906 521.094Z" fill="#013148"/>
<path d="M298.65 513.438C294.286 516.422 291.288 520.229 291.288 520.229" stroke="#013148" stroke-width="1.04578" stroke-miterlimit="10" stroke-linecap="round" stroke-linejoin="round"/>
<path d="M302.764 514.038C298.399 517.022 297.396 519.183 297.396 519.183" stroke="#013148" stroke-width="1.04578" stroke-miterlimit="10" stroke-linecap="round" stroke-linejoin="round"/>
<path d="M307.742 513.593C303.378 516.577 302.681 517.845 302.681 517.845" stroke="#013148" stroke-width="1.04578" stroke-miterlimit="10" stroke-linecap="round" stroke-linejoin="round"/>
<path d="M262.955 537.838C272.785 533.293 283.187 537.838 286.589 544.239" stroke="#013148" stroke-width="1.04578" stroke-miterlimit="10" stroke-linecap="round" stroke-linejoin="round"/>
<path d="M135.481 261.057L106.018 261.657V232.528H135.481V261.057Z" fill="#FFBE9D"/>
<path d="M135.481 252.104V232.541H106.018C106.018 232.527 108.388 254.321 135.481 252.104Z" fill="#191B1F"/>
<path d="M103.606 181.48C107.036 175.177 115.57 174.954 115.793 177.171C115.793 177.171 115.793 177.171 115.793 177.185C128.203 174.829 141.185 177.338 141.226 181.563V181.577C150.638 184.38 153.162 196.065 150.164 206.216C148.854 211.417 148.742 219.532 145.186 225.737L100.079 224.845C95.0449 208.001 93.5668 197.808 94.5011 191.449C90.8618 191.463 96.8436 180.936 103.606 181.48Z" fill="#191B1F"/>
<path d="M148.031 218.905C147.655 240.811 144.071 248.926 128.775 248.661C113.493 248.396 102.24 240.016 102.617 218.11C102.993 196.233 117.243 189.108 125.833 189.261C134.436 189.414 148.422 197.014 148.031 218.905Z" fill="#FFBE9D"/>
<path d="M93.2326 216.619C94.1808 209.507 99.1448 207.667 104.262 213.161L103.983 229.056C97.4994 234.243 92.2984 223.744 93.2326 216.619Z" fill="#FFBE9D"/>
<path d="M102.045 216.159C100.274 213.593 96.8298 213.049 95.6865 216.842" stroke="#191B1F" stroke-width="1.04578" stroke-miterlimit="10" stroke-linecap="round" stroke-linejoin="round"/>
<path d="M134.212 234.702C130.392 235.539 126.934 234.939 124.689 233.349" stroke="#191B1F" stroke-width="1.04578" stroke-miterlimit="10" stroke-linecap="round" stroke-linejoin="round"/>
<path d="M131.619 217.844C131.549 221.581 133.641 225.248 133.669 226.224C133.697 227.2 131.312 229.25 129.43 228.4" stroke="#191B1F" stroke-width="1.04578" stroke-miterlimit="10" stroke-linecap="round" stroke-linejoin="round"/>
<path d="M140.194 216.045C140.167 217.398 139.414 218.486 138.521 218.472C137.615 218.458 136.904 217.342 136.932 215.99C136.96 214.637 137.713 213.55 138.605 213.563C139.511 213.577 140.222 214.693 140.194 216.045Z" fill="#191B1F"/>
<path d="M136.067 209.897C138.981 209.298 140.78 209.674 142.718 210.678" stroke="#191B1F" stroke-width="2.09155" stroke-miterlimit="10" stroke-linecap="round" stroke-linejoin="round"/>
<path d="M121.58 215.657C121.552 217.009 122.263 218.125 123.17 218.139C124.076 218.153 124.829 217.065 124.843 215.712C124.871 214.36 124.16 213.244 123.253 213.23C122.347 213.217 121.594 214.304 121.58 215.657Z" fill="#191B1F"/>
<path d="M126.558 209.158C123.058 208.544 121.12 208.907 119.056 210.148" stroke="#191B1F" stroke-width="2.09155" stroke-miterlimit="10" stroke-linecap="round" stroke-linejoin="round"/>
<path d="M127.77 184.38C146.999 184.715 151.07 199.928 148.351 203.943C147.347 205.421 136.22 206.969 117.243 199.453C115.151 209.8 110.592 205.979 106.534 220.453C105.698 223.451 103.313 216.507 103.16 212.086C103.006 208.126 103.732 183.962 127.77 184.38Z" fill="#191B1F"/>
<path d="M148.91 380.414C141.004 399.545 143.904 433.107 165.74 433.805C187.575 434.502 204.949 440.749 208.435 441.432C211.921 442.129 244.786 503.704 244.786 503.704C265.799 499.298 282.211 489.97 282.211 489.97C282.211 489.97 247.324 401.427 236.42 391.974C224.136 381.321 173.939 380.874 173.939 380.874C166.702 384.695 148.91 380.414 148.91 380.414Z" fill="url(#paint6_linear_0_46)"/>
<path d="M173.939 380.89C173.939 380.89 207.306 380.527 226.269 386.886C239.028 411.97 235.375 459.56 232.795 481.619C223.021 463.883 210.527 441.865 208.449 441.447C204.964 440.75 187.59 434.503 165.754 433.82C143.918 433.123 141.032 399.56 148.924 380.43C148.91 380.416 166.702 384.696 173.939 380.89Z" fill="white" fill-opacity="0.05"/>
<path d="M225.474 360.265C230.047 361.004 235.304 364.28 237.479 365.103C239.655 365.926 245.232 372.005 245.664 372.702C246.097 373.399 244.716 375.059 242.931 374.152C241.147 373.232 236.28 369.872 236.28 369.872L227.914 368.129L225.474 360.265Z" fill="#FFBE9D"/>
<path d="M180.129 307.529C172.209 313.19 156.327 318.488 156.327 318.488C156.327 318.488 166.088 339.488 169.448 343.127C173.562 347.575 207.473 371.935 212.437 372.799C218.112 373.789 220.189 372.032 222.769 371.572C223.578 371.433 227.593 371.767 229.127 372.381C230.215 372.813 232.279 375.086 232.543 375.351C232.808 375.616 235.249 377.01 235.764 375.699C236.28 374.389 234.914 372.841 234.077 371.879C233.227 370.917 232.083 369.759 232.083 369.759C232.083 369.759 234.245 370.247 235.513 371.196C236.35 371.823 239.627 375.602 240.296 375.797C241.035 376.02 242.471 375.365 242.471 374.486C242.471 373.608 236.364 366.65 235.332 365.688C234.3 364.726 228.444 360.236 225.488 360.236C222.532 360.236 218.126 361.867 216.383 361.351C214.64 360.835 194.338 332.892 188.593 327.008C186.529 324.944 180.129 307.529 180.129 307.529Z" fill="#FFBE9D"/>
<path d="M225.474 360.263C225.474 360.263 232.474 360.208 236.434 360.905C237.229 361.044 241.426 362.634 242.43 363.15C243.238 363.554 245.971 366.078 246.348 366.426C247.129 367.138 246.683 369.55 244.814 368.922C243.88 368.602 241.705 366.594 240.91 366.175C239.864 365.632 237.591 365.339 237.089 365.311C236.071 365.241 230.564 364.879 230.564 364.879L225.474 360.263Z" fill="#FFBE9D"/>
<path d="M242.179 373.888C242.179 373.888 237.201 367.446 233.367 365.619" stroke="#013148" stroke-width="1.04578" stroke-miterlimit="10" stroke-linecap="round" stroke-linejoin="round"/>
<path d="M234.635 372.814C234.635 372.814 232.85 370.067 230.536 368.714" stroke="#013148" stroke-width="1.04578" stroke-miterlimit="10" stroke-linecap="round" stroke-linejoin="round"/>
<path d="M245.274 372.2C245.274 372.2 240.784 367.194 240.226 366.706C239.668 366.218 234.635 363.303 234.635 363.303" stroke="#013148" stroke-width="1.04578" stroke-miterlimit="10" stroke-linecap="round" stroke-linejoin="round"/>
<path d="M82.8862 379.914C82.9369 380.281 83.0701 380.572 83.3037 380.86C98.757 399.916 158.413 383.829 167.536 381.23C168.29 381.015 168.822 380.419 168.983 379.652C170.318 373.303 170.629 366.67 169.49 360.308C168.458 354.591 165.042 351.775 164.261 349.418C160.46 337.944 158.808 333.617 158.407 325.832C158.387 325.441 159.202 325.253 159.345 325.616C159.402 325.761 159.58 325.91 159.729 325.867C161.605 325.325 173.603 321.603 181.814 312.897C182.375 312.301 182.519 311.435 182.223 310.672C176.449 295.764 170.022 272.983 164.652 269.158C157.331 263.929 144.127 257.836 126.767 257.306C114.51 256.916 92.1307 255.758 79.0376 270.148C69.4422 280.666 81.8389 372.312 82.8862 379.914Z" fill="url(#paint7_linear_0_46)"/>
<path d="M162.908 350.197C137.168 372.939 94.4587 360.557 94.4587 360.557" stroke="#013148" stroke-width="1.04578" stroke-miterlimit="10" stroke-linecap="round" stroke-linejoin="round"/>
<path d="M162.908 364.617C167.482 365.356 172.739 368.633 174.914 369.455C177.089 370.278 182.666 376.358 183.099 377.055C183.531 377.752 182.151 379.411 180.366 378.505C178.581 377.585 173.715 374.224 173.715 374.224L165.348 372.481L162.908 364.617Z" fill="#FFBE9D"/>
<path d="M112.781 318.492C101.737 321.169 88.6164 326.565 88.6164 326.565C88.6164 326.565 98.9208 349.14 102.295 352.793C106.409 357.241 144.907 376.302 149.871 377.167C155.546 378.157 157.624 376.4 160.203 375.94C161.012 375.8 165.028 376.135 166.562 376.748C167.649 377.181 169.713 379.453 169.978 379.718C170.243 379.983 172.683 381.378 173.199 380.067C173.715 378.756 172.348 377.208 171.512 376.246C170.661 375.284 169.518 374.127 169.518 374.127C169.518 374.127 171.679 374.615 172.948 375.563C173.784 376.191 177.061 379.969 177.73 380.164C178.47 380.388 179.906 379.732 179.906 378.854C179.906 377.975 173.798 371.017 172.767 370.055C171.735 369.093 165.878 364.617 162.908 364.617C159.938 364.617 155.546 366.249 153.803 365.733C152.06 365.217 127.226 341.931 121.482 336.061C119.432 333.969 112.781 318.492 112.781 318.492Z" fill="#FFBE9D"/>
<path d="M162.908 364.618C162.908 364.618 169.908 364.562 173.868 365.259C174.663 365.399 178.86 366.988 179.864 367.504C180.673 367.909 183.406 370.433 183.782 370.781C184.563 371.492 184.117 373.904 182.248 373.277C181.314 372.956 179.139 370.948 178.344 370.53C177.298 369.986 175.026 369.693 174.524 369.666C173.506 369.596 167.998 369.233 167.998 369.233L162.908 364.618Z" fill="#FFBE9D"/>
<path d="M179.614 378.24C179.614 378.24 174.636 371.798 170.801 369.972" stroke="#013148" stroke-width="1.04578" stroke-miterlimit="10" stroke-linecap="round" stroke-linejoin="round"/>
<path d="M172.056 377.166C172.056 377.166 170.271 374.419 167.957 373.067" stroke="#013148" stroke-width="1.04578" stroke-miterlimit="10" stroke-linecap="round" stroke-linejoin="round"/>
<path d="M182.694 376.552C182.694 376.552 178.204 371.546 177.646 371.058C177.089 370.57 172.055 367.656 172.055 367.656" stroke="#013148" stroke-width="1.04578" stroke-miterlimit="10" stroke-linecap="round" stroke-linejoin="round"/>
<path d="M101.431 278.388C108.403 295.106 114.301 318.072 114.301 318.072C101.222 321.599 87.4033 327.024 87.4033 327.024C82.1605 316.733 75.4397 291.007 75.4397 291.007" stroke="#013148" stroke-width="1.04578" stroke-miterlimit="10" stroke-linecap="round" stroke-linejoin="round"/>
<path d="M155.63 284.3C156.536 303.04 158.767 325.922 158.767 325.922" stroke="#013148" stroke-width="1.04578" stroke-miterlimit="10" stroke-linecap="round" stroke-linejoin="round"/>
<path d="M99.4366 258.909C109.434 256.581 119.739 256.483 126.738 256.706C130.949 256.832 134.937 257.878 138.646 258.575C138.507 264.626 136.513 273.216 126.738 278.403C126.738 278.389 109.88 269.981 99.4366 258.909Z" fill="#FFBE9D"/>
<path d="M82.9563 380.414C75.0502 399.545 78.2851 434.279 100.079 435.813C122.961 437.43 163.913 435.938 167.413 436.635C170.899 437.333 167.148 508.808 167.148 508.808C185.094 511.68 213.971 510.3 213.971 510.3C213.971 510.3 219.73 400.173 208.198 390.816C176.797 365.355 114.065 396.743 82.9563 380.414Z" fill="url(#paint8_linear_0_46)"/>
<path d="M167.399 436.635C114.58 436.635 109.329 439.03 89.5731 432.725" stroke="#013148" stroke-width="1.04578" stroke-miterlimit="10" stroke-linecap="round" stroke-linejoin="round"/>
<path d="M99.0752 402.321C111.457 420.183 174.455 412.012 174.72 412.96C174.985 413.908 171.317 420.698 171.317 421.493C171.317 422.288 181.343 420.183 181.343 420.183C181.343 420.183 180.911 489.204 181.343 500.972" stroke="white" stroke-opacity="0.06" stroke-width="1.04578" stroke-miterlimit="10" stroke-linecap="round" stroke-linejoin="round"/>
<path d="M108.404 388.977C104.569 395.781 94.4602 397.538 94.4602 397.538" stroke="#013148" stroke-width="1.04578" stroke-miterlimit="10" stroke-linecap="round" stroke-linejoin="round"/>
<path d="M129.834 387.19H263.861C264.628 387.19 265.255 386.563 265.255 385.796V381.613C265.255 380.846 264.628 380.219 263.861 380.219H129.834C129.067 380.219 128.44 380.846 128.44 381.613V385.796C128.44 386.563 129.067 387.19 129.834 387.19Z" fill="#56545E"/>
<path d="M211.796 325.351H291.609C293.45 325.351 294.621 327.318 293.757 328.935L267.096 378.923C266.678 379.718 265.841 380.22 264.949 380.22H185.135C183.295 380.22 182.123 378.254 182.988 376.636L209.648 326.648C210.067 325.853 210.903 325.351 211.796 325.351Z" fill="#013148"/>
<path d="M216.94 325.351H296.754C298.594 325.351 299.765 327.318 298.901 328.935L272.241 378.923C271.822 379.718 270.986 380.22 270.093 380.22H190.28C188.439 380.22 187.268 378.254 188.132 376.636L214.793 326.648C215.211 325.853 216.048 325.351 216.94 325.351Z" fill="#56545E"/>
<path d="M593.089 315.669H338.238C335.581 315.669 333.429 313.517 333.429 310.861V156.988C333.429 154.331 335.581 152.179 338.238 152.179H593.089C595.746 152.179 597.898 154.331 597.898 156.988V310.861C597.898 313.517 595.746 315.669 593.089 315.669Z" fill="#C7D3FE"/>
<path d="M333.429 156.988V173.818H597.898V156.988C597.898 154.331 595.746 152.179 593.089 152.179H338.238C335.581 152.179 333.429 154.343 333.429 156.988Z" fill="#9CB2FF"/>
<path d="M496.51 189.409H482.084V160.847C482.084 151.795 474.715 144.426 465.663 144.426C456.611 144.426 449.242 151.795 449.242 160.847V189.409H434.816V160.847C434.816 143.837 448.653 130 465.663 130C482.673 130 496.51 143.837 496.51 160.847V189.409Z" fill="url(#paint9_linear_0_46)"/>
<g opacity="0.5">
<path d="M462.129 144.425C453.077 144.425 445.708 151.794 445.708 160.846V189.409H449.242V160.846C449.242 152.383 455.673 145.399 463.908 144.521C463.319 144.461 462.73 144.425 462.129 144.425Z" fill="#737373"/>
<path d="M465.663 130C465.074 130 464.484 130.024 463.895 130.048C480.088 130.962 492.975 144.426 492.975 160.847V189.409H496.509V160.847C496.509 143.837 482.673 130 465.663 130Z" fill="#737373"/>
</g>
<path d="M495.633 240.477H435.694C430.189 240.477 425.729 236.017 425.729 230.511V189.254C425.729 183.748 430.189 179.288 435.694 179.288H495.633C501.138 179.288 505.598 183.748 505.598 189.254V230.511C505.598 236.017 501.138 240.477 495.633 240.477Z" fill="url(#paint10_linear_0_46)"/>
<path d="M496.017 179.312C497.844 181.115 498.986 183.628 498.986 186.405V227.662C498.986 233.168 494.526 237.627 489.02 237.627H429.082C428.95 237.627 428.83 237.615 428.698 237.603C430.501 239.383 432.965 240.476 435.694 240.476H495.632C501.138 240.476 505.598 236.017 505.598 230.511V189.254C505.598 183.892 501.342 179.516 496.017 179.312Z" fill="#7997FF"/>
<path d="M474.619 202.177C474.619 197.236 470.616 193.221 465.663 193.221C460.722 193.221 456.707 197.224 456.707 202.177C456.707 205.374 458.39 208.151 460.915 209.738V224.825C460.915 227.445 463.042 229.573 465.663 229.573C468.284 229.573 470.412 227.445 470.412 224.825V209.738C472.924 208.163 474.619 205.374 474.619 202.177Z" fill="#1D1F23"/>
<path d="M509.697 286H421.617C412.925 286 405.869 278.956 405.869 270.252C405.869 261.561 412.913 254.504 421.617 254.504H509.697C518.388 254.504 525.445 261.549 525.445 270.252C525.445 278.956 518.4 286 509.697 286Z" fill="url(#paint11_linear_0_46)"/>
<path d="M424.791 277.539L425.38 271.961L420.908 275.435L419.333 272.67L424.262 270.182L419.213 267.838L420.812 265.097L425.368 268.403L424.791 262.969H427.94L427.472 268.355L431.932 264.965L433.53 267.706L428.469 270.194L433.53 272.815L431.932 275.579L427.472 272.069L427.94 277.551H424.791V277.539Z" fill="white" fill-opacity="0.29"/>
<path d="M450.985 277.539L451.574 271.961L447.102 275.435L445.528 272.67L450.456 270.182L445.407 267.838L447.006 265.097L451.562 268.403L450.985 262.969H454.135L453.666 268.355L458.126 264.965L459.725 267.706L454.664 270.194L459.725 272.815L458.126 275.579L453.666 272.069L454.135 277.551H450.985V277.539Z" fill="white" fill-opacity="0.29"/>
<path d="M477.179 277.539L477.768 271.961L473.296 275.435L471.721 272.67L476.65 270.182L471.601 267.838L473.2 265.097L477.756 268.403L477.179 262.969H480.329L479.86 268.355L484.32 264.965L485.919 267.706L480.858 270.194L485.919 272.815L484.32 275.579L479.86 272.069L480.329 277.551H477.179V277.539Z" fill="white" fill-opacity="0.29"/>
<path d="M503.374 277.539L503.963 271.961L499.491 275.435L497.916 272.67L502.845 270.182L497.796 267.838L499.395 265.097L503.951 268.403L503.374 262.969H506.524L506.055 268.355L510.515 264.965L512.114 267.706L507.053 270.194L512.114 272.815L510.515 275.579L506.055 272.069L506.524 277.551H503.374V277.539Z" fill="white" fill-opacity="0.29"/>
<path d="M550.582 167.806C553.237 167.806 555.39 165.653 555.39 162.998C555.39 160.342 553.237 158.189 550.582 158.189C547.926 158.189 545.773 160.342 545.773 162.998C545.773 165.653 547.926 167.806 550.582 167.806Z" fill="white" fill-opacity="0.63"/>
<path d="M567.111 167.806C569.766 167.806 571.919 165.653 571.919 162.998C571.919 160.342 569.766 158.189 567.111 158.189C564.455 158.189 562.302 160.342 562.302 162.998C562.302 165.653 564.455 167.806 567.111 167.806Z" fill="white" fill-opacity="0.63"/>
<path d="M583.64 167.806C586.296 167.806 588.449 165.653 588.449 162.998C588.449 160.342 586.296 158.189 583.64 158.189C580.985 158.189 578.832 160.342 578.832 162.998C578.832 165.653 580.985 167.806 583.64 167.806Z" fill="white" fill-opacity="0.63"/>
<path d="M253.461 263.937C252.866 263.054 252.073 262.32 251.082 261.732C250.09 261.144 248.873 260.782 247.431 260.645C245.989 260.507 244.284 260.744 242.318 261.355C240.749 261.842 239.215 262.55 237.718 263.479C236.219 264.41 234.992 265.453 234.036 266.611L236.929 270.413L236.302 271.351L237.627 271.331C238.63 270.332 239.581 269.537 240.477 268.948C241.373 268.36 242.374 267.895 243.483 267.551C244.589 267.207 245.51 267.214 246.244 267.571C246.98 267.929 247.463 268.483 247.697 269.238C247.98 270.149 247.938 271.047 247.575 271.935C247.209 272.824 246.785 273.739 246.302 274.68C245.967 275.334 245.65 276.001 245.355 276.677C245.06 277.356 244.829 278.054 244.667 278.777C244.503 279.499 244.424 280.246 244.428 281.02C244.432 281.794 244.571 282.62 244.844 283.498C244.932 283.782 245.043 284.117 245.181 284.505C245.206 284.576 245.232 284.646 245.258 284.714L244.111 285.07L245.626 285.528L251.714 283.638C251.624 283.459 251.541 283.244 251.463 282.993C251.385 282.741 251.326 282.553 251.287 282.427C251.121 281.893 251.066 281.334 251.12 280.749C251.174 280.164 251.291 279.587 251.467 279.014C251.644 278.443 251.865 277.884 252.135 277.336C252.402 276.787 252.662 276.268 252.914 275.776C253.25 275.122 253.592 274.431 253.938 273.703C254.285 272.975 254.563 272.236 254.767 271.484C254.971 270.731 255.09 269.946 255.122 269.126C255.154 268.308 255.035 267.459 254.762 266.579C254.489 265.7 254.054 264.82 253.461 263.937Z" fill="#E49B31"/>
<path d="M242.101 267.652C241.006 267.992 240.015 268.449 239.128 269.024C238.24 269.6 237.298 270.376 236.302 271.351L232.788 266.795C233.737 265.667 234.953 264.649 236.437 263.737C237.92 262.828 239.437 262.132 240.987 261.651C242.931 261.047 244.614 260.808 246.035 260.933C247.457 261.057 248.655 261.401 249.631 261.965C250.605 262.53 251.383 263.237 251.965 264.089C252.545 264.942 252.969 265.793 253.233 266.644C253.497 267.495 253.609 268.318 253.573 269.112C253.537 269.907 253.415 270.669 253.21 271.4C253.004 272.131 252.726 272.848 252.379 273.556C252.033 274.264 251.692 274.936 251.357 275.572C251.105 276.05 250.846 276.555 250.579 277.089C250.31 277.622 250.088 278.165 249.911 278.72C249.733 279.276 249.615 279.837 249.558 280.404C249.502 280.972 249.553 281.514 249.713 282.03C249.751 282.152 249.808 282.334 249.883 282.578C249.959 282.821 250.04 283.029 250.127 283.202L244.111 285.07C243.954 284.785 243.811 284.455 243.678 284.08C243.544 283.705 243.436 283.381 243.351 283.106C243.087 282.256 242.954 281.456 242.956 280.706C242.955 279.956 243.038 279.231 243.204 278.53C243.368 277.828 243.6 277.149 243.895 276.49C244.19 275.832 244.506 275.184 244.841 274.548C245.323 273.632 245.746 272.743 246.112 271.879C246.476 271.016 246.522 270.144 246.248 269.263C246.022 268.533 245.548 267.998 244.825 267.655C244.102 267.313 243.194 267.312 242.101 267.652Z" fill="#FBC343"/>
<path d="M253.966 289.418C254.307 290.516 254.214 291.473 253.689 292.291C253.165 293.111 252.454 293.658 251.557 293.937C250.659 294.216 249.763 294.167 248.867 293.789C247.972 293.412 247.353 292.675 247.012 291.577C246.672 290.481 246.764 289.524 247.288 288.704C248.095 287.442 249.65 286.733 251.132 286.984C252.447 287.206 253.568 288.138 253.966 289.418Z" fill="#E49B31"/>
<path d="M252.775 289.788C253.115 290.886 253.023 291.843 252.498 292.662C251.973 293.481 251.263 294.029 250.366 294.307C249.468 294.586 248.572 294.537 247.675 294.159C246.78 293.782 246.162 293.045 245.821 291.948C245.481 290.851 245.573 289.894 246.097 289.075C246.622 288.257 247.332 287.708 248.23 287.429C249.127 287.15 250.023 287.2 250.919 287.577C251.816 287.955 252.434 288.692 252.775 289.788Z" fill="#FBC343"/>
<defs>
<linearGradient id="paint0_linear_0_46" x1="284.095" y1="0" x2="284.095" y2="742.162" gradientUnits="userSpaceOnUse">
<stop stop-color="#5579F8"/>
<stop offset="1" stop-color="#999999" stop-opacity="0"/>
</linearGradient>
<linearGradient id="paint1_linear_0_46" x1="284.095" y1="0" x2="284.095" y2="717.695" gradientUnits="userSpaceOnUse">
<stop stop-color="#5579F8" stop-opacity="0.69"/>
<stop offset="1" stop-color="white" stop-opacity="0"/>
</linearGradient>
<linearGradient id="paint2_linear_0_46" x1="284.095" y1="12.4385" x2="284.095" y2="61.1558" gradientUnits="userSpaceOnUse">
<stop stop-color="#6B8BFF"/>
<stop offset="1" stop-color="#5579F8"/>
</linearGradient>
<linearGradient id="paint3_linear_0_46" x1="267.529" y1="458.48" x2="267.11" y2="662.095" gradientUnits="userSpaceOnUse">
<stop stop-color="#6688FE"/>
<stop offset="1" stop-color="#999999" stop-opacity="0"/>
</linearGradient>
<linearGradient id="paint4_linear_0_46" x1="212.345" y1="524.353" x2="212.345" y2="562.324" gradientUnits="userSpaceOnUse">
<stop stop-color="#6B8BFF"/>
<stop offset="1" stop-color="#5579F8"/>
</linearGradient>
<linearGradient id="paint5_linear_0_46" x1="300.829" y1="504.216" x2="300.829" y2="552.173" gradientUnits="userSpaceOnUse">
<stop stop-color="#6B8BFF"/>
<stop offset="1" stop-color="#5579F8"/>
</linearGradient>
<linearGradient id="paint6_linear_0_46" x1="213.375" y1="415.716" x2="213.406" y2="380.414" gradientUnits="userSpaceOnUse">
<stop stop-color="#191B1F"/>
<stop offset="1" stop-color="#2C3036"/>
</linearGradient>
<linearGradient id="paint7_linear_0_46" x1="129.063" y1="257.11" x2="129.063" y2="390.046" gradientUnits="userSpaceOnUse">
<stop stop-color="#6B8BFF"/>
<stop offset="1" stop-color="#5579F8"/>
</linearGradient>
<linearGradient id="paint8_linear_0_46" x1="147.039" y1="417.696" x2="147.074" y2="380.41" gradientUnits="userSpaceOnUse">
<stop stop-color="#191B1F"/>
<stop offset="1" stop-color="#2C3036"/>
</linearGradient>
<linearGradient id="paint9_linear_0_46" x1="465.745" y1="147.011" x2="465.729" y2="130" gradientUnits="userSpaceOnUse">
<stop stop-color="#191B1F"/>
<stop offset="1" stop-color="#2C3036"/>
</linearGradient>
<linearGradient id="paint10_linear_0_46" x1="465.663" y1="179.288" x2="465.663" y2="240.477" gradientUnits="userSpaceOnUse">
<stop stop-color="#6B8BFF"/>
<stop offset="1" stop-color="#5579F8"/>
</linearGradient>
<linearGradient id="paint11_linear_0_46" x1="465.657" y1="254.504" x2="465.657" y2="286" gradientUnits="userSpaceOnUse">
<stop stop-color="#6B8BFF"/>
<stop offset="1" stop-color="#5579F8"/>
</linearGradient>
</defs>
</svg>
