<svg width="769" height="570" viewBox="0 0 769 570" fill="none" xmlns="http://www.w3.org/2000/svg">
<path d="M38.9741 185.685C42.0619 188.952 45.3725 191.915 49.2139 194.311C51.434 195.696 52.1792 195.784 53.1829 193.302C54.6715 189.622 56.8916 186.451 59.2376 183.307C60.8521 181.143 62.3747 178.877 63.3784 176.342C64.6544 173.115 65.5986 169.879 64.6425 166.296C63.1862 160.841 56.1516 157.999 51.3609 161.004C48.7392 162.647 47.4973 165.204 46.2486 168.134C45.3793 167.475 44.823 166.871 44.3705 166.157C43.4093 164.638 42.0942 163.426 40.7638 162.263C38.4944 160.277 35.8983 160.027 33.1916 161.264C30.7537 162.382 29.8708 164.719 29.9252 167.025C29.9779 169.379 30.1838 171.846 31.2318 174.11C33.2018 178.385 35.735 182.263 38.9741 185.685ZM33.6288 167.317C33.6918 166.305 33.4366 165.051 34.6479 164.643C35.9663 164.195 37.4073 164.024 38.6152 165.112C40.7128 167.002 42.4344 169.209 44.0183 171.529C44.5457 172.302 45.0237 173.127 45.6634 173.794C46.8951 175.075 48.2884 174.752 48.8617 173.072C49.1305 172.286 49.3194 171.441 49.3602 170.614C49.4589 168.646 50.3265 167.018 51.4816 165.526C53.205 163.299 54.9709 162.817 57.6657 163.712C60.8011 164.753 61.2485 165.475 61.223 169.68C61.5071 172.605 60.1308 175.286 58.569 177.846C57.2574 179.995 55.6752 181.977 54.2717 184.069C53.0791 185.845 51.7811 187.55 51.1176 189.654C50.5153 191.568 49.8757 191.803 48.3786 190.452C45.8812 188.198 43.4569 185.839 41.2096 183.334C38.9061 180.767 36.868 177.979 35.2586 174.879C34.0099 172.474 33.4672 169.992 33.6288 167.317Z" fill="#0A5376"/>
<path d="M336.715 109.969C338.195 111.535 339.782 112.955 341.623 114.103C342.688 114.767 343.045 114.81 343.526 113.62C344.239 111.856 345.303 110.336 346.428 108.829C347.202 107.792 347.932 106.706 348.413 105.491C349.024 103.944 349.477 102.393 349.019 100.676C348.321 98.0606 344.949 96.6988 342.653 98.1389C341.396 98.9266 340.801 100.152 340.202 101.556C339.785 101.241 339.519 100.951 339.302 100.609C338.841 99.8806 338.211 99.3 337.573 98.7423C336.485 97.7907 335.241 97.6708 333.944 98.2636C332.775 98.7994 332.352 99.9198 332.378 101.025C332.403 102.153 332.502 103.336 333.004 104.421C333.949 106.47 335.163 108.328 336.715 109.969ZM334.153 101.165C334.183 100.68 334.061 100.079 334.642 99.8831C335.274 99.6686 335.964 99.5863 336.543 100.108C337.549 101.014 338.374 102.072 339.133 103.184C339.386 103.554 339.615 103.95 339.922 104.269C340.512 104.883 341.18 104.728 341.455 103.924C341.583 103.547 341.674 103.142 341.694 102.745C341.741 101.802 342.157 101.021 342.71 100.306C343.536 99.2389 344.383 99.0081 345.674 99.437C347.177 99.9361 347.392 100.282 347.38 102.298C347.516 103.699 346.856 104.984 346.107 106.212C345.479 107.242 344.72 108.191 344.048 109.194C343.476 110.046 342.854 110.863 342.536 111.872C342.247 112.789 341.941 112.901 341.223 112.254C340.026 111.174 338.864 110.043 337.787 108.842C336.683 107.612 335.706 106.275 334.934 104.79C334.336 103.637 334.076 102.447 334.153 101.165Z" fill="#0A5376"/>
<path d="M666.968 53.6163C670.394 54.8565 672.457 57.1906 673.614 60.6475C674.455 63.162 674.674 65.7393 675.065 68.3014C675.402 70.4892 675.841 71.5082 676.933 71.6324C677.983 71.7498 679.005 70.627 679.538 68.7488C679.615 68.4817 679.604 68.1891 679.672 67.9203C680.382 65.2222 681.101 62.5257 681.818 59.8292C682.721 56.4165 684.895 54.3921 688.386 53.7694C690.399 53.4121 692.399 53.0004 694.4 52.5938C695.499 52.371 696.261 51.7789 696.433 50.4469C696.064 49.5129 695.395 48.7286 694.24 48.7456C692.993 48.7643 691.807 48.4717 690.681 48.0941C686.886 46.8215 683.42 45.1458 682.114 40.8332C681.22 37.8849 680.392 34.9264 680.21 31.8523C680.132 30.5236 679.751 29.2868 679.511 28.0109C679.402 27.441 678.992 27.014 678.361 26.9374C677.593 26.8455 677.092 27.264 676.867 27.9343C676.603 28.7254 676.348 29.5437 676.267 30.3688C675.768 35.2735 674.839 40.1101 673.946 44.9519C673.81 45.6902 673.674 46.6174 672.939 46.8419C670.86 47.4731 669.324 49.1624 667.151 49.6013C666.061 49.8208 664.536 49.6507 664.473 51.4387C664.412 53.1569 665.921 53.2352 666.968 53.6163ZM672.022 51.0576C672.423 50.469 672.844 49.8191 673.817 50.4264C674.681 50.964 674.938 50.2206 675.081 49.5367C675.736 46.4541 677.177 43.5739 677.444 40.3891C677.476 40.02 677.68 39.6848 678.24 39.5555C679.667 44.3411 681.42 48.9396 687.238 50.4162C681.727 51.8215 679.368 55.7854 677.92 61.18C677.398 60.0793 677.095 59.4771 676.823 58.8612C675.799 56.5526 674.72 54.2934 672.672 52.6602C672.195 52.2825 671.506 51.8181 672.022 51.0576Z" fill="#0A5376"/>
<path d="M742.858 130.459C743.119 143.12 733.067 153.596 720.404 153.858C707.743 154.119 697.266 144.067 697.005 131.404C696.744 118.743 706.797 108.266 719.459 108.005C732.122 107.744 742.597 117.798 742.858 130.459Z" fill="#014E74"/>
<path d="M712.571 128.165C713.44 128.093 714.229 129.052 714.332 130.307C714.435 131.562 713.814 132.636 712.946 132.709C712.077 132.781 711.288 131.821 711.185 130.567C711.081 129.311 711.702 128.236 712.571 128.165Z" fill="#002B40" fill-opacity="0.62"/>
<path d="M714.588 122.36C714.571 122.557 712.65 122.376 710.503 123.188C708.341 123.964 707 125.35 706.859 125.21C706.711 125.128 707.934 123.42 710.275 122.571C712.608 121.696 714.647 122.201 714.588 122.36Z" fill="#002B40" fill-opacity="0.62"/>
<path d="M727.15 127.865C726.278 127.829 725.531 128.82 725.478 130.076C725.426 131.334 726.092 132.382 726.962 132.419C727.834 132.455 728.582 131.464 728.634 130.206C728.686 128.949 728.022 127.9 727.15 127.865Z" fill="#002B40" fill-opacity="0.62"/>
<path d="M724.896 122.146C724.83 121.991 726.847 121.401 729.214 122.179C731.589 122.931 732.881 124.587 732.737 124.675C732.601 124.82 731.204 123.491 729.013 122.806C726.832 122.083 724.921 122.344 724.896 122.146Z" fill="#002B40" fill-opacity="0.62"/>
<path d="M731.795 133.709C731.83 133.714 731.812 134.157 731.636 134.937C731.463 135.717 731.061 136.823 730.304 138.049C729.552 139.274 728.389 140.587 726.807 141.667C725.235 142.749 723.205 143.554 720.979 143.688C718.75 143.785 716.648 143.195 714.971 142.283C713.285 141.373 711.992 140.187 711.118 139.046C710.237 137.905 709.722 136.847 709.47 136.089C709.213 135.332 709.15 134.892 709.183 134.885C709.32 134.825 709.677 136.617 711.478 138.752C712.363 139.812 713.632 140.907 715.253 141.746C716.865 142.585 718.854 143.119 720.944 143.03C723.032 142.902 724.954 142.164 726.469 141.162C727.994 140.161 729.141 138.94 729.912 137.793C731.483 135.483 731.653 133.664 731.795 133.709Z" fill="#002B40" fill-opacity="0.62"/>
<path d="M175.086 124.956C175.863 125.269 176.685 125.472 177.483 125.737C182.193 127.307 185.303 130.33 186.195 135.358C186.309 135.997 186.329 136.657 186.477 137.288C186.692 138.192 186.923 139.1 187.258 139.963C187.474 140.517 188.003 140.783 188.636 140.676C189.14 140.591 189.502 140.278 189.648 139.815C189.789 139.378 189.779 138.894 189.886 138.444C190.548 135.633 191.151 132.802 192.151 130.084C192.918 127.995 194.123 126.394 196.31 125.451C198.468 124.524 200.586 123.636 202.933 123.337C203.971 123.204 204.982 122.857 205.033 121.28C205.118 120.313 204.291 119.817 203.384 119.521C201.436 118.888 199.459 118.349 197.493 117.775C194.594 116.93 192.505 115.358 192.03 112.115C191.761 110.278 191.293 108.464 190.844 106.659C190.373 104.764 189.864 102.874 189.279 101.011C189.026 100.201 188.485 99.4018 187.513 99.4767C186.498 99.5532 186.36 100.571 186.042 101.326C185.938 101.576 185.931 101.872 185.899 102.149C185.388 106.505 184.346 110.751 183.395 115.023C182.986 116.855 182.292 118.192 180.8 119.352C179.601 120.285 178.606 121.319 176.926 121.276C176.309 121.261 175.669 121.605 175.065 121.851C174.393 122.125 174.084 122.673 174.09 123.406C174.092 124.14 174.429 124.691 175.086 124.956ZM185.375 116.72C185.873 114.012 186.804 111.384 187.928 108.737C188.342 110.29 188.862 111.826 189.15 113.401C189.796 116.986 192.027 119.143 195.242 120.475C195.922 120.758 196.625 120.989 197.316 121.244C197.391 121.44 197.464 121.635 197.539 121.829C192.745 123.405 189.686 126.537 188.803 131.967C187.204 130.085 186.947 128.119 185.611 126.826C184.327 125.579 182.801 124.689 181.13 123.697C182.44 121.3 184.842 119.623 185.375 116.72Z" fill="#0A5376"/>
<path d="M204.679 501.992C203.571 502.198 202.771 502.982 202.782 504.238C202.797 506.217 201.992 508.086 202.164 510.072C202.271 511.32 201.662 512.064 200.376 512.026C198.629 511.977 197.137 512.856 195.519 513.268C194.668 513.484 193.923 514.03 193.971 514.997C194.007 515.805 194.708 516.237 195.429 516.535C196.936 517.15 198.52 517.135 200.114 517.164C202.079 517.196 202.12 517.253 202.164 519.257C202.213 521.501 202.213 523.746 202.203 525.988C202.198 527.256 202.489 528.406 203.382 529.331C204.345 530.328 205.643 530.289 206.591 529.328C207.254 528.656 207.283 527.834 207.278 526.985C207.271 524.461 207.242 521.936 207.264 519.411C207.283 517.31 207.516 517.016 209.583 516.712C210.686 516.545 211.841 516.676 212.926 516.451C214.517 516.121 215.247 515.044 215.065 513.651C214.898 512.373 214.073 511.625 212.552 511.526C211.436 511.453 210.306 511.461 209.189 511.536C207.746 511.632 207.161 511.05 207.224 509.594C207.295 507.916 207.288 506.225 207.2 504.546C207.118 502.913 206.116 501.9 204.679 501.992Z" fill="#0A5376"/>
<path d="M743.103 238.135C743.15 236.44 742.591 235.816 740.792 235.736C739.488 235.676 738.176 235.702 736.871 235.755C735.665 235.802 735.17 235.255 735.217 234.082C735.246 233.337 735.214 232.589 735.211 231.842C735.2 230.255 735.192 228.667 735.185 227.08C735.178 226.17 734.955 225.336 733.93 225.183C732.939 225.037 732.422 225.782 732.038 226.554C731.876 226.876 731.873 227.274 731.791 227.636C731.286 229.904 730.73 232.17 730.764 234.508C730.782 235.819 730.27 236.445 728.959 236.316C727.344 236.158 725.816 236.692 724.261 236.935C722.826 237.158 722.38 238.567 723.498 239.321C725.298 240.532 726.596 242.646 729.187 242.553C730.376 242.51 730.718 243.402 730.709 244.467C730.699 245.494 730.665 246.525 730.748 247.548C730.852 248.819 731.582 249.61 732.873 249.737C734.09 249.856 735.085 248.938 735.221 247.49C735.328 246.379 735.284 245.251 735.257 244.13C735.233 243.155 735.565 242.665 736.607 242.398C738.222 241.985 739.775 241.325 741.337 240.71C742.473 240.263 743.144 239.426 743.103 238.135Z" fill="#0A5376"/>
<path d="M752.572 432.394C751.684 432.122 750.806 431.857 749.855 431.794C747.142 431.615 747.063 431.513 747.043 428.818C747.021 425.928 747.055 423.034 747.043 420.14C747.04 419.213 746.706 418.409 745.656 418.388C744.622 418.368 744.309 419.14 744.166 420.067C743.739 422.837 743.61 425.617 743.627 428.417C743.634 429.603 743.872 430.838 743.297 432.003C742.079 431.92 740.884 431.765 739.688 431.773C738.178 431.787 737.07 432.629 737 433.662C736.938 434.584 738.106 435.952 739.311 436.154C740.221 436.311 741.172 436.266 742.102 436.258C743.167 436.246 743.62 436.751 743.605 437.787C743.581 439.376 743.55 440.962 743.603 442.549C743.651 444.029 744.416 445.138 745.316 445.016C746.51 444.853 746.975 443.983 747.058 442.832C747.162 441.351 747.582 439.917 747.598 438.408C747.616 436.573 747.907 436.346 749.741 436.234C750.769 436.173 751.789 436.198 752.722 435.657C753.436 435.244 753.814 434.655 753.731 433.822C753.654 433.1 753.258 432.602 752.572 432.394Z" fill="#0A5376"/>
<path d="M266.72 10.9628C267.153 11.1006 267.642 11.0649 268.103 11.1295C269.324 11.2997 270.037 11.8372 270.292 13.2084C270.515 14.3976 270.537 15.6208 270.857 16.7776C271.07 17.5568 271.333 18.5691 272.295 18.6524C273.414 18.7494 273.4 17.6249 273.708 16.8831C274.003 16.172 274.018 15.4354 274.04 14.6885C274.072 13.6678 273.7 12.5007 274.26 11.6637C274.981 10.5919 276.332 11.2503 277.393 11.0615C277.483 11.0445 277.58 11.0479 277.671 11.0292C278.679 10.8301 279.464 10.2602 279.528 9.22924C279.607 8.02306 278.746 7.38169 277.643 7.19285C276.917 7.06696 276.155 7.10099 275.413 7.14522C274.202 7.21497 273.508 6.90194 273.458 5.4797C273.407 4.09829 273.089 2.72199 272.81 1.35929C272.705 0.837011 272.487 0.284107 271.713 0C271.388 0.129294 270.973 0.372572 270.874 0.850621C270.598 2.21161 270.296 3.57941 270.171 4.96082C269.945 7.46845 269.994 7.47356 267.696 8.04688C267.424 8.11492 267.152 8.17787 266.876 8.2187C266.111 8.33099 265.291 8.4875 265.294 9.44019C265.296 10.2755 265.986 10.728 266.72 10.9628Z" fill="#0A5376"/>
<path d="M584.952 89.8033C585.386 89.9411 585.874 89.9053 586.335 89.97C587.557 90.1401 588.269 90.6777 588.525 92.0489C588.747 93.2381 588.77 94.4613 589.089 95.6181C589.302 96.3973 589.566 97.4095 590.527 97.4929C591.646 97.5898 591.633 96.4653 591.941 95.7236C592.235 95.0125 592.25 94.2758 592.272 93.529C592.305 92.5082 591.932 91.3412 592.492 90.5042C593.213 89.4324 594.564 90.0908 595.626 89.9019C595.716 89.8849 595.813 89.8883 595.903 89.8696C596.912 89.6706 597.696 89.1006 597.761 88.0697C597.839 86.8635 596.978 86.2221 595.876 86.0333C595.149 85.9074 594.387 85.9414 593.645 85.9857C592.434 86.0554 591.74 85.7424 591.691 84.3202C591.64 82.9387 591.321 81.5624 591.042 80.1997C590.937 79.6775 590.719 79.1246 589.945 78.8405C589.62 78.9697 589.205 79.213 589.106 79.6911C588.831 81.0521 588.528 82.4199 588.404 83.8013C588.178 86.3089 588.227 86.314 585.929 86.8873C585.656 86.9554 585.384 87.0183 585.109 87.0592C584.343 87.1714 583.523 87.328 583.526 88.2806C583.528 89.116 584.219 89.5685 584.952 89.8033Z" fill="#0A5376"/>
<path d="M94.3545 39.7104C96.5235 39.6798 98.2367 37.8408 98.2571 35.5203C98.2826 32.7404 96.515 30.7789 93.9411 30.7296C91.6512 30.687 89.2456 33.062 89.2797 35.3331C89.3188 37.965 91.3909 39.753 94.3545 39.7104Z" fill="#0A5376"/>
<path d="M471.216 116.743C473.385 116.712 475.098 114.873 475.118 112.553C475.144 109.773 473.376 107.811 470.802 107.762C468.513 107.72 466.107 110.095 466.141 112.366C466.18 114.998 468.252 116.786 471.216 116.743Z" fill="#0A5376"/>
<path d="M748.996 562.131C748.144 561.997 747.348 562.106 746.676 562.776C745.529 563.914 744.995 566.719 745.604 568.278C746.312 570.079 747.788 570.057 749.047 569.97C752.227 569.953 753.352 569.064 753.21 566.89C753.134 565.711 750.16 562.315 748.996 562.131Z" fill="#0A5376"/>
<path d="M588.41 278.035C586.783 277.731 586.043 279.488 584.575 279.893C582.962 280.337 582.661 281.696 583.34 283.282C584.121 285.106 586.11 286.252 587.818 285.863C589.5 285.478 591.366 282.926 591.389 280.975C591.409 279.017 590.424 278.011 588.41 278.035Z" fill="#0A5376"/>
<path d="M7.29366 515.478C7.33449 513.265 5.23856 510.924 3.23109 510.946C1.43798 510.965 0.0940044 512.436 0.00383859 514.473C-0.0948334 516.683 1.72209 518.692 3.91839 518.807C5.76594 518.904 7.25793 517.433 7.29366 515.478Z" fill="#0A5376"/>
<path d="M627.943 8.35141C629.709 8.39905 631.133 6.67059 631.109 4.5015C631.087 2.12487 629.754 0.564827 627.756 0.583541C625.633 0.603955 624.299 2.10615 624.357 4.41304C624.407 6.32523 626.21 8.30378 627.943 8.35141Z" fill="#0A5376"/>
<path d="M435.513 33.9739C438.111 34.3107 440.646 33.5111 443.22 33.3495C443.916 33.3053 444.607 32.6639 444.581 31.8133C444.555 30.9797 443.897 30.4387 443.159 30.3128C442.073 30.1273 440.952 30.1648 440.328 30.1324C438.28 30.2022 436.708 30.044 435.185 30.6598C434.351 30.9967 433.625 31.3182 433.625 32.3305C433.627 33.5622 434.612 33.8582 435.513 33.9739Z" fill="#0A5376"/>
<path d="M596.965 386.742C598.727 386.798 600.177 385.483 600.286 383.729C600.41 381.693 598.969 379.993 597.092 379.961C595.281 379.929 593.772 381.414 593.734 383.271C593.695 385.08 595.189 386.686 596.965 386.742Z" fill="#0A5376"/>
<path d="M93.1979 329.81C92.2078 330.152 91.5324 330.64 91.6106 331.763C91.6872 332.831 92.4051 333.464 93.3425 333.704C94.1353 333.906 94.9995 333.842 95.8297 333.894C95.8314 333.871 95.8331 333.848 95.8331 333.823C96.6667 333.823 97.5088 333.889 98.3356 333.808C99.5826 333.685 100.404 332.988 100.52 331.698C100.636 330.405 99.6558 329.854 98.6674 329.6C96.8505 329.139 95.0148 329.185 93.1979 329.81Z" fill="#0A5376"/>
<path d="M422.945 23.2083C423.998 23.1828 424.44 22.2437 424.554 21.2349C424.831 18.7834 424.072 16.4187 423.926 14.0012C423.875 13.1778 423.152 12.7661 422.295 12.7814C421.434 12.7967 420.854 13.2288 420.731 14.0812C420.627 14.8178 420.65 15.5715 420.587 16.9393C420.253 18.0536 421.172 19.6221 421.277 21.2995C421.34 22.2931 421.881 23.2339 422.945 23.2083Z" fill="#0A5376"/>
<path d="M421.858 49.4007C421.999 50.4844 422.599 51.4234 423.792 51.3996C425.061 51.3741 425.291 50.1951 425.58 49.2237C425.653 48.9753 425.614 48.6555 425.527 48.402C424.964 46.774 425.277 45.088 425.17 43.4293C425.129 42.7879 425.258 42.1108 424.896 41.5273C424.554 40.9744 424.161 40.3841 423.394 40.4998C422.771 40.5916 422.53 41.1139 422.388 41.6838C421.985 43.3051 421.601 44.9298 421.834 46.7314C421.832 47.5497 421.737 48.4888 421.858 49.4007Z" fill="#0A5376"/>
<path d="M86.5324 317.151C86.4915 316.096 86.0135 315.376 84.8754 315.317C83.807 315.261 82.9427 315.859 82.7947 316.797C82.4766 318.787 82.2725 320.837 83.0414 322.799C83.3578 323.602 83.8342 324.355 84.8668 324.136C85.7498 323.949 86.3469 323.299 86.4558 322.414C86.5698 321.504 86.4813 320.57 86.4813 319.646C86.5017 319.646 86.5204 319.646 86.5375 319.646C86.5375 318.814 86.5647 317.981 86.5324 317.151Z" fill="#0A5376"/>
<path d="M420.699 31.1497C420.73 33.1555 422.187 34.753 423.882 34.6866C425.478 34.6237 426.862 32.9428 426.774 31.1752C426.682 29.2937 425.583 28.4175 423.334 28.4413C421.454 28.096 420.672 29.4264 420.699 31.1497Z" fill="#0A5376"/>
<path d="M87.5721 338.001C87.4939 337.157 86.8917 336.712 86.0342 336.679C85.3112 336.65 84.595 336.941 84.5014 337.627C84.2088 339.716 83.6457 341.826 84.3908 343.935C84.6766 344.742 85.3078 345.083 86.1448 345.009C87.0005 344.93 87.5279 344.425 87.6028 343.585C87.6725 342.753 87.6164 341.911 87.6164 341.072C87.6096 341.072 87.6028 341.07 87.5926 341.07C87.5943 340.046 87.6657 339.015 87.5721 338.001Z" fill="#0A5376"/>
<path d="M73.1436 333.711C75.0898 334.049 77.0378 333.871 78.7594 332.794C79.9469 332.05 79.8652 331.179 78.6726 330.47C77.6672 329.871 76.5631 329.852 75.4471 329.927C74.7071 329.927 73.95 329.828 73.2321 329.953C72.2471 330.123 71.4985 330.752 71.4543 331.795C71.4049 332.875 72.2181 333.549 73.1436 333.711Z" fill="#0A5376"/>
<path d="M407.912 35.6937C408.721 35.8638 409.58 35.8009 410.522 35.8468C411.419 35.7039 412.472 36.0306 413.416 35.4249C414.331 34.8363 414.425 34.0316 413.504 33.4753C411.888 32.4988 410.031 32.1823 408.2 31.9561C407.157 31.8268 406.067 32.9292 406.13 33.8121C406.206 34.8907 406.951 35.4913 407.912 35.6937Z" fill="#0A5376"/>
<path d="M85.6459 328.195C84.1914 328.197 83.2353 329.122 83.1672 330.597C83.1009 332.055 84.0927 333.222 85.3975 333.227C86.6003 333.231 88.1212 331.768 88.1672 330.563C88.2182 329.262 87.0818 328.195 85.6459 328.195Z" fill="#0A5376"/>
<path d="M765.459 325.147C764.441 325.106 763.897 325.827 763.863 327.258C763.82 329.025 764.608 330.026 766.126 330.124C767.493 330.215 768.259 329.58 768.351 328.28C768.451 326.827 766.958 325.209 765.459 325.147Z" fill="#0A5376"/>
<path d="M672.672 52.6602C674.718 54.2934 675.799 56.5527 676.823 58.8612C677.093 59.4771 677.398 60.0793 677.92 61.18C679.369 55.7854 681.727 51.8215 687.238 50.4163C681.419 48.9396 679.667 44.3411 678.24 39.5555C677.68 39.6865 677.476 40.02 677.444 40.3892C677.178 43.5756 675.736 46.4541 675.081 49.5367C674.938 50.2206 674.681 50.9641 673.817 50.4265C672.845 49.8191 672.425 50.4673 672.022 51.0576C671.506 51.8181 672.195 52.2825 672.672 52.6602Z" fill="#0A5376"/>
<path d="M188.802 131.969C189.685 126.538 192.743 123.406 197.538 121.831C197.463 121.635 197.39 121.441 197.315 121.246C196.625 120.991 195.922 120.759 195.242 120.477C192.026 119.143 189.796 116.988 189.15 113.403C188.864 111.828 188.341 110.292 187.928 108.738C186.805 111.385 185.873 114.014 185.374 116.722C184.842 119.625 182.44 121.302 181.13 123.701C182.801 124.693 184.326 125.582 185.611 126.829C186.946 128.121 187.202 130.087 188.802 131.969Z" fill="#0A5376"/>
</svg>
