<svg width="569" height="743" viewBox="0 0 569 743" fill="none" xmlns="http://www.w3.org/2000/svg">
<path d="M0.0820312 21.9728C0.0820312 9.83755 9.91961 0 22.0549 0H546.132C558.268 0 568.105 9.83758 568.105 21.9728V720.189C568.105 732.324 558.268 742.162 546.132 742.162H22.0549C9.9196 742.162 0.0820312 732.324 0.0820312 720.189V21.9728Z" fill="url(#paint0_linear_8122_18989)" fill-opacity="0.13"/>
<path d="M22.0547 1.93848H546.132C557.196 1.93848 566.166 10.9082 566.166 21.9727V720.188C566.166 731.253 557.196 740.223 546.132 740.223H22.0547C10.9903 740.223 2.02051 731.253 2.02051 720.188V21.9727C2.0206 10.9083 10.9903 1.93858 22.0547 1.93848Z" stroke="url(#paint1_linear_8122_18989)" stroke-opacity="0.5" stroke-width="3.87756"/>
<rect x="12.5215" y="12.4385" width="543.146" height="48.7173" rx="8.29231" fill="url(#paint2_linear_8122_18989)" fill-opacity="0.2"/>
<circle cx="36.0551" cy="37.0082" r="5.9125" fill="#6789FE" fill-opacity="0.5"/>
<circle cx="52.4281" cy="37.0082" r="5.9125" fill="#6789FE" fill-opacity="0.5"/>
<circle cx="68.8012" cy="37.0082" r="5.9125" fill="#6789FE" fill-opacity="0.5"/>
<path d="M156.892 541.201C149.524 541.201 143.092 538.712 137.595 533.736C132.099 528.759 129.352 521.8 129.352 512.851C129.352 504.914 132.009 498.235 137.324 492.817C142.64 487.402 149.162 484.69 156.892 484.69C164.502 484.69 170.905 487.402 176.099 492.817C181.293 498.235 183.89 504.914 183.89 512.851C183.89 521.672 181.172 528.604 175.737 533.642C170.3 538.679 164.018 541.201 156.892 541.201Z" fill="#5579F8"/>
<path d="M72.0312 341.358C72.0312 329.7 75.6197 317.889 82.7956 305.924C89.9716 293.96 100.441 284.051 114.205 276.197C127.97 268.346 144.027 264.417 162.379 264.417C179.437 264.417 194.494 267.703 207.553 274.264C220.611 280.829 230.698 289.757 237.816 301.046C244.933 312.338 248.492 324.607 248.492 337.86C248.492 348.291 246.463 357.436 242.404 365.287C238.345 373.14 233.523 379.92 227.934 385.626C222.346 391.332 212.317 400.935 197.847 414.433C193.848 418.237 190.642 421.584 188.23 424.465C185.819 427.349 184.025 429.988 182.849 432.38C181.672 434.773 180.761 437.166 180.113 439.559C179.466 441.952 178.495 446.157 177.202 452.167C174.967 464.932 167.967 471.31 156.203 471.31C150.086 471.31 144.939 469.224 140.763 465.052C136.587 460.882 134.499 454.683 134.499 446.461C134.499 436.154 136.028 427.225 139.087 419.679C142.146 412.132 146.204 405.506 151.263 399.8C156.322 394.094 163.145 387.314 171.732 379.46C179.261 372.588 184.702 367.404 188.055 363.907C191.408 360.41 194.231 356.516 196.525 352.218C198.819 347.923 199.966 343.262 199.966 338.229C199.966 328.412 196.466 320.128 189.467 313.38C182.467 306.633 173.438 303.256 162.38 303.256C149.439 303.256 139.91 306.661 133.793 313.471C127.676 320.282 122.499 330.314 118.265 343.566C114.266 357.436 106.678 364.366 95.5022 364.366C88.9148 364.366 83.3556 361.945 78.8267 357.095C74.2957 352.249 72.0312 347.003 72.0312 341.358Z" fill="#5579F8"/>
<g opacity="0.3">
<path d="M156.892 541.201C149.524 541.201 143.092 538.712 137.595 533.736C132.099 528.759 129.352 521.8 129.352 512.851C129.352 504.914 132.009 498.235 137.324 492.817C142.64 487.402 149.162 484.69 156.892 484.69C164.502 484.69 170.905 487.402 176.099 492.817C181.293 498.235 183.89 504.914 183.89 512.851C183.89 521.672 181.172 528.604 175.737 533.642C170.3 538.679 164.018 541.201 156.892 541.201Z" fill="black"/>
<path d="M72.0312 341.358C72.0312 329.7 75.6197 317.889 82.7956 305.924C89.9716 293.96 100.441 284.051 114.205 276.197C127.97 268.346 144.027 264.417 162.379 264.417C179.437 264.417 194.494 267.703 207.553 274.264C220.611 280.829 230.698 289.757 237.816 301.046C244.933 312.338 248.492 324.607 248.492 337.86C248.492 348.291 246.463 357.436 242.404 365.287C238.345 373.14 233.523 379.92 227.934 385.626C222.346 391.332 212.317 400.935 197.847 414.433C193.848 418.237 190.642 421.584 188.23 424.465C185.819 427.349 184.025 429.988 182.849 432.38C181.672 434.773 180.761 437.166 180.113 439.559C179.466 441.952 178.495 446.157 177.202 452.167C174.967 464.932 167.967 471.31 156.203 471.31C150.086 471.31 144.939 469.224 140.763 465.052C136.587 460.882 134.499 454.683 134.499 446.461C134.499 436.154 136.028 427.225 139.087 419.679C142.146 412.132 146.204 405.506 151.263 399.8C156.322 394.094 163.145 387.314 171.732 379.46C179.261 372.588 184.702 367.404 188.055 363.907C191.408 360.41 194.231 356.516 196.525 352.218C198.819 347.923 199.966 343.262 199.966 338.229C199.966 328.412 196.466 320.128 189.467 313.38C182.467 306.633 173.438 303.256 162.38 303.256C149.439 303.256 139.91 306.661 133.793 313.471C127.676 320.282 122.499 330.314 118.265 343.566C114.266 357.436 106.678 364.366 95.5022 364.366C88.9148 364.366 83.3556 361.945 78.8267 357.095C74.2957 352.249 72.0312 347.003 72.0312 341.358Z" fill="black"/>
</g>
<path d="M156.892 533.777C149.524 533.777 143.092 531.289 137.595 526.312C132.099 521.335 129.352 514.375 129.352 505.428C129.352 497.49 132.009 490.812 137.324 485.393C142.64 479.978 149.162 477.267 156.892 477.267C164.502 477.267 170.905 479.978 176.099 485.393C181.293 490.812 183.89 497.489 183.89 505.428C183.89 514.248 181.172 521.18 175.737 526.218C170.3 531.255 164.018 533.777 156.892 533.777Z" fill="#5579F8"/>
<path d="M72.0312 333.933C72.0312 322.275 75.6197 310.464 82.7956 298.499C89.9716 286.534 100.441 276.626 114.205 268.773C127.97 260.921 144.027 256.992 162.379 256.992C179.437 256.992 194.494 260.278 207.553 266.84C220.611 273.404 230.698 282.332 237.816 293.622C244.933 304.913 248.492 317.182 248.492 330.436C248.492 340.866 246.463 350.011 242.404 357.862C238.345 365.715 233.523 372.496 227.934 378.202C222.346 383.908 212.317 393.51 197.847 407.008C193.848 410.812 190.642 414.159 188.23 417.04C185.819 419.924 184.025 422.563 182.849 424.956C181.672 427.349 180.761 429.742 180.113 432.135C179.466 434.528 178.495 438.733 177.202 444.743C174.967 457.508 167.967 463.886 156.203 463.886C150.086 463.886 144.939 461.8 140.763 457.628C136.587 453.459 134.499 447.259 134.499 439.037C134.499 428.73 136.028 419.803 139.087 412.255C142.146 404.708 146.204 398.082 151.263 392.376C156.322 386.67 163.145 379.89 171.732 372.037C179.261 365.165 184.702 359.98 188.055 356.483C191.408 352.985 194.231 349.092 196.525 344.795C198.819 340.499 199.966 335.839 199.966 330.805C199.966 320.988 196.466 312.704 189.467 305.956C182.467 299.209 173.438 295.832 162.38 295.832C149.439 295.832 139.91 299.237 133.793 306.048C127.676 312.858 122.499 322.89 118.265 336.143C114.266 350.012 106.678 356.942 95.5022 356.942C88.9148 356.942 83.3556 354.521 78.8267 349.671C74.2957 344.824 72.0312 339.578 72.0312 333.933Z" fill="#5579F8"/>
<path d="M405.793 200.195C394.701 192.01 379.073 194.367 370.888 205.459C364.569 214.023 364.558 225.277 369.974 233.735L367.957 240.955L375.832 240.102C375.942 240.186 376.04 240.281 376.152 240.364C387.244 248.549 402.872 246.192 411.057 235.099C419.242 224.008 416.885 208.38 405.793 200.195Z" fill="#5579F8"/>
<path opacity="0.7" d="M405.793 200.195C394.701 192.01 379.073 194.367 370.888 205.459C364.569 214.023 364.558 225.277 369.974 233.735L367.957 240.955L375.832 240.102C375.942 240.186 376.04 240.281 376.152 240.364C387.244 248.549 402.872 246.192 411.057 235.099C419.242 224.008 416.885 208.38 405.793 200.195Z" fill="white"/>
<path d="M408.475 198.581C415.182 203.149 419.321 211.259 419.081 219.371" stroke="#5579F8" stroke-width="0.510016" stroke-miterlimit="10" stroke-linecap="round" stroke-linejoin="round"/>
<path d="M418.838 223.087C418.893 224.323 418.69 225.571 418.244 226.725" stroke="#5579F8" stroke-width="0.510016" stroke-miterlimit="10" stroke-linecap="round" stroke-linejoin="round"/>
<path d="M389.351 221.505C389.772 220.791 390.385 220.003 391.188 219.141C391.779 218.511 392.211 217.98 392.489 217.55C392.766 217.119 392.905 216.631 392.905 216.084C392.905 215.308 392.641 214.693 392.114 214.241C391.586 213.789 390.884 213.564 390.008 213.564C389.167 213.564 388.421 213.769 387.768 214.179C387.115 214.588 386.566 215.161 386.119 215.895L382.873 213.658C383.625 212.314 384.639 211.274 385.917 210.538C387.195 209.803 388.711 209.436 390.463 209.436C392.519 209.436 394.169 209.951 395.411 210.98C396.654 212.009 397.275 213.438 397.275 215.266C397.275 216.128 397.154 216.884 396.913 217.535C396.671 218.185 396.376 218.737 396.027 219.188C395.68 219.64 395.228 220.16 394.674 220.749C394.013 221.441 393.529 222.025 393.225 222.497C392.921 222.969 392.768 223.543 392.768 224.215H388.719C388.722 223.122 388.931 222.22 389.351 221.505ZM388.923 231.056C388.431 230.558 388.184 229.951 388.184 229.236C388.184 228.522 388.426 227.925 388.909 227.445C389.391 226.966 390.009 226.726 390.759 226.726C391.511 226.726 392.127 226.967 392.609 227.445C393.092 227.925 393.333 228.522 393.333 229.236C393.333 229.951 393.089 230.558 392.596 231.056C392.104 231.555 391.492 231.803 390.759 231.803C390.027 231.804 389.413 231.555 388.923 231.056Z" fill="#5579F8"/>
<path d="M171.144 195.869C163.854 207.569 167.43 222.964 179.13 230.253C188.163 235.88 199.383 235.009 207.39 228.946L214.747 230.389L213.278 222.606C213.354 222.489 213.44 222.384 213.515 222.266C220.804 210.565 217.229 195.171 205.528 187.882C193.827 180.593 178.433 184.169 171.144 195.869Z" fill="#5579F8"/>
<path opacity="0.7" d="M171.144 195.869C163.854 207.569 167.43 222.964 179.13 230.253C188.163 235.88 199.383 235.009 207.39 228.946L214.747 230.389L213.278 222.606C213.354 222.489 213.44 222.384 213.515 222.266C220.804 210.565 217.229 195.171 205.528 187.882C193.827 180.593 178.433 184.169 171.144 195.869Z" fill="white"/>
<path d="M169.324 193.322C173.351 186.275 181.113 181.514 189.218 181.117" stroke="#5579F8" stroke-width="0.510016" stroke-miterlimit="10" stroke-linecap="round" stroke-linejoin="round"/>
<path d="M192.943 181.068C194.171 180.916 195.431 181.021 196.618 181.374" stroke="#5579F8" stroke-width="0.510016" stroke-miterlimit="10" stroke-linecap="round" stroke-linejoin="round"/>
<path d="M191.605 209.948C192.025 209.234 192.638 208.446 193.442 207.585C194.033 206.954 194.465 206.424 194.743 205.993C195.021 205.563 195.159 205.074 195.159 204.527C195.159 203.751 194.895 203.136 194.367 202.684C193.84 202.232 193.138 202.007 192.262 202.007C191.421 202.007 190.674 202.212 190.022 202.622C189.369 203.031 188.819 203.604 188.373 204.339L185.127 202.102C185.878 200.757 186.893 199.717 188.171 198.982C189.449 198.246 190.965 197.879 192.716 197.879C194.772 197.879 196.422 198.394 197.664 199.423C198.907 200.452 199.528 201.88 199.528 203.709C199.528 204.571 199.407 205.327 199.166 205.978C198.924 206.629 198.629 207.182 198.28 207.631C197.932 208.083 197.481 208.604 196.927 209.192C196.266 209.886 195.782 210.468 195.478 210.94C195.174 211.413 195.021 211.986 195.021 212.658H190.972C190.976 211.566 191.185 210.663 191.605 209.948ZM191.177 219.5C190.685 219.002 190.438 218.395 190.438 217.68C190.438 216.966 190.679 216.368 191.162 215.889C191.645 215.409 192.263 215.169 193.013 215.169C193.765 215.169 194.381 215.41 194.863 215.889C195.346 216.368 195.587 216.966 195.587 217.68C195.587 218.395 195.343 219.002 194.85 219.5C194.358 219.998 193.746 220.246 193.013 220.246C192.28 220.246 191.668 219.997 191.177 219.5Z" fill="#5579F8"/>
<path d="M424.237 544.916C424.218 544.348 422.308 487.959 413.136 479.04C404.215 470.368 393.975 478.718 393.545 479.077L392.625 477.975C392.741 477.877 404.296 468.445 414.135 478.012C423.72 487.332 425.594 542.527 425.67 544.872L424.237 544.916Z" fill="#191B1F"/>
<path d="M425.026 555.997C424.96 555.323 418.758 488.302 443.233 460.212L444.316 461.153C420.245 488.778 426.391 555.189 426.455 555.856L425.026 555.997Z" fill="#191B1F"/>
<path d="M424.12 548.908L422.687 548.812C422.737 548.052 427.477 472.618 409.523 456.106L410.495 455.049C428.952 472.026 424.325 545.777 424.12 548.908Z" fill="#191B1F"/>
<path d="M426.458 548.867L425.021 548.855C425.039 546.778 425.614 497.903 439.497 489.948C442.583 488.177 445.605 487.883 448.479 489.071C456.874 492.544 461.034 507.484 461.207 508.118L459.822 508.497C459.781 508.348 455.673 493.6 447.928 490.398C445.487 489.391 442.89 489.657 440.21 491.193C427.037 498.741 426.462 548.366 426.458 548.867Z" fill="#191B1F"/>
<path d="M421.051 548.901L419.619 548.82C419.641 548.434 421.713 510.197 411.394 496.725C408.894 493.462 406.179 491.905 403.312 492.106C396.55 492.578 390.881 502.473 390.825 502.573L389.574 501.866C389.82 501.431 395.678 491.201 403.21 490.674C406.579 490.434 409.721 492.18 412.534 495.853C423.177 509.747 421.143 547.309 421.051 548.901Z" fill="#191B1F"/>
<path d="M423.314 554.102C423.034 550.392 416.569 463.084 427.943 447.699L429.097 448.551C418.037 463.511 424.677 553.089 424.745 553.992L423.314 554.102Z" fill="#191B1F"/>
<path d="M453.632 493.891C453.632 493.891 446.372 496.574 448.837 502.346C455.781 518.611 472.332 520.344 472.332 520.344C472.332 520.344 480.099 508.049 473.733 498.5C464.955 485.334 453.815 489.641 453.632 493.891Z" fill="#5579F8"/>
<path d="M421.907 486.613C421.907 486.613 429.174 486.309 429.587 492.571C430 498.833 413.845 516.159 413.845 516.159C413.845 516.159 402.316 511.991 404.792 496.364C407.268 480.737 420.101 482.761 421.907 486.613Z" fill="#5579F8"/>
<path d="M425.43 450.117C425.43 450.117 422.378 449.742 421.231 446.995C417.807 438.802 429.572 429.969 445.303 434.636C445.303 434.636 445.72 448.479 437.255 453.938C428.789 459.399 425.43 450.117 425.43 450.117Z" fill="#5579F8"/>
<path d="M398.473 493.046C398.473 493.046 401.005 489.574 397.179 489.233C393.353 488.892 376.788 496.315 381.144 513.306C381.144 513.306 402.448 506.356 403.188 499.243C403.927 492.13 398.473 493.046 398.473 493.046Z" fill="#5579F8"/>
<path d="M443.896 456.196C443.896 456.196 444.853 453.043 448.462 451.725C452.069 450.407 465.475 451.234 465.659 468.772C465.659 468.772 445.038 472.2 442.486 465.519C439.933 458.838 443.896 456.196 443.896 456.196Z" fill="#5579F8"/>
<path d="M432.763 470.769C432.763 470.769 434.149 468.365 436.798 469.653C439.447 470.939 447.259 478.976 439.811 488.678C439.811 488.678 425.97 480.357 427.101 474.516C428.144 469.132 432.763 470.769 432.763 470.769Z" fill="#5579F8"/>
<path d="M398.857 475C398.857 475 400.855 472.381 397.929 472.056C395.001 471.732 381.883 475.234 384.939 488.329C384.939 488.329 400.921 487.128 401.605 481.687C402.29 476.248 398.857 475 398.857 475Z" fill="#5579F8"/>
<path d="M444.552 583.894H405.49L401.275 543.475H448.766L444.552 583.894Z" fill="#191B1F"/>
<path d="M455.335 537.938H394.707V549.014H455.335V537.938Z" fill="#191B1F"/>
<path opacity="0.3" d="M412.417 510.388C411.219 501.87 415.53 492.388 421.907 486.614" stroke="black" stroke-width="0.510016" stroke-miterlimit="10" stroke-linecap="round" stroke-linejoin="round"/>
<path opacity="0.3" d="M432.764 471.249C436.068 474.531 438.366 478.813 439.278 483.38" stroke="black" stroke-width="0.510016" stroke-miterlimit="10" stroke-linecap="round" stroke-linejoin="round"/>
<path opacity="0.3" d="M453.633 493.892C460.223 496.818 466.426 503.011 469.582 509.494" stroke="black" stroke-width="0.510016" stroke-miterlimit="10" stroke-linecap="round" stroke-linejoin="round"/>
<path opacity="0.3" d="M443.896 456.195C447.31 455.217 450.392 456.262 453.71 457.527C457.028 458.793 459.916 461.158 461.81 464.161" stroke="black" stroke-width="0.510016" stroke-miterlimit="10" stroke-linecap="round" stroke-linejoin="round"/>
<path d="M414.97 459.15C414.97 459.15 419.808 459.727 420.089 456.764C420.369 453.801 404.094 442.27 390.74 451.803C390.74 451.803 394.851 465.028 404.633 467.435C414.414 469.842 414.97 459.15 414.97 459.15Z" fill="#5579F8"/>
<path opacity="0.3" d="M414.823 459.392C409.734 452.554 397.245 450.331 392.992 451.873" stroke="black" stroke-width="0.510016" stroke-miterlimit="10" stroke-linecap="round" stroke-linejoin="round"/>
<path opacity="0.3" d="M399.002 475.236C394.851 476.779 390.417 479.442 388.111 483.224" stroke="black" stroke-width="0.510016" stroke-miterlimit="10" stroke-linecap="round" stroke-linejoin="round"/>
<path opacity="0.3" d="M383.42 506.856C386.666 500.632 392.122 495.589 398.582 492.842" stroke="black" stroke-width="0.510016" stroke-miterlimit="10" stroke-linecap="round" stroke-linejoin="round"/>
<path opacity="0.3" d="M426.07 449.786C428.661 444.256 433.636 439.892 439.458 438.046" stroke="black" stroke-width="0.510016" stroke-miterlimit="10" stroke-linecap="round" stroke-linejoin="round"/>
<path opacity="0.3" d="M401.852 549.014L402.608 556.271H447.431L448.189 549.006L401.852 549.014Z" fill="black"/>
<path d="M271.465 545.638L275.441 574.814L284.95 575.294L288.028 547.168L271.465 545.638Z" fill="#191B1F"/>
<path d="M293.045 588.359H271.778C271.778 588.359 271.314 587.465 271.844 585.087C271.925 584.717 272.031 584.31 272.167 583.865C272.175 583.843 272.18 583.822 272.187 583.799C272.386 583.141 272.614 582.331 272.857 581.458C273.831 577.897 274.977 573.245 274.977 573.245C274.977 573.245 278.515 565.669 282.654 567.561C286.287 569.22 285.425 573.968 285.425 573.968C285.425 573.968 285.781 576.756 288.534 579.215C290.236 580.734 291.93 581.91 292.745 583.799C292.897 584.152 293.017 584.527 293.103 584.935C293.113 584.984 293.123 585.036 293.13 585.087C293.3 585.998 293.29 587.065 293.045 588.359Z" fill="#191B1F"/>
<path opacity="0.3" d="M271.842 585.087C271.312 587.465 271.776 588.358 271.776 588.358H293.044C293.289 587.065 293.299 585.998 293.129 585.087H271.842Z" fill="#000F16"/>
<path d="M284.569 575.161C283.372 574.228 281.804 574.35 280.727 575.399C280.438 575.682 279.994 575.238 280.284 574.955C281.626 573.646 283.544 573.572 285.013 574.717C285.331 574.965 284.884 575.406 284.569 575.161Z" fill="#5579F8"/>
<path d="M285.17 577.147C283.974 576.215 282.405 576.336 281.329 577.386C281.039 577.668 280.596 577.224 280.885 576.942C282.228 575.632 284.145 575.559 285.615 576.703C285.932 576.951 285.486 577.393 285.17 577.147Z" fill="#5579F8"/>
<path d="M285.774 578.974C284.577 578.042 283.009 578.163 281.932 579.213C281.644 579.495 281.199 579.052 281.489 578.769C282.831 577.459 284.749 577.386 286.218 578.53C286.536 578.778 286.089 579.219 285.774 578.974Z" fill="#5579F8"/>
<path d="M231.547 543.812L227.57 572.988L218.062 573.468L214.982 545.343L231.547 543.812Z" fill="#191B1F"/>
<path d="M209.966 586.533H231.234C231.234 586.533 231.698 585.64 231.168 583.262C231.087 582.892 230.981 582.484 230.844 582.04C230.837 582.018 230.832 581.995 230.825 581.974C230.626 581.316 230.397 580.506 230.155 579.633C229.181 576.072 228.034 571.421 228.034 571.421C228.034 571.421 224.496 563.845 220.356 565.737C216.724 567.396 217.586 572.144 217.586 572.144C217.586 572.144 217.23 574.932 214.477 577.39C212.774 578.909 211.081 580.085 210.266 581.974C210.114 582.327 209.994 582.702 209.908 583.11C209.899 583.159 209.888 583.211 209.881 583.262C209.711 584.173 209.72 585.24 209.966 586.533Z" fill="#191B1F"/>
<path opacity="0.3" d="M231.168 583.262C231.698 585.639 231.234 586.533 231.234 586.533H209.966C209.72 585.24 209.711 584.173 209.881 583.262H231.168Z" fill="#000F16"/>
<path d="M218.44 573.336C219.636 572.404 221.205 572.525 222.281 573.575C222.571 573.858 223.015 573.414 222.725 573.131C221.383 571.822 219.465 571.748 217.996 572.893C217.678 573.14 218.125 573.581 218.44 573.336Z" fill="#5579F8"/>
<path d="M217.841 575.323C219.037 574.39 220.606 574.512 221.682 575.561C221.972 575.844 222.415 575.4 222.126 575.118C220.782 573.808 218.866 573.734 217.396 574.879C217.079 575.127 217.525 575.567 217.841 575.323Z" fill="#5579F8"/>
<path d="M217.237 577.148C218.434 576.216 220.002 576.337 221.079 577.387C221.367 577.669 221.812 577.225 221.522 576.943C220.179 575.633 218.262 575.56 216.793 576.704C216.474 576.952 216.922 577.394 217.237 577.148Z" fill="#5579F8"/>
<path d="M292.292 354.109L248.062 356.745L221.004 352.072C221.004 352.072 219.167 382.973 216.855 456.397C216.351 472.409 212.119 567.591 212.119 567.591L235.904 570.014C235.904 570.014 247.718 471.295 249.524 462.673C250.61 457.487 254.665 418.556 257.887 399.945C259.449 415.466 260.737 452.925 261.917 463.002C261.917 463.002 267.821 544.016 268.657 566.997L290.828 565.896C293.564 534.346 294.492 419.422 294.492 419.422L294.488 419.42C296.024 395.351 292.292 354.109 292.292 354.109Z" fill="#137FB4"/>
<path d="M292.292 354.109L248.062 356.745L221.004 352.072C221.004 352.072 219.167 382.973 216.855 456.397C216.351 472.409 212.119 567.591 212.119 567.591L235.904 570.014C235.904 570.014 247.718 471.295 249.524 462.673C250.61 457.487 254.665 418.556 257.887 399.945C259.449 415.466 260.737 452.925 261.917 463.002C261.917 463.002 267.821 544.016 268.657 566.997L290.828 565.896C293.564 534.346 294.492 419.422 294.492 419.422L294.488 419.42C296.024 395.351 292.292 354.109 292.292 354.109Z" fill="#3C55AE"/>
<path d="M238.704 250.128C242.812 249.873 253.37 247.711 268.546 249.327C276.445 250.169 282.896 249.984 291 253.705L295.006 350.976C295.067 359.014 293.776 360.139 293.776 360.139C293.776 360.139 294.008 364.704 294.025 364.845C267.353 375.152 236.635 374.48 219.646 363.893C220.047 363.959 219.646 360.596 219.646 360.596C219.646 360.596 217.085 358 217.962 349.74C220.888 322.178 227.3 277.751 231.849 252.963C231.969 252.351 238.08 250.166 238.704 250.128Z" fill="#191B1F"/>
<path opacity="0.3" d="M238.704 250.128C242.812 249.873 253.37 247.711 268.546 249.327C276.445 250.169 282.896 249.984 291 253.705L295.006 350.976C295.067 359.014 293.776 360.139 293.776 360.139C293.776 360.139 294.008 364.704 294.025 364.845C267.353 375.152 236.635 374.48 219.646 363.893C220.047 363.959 219.646 360.596 219.646 360.596C219.646 360.596 217.085 358 217.962 349.74C220.888 322.178 227.3 277.751 231.849 252.963C231.969 252.351 238.08 250.166 238.704 250.128Z" fill="#191B1F"/>
<path opacity="0.3" d="M288.085 259.028C287.032 259.028 282.75 268.961 280.015 281.007C277.279 293.053 270.236 315.722 270.236 315.722L228.212 322.351L225.799 342.384C225.799 342.384 281.881 347.521 288.405 340.494C294.928 333.468 293.15 332.116 295.516 319.626C297.626 308.489 298.746 280.517 298.414 273.093C297.942 262.499 289.538 259.057 288.085 259.028Z" fill="black"/>
<path d="M209.361 322.352C209.361 322.352 203.969 330.508 207.564 332.581C211.158 334.655 224.632 338.25 224.632 338.25V322.977L209.361 322.352Z" fill="#FFBE9D"/>
<path d="M290.643 253.546C289.59 253.546 283.765 264.356 281.029 276.402C278.294 288.447 272.612 317.155 272.612 317.155L224.633 322.977V340.242C224.633 340.242 282.502 344.257 289.025 337.231C295.549 330.205 295.708 326.634 298.074 314.145C300.185 303.007 301.305 275.036 300.972 267.611C300.5 257.016 292.096 253.573 290.643 253.546Z" fill="#191B1F"/>
<path opacity="0.3" d="M290.643 253.546C289.59 253.546 283.765 264.356 281.029 276.402C278.294 288.447 272.612 317.155 272.612 317.155L224.633 322.977V340.242C224.633 340.242 282.502 344.257 289.025 337.231C295.549 330.205 295.708 326.634 298.074 314.145C300.185 303.007 301.305 275.036 300.972 267.611C300.5 257.016 292.096 253.573 290.643 253.546Z" fill="#32363F"/>
<g opacity="0.3">
<path d="M281.25 266.963C282.863 261.292 288.122 256.944 294.007 256.464C294.494 256.424 294.498 255.659 294.007 255.699C287.779 256.207 282.223 260.742 280.513 266.759C280.377 267.234 281.115 267.437 281.25 266.963Z" fill="black"/>
</g>
<path d="M241.947 247.245C241.947 247.245 242.711 249.579 242.161 250.333C241.611 251.087 240.939 251.262 240.939 251.262C240.939 251.262 242.115 253.01 241.649 254.118C241.649 254.118 243.414 256.1 242.36 257.44C241.306 258.781 240.145 258.023 239.778 257.44C239.412 256.858 237.823 260.974 235.807 260.081C233.792 259.189 235.746 256.799 236.357 255.925L234.402 256.216C234.402 256.216 231.53 262.627 229.392 262.919C227.254 263.211 221.4 262.606 220.875 260.081C220.875 260.081 230.014 243.371 230.649 243.007C231.116 242.74 236.531 241.554 239.36 240.946C240.413 240.72 241.489 241.173 242.032 242.061C242.934 243.533 244.021 245.661 243.215 246.276C241.947 247.245 241.947 247.245 241.947 247.245Z" fill="#FFBE9D"/>
<path opacity="0.3" d="M220.192 261.472C219.696 262.181 204.807 308.269 207.284 316.774C209.76 325.28 213.475 328.351 219.667 327.17C225.858 325.989 229.078 324.099 229.821 316.301C230.564 308.504 235.82 265.239 232.19 262.985C230.446 261.903 220.192 261.472 220.192 261.472Z" fill="black"/>
<path d="M217.78 259.662C217.284 260.371 202.395 306.459 204.871 314.964C207.348 323.47 211.063 326.542 217.255 325.36C223.446 324.179 226.665 322.289 227.409 314.492C228.152 306.695 234.463 263.332 232.563 262.557C230.663 261.781 217.78 259.662 217.78 259.662Z" fill="#32363F"/>
<path d="M269.007 252.669C269.007 252.669 262.079 258.549 260.271 258.997C257.841 259.599 250.309 251.474 250.309 251.474C253.298 247.592 251.849 244.61 251.18 240.143L270.234 221.74C270.234 221.74 268.249 221.694 268.238 221.74C267.751 223.34 267.637 233.034 267.987 245.296L269.007 252.669Z" fill="#FFBE9D"/>
<g opacity="0.2">
<path d="M260.859 239.238C259.259 242.361 255.727 244.775 252.176 245.742C252.148 245.411 252.02 244.936 251.978 244.611C251.915 244.099 251.72 243.34 251.617 242.809C251.485 242.161 251.323 241.461 251.123 240.805C251.026 240.549 250.931 240.613 250.834 240.358L250.635 239.832L260.529 233.465C261.566 233.886 262.144 236.705 260.859 239.238Z" fill="#191B1F"/>
</g>
<path d="M268.868 209.061C268.562 196.809 255.814 188.639 244.473 194.433C232.963 200.316 232.865 218.55 236.43 229.274C240.391 241.188 255.917 245.467 264.362 235.256C269.976 228.468 269.174 221.312 268.868 209.061Z" fill="#FFBE9D"/>
<path d="M251.778 216.546C251.972 217.782 251.474 218.882 250.663 219.002C249.852 219.123 249.037 218.217 248.841 216.979C248.646 215.743 249.145 214.644 249.956 214.523C250.767 214.404 251.583 215.31 251.778 216.546Z" fill="#263238"/>
<path d="M239.202 217.813C239.398 219.049 238.898 220.148 238.089 220.269C237.278 220.388 236.463 219.483 236.267 218.246C236.072 217.01 236.571 215.91 237.382 215.79C238.192 215.671 239.008 216.576 239.202 217.813Z" fill="#263238"/>
<path d="M243.911 215.63C243.911 215.63 240.965 222.392 240.105 225.092C242.072 226.375 244.924 225.191 244.924 225.191L243.911 215.63Z" fill="#E3A383"/>
<path d="M253.078 210.051C252.918 210.177 252.694 210.217 252.49 210.135C250.111 209.181 248.422 210.259 248.247 210.376C247.981 210.56 247.614 210.495 247.428 210.231C247.242 209.967 247.308 209.603 247.572 209.42C247.666 209.354 249.908 207.842 252.93 209.054C253.232 209.175 253.378 209.515 253.257 209.813C253.217 209.911 253.155 209.991 253.078 210.051Z" fill="#263238"/>
<path d="M235.481 214.922C235.383 214.872 235.296 214.792 235.237 214.688C235.076 214.406 235.17 214.047 235.45 213.886C238.249 212.27 240.646 213.498 240.761 213.54C241.048 213.689 241.163 214.044 241.017 214.332C240.871 214.62 240.524 214.734 240.237 214.589C240.139 214.534 238.279 213.612 236.033 214.909C235.858 215.01 235.651 215.008 235.481 214.922Z" fill="#263238"/>
<path d="M265.251 216.467C265.251 216.467 263.407 195.718 256.925 194.932C250.442 194.147 249.451 200.184 245.204 200.346C240.959 200.507 241.02 197.366 241.02 197.366C238.548 199.132 236.883 204.189 235.158 208.095C235.158 208.095 236.036 196.698 240.541 193.222C249.307 186.456 261.618 187.698 267.19 192.847C272.664 197.906 272.726 208.874 272.726 208.874C272.174 217.295 271.552 222.021 268.287 227.424L265.251 216.467Z" fill="#191B1F"/>
<path d="M274.213 216.689C273.72 220.073 271.702 222.9 269.411 224.526C265.966 226.973 263.928 223.105 263.659 219.103C263.419 215.5 263.773 211.009 267.82 210.152C271.808 209.307 274.776 212.821 274.213 216.689Z" fill="#FFBE9D"/>
<path opacity="0.2" d="M270.807 213.678C270.183 213.01 269.111 212.896 268.269 213.25C267.427 213.604 266.798 214.345 266.378 215.156C265.874 216.129 265.63 217.237 265.678 218.332" stroke="#191B1F" stroke-width="0.510016" stroke-miterlimit="10" stroke-linecap="round" stroke-linejoin="round"/>
<path d="M262.19 199.44C261.262 196.617 259.398 193.963 256.674 192.777C255.387 192.216 253.975 192.007 252.577 191.889C248.855 191.577 251.321 190.329 247.598 190.631L244.122 191.498C241.478 192.55 236.603 195.332 234.353 197.074C230.782 199.841 226.693 201.938 222.358 203.21C221.624 203.425 220.751 203.754 220.619 204.508C220.486 205.27 221.22 205.886 221.899 206.26C226.253 208.658 231.917 208.46 236.095 205.765C235.15 208.538 229.734 209.89 231.732 210.097C237.845 211.427 244.611 209.102 248.615 204.296C248.61 205.106 248.61 205.943 248.93 206.687C249.251 207.431 249.983 208.062 250.79 208C251.443 207.95 251.983 207.478 252.401 206.973C253.869 205.197 254.405 202.852 254.896 200.6C257.51 203.361 261.419 213.708 264.426 216.034C269.581 209.153 263.118 202.262 262.19 199.44Z" fill="#191B1F"/>
<path d="M247.151 229.336C248.436 228.608 250.055 228.515 251.405 229.127C251.593 229.211 251.816 229.181 251.928 228.989C252.024 228.825 251.98 228.552 251.792 228.466C250.185 227.738 248.304 227.803 246.765 228.675C246.337 228.918 246.721 229.579 247.151 229.336Z" fill="#263238"/>
<path d="M262.261 189.927C261.969 188.655 261.456 187.419 260.768 186.31C260.452 185.8 259.729 185.556 259.198 185.898C258.687 186.227 258.448 186.922 258.786 187.468C259.09 187.957 259.356 188.468 259.581 188.999C259.542 188.907 259.503 188.816 259.466 188.724C259.712 189.311 259.906 189.916 260.048 190.536C260.183 191.121 260.888 191.522 261.46 191.338C262.072 191.141 262.405 190.554 262.261 189.927Z" fill="#191B1F"/>
<path d="M263.428 192.565C263.429 192.447 263.432 192.329 263.439 192.21C263.443 192.144 263.428 191.894 263.471 191.857C263.449 191.876 263.431 192.107 263.463 191.929C263.472 191.877 263.48 191.825 263.489 191.774C263.51 191.658 263.536 191.542 263.563 191.427C263.62 191.197 263.688 190.97 263.77 190.749C263.788 190.7 263.806 190.65 263.826 190.601C263.891 190.434 263.886 190.541 263.816 190.62C263.883 190.545 263.924 190.389 263.969 190.3C264.07 190.101 264.183 189.906 264.304 189.718C264.368 189.618 264.435 189.522 264.505 189.426C264.523 189.4 264.634 189.254 264.534 189.384C264.425 189.525 264.568 189.344 264.592 189.316C264.736 189.144 264.887 188.98 265.048 188.825C265.132 188.742 265.22 188.663 265.31 188.586C265.36 188.543 265.412 188.503 265.462 188.46C265.578 188.36 265.237 188.628 265.449 188.471C265.697 188.286 265.89 188.095 265.976 187.785C266.051 187.511 266.018 187.145 265.861 186.901C265.554 186.426 264.806 186.106 264.291 186.489C262.359 187.922 261.155 190.143 261.135 192.566C261.13 193.167 261.666 193.741 262.282 193.714C262.907 193.685 263.422 193.209 263.428 192.565Z" fill="#191B1F"/>
<path d="M352.891 274.331C352.891 274.331 359.185 274.886 363.366 282.1C367.546 289.313 371.646 295.215 371.646 295.215L358.123 304.232L352.891 274.331Z" fill="#5579F8"/>
<path opacity="0.7" d="M352.891 274.331C352.891 274.331 359.185 274.886 363.366 282.1C367.546 289.313 371.646 295.215 371.646 295.215L358.123 304.232L352.891 274.331Z" fill="#5579F8"/>
<path d="M360.749 336.594C359.241 335.585 357.315 335.509 355.502 335.491C341.93 335.354 328.345 336.612 315.03 339.237L312.693 340.389C310.849 339.317 308.383 340.04 306.833 341.504C305.281 342.967 304.436 345.008 303.637 346.986C296.736 364.085 290.166 381.364 285.499 399.204C284.419 403.333 283.491 407.937 285.522 411.691C287.892 416.071 293.337 417.613 298.24 418.485C314.258 421.333 330.617 421.51 346.886 421.542C350.84 421.551 355.068 421.47 358.326 419.23C362.889 416.093 363.97 409.917 364.502 404.406C366.445 384.269 366.262 363.925 363.884 343.835C363.563 341.135 363.007 338.107 360.749 336.594Z" fill="#32363F"/>
<path d="M345.389 575.875L356.643 576.976L364.96 548.483L347.84 546.619L345.389 575.875Z" fill="#FFBE9D"/>
<path d="M358.274 572.006H354.257C353.348 572.006 352.506 572.466 351.97 573.199C349.652 576.363 347.911 575.168 345.392 572.193C343.789 572.006 343.358 573.845 343.227 574.339L340.223 585.264C339.962 586.177 340.49 587.128 341.402 587.389C341.564 587.435 341.733 587.457 341.902 587.455C346.782 587.455 349.09 587.455 355.162 587.455H373.735C378.799 587.455 379.847 582.353 377.762 581.881C368.384 579.808 361.743 577.049 358.844 574.32C358.307 573.843 358.859 573.486 358.274 572.006Z" fill="#137FB4"/>
<path d="M366.993 575.113C367.416 574.809 367.669 574.323 367.675 573.801C367.711 573.522 367.584 573.247 367.348 573.094C366.088 572.202 361.065 574.549 360.501 574.825C360.439 574.847 360.389 574.896 360.367 574.959C360.325 575.075 360.385 575.203 360.501 575.245C361.736 575.537 362.997 575.7 364.266 575.73C365.216 575.82 366.172 575.604 366.993 575.113ZM367.032 573.473C367.134 573.536 367.187 573.657 367.163 573.775C367.142 574.151 366.96 574.5 366.664 574.733C365.523 575.585 362.769 575.218 361.287 574.943C363.373 574.025 366.337 572.988 367.032 573.473Z" fill="#191B1F"/>
<path d="M360.672 575.297C362.18 574.668 365.341 572.188 365.171 570.877C365.145 570.602 364.948 570.273 364.266 570.182C361.512 569.867 360.331 574.812 360.331 575.022C360.304 575.107 360.33 575.2 360.396 575.258C360.447 575.273 360.502 575.273 360.553 575.258L360.672 575.297ZM364.174 570.588C364.685 570.64 364.685 570.824 364.685 570.89C364.829 571.69 362.533 573.749 360.894 574.615C361.235 573.461 362.246 570.575 363.99 570.575L364.174 570.588Z" fill="#191B1F"/>
<path d="M361.064 575.106C359.68 575.295 358.397 576.122 357.652 577.305" stroke="#191B1F" stroke-width="0.510016" stroke-miterlimit="10" stroke-linecap="round" stroke-linejoin="round"/>
<path d="M363.56 576.987C362.176 577.176 360.893 578.003 360.148 579.185" stroke="#191B1F" stroke-width="0.510016" stroke-miterlimit="10" stroke-linecap="round" stroke-linejoin="round"/>
<path d="M366.668 578.567C365.284 578.756 363.999 579.583 363.256 580.766" stroke="#191B1F" stroke-width="0.510016" stroke-miterlimit="10" stroke-linecap="round" stroke-linejoin="round"/>
<path opacity="0.3" d="M360.567 563.542L359.548 567.036L346.303 565.002L346.542 562.138L360.567 563.542Z" fill="#191B1F"/>
<path d="M306.391 576.777L317.645 577.88L325.963 549.386L308.842 547.522L306.391 576.777Z" fill="#FFBE9D"/>
<path d="M319.277 572.909H315.259C314.35 572.909 313.508 573.369 312.971 574.103C310.653 577.267 308.912 576.071 306.391 573.096C304.789 572.909 304.359 574.748 304.227 575.242L301.223 586.169C300.962 587.08 301.49 588.032 302.402 588.293C302.564 588.34 302.733 588.362 302.901 588.36C307.781 588.36 310.089 588.36 316.161 588.36H334.734C339.798 588.36 340.846 583.257 338.761 582.785C329.383 580.712 322.743 577.953 319.844 575.225C319.309 574.746 319.861 574.388 319.277 572.909Z" fill="#137FB4"/>
<path d="M327.996 576.017C328.418 575.713 328.672 575.226 328.678 574.705C328.714 574.425 328.586 574.15 328.35 573.997C327.091 573.105 322.067 575.452 321.503 575.728C321.441 575.75 321.391 575.799 321.369 575.862C321.327 575.979 321.387 576.106 321.503 576.148C322.738 576.441 323.999 576.603 325.268 576.634C326.22 576.723 327.176 576.507 327.996 576.017ZM328.036 574.376C328.138 574.44 328.191 574.56 328.167 574.678C328.146 575.054 327.964 575.402 327.668 575.636C326.527 576.489 323.773 576.122 322.291 575.846C324.376 574.927 327.34 573.891 328.036 574.376Z" fill="#191B1F"/>
<path d="M321.672 576.2C323.18 575.571 326.341 573.091 326.171 571.78C326.145 571.505 325.948 571.178 325.266 571.086C322.512 570.771 321.331 575.716 321.331 575.926C321.304 576.01 321.33 576.103 321.396 576.161C321.447 576.177 321.502 576.177 321.553 576.161L321.672 576.2ZM325.174 571.491C325.685 571.544 325.685 571.727 325.685 571.793C325.828 572.592 323.533 574.652 321.894 575.518C322.235 574.363 323.246 571.477 324.99 571.477L325.174 571.491Z" fill="#191B1F"/>
<path d="M322.066 576.011C320.682 576.199 319.399 577.027 318.654 578.209" stroke="#191B1F" stroke-width="0.510016" stroke-miterlimit="10" stroke-linecap="round" stroke-linejoin="round"/>
<path d="M324.562 577.89C323.178 578.078 321.894 578.906 321.15 580.088" stroke="#191B1F" stroke-width="0.510016" stroke-miterlimit="10" stroke-linecap="round" stroke-linejoin="round"/>
<path d="M327.67 579.471C326.286 579.659 325.002 580.487 324.258 581.669" stroke="#191B1F" stroke-width="0.510016" stroke-miterlimit="10" stroke-linecap="round" stroke-linejoin="round"/>
<path opacity="0.3" d="M307.305 565.905L307.544 563.04L321.57 564.445L320.55 567.939" fill="#191B1F"/>
<path opacity="0.2" d="M366.825 359.592C366.825 359.592 358.561 368.317 342.364 368.468C326.167 368.618 307.996 359.183 307.996 359.183L310.03 355.7L356.672 360.782L365.598 355.7L366.825 359.592Z" fill="black"/>
<path d="M368.243 364.597C368.243 364.597 378.086 404.92 382.532 440.798C383.886 451.733 384.144 466.357 381.751 477.123L363.772 566.502L341.149 564.235C344.705 525.688 349.659 478.146 351.078 457.917L325.072 376.984L368.243 364.597Z" fill="#191B1F"/>
<path opacity="0.2" d="M339.02 420.488C338.945 420.862 350.225 374.762 350.225 374.762C350.225 374.762 353.254 412.39 341.92 430.348L339.02 420.488Z" fill="black"/>
<path d="M306.028 469.179C306.242 466.901 306.454 462.305 306.66 456.253C306.629 456.25 306.595 456.248 306.564 456.245C306.251 448.319 302.763 411.826 302.155 388.335C302.094 373.328 304.536 362.842 307.681 357.448C307.843 357.172 307.992 356.919 308.128 356.695C308.654 355.823 308.979 355.339 308.979 355.339C309.725 355.424 310.465 355.496 311.2 355.557C311.475 355.581 311.749 355.602 312.02 355.622C339.572 357.657 359.782 346.791 359.782 346.791C363.061 352.556 364.651 351.361 368.245 364.597C365.851 368.047 358.503 388.301 344.739 392.826L343.137 411.568C342.522 423.138 341.277 434.572 340.294 444.849L339.335 456.089C339.284 456.825 339.235 457.554 339.191 458.269C338.801 464.709 323.122 569.724 323.122 569.724L302.155 569.418C302.155 569.418 303.146 500.015 306.028 469.179Z" fill="#191B1F"/>
<path opacity="0.2" d="M364.944 560.688L363.775 566.502L341.15 564.236L341.738 557.922L364.944 560.688Z" fill="black"/>
<path opacity="0.2" d="M323.121 569.725L324.005 563.792L302.154 563.53V569.419L323.121 569.725Z" fill="black"/>
<path d="M303.469 304.319L296.434 280.329C300.884 273.686 322.905 268.582 322.905 268.582L337.413 269.376C337.413 269.376 342.99 270.62 347.764 272.177C354.137 274.255 357.583 275.927 359.103 279.464C359.103 279.464 361.763 287.3 360.164 303.446C359.725 307.886 358.72 331.318 359.959 338.943L368.972 356.577C342.463 377.222 308.525 356.586 308.525 356.586C309.716 352.941 312.336 344.867 312.874 341.304C312.486 336.759 311.21 333.774 309.285 325.816C308.913 324.28 304.114 305.812 303.469 304.319Z" fill="#5579F8"/>
<path opacity="0.2" d="M306.222 312.914H307.514L311.41 301.411L309.69 327.464L306.1 313.827L306.222 312.914Z" fill="black"/>
<path d="M334.061 345.696C327.496 341.188 319.328 339.07 311.399 339.817L307.518 350.008C318.373 359.796 331.647 361.108 346.255 360.652C348.313 353.094 340.626 350.203 334.061 345.696Z" fill="#32363F"/>
<path d="M364.604 339.134C363.532 337.129 361.347 335.535 359.101 335.883C357.428 336.142 356.091 337.377 354.937 338.614C350.349 343.527 346.815 349.419 344.643 355.78L345.498 360.654C347.009 360.034 348.52 359.414 350.029 358.794C354.311 357.035 358.726 355.188 361.926 351.843C365.126 348.498 366.785 343.216 364.604 339.134Z" fill="#32363F"/>
<path d="M352.73 356.603C352.73 359.991 349.984 362.738 346.595 362.738C343.208 362.738 340.461 359.992 340.461 356.603C340.461 353.216 343.207 350.469 346.595 350.469C349.984 350.469 352.73 353.216 352.73 356.603Z" fill="#32363F"/>
<path d="M349.257 380.699C348.749 373.416 348.241 366.133 347.733 358.849L344.881 360.701C335.948 373.751 332.035 390.146 334.108 405.824C337.917 406.482 341.795 406.731 345.657 406.568C344.569 404.269 343.48 401.969 342.392 399.67C345.759 398.355 347.983 394.99 348.868 391.487C349.754 387.983 349.509 384.305 349.257 380.699Z" fill="#32363F"/>
<path d="M361.652 388.387C363.281 386.165 363.584 383.234 363.41 380.485C362.86 371.744 357.801 363.408 350.303 358.883L349.084 357.925C353.44 371.064 352.592 385.283 351.697 399.096C354.625 398.504 357.552 397.911 360.48 397.318C359.577 395.507 358.655 393.426 359.369 391.533C359.828 390.315 360.882 389.438 361.652 388.387Z" fill="#32363F"/>
<path d="M338.64 226.622C338.64 226.622 341.045 253.281 342.374 260.939C346.558 265.945 363.108 262.329 356.63 244.705C353.213 235.408 352.919 223.651 346.464 218.862C337.394 212.136 338.64 226.622 338.64 226.622Z" fill="#01324A"/>
<path d="M336.403 270.687C334.885 269.171 334.201 267.597 334.487 265.39C334.687 263.694 335.235 261.931 335.887 260.216L333.623 257.754L321.845 246.7C322.407 254.346 323.771 266.608 317.938 270.981L336.402 285.904V270.687H336.403Z" fill="#FFBE9D"/>
<path opacity="0.2" d="M334.425 265.902C331.234 264.161 327.689 261.068 327.966 257.377C328.094 255.822 328.374 254.344 328.711 253.391L335.391 261.602C334.919 262.976 334.732 263.839 334.425 265.902Z" fill="#191B1F"/>
<path d="M318.756 234.517C320.249 246.151 320.635 251.094 326.881 256.996C336.275 265.875 350.103 262.272 352.083 250.614C353.865 240.122 351.125 222.859 339.488 218.368C328.02 213.945 317.263 222.882 318.756 234.517Z" fill="#FFBE9D"/>
<path opacity="0.2" d="M344.275 260.822C335.064 256.627 331.453 257.766 332.128 260.09C332.436 261.149 336.589 261.807 336.589 261.807C336.589 261.807 337.521 261.895 337.962 261.927C338.358 261.955 338.612 262.177 338.593 262.196C338.276 262.527 343.964 261.23 344.275 260.822Z" fill="#191B1F"/>
<path opacity="0.3" d="M350.03 255.997C350.03 255.997 349.586 255.429 348.837 255.693C348.087 255.957 346.324 257.353 346.312 259.729C346.312 259.729 347.259 259.131 348.319 258.132C348.993 257.498 350.03 255.997 350.03 255.997Z" fill="#191B1F"/>
<path d="M334.59 238.619C334.599 239.714 335.228 240.644 335.995 240.697C336.761 240.749 337.375 239.903 337.365 238.809C337.356 237.714 336.727 236.784 335.961 236.731C335.195 236.678 334.581 237.523 334.59 238.619Z" fill="#263238"/>
<path d="M346.464 237.598C346.412 238.658 346.986 239.596 347.746 239.694C348.506 239.791 349.164 239.011 349.216 237.951C349.268 236.891 348.694 235.953 347.934 235.855C347.174 235.758 346.516 236.538 346.464 237.598Z" fill="#263238"/>
<path d="M332.842 236.82C332.991 236.829 333.14 236.779 333.251 236.668C334.972 234.921 337.023 235.411 337.047 235.417C337.351 235.491 337.646 235.307 337.701 234.998C337.755 234.689 337.549 234.377 337.241 234.3C337.134 234.273 334.56 233.655 332.425 235.823C332.213 236.04 332.225 236.405 332.452 236.638C332.562 236.749 332.702 236.811 332.842 236.82Z" fill="#263238"/>
<path d="M351.22 231.155C351.355 231.111 351.47 231.019 351.535 230.886C351.669 230.614 351.538 230.278 351.245 230.136C348.299 228.714 346.003 229.948 345.906 230.002C345.633 230.153 345.553 230.49 345.726 230.759C345.899 231.026 346.26 231.121 346.532 230.972C346.622 230.922 348.417 229.993 350.76 231.123C350.912 231.195 351.077 231.202 351.22 231.155Z" fill="#263238"/>
<path d="M327.952 215.497C323.943 216.156 321.421 216.731 318.263 218.707C315.105 220.683 311.727 225.494 309.885 229.162C307.261 234.391 307.068 240.816 306.949 246.924C306.87 250.941 306.882 255.312 308.925 258.488C310.297 260.622 312.429 261.897 314.615 262.484C316.802 263.07 319.067 263.033 321.306 262.967C323.154 262.913 325.403 262.523 326.087 260.454C327.165 257.201 323.103 254.182 323.648 250.741" fill="#01324A"/>
<path d="M315.571 244.16C317.036 246.504 319.331 247.926 321.404 248.366C324.521 249.029 325.937 244.004 324.77 240.945C323.72 238.193 320.617 236.459 317.631 237.175C314.69 237.882 313.895 241.479 315.571 244.16Z" fill="#FFBE9D"/>
<path d="M342.373 236.861C342.373 236.861 344.358 241.165 346.516 243.814C346.894 244.277 346.696 244.98 346.144 245.206C344.722 245.79 343.018 245.37 343.018 245.37L342.373 236.861Z" fill="#E3A383"/>
<path d="M335.727 236.693L338.435 236.187C338.435 236.187 336.876 238.114 335.727 236.693Z" fill="#263238"/>
<path d="M347.656 235.854L350.389 235.509C350.389 235.509 348.719 237.341 347.656 235.854Z" fill="#263238"/>
<path d="M315.607 228.142C314.024 230.43 317.176 237.075 317.176 237.075C317.176 237.075 322.775 235.411 323.081 243.844C325.146 244.186 327.464 236.311 327.126 228.395C326.712 223.923 318.403 224.104 315.607 228.142Z" fill="#01324A"/>
<path opacity="0.2" d="M319.863 240.081C318.873 239.702 317.846 240.356 317.521 241.173C317.127 242.162 317.672 244.46 320.703 245.182" stroke="#191B1F" stroke-width="0.510016" stroke-miterlimit="10" stroke-linecap="round" stroke-linejoin="round"/>
<path d="M348.612 221.65C346.143 216.516 336.082 211.746 324.514 216.703C314.063 221.166 309.622 236.503 317.175 237.077C324.728 237.65 336.895 228.504 336.895 228.504L348.612 221.65Z" fill="#01324A"/>
<path d="M363.766 312.96L375.534 313.231L378.159 319.215L372.108 326.878C372.108 326.878 370.662 326.792 371.137 324.772C371.505 323.206 372.354 321.984 372.354 321.984L364.317 324.402C362.793 324.86 361.247 323.757 361.184 322.168L360.814 312.916L363.766 312.96Z" fill="#FFBE9D"/>
<path d="M294.917 291.473C294.917 291.473 294.485 297.26 296.862 304.557C299.238 311.855 305.13 331.323 312.117 336.684C319.104 342.044 336.814 334.032 347.441 329.392C357.962 324.797 363.574 322.597 363.765 322.566L360.815 312.915L322.21 318.542L305.649 283.286C305.649 283.286 293.759 283.187 294.917 291.473Z" fill="#FFBE9D"/>
<path opacity="0.2" d="M356.945 312.186C356.945 312.186 359.698 319.37 363.154 320.56C366.61 321.749 375.396 322.087 376.165 313.818L356.945 312.186Z" fill="black"/>
<path d="M296.434 280.33C289.188 287.334 297.292 314.439 297.292 314.439L320.429 308.343C320.429 308.343 314.931 287.924 309.403 282.777C304.719 278.439 300.412 276.361 296.434 280.33Z" fill="#5579F8"/>
<g opacity="0.7">
<path d="M296.434 280.33C289.188 287.334 297.292 314.439 297.292 314.439L320.429 308.343C320.429 308.343 314.931 287.924 309.403 282.777C304.719 278.439 300.412 276.361 296.434 280.33Z" fill="#5579F8"/>
</g>
<path d="M341.098 249.255C341.996 249.228 342.894 249.259 343.788 249.355C344.227 249.402 344.665 249.466 345.099 249.545C345.358 249.592 345.884 249.595 346.04 249.847C346.3 250.264 346.962 249.88 346.701 249.461C346.482 249.109 346.146 248.975 345.755 248.895C345.238 248.788 344.716 248.705 344.193 248.638C343.167 248.506 342.132 248.459 341.099 248.491C340.606 248.504 340.604 249.269 341.098 249.255Z" fill="#263238"/>
<path opacity="0.2" d="M334.427 266.514C334.428 266.533 333.21 266.91 333.502 268.224C333.794 269.538 334.253 269.704 334.253 269.704C334.253 269.704 332.912 271.143 334.427 272.727C334.427 272.727 335.275 273.604 336.922 273.374C336.922 273.374 340.467 279.317 343.345 279.546L344.222 279.713L352.476 297.007L343.732 265.9L334.427 266.514Z" fill="black"/>
<path d="M352.217 271.809C352.217 271.809 352.013 263.37 351.361 261.975C350.71 260.579 349.919 260.16 349.919 258.625C349.919 257.09 350.198 255.88 349.314 256.066C348.429 256.251 347.592 257.88 347.359 259.09C347.127 260.3 347.639 263.51 347.639 263.51C347.639 263.51 340.986 259.508 338.334 258.903C336.124 258.4 333.494 258.024 332.653 259.044C332.295 259.478 332.489 260.156 332.98 260.432C333.376 260.656 334.034 260.919 335.124 261.183C338.798 262.072 340.009 262.765 340.009 262.765C340.009 262.765 336.474 262.579 335.542 263.23C334.612 263.882 334.658 264.341 334.89 265.089C335.123 265.837 335.728 266.348 335.728 266.348C335.728 266.348 334.565 265.975 334.146 267.465C333.727 268.954 334.89 269.465 334.89 269.465C334.89 269.465 333.774 270.535 334.425 271.884C335.077 273.234 336.985 272.769 336.985 272.769C336.985 272.769 341.962 278.817 343.87 278.956C345.777 279.096 348.243 277.746 348.057 277.746C347.871 277.746 352.477 272.396 352.477 272.396L352.217 271.809Z" fill="#FFBE9D"/>
<path d="M344.49 278.569C344.49 278.569 353.808 306.794 357.339 312.915C360.869 319.038 366.813 321.022 372.565 318.439C373.94 317.822 375.034 316.286 375.894 314.438C378.492 308.856 376.662 305.217 373.75 299.792C371.375 295.367 371.375 295.367 371.375 295.367L366.546 298.532L351.915 271.268L344.49 278.569Z" fill="#FFBE9D"/>
<defs>
<linearGradient id="paint0_linear_8122_18989" x1="284.094" y1="0" x2="284.094" y2="742.162" gradientUnits="userSpaceOnUse">
<stop stop-color="#5579F8"/>
<stop offset="1" stop-color="#999999" stop-opacity="0"/>
</linearGradient>
<linearGradient id="paint1_linear_8122_18989" x1="284.094" y1="0" x2="284.094" y2="717.695" gradientUnits="userSpaceOnUse">
<stop stop-color="#5579F8" stop-opacity="0.69"/>
<stop offset="1" stop-color="white" stop-opacity="0"/>
</linearGradient>
<linearGradient id="paint2_linear_8122_18989" x1="284.095" y1="12.4385" x2="284.095" y2="61.1558" gradientUnits="userSpaceOnUse">
<stop stop-color="#6B8BFF"/>
<stop offset="1" stop-color="#5579F8"/>
</linearGradient>
</defs>
</svg>
