<svg width="569" height="743" viewBox="0 0 569 743" fill="none" xmlns="http://www.w3.org/2000/svg">
<path d="M0 21.9728C0 9.83755 9.83758 0 21.9728 0H546.05C558.185 0 568.023 9.83758 568.023 21.9728V720.189C568.023 732.324 558.185 742.162 546.05 742.162H21.9728C9.83757 742.162 0 732.324 0 720.189V21.9728Z" fill="url(#paint0_linear_8122_18956)" fill-opacity="0.13"/>
<path d="M21.9727 1.93848H546.05C557.114 1.93848 566.084 10.9082 566.084 21.9727V720.188C566.084 731.253 557.114 740.223 546.05 740.223H21.9727C10.9082 740.223 1.93848 731.253 1.93848 720.188V21.9727C1.93857 10.9083 10.9083 1.93858 21.9727 1.93848Z" stroke="url(#paint1_linear_8122_18956)" stroke-opacity="0.5" stroke-width="3.87756"/>
<path d="M402.605 570.712C440.769 570.712 471.708 568.473 471.708 565.711C471.708 562.949 440.769 560.71 402.605 560.71C364.44 560.71 333.502 562.949 333.502 565.711C333.502 568.473 364.44 570.712 402.605 570.712Z" fill="#C1CEFB"/>
<path d="M343.271 539.429H112.995C109.237 539.429 106.189 536.382 106.189 532.624V215.31C106.189 211.552 109.236 208.505 112.995 208.505H343.271C347.029 208.505 350.077 211.551 350.077 215.31V532.624C350.077 536.383 347.03 539.429 343.271 539.429Z" fill="#191B1F"/>
<path d="M125.276 217.545H114.525V531.018L340.027 532.796L346.257 525.608L340.798 229.903L125.276 217.545Z" fill="#7995F9"/>
<path d="M346.257 525.608H123.288V217.545H114.525V532.796H340.027L346.257 525.608Z" fill="#97AEFF"/>
<path opacity="0.2" d="M114.525 532.797L123.288 525.608H346.257L340.027 532.797H114.525Z" fill="#97AEFF"/>
<path d="M365.469 515.495H145.151C123.686 465.945 119.888 339.888 123.29 217.545H342.042C340.256 339.819 344.567 449.614 365.469 515.495Z" fill="#AABDFF"/>
<path d="M162.006 267.114H148.703V255.067H190.624V267.114H177.321V301.149H162.006V267.114Z" fill="#191B1F"/>
<path d="M203.42 286.805C233.752 286.805 264.083 286.805 294.416 286.805C302.963 286.805 311.509 286.805 320.056 286.805C321.028 286.805 321.03 285.293 320.056 285.293C289.723 285.293 259.392 285.293 229.06 285.293C220.513 285.293 211.967 285.293 203.42 285.293C202.447 285.293 202.445 286.805 203.42 286.805Z" fill="white" fill-opacity="0.43"/>
<path d="M152.971 318.348C174.695 318.348 196.419 318.348 218.144 318.348C239.869 318.348 261.593 318.348 283.317 318.348C295.564 318.348 307.809 318.348 320.056 318.348C321.028 318.348 321.03 316.836 320.056 316.836C298.331 316.836 276.607 316.836 254.882 316.836C233.157 316.836 211.434 316.836 189.709 316.836C177.462 316.836 165.216 316.836 152.971 316.836C151.998 316.836 151.996 318.348 152.971 318.348Z" fill="white" fill-opacity="0.43"/>
<path d="M152.971 345.91C165.019 345.91 177.069 345.91 189.118 345.91C195.417 345.91 201.717 345.91 208.016 345.91C216.717 345.91 225.418 345.91 234.118 345.91C235.091 345.91 235.093 344.398 234.118 344.398C222.068 344.398 210.019 344.398 197.971 344.398C191.671 344.398 185.371 344.398 179.072 344.398C170.372 344.398 161.672 344.398 152.971 344.398C151.998 344.398 151.996 345.91 152.971 345.91Z" fill="white" fill-opacity="0.43"/>
<path d="M156.211 373.473C171.863 373.473 187.515 373.473 203.167 373.473C215.211 373.473 227.255 373.473 239.298 373.473C249.318 373.473 259.339 373.473 269.36 373.473C270.333 373.473 270.335 371.961 269.36 371.961C253.707 371.961 238.056 371.961 222.403 371.961C210.36 371.961 198.316 371.961 186.273 371.961C176.252 371.961 166.231 371.961 156.211 371.961C155.238 371.961 155.236 373.473 156.211 373.473Z" fill="white" fill-opacity="0.43"/>
<path d="M159.451 401.034C168.853 401.034 178.255 401.034 187.656 401.034C189.735 401.034 191.813 401.034 193.892 401.034C201.622 401.034 209.352 401.034 217.082 401.034C218.055 401.034 218.057 399.521 217.082 399.521C207.681 399.521 198.279 399.521 188.877 399.521C186.799 399.521 184.72 399.521 182.641 399.521C174.911 399.521 167.182 399.521 159.451 399.521C158.478 399.521 158.476 401.034 159.451 401.034Z" fill="white" fill-opacity="0.43"/>
<path d="M227.117 401.034C240.718 401.034 254.319 401.034 267.921 401.034C276.694 401.034 285.468 401.034 294.241 401.034C303.51 401.034 312.779 401.034 322.048 401.034C323.021 401.034 323.023 399.521 322.048 399.521C308.447 399.521 294.846 399.521 281.245 399.521C272.471 399.521 263.697 399.521 254.924 399.521C245.655 399.521 236.386 399.521 227.117 399.521C226.144 399.521 226.142 401.034 227.117 401.034Z" fill="white" fill-opacity="0.43"/>
<path d="M162.691 428.596C173.339 428.596 183.987 428.596 194.635 428.596C198.701 428.596 202.766 428.596 206.831 428.596C215.019 428.596 223.205 428.596 231.392 428.596C232.364 428.596 232.367 427.084 231.392 427.084C220.744 427.084 210.096 427.084 199.448 427.084C195.382 427.084 191.317 427.084 187.252 427.084C179.065 427.084 170.878 427.084 162.691 427.084C161.719 427.084 161.716 428.596 162.691 428.596Z" fill="white" fill-opacity="0.43"/>
<path d="M165.931 456.156C181.112 456.156 196.293 456.156 211.473 456.156C222.765 456.156 234.057 456.156 245.349 456.156C255.197 456.156 265.045 456.156 274.893 456.156C275.866 456.156 275.868 454.644 274.893 454.644C259.712 454.644 244.531 454.644 229.351 454.644C218.059 454.644 206.767 454.644 195.475 454.644C185.627 454.644 175.779 454.644 165.931 454.644C164.958 454.644 164.957 456.156 165.931 456.156Z" fill="white" fill-opacity="0.43"/>
<path d="M171.506 486.743C189.888 486.743 208.271 486.743 226.652 486.743C232.842 486.743 239.033 486.743 245.224 486.743C246.196 486.743 246.198 485.231 245.224 485.231C226.841 485.231 208.459 485.231 190.077 485.231C183.887 485.231 177.695 485.231 171.505 485.231C170.532 485.231 170.531 486.743 171.506 486.743Z" fill="white" fill-opacity="0.43"/>
<path d="M288.131 476.003C303.466 476.003 318.801 476.003 334.136 476.003C335.108 476.003 335.11 474.491 334.136 474.491C318.801 474.491 303.466 474.491 288.131 474.491C287.158 474.491 287.156 476.003 288.131 476.003Z" fill="white" fill-opacity="0.43"/>
<path d="M291.346 479.921C304.965 479.921 318.583 479.921 332.203 479.921C333.175 479.921 333.177 478.409 332.203 478.409C318.583 478.409 304.965 478.409 291.346 478.409C290.373 478.409 290.371 479.921 291.346 479.921Z" fill="white" fill-opacity="0.43"/>
<path d="M273.093 228.47H193.73V211.117C193.73 206.882 197.164 203.448 201.399 203.448H265.424C269.659 203.448 273.093 206.882 273.093 211.117V228.47Z" fill="#5B7EFA"/>
<path d="M218.979 206.179L215.275 194.281H253.851L249.516 206.663L218.979 206.179Z" fill="#191B1F"/>
<path d="M132.945 203.819C151.62 203.819 170.295 203.819 188.97 203.819" stroke="#191B1F" stroke-width="0.681938" stroke-miterlimit="10" stroke-linejoin="round"/>
<path d="M242.994 428.596C252.444 428.596 261.894 428.596 271.345 428.596C286.377 428.596 301.411 428.596 316.443 428.596C319.854 428.596 323.267 428.596 326.678 428.596C327.65 428.596 327.652 427.084 326.678 427.084C317.228 427.084 307.777 427.084 298.327 427.084C283.295 427.084 268.261 427.084 253.228 427.084C249.817 427.084 246.405 427.084 242.994 427.084C242.021 427.084 242.019 428.596 242.994 428.596Z" fill="white" fill-opacity="0.5"/>
<path d="M288.131 456.159C293.086 456.159 298.042 456.159 302.996 456.159C310.904 456.159 318.812 456.159 326.72 456.159C328.548 456.159 330.377 456.159 332.204 456.159C333.177 456.159 333.179 454.646 332.204 454.646C327.249 454.646 322.294 454.646 317.339 454.646C309.431 454.646 301.523 454.646 293.615 454.646C291.787 454.646 289.958 454.646 288.131 454.646C287.158 454.646 287.156 456.159 288.131 456.159Z" fill="white" fill-opacity="0.5"/>
<path d="M284.369 373.473C295.371 373.473 306.375 373.473 317.377 373.473C318.934 373.473 320.49 373.473 322.046 373.473C323.019 373.473 323.021 371.961 322.046 371.961C311.044 371.961 300.04 371.961 289.038 371.961C287.481 371.961 285.925 371.961 284.369 371.961C283.396 371.961 283.395 373.473 284.369 373.473Z" fill="white" fill-opacity="0.5"/>
<path d="M243.832 345.91C253.413 345.91 262.993 345.91 272.574 345.91C273.921 345.91 275.269 345.91 276.616 345.91C277.588 345.91 277.59 344.398 276.616 344.398C267.035 344.398 257.454 344.398 247.874 344.398C246.526 344.398 245.179 344.398 243.833 344.398C242.859 344.398 242.857 345.91 243.832 345.91Z" fill="white" fill-opacity="0.5"/>
<path d="M288.131 345.738C298.031 345.738 307.933 345.738 317.834 345.738C319.238 345.738 320.642 345.738 322.048 345.738C323.02 345.738 323.022 344.226 322.048 344.226C312.147 344.226 302.245 344.226 292.344 344.226C290.94 344.226 289.536 344.226 288.131 344.226C287.158 344.226 287.156 345.738 288.131 345.738Z" fill="white" fill-opacity="0.5"/>
<path d="M325.362 387.936C329.103 391.307 331.196 396.281 330.865 401.326C330.542 406.264 327.818 410.922 323.748 413.707C322.95 414.253 323.705 415.563 324.511 415.012C328.949 411.976 331.864 407.073 332.348 401.706C332.846 396.179 330.533 390.563 326.431 386.866C325.709 386.217 324.637 387.283 325.362 387.936Z" fill="white" fill-opacity="0.5"/>
<path d="M333.14 411.037C331.701 411.646 330.262 412.255 328.822 412.864C328.103 413.168 327.383 413.472 326.664 413.777C326.108 414.012 325.498 414.352 324.884 414.394C324.35 414.429 324.303 414.045 324.346 413.591C324.408 412.908 324.605 412.22 324.741 411.546C325.053 409.995 325.367 408.442 325.679 406.891C325.871 405.941 324.414 405.534 324.222 406.489C323.852 408.326 323.481 410.162 323.111 411.999C322.842 413.332 322.412 415.32 324.176 415.825C324.854 416.019 325.587 415.843 326.224 415.59C327.051 415.261 327.867 414.897 328.688 414.549C330.427 413.813 332.166 413.077 333.905 412.342C334.284 412.182 334.359 411.63 334.176 411.308C333.951 410.916 333.514 410.879 333.14 411.037Z" fill="white" fill-opacity="0.5"/>
<path d="M129.777 203.819H121.062" stroke="#191B1F" stroke-width="0.681938" stroke-miterlimit="10" stroke-linejoin="round"/>
<path d="M424.494 194.784V239.387C424.59 247.1 425.724 259.204 413.521 258.799C402.961 257.65 400.159 247.652 400.077 240.454C400.039 237.04 399.999 234.192 399.972 233.842C399.972 233.842 388.411 232.898 387.435 221.481C386.964 215.963 386.917 204.518 386.995 194.165C387.08 183.044 395.702 173.858 406.793 173.049L407.896 172.969C419.838 172.793 424.651 182.843 424.494 194.784Z" fill="#FFBE9D"/>
<path d="M399.963 233.841C399.963 233.841 407.197 233.738 414.522 228.354C414.522 228.354 411.502 236.968 400.022 236.771L399.963 233.841Z" fill="#FF9A6C"/>
<path d="M406.515 198.842C406.742 199.074 408.061 198.013 409.975 197.961C411.885 197.881 413.316 198.848 413.517 198.601C413.616 198.491 413.38 198.07 412.757 197.632C412.143 197.196 411.104 196.784 409.913 196.825C408.721 196.867 407.731 197.346 407.168 197.823C406.591 198.304 406.403 198.74 406.515 198.842Z" fill="#191B1F"/>
<path d="M406.485 204.254C406.516 205.072 407.234 205.719 408.088 205.703C408.94 205.686 409.608 205.012 409.577 204.195C409.546 203.378 408.829 202.729 407.976 202.744C407.122 202.761 406.455 203.437 406.485 204.254Z" fill="#191B1F"/>
<path d="M401.721 212.149C401.722 212.049 400.617 211.94 398.831 211.843C398.379 211.83 397.948 211.771 397.85 211.471C397.722 211.155 397.873 210.657 398.053 210.119C398.395 209.003 398.753 207.833 399.129 206.607C400.616 201.61 401.657 197.515 401.456 197.457C401.253 197.398 399.885 201.401 398.398 206.398C398.043 207.63 397.702 208.803 397.378 209.925C397.246 210.447 396.996 211.047 397.275 211.703C397.42 212.029 397.767 212.248 398.059 212.304C398.353 212.371 398.606 212.357 398.829 212.355C400.617 212.323 401.722 212.25 401.721 212.149Z" fill="#191B1F"/>
<path d="M407.325 190.703C407.51 191.128 409.041 190.808 410.876 190.903C412.711 190.958 414.217 191.401 414.429 190.993C414.523 190.798 414.238 190.407 413.615 190.029C412.996 189.65 412.03 189.319 410.931 189.273C409.831 189.229 408.845 189.481 408.203 189.807C407.555 190.134 407.245 190.502 407.325 190.703Z" fill="#191B1F"/>
<path d="M389.168 193.569C389.37 193.914 390.862 193.53 392.671 193.475C394.481 193.387 395.982 193.651 396.172 193.289C396.256 193.116 395.958 192.807 395.327 192.532C394.702 192.257 393.736 192.048 392.652 192.089C391.568 192.133 390.609 192.421 389.991 192.745C389.368 193.07 389.079 193.403 389.168 193.569Z" fill="#191B1F"/>
<path d="M371.83 183.913C371.955 183.453 372.289 183.076 372.699 182.833C373.593 182.306 374.623 182.376 375.618 182.36C378.649 182.312 381.656 181.386 384.205 179.749C385.399 178.028 386.743 176.41 388.201 174.907C391.662 171.338 394.51 168.908 397.456 167.723C401.266 166.189 407.639 165.567 411.612 166.609C415.585 167.652 419.153 170.875 419.706 174.945C421.935 173.061 425.279 173.078 427.992 174.168L428.061 174.139C431.083 175.216 432.8 178.409 433.691 181.491C434.583 184.572 434.964 187.869 436.596 190.63C436.937 191.208 437.342 191.9 437.045 192.501C436.814 192.966 436.224 193.157 435.711 193.082C435.198 193.006 434.742 192.723 434.304 192.445C434.641 193.252 434.978 194.06 435.316 194.866C434.222 195.057 433.09 194.969 432.028 194.647C431.387 197.53 430.621 200.821 429.879 202.774C428.615 202.771 427.459 202.861 426.68 203.561C425.622 204.513 425.148 206.303 423.39 205.624C422.495 205.278 421.678 203.399 421.378 202.488C419.39 196.436 418.73 189.953 419.448 183.625C418.197 182.291 416.686 181.2 415.025 180.432L415.16 180.554C411.969 179.446 408.36 178.355 405.332 179.854C402.983 181.016 401.603 183.453 399.847 185.398C396.518 189.084 392.03 191.087 387.068 191.3C386.9 194.515 387.17 199.06 387.001 202.276L384.297 197.125L384.295 197.15C384.074 196.773 383.89 196.393 383.713 196.012L383.652 195.897V195.882C383.37 195.27 383.103 194.658 382.747 194.053C382.738 194.062 382.727 194.072 382.717 194.081C380.974 195.617 378.408 193.267 379.781 191.394C380.053 191.022 380.38 190.691 380.752 190.418C379.956 191.165 378.769 191.524 377.724 191.202C376.68 190.881 375.87 189.826 375.961 188.737C376.023 187.994 376.554 187.331 377.225 187.037C375.817 187.145 374.378 186.839 373.151 186.139C372.347 185.68 371.558 184.923 371.83 183.913Z" fill="#191B1F"/>
<path d="M416.106 176.257C416.083 176.287 416.585 176.558 417.252 177.305C417.913 178.046 418.655 179.339 419.005 181.097C419.185 181.971 419.298 182.949 419.297 184.001C419.301 185.053 419.217 186.179 419.136 187.366C419.059 188.553 418.974 189.808 419.05 191.112C419.089 191.763 419.167 192.426 419.308 193.087C419.452 193.738 419.623 194.444 420.114 195.005C420.505 195.46 421.159 195.663 421.726 195.546C422.297 195.445 422.805 195.141 423.177 194.727C423.912 193.869 424.094 192.781 424.277 191.823L424.037 191.851C424.429 192.713 424.831 193.565 425.427 194.244C426.013 194.928 426.825 195.381 427.649 195.455C428.06 195.492 428.474 195.426 428.827 195.248C429.187 195.073 429.448 194.775 429.627 194.46C429.798 194.138 429.887 193.787 429.869 193.447C429.85 193.108 429.717 192.787 429.503 192.559L429.382 192.667C430.262 193.67 431.192 194.209 431.835 194.508C432.16 194.658 432.419 194.747 432.596 194.804C432.773 194.857 432.866 194.879 432.869 194.871C432.871 194.864 432.783 194.827 432.611 194.761C432.44 194.692 432.188 194.59 431.874 194.43C431.25 194.111 430.349 193.557 429.505 192.562L429.384 192.67C429.768 193.077 429.79 193.793 429.46 194.367C429.294 194.65 429.053 194.917 428.737 195.065C428.422 195.219 428.045 195.278 427.669 195.239C426.912 195.163 426.155 194.739 425.607 194.089C425.044 193.44 424.655 192.611 424.268 191.747L424.104 191.38L424.028 191.775C423.846 192.733 423.651 193.777 422.981 194.55C422.648 194.921 422.183 195.196 421.683 195.283C421.182 195.38 420.654 195.215 420.313 194.824C419.884 194.34 419.709 193.671 419.569 193.031C419.43 192.385 419.352 191.737 419.312 191.095C419.234 189.813 419.312 188.567 419.383 187.381C419.457 186.194 419.534 185.063 419.519 183.997C419.51 182.932 419.385 181.941 419.19 181.057C418.81 179.276 418.027 177.968 417.33 177.234C416.626 176.498 416.106 176.257 416.106 176.257Z" fill="#455A64"/>
<path d="M380.772 187.371C380.768 187.375 380.8 187.401 380.863 187.449C380.94 187.506 381.034 187.574 381.148 187.658C381.273 187.751 381.431 187.86 381.632 187.968C381.83 188.081 382.054 188.219 382.328 188.333C383.389 188.837 385.09 189.338 387.217 189.213C389.323 189.094 391.853 188.348 394.111 186.667C396.393 185.026 398.396 182.609 400.034 179.841C400.864 178.458 401.541 177.04 402.288 175.73C403.029 174.42 403.848 173.209 404.84 172.253C405.82 171.293 406.959 170.582 408.131 170.256C408.715 170.082 409.304 170.042 409.866 170.055C410.43 170.085 410.964 170.2 411.456 170.36C412.441 170.691 413.234 171.234 413.837 171.794C414.443 172.359 414.848 172.956 415.126 173.466C415.646 174.516 415.674 175.19 415.716 175.179C415.721 175.179 415.717 175.138 415.707 175.059C415.693 174.964 415.675 174.85 415.653 174.709C415.597 174.403 415.466 173.959 415.22 173.419C414.951 172.891 414.549 172.273 413.941 171.685C413.334 171.103 412.528 170.533 411.517 170.181C411.012 170.008 410.462 169.885 409.877 169.849C409.296 169.829 408.678 169.866 408.071 170.041C406.853 170.37 405.675 171.097 404.668 172.075C403.648 173.049 402.809 174.282 402.06 175.6C401.304 176.919 400.627 178.333 399.803 179.703C398.178 182.451 396.204 184.841 393.966 186.467C391.749 188.133 389.281 188.88 387.205 189.023C385.113 189.171 383.432 188.706 382.371 188.238C381.301 187.762 380.793 187.339 380.772 187.371Z" fill="#455A64"/>
<path d="M379.733 182.35C379.723 182.367 379.869 182.467 380.142 182.635C380.413 182.809 380.827 183.024 381.355 183.252C381.881 183.484 382.535 183.701 383.276 183.882C384.019 184.051 384.852 184.175 385.731 184.208C386.613 184.231 387.451 184.161 388.203 184.04C388.954 183.907 389.62 183.732 390.16 183.533C390.702 183.34 391.129 183.153 391.41 182.996C391.693 182.846 391.845 182.754 391.837 182.738C391.815 182.693 391.185 183.017 390.102 183.354C389.561 183.527 388.903 183.679 388.165 183.796C387.424 183.901 386.603 183.963 385.74 183.941C384.877 183.908 384.062 183.793 383.33 183.642C382.6 183.477 381.953 183.284 381.426 183.077C380.367 182.671 379.757 182.306 379.733 182.35Z" fill="#455A64"/>
<path d="M389.073 198.844C389.3 199.076 390.619 198.015 392.533 197.963C394.443 197.884 395.874 198.85 396.076 198.603C396.175 198.493 395.938 198.072 395.315 197.634C394.701 197.198 393.662 196.786 392.471 196.827C391.28 196.869 390.29 197.348 389.727 197.825C389.149 198.306 388.962 198.742 389.073 198.844Z" fill="#191B1F"/>
<path d="M391.021 204.255C391.051 205.073 391.769 205.72 392.623 205.704C393.475 205.687 394.143 205.013 394.112 204.196C394.081 203.379 393.364 202.73 392.511 202.746C391.658 202.762 390.99 203.438 391.021 204.255Z" fill="#191B1F"/>
<path d="M424.197 203.319C424.385 203.219 431.872 200.426 432.192 208.248C432.512 216.07 424.593 214.779 424.57 214.555C424.547 214.331 424.197 203.319 424.197 203.319Z" fill="#FFBE9D"/>
<path d="M426.842 211.493C426.875 211.467 426.982 211.583 427.218 211.679C427.447 211.773 427.836 211.828 428.237 211.658C429.05 211.32 429.693 209.981 429.673 208.569C429.664 207.856 429.487 207.184 429.212 206.634C428.95 206.071 428.564 205.686 428.144 205.63C427.726 205.552 427.442 205.813 427.355 206.036C427.26 206.26 427.316 206.414 427.275 206.428C427.254 206.449 427.102 206.304 427.152 205.978C427.177 205.822 427.262 205.633 427.439 205.475C427.621 205.315 427.893 205.225 428.184 205.245C428.789 205.263 429.355 205.795 429.658 206.399C429.993 207.006 430.209 207.76 430.22 208.56C430.235 210.138 429.488 211.646 428.37 212.02C427.826 212.186 427.36 212.039 427.115 211.864C426.863 211.681 426.816 211.507 426.842 211.493Z" fill="#FF9A6C"/>
<path d="M407.299 213.773C407.364 213.785 407.365 214.232 407.094 214.895C406.823 215.546 406.228 216.394 405.295 216.983C404.368 217.581 403.34 217.771 402.628 217.699C401.908 217.635 401.52 217.398 401.544 217.337C401.57 217.249 401.985 217.337 402.631 217.293C403.276 217.258 404.158 217.032 404.986 216.5C405.819 215.973 406.393 215.265 406.733 214.711C407.071 214.151 407.21 213.751 407.299 213.773Z" fill="#191B1F"/>
<path d="M446.697 523.226L449.035 549.68L457.302 570.103C457.898 571.574 457.043 573.213 455.441 573.672C454.544 573.929 453.576 573.767 452.834 573.226C448.113 569.79 431.092 557.162 430.902 555.516C430.656 553.387 426.318 527.374 426.318 527.374L446.697 523.226Z" fill="#5B7EFA"/>
<path d="M455.443 573.672L430.438 552.503L430.682 554.463C430.85 555.535 430.869 556.117 431.618 556.787C433.624 558.578 439.485 564.065 452.571 573.675C453.333 574.233 454.528 573.959 455.443 573.672Z" fill="#191B1F"/>
<path d="M435.361 544.252C436.116 544.64 436.458 545.617 436.078 546.342C435.697 547.068 434.643 547.403 433.881 547.029C433.119 546.655 432.67 545.493 433.133 544.812C433.598 544.132 434.859 543.801 435.503 544.336" fill="white"/>
<path d="M447.724 562.779C447.891 562.836 448.368 561.39 449.955 560.48C451.511 559.526 453.105 559.743 453.123 559.576C453.14 559.509 452.76 559.34 452.094 559.318C451.432 559.292 450.492 559.474 449.624 559.987C448.758 560.503 448.179 561.223 447.919 561.794C447.653 562.371 447.653 562.765 447.724 562.779Z" fill="#191B1F"/>
<path d="M450.123 566.114C450.269 566.214 451.074 565.267 452.483 564.731C453.878 564.165 455.161 564.294 455.187 564.124C455.253 563.981 453.838 563.556 452.243 564.193C450.641 564.812 449.969 566.057 450.123 566.114Z" fill="#191B1F"/>
<path d="M443.493 558.62C443.638 558.732 444.868 557.269 446.981 556.254C449.076 555.208 451.057 555.102 451.043 554.925C451.073 554.78 448.945 554.622 446.695 555.737C444.433 556.831 443.35 558.56 443.493 558.62Z" fill="#191B1F"/>
<path d="M442.06 550.634C442.153 550.784 443.635 550.02 445.647 549.75C447.654 549.454 449.31 549.776 449.351 549.607C449.414 549.47 447.714 548.86 445.555 549.173C443.394 549.469 441.957 550.52 442.06 550.634Z" fill="#191B1F"/>
<path d="M441.167 542.884C441.272 543.029 442.732 541.993 444.874 541.872C447.014 541.706 448.615 542.536 448.697 542.379C448.736 542.32 448.393 542.018 447.705 541.732C447.024 541.444 445.982 541.216 444.829 541.291C443.677 541.37 442.681 541.735 442.05 542.112C441.414 542.487 441.119 542.83 441.167 542.884Z" fill="#191B1F"/>
<path d="M444.659 540.401C444.695 540.398 444.719 540.037 444.584 539.399C444.45 538.766 444.146 537.845 443.445 536.867C443.086 536.407 442.699 535.808 441.876 535.539C441.466 535.402 440.893 535.528 440.599 535.911C440.307 536.284 440.252 536.727 440.29 537.147C440.509 538.82 442.221 540.288 444.253 540.329C446.289 540.335 447.991 539.073 448.625 537.546C448.758 537.154 448.826 536.682 448.557 536.259C448.292 535.83 447.701 535.708 447.306 535.813C446.485 536.013 446.011 536.517 445.558 536.901C444.673 537.729 444.161 538.558 443.873 539.143C443.585 539.733 443.511 540.088 443.545 540.099C443.652 540.158 444.109 538.731 445.86 537.201C446.305 536.844 446.814 536.399 447.408 536.287C447.698 536.231 447.962 536.315 448.092 536.526C448.224 536.729 448.202 537.065 448.083 537.375C447.543 538.626 445.985 539.776 444.263 539.745C442.55 539.728 441.046 538.434 440.857 537.091C440.816 536.766 440.871 536.43 441.034 536.219C441.194 536.011 441.464 535.932 441.735 536.004C442.305 536.156 442.734 536.675 443.085 537.106C444.491 538.928 444.538 540.441 444.659 540.401Z" fill="#191B1F"/>
<path d="M380.066 524.592L381.108 546.995C381.108 546.995 357.234 555.515 356.998 559.672L403.279 559.333L403.179 524.364L380.066 524.592Z" fill="#5B7EFA"/>
<path d="M395.404 545.006C396.302 545.229 396.928 546.171 396.728 547.023C396.527 547.875 395.514 548.483 394.611 548.274C393.71 548.066 392.921 546.956 393.221 546.13C393.522 545.304 394.754 544.651 395.577 545.058" fill="#E0E0E0"/>
<path d="M403.279 559.333L403.123 555.809L358.808 557.452C358.808 557.452 356.754 558.309 356.999 559.673L403.279 559.333Z" fill="#191B1F"/>
<path d="M380.351 546.778C380.36 546.99 381.491 547.078 382.608 547.753C383.745 548.4 384.325 549.317 384.533 549.231C384.741 549.188 384.394 547.921 383.025 547.125C381.665 546.32 380.3 546.584 380.351 546.778Z" fill="#191B1F"/>
<path d="M375.515 548.702C375.466 548.908 376.448 549.262 377.223 550.155C378.025 551.026 378.227 551.996 378.452 551.985C378.664 552.017 378.811 550.771 377.825 549.678C376.849 548.577 375.519 548.498 375.515 548.702Z" fill="#191B1F"/>
<path d="M372.801 554.182C373.007 554.226 373.312 553.162 372.723 552.003C372.141 550.84 371.072 550.389 370.978 550.567C370.852 550.742 371.543 551.362 372.012 552.32C372.504 553.268 372.576 554.163 372.801 554.182Z" fill="#191B1F"/>
<path d="M380.719 541.648C380.815 541.84 381.849 541.54 383.127 541.613C384.407 541.661 385.404 542.056 385.52 541.873C385.65 541.719 384.673 540.94 383.166 540.874C381.661 540.798 380.607 541.482 380.719 541.648Z" fill="#191B1F"/>
<path d="M372.002 363.735C372.028 365.032 377.378 544.07 377.378 544.07H405.986L411.781 390.916C411.781 390.916 418.548 470.993 418.548 472.723C418.548 474.454 424.519 544.932 424.519 544.932L451.041 542.897L449.302 381.649L446.061 358.008L372.002 363.735Z" fill="#1A1C20"/>
<path d="M414.754 385.249C414.767 385.284 414.352 385.447 413.592 385.708C412.833 385.97 411.728 386.33 410.362 386.763L410.102 386.846L410.084 386.593C409.925 384.439 409.745 381.558 409.576 378.402C409.395 374.98 409.261 371.881 409.193 369.637C409.159 368.514 409.142 367.606 409.143 366.977C409.143 366.349 409.161 366.001 409.201 365.999C409.239 365.997 409.296 366.342 409.363 366.968C409.43 367.593 409.509 368.5 409.594 369.619C409.764 371.859 409.96 374.956 410.143 378.378C410.311 381.534 410.437 384.417 410.507 386.575L410.229 386.404C411.611 386.015 412.736 385.708 413.519 385.507C414.3 385.307 414.74 385.212 414.754 385.249Z" fill="#1A1C20"/>
<path d="M412.585 366.631C412.566 366.608 412.677 366.488 412.964 366.397C413.246 366.307 413.723 366.281 414.228 366.5C414.721 366.692 415.267 367.26 415.185 367.972C415.127 368.644 414.579 369.376 413.663 369.556C412.745 369.705 411.927 369.235 411.555 368.657C411.149 368.054 411.296 367.363 411.578 366.958C411.859 366.532 412.247 366.307 412.523 366.214C412.805 366.121 412.973 366.136 412.979 366.165C413.022 366.239 412.334 366.369 411.932 367.123C411.743 367.484 411.685 367.993 412 368.416C412.294 368.838 412.938 369.168 413.552 369.059C414.161 368.95 414.608 368.412 414.666 367.926C414.747 367.426 414.414 367.015 414.034 366.812C413.232 366.381 412.603 366.708 412.585 366.631Z" fill="#1A1C20"/>
<path d="M425.716 368.467C425.56 368.481 425.344 367.705 425.231 366.734C425.119 365.762 425.155 364.963 425.311 364.948C425.466 364.934 425.683 365.71 425.795 366.682C425.907 367.654 425.872 368.453 425.716 368.467Z" fill="#1A1C20"/>
<path d="M427.701 368.288C427.545 368.289 427.414 367.461 427.408 366.441C427.403 365.421 427.525 364.593 427.681 364.592C427.838 364.591 427.969 365.417 427.974 366.439C427.98 367.459 427.857 368.287 427.701 368.288Z" fill="#1A1C20"/>
<path d="M393.22 369.524C393.064 369.539 392.822 368.608 392.679 367.446C392.536 366.282 392.546 365.328 392.702 365.313C392.857 365.297 393.1 366.227 393.243 367.391C393.385 368.553 393.375 369.507 393.22 369.524Z" fill="#1A1C20"/>
<path d="M395.621 369.693C395.483 369.742 394.976 368.791 394.922 367.515C394.86 366.24 395.278 365.255 395.421 365.293C395.581 365.327 395.428 366.302 395.488 367.494C395.537 368.686 395.776 369.647 395.621 369.693Z" fill="#1A1C20"/>
<path d="M386.576 367.301C386.61 367.306 386.575 367.587 386.48 368.09C386.395 368.594 386.202 369.315 385.905 370.189C385.317 371.937 384.176 374.284 382.362 376.569C380.539 378.85 378.431 380.582 376.774 381.652C375.948 382.189 375.249 382.587 374.742 382.825C374.242 383.069 373.957 383.192 373.939 383.164C373.893 383.095 374.977 382.521 376.554 381.396C378.132 380.277 380.157 378.543 381.946 376.306C383.724 374.064 384.894 371.787 385.561 370.088C386.236 368.388 386.488 367.284 386.576 367.301Z" fill="#1A1C20"/>
<path d="M448.431 379.366C448.435 379.393 448.128 379.45 447.564 379.493C447.001 379.537 446.178 379.546 445.169 379.452C443.162 379.275 440.361 378.564 437.841 376.904C435.322 375.242 433.737 373.058 432.958 371.396C432.561 370.562 432.327 369.858 432.208 369.363C432.088 368.869 432.059 368.591 432.089 368.585C432.18 368.564 432.423 369.663 433.285 371.262C434.13 372.853 435.71 374.931 438.143 376.537C440.575 378.141 443.264 378.879 445.214 379.132C447.181 379.398 448.427 379.282 448.431 379.366Z" fill="#1A1C20"/>
<path d="M401.824 470.032C401.787 470.153 397.046 469.129 391.235 467.743C385.421 466.357 380.739 465.136 380.776 465.015C380.812 464.894 385.552 465.918 391.366 467.304C397.177 468.69 401.86 469.911 401.824 470.032Z" fill="#1A1C20"/>
<path d="M447.918 463.517C447.986 463.627 443.86 465.782 438.702 468.33C433.544 470.879 429.307 472.856 429.239 472.746C429.171 472.636 433.297 470.481 438.456 467.932C443.612 465.384 447.849 463.407 447.918 463.517Z" fill="#1A1C20"/>
<path d="M358.114 303.112L362.026 308.002V299.588H374.347C374.347 299.588 375.717 318.858 375.423 322.965C375.32 324.402 374.691 326.774 373.915 329.251C372.308 334.384 365.829 335.988 361.971 332.241C360.676 330.982 359.357 329.55 358.113 327.952C352.637 320.911 343.539 303.759 343.539 303.759L353.029 298.027L358.114 303.112Z" fill="#FFBE9D"/>
<path d="M357.332 302.207C357.272 302.262 357.907 303.066 358.942 304.357C359.98 305.645 361.422 307.421 363.067 309.341C364.716 311.26 366.268 312.952 367.475 314.098C368.675 315.253 369.522 315.852 369.569 315.794C369.624 315.727 368.881 315.028 367.768 313.811C366.647 312.602 365.152 310.878 363.507 308.964C360.248 305.113 357.472 302.078 357.332 302.207Z" fill="#FF9A6C"/>
<path d="M386.223 243.901L399.216 238.804L423.155 237.449L434.405 241.727L418.987 250.289L405.695 249.801L386.223 243.901Z" fill="#FFBE9D"/>
<path d="M370.897 366.183C372.073 366.386 450.503 369.717 450.503 369.717L447.749 299.197L447.522 285.35L443.067 243.405C443.067 243.405 431.344 239.374 425.362 237.449C425.362 237.449 419.067 244.01 407.096 243.833C395.394 243.659 392.949 241.021 392.949 241.021L376.589 247.293C376.589 247.293 364.955 251.464 362.953 256.612C361.005 261.622 357.434 290.239 357.434 290.239H374.392L374.072 340.79L370.897 366.183Z" fill="#5B7EFA"/>
<g opacity="0.2">
<path d="M420.209 272.065L422.64 289.843L434.406 295.098L443.102 287.686V271.183L420.209 272.065Z" fill="#04567E"/>
</g>
<path d="M442.792 277.108C442.792 277.256 437.903 277.376 431.873 277.376C425.84 277.376 420.951 277.256 420.951 277.108C420.951 276.961 425.84 276.841 431.873 276.841C437.903 276.841 442.792 276.961 442.792 277.108Z" fill="#191B1F"/>
<path d="M365.611 263.959C365.624 263.957 365.667 264.117 365.736 264.427C365.816 264.777 365.92 265.228 366.05 265.789C366.345 266.972 366.82 268.692 367.61 270.793C368.392 272.899 369.496 275.369 370.845 278.146C372.122 280.974 373.277 284.229 374.485 287.756L374.497 287.793V287.833C374.468 292.058 374.437 296.682 374.405 301.512C374.291 312.297 374.189 322.056 374.113 329.181C374.051 332.682 374.002 335.533 373.966 337.563C373.939 338.515 373.917 339.274 373.9 339.842C373.879 340.362 373.861 340.635 373.843 340.635C373.825 340.635 373.81 340.36 373.798 339.838C373.79 339.269 373.78 338.51 373.768 337.557C373.765 335.525 373.759 332.673 373.753 329.17C373.79 322.046 373.84 312.287 373.896 301.504C373.94 296.675 373.982 292.052 374.019 287.829L374.031 287.905C372.846 284.386 371.712 281.119 370.479 278.313C369.161 275.531 368.079 273.021 367.334 270.892C366.577 268.764 366.144 267.022 365.896 265.822C365.779 265.22 365.695 264.757 365.656 264.44C365.613 264.126 365.596 263.962 365.611 263.959Z" fill="#191B1F"/>
<path d="M448.764 255.709C448.8 255.712 448.787 256.248 448.749 257.215C448.71 258.273 448.659 259.65 448.596 261.309C448.457 264.856 448.269 269.587 448.063 274.817C447.826 280.047 447.611 284.778 447.452 288.324C447.356 289.982 447.277 291.358 447.216 292.417C447.15 293.383 447.097 293.916 447.062 293.915C447.027 293.913 447.013 293.377 447.019 292.409C447.038 291.349 447.063 289.971 447.093 288.311C447.179 284.852 447.336 280.073 447.555 274.796C447.774 269.521 448.015 264.745 448.239 261.291C448.351 259.564 448.46 258.167 448.552 257.203C448.65 256.236 448.731 255.706 448.764 255.709Z" fill="#191B1F"/>
<g opacity="0.3">
<path d="M365.654 266.521C365.273 274.26 368.19 281.756 373.355 287.531C371.759 280.256 367.775 273.484 365.654 266.521Z" fill="black"/>
</g>
<g opacity="0.3">
<path d="M400.104 336.337C403.77 336.025 407.075 333.853 409.516 331.099C411.956 328.346 414.166 325.223 415.838 321.946C418.112 317.489 419.24 312.636 419.545 307.556C414.975 319.801 408.277 329.494 400.104 336.337Z" fill="#04567E"/>
</g>
<path d="M420.99 302.214C421.008 302.218 420.984 302.374 420.925 302.665C420.847 303.015 420.754 303.435 420.642 303.939C420.522 304.493 420.352 305.165 420.114 305.934C419.885 306.706 419.642 307.59 419.29 308.541C418.655 310.467 417.724 312.701 416.583 315.127C415.401 317.536 413.971 320.12 412.268 322.707C410.543 325.282 408.715 327.604 406.947 329.622C405.143 331.609 403.437 333.325 401.892 334.639C401.146 335.326 400.415 335.883 399.786 336.385C399.163 336.894 398.602 337.304 398.131 337.619C397.705 337.91 397.35 338.152 397.054 338.354C396.804 338.516 396.669 338.596 396.659 338.581C396.649 338.567 396.764 338.46 396.994 338.27C397.274 338.048 397.61 337.78 398.013 337.46C398.464 337.121 399.003 336.692 399.606 336.163C400.216 335.644 400.926 335.072 401.652 334.372C403.158 333.031 404.825 331.301 406.596 329.313C408.331 327.292 410.132 324.981 411.844 322.427C413.534 319.859 414.965 317.301 416.162 314.923C417.318 312.524 418.276 310.321 418.951 308.421C419.323 307.484 419.588 306.611 419.842 305.851C420.105 305.094 420.302 304.433 420.451 303.888C420.599 303.395 420.723 302.983 420.825 302.642C420.916 302.357 420.972 302.21 420.99 302.214Z" fill="#191B1F"/>
<path d="M418.722 280.142C418.74 280.145 418.708 280.393 418.631 280.861C418.54 281.379 418.42 282.059 418.27 282.91C418.118 283.8 417.909 284.886 417.59 286.129C417.28 287.375 416.982 288.808 416.495 290.349C416.266 291.125 416.026 291.937 415.776 292.782C415.522 293.626 415.194 294.485 414.889 295.385C414.299 297.193 413.509 299.066 412.708 301.048C411.009 304.969 408.907 309.185 406.348 313.405C403.753 317.606 400.955 321.397 398.237 324.695C396.834 326.31 395.528 327.866 394.185 329.213C393.523 329.895 392.907 330.577 392.271 331.188C391.632 331.794 391.019 332.378 390.431 332.935C389.28 334.07 388.14 334.988 387.172 335.829C386.21 336.679 385.338 337.359 384.614 337.899C383.925 338.419 383.374 338.836 382.955 339.152C382.572 339.434 382.366 339.575 382.356 339.56C382.346 339.546 382.531 339.378 382.893 339.071C383.297 338.736 383.827 338.295 384.491 337.744C385.194 337.181 386.045 336.481 386.986 335.612C387.934 334.753 389.053 333.82 390.183 332.672C390.761 332.109 391.364 331.52 391.993 330.908C392.619 330.293 393.224 329.606 393.877 328.922C395.2 327.567 396.489 326.008 397.874 324.394C400.56 321.094 403.331 317.317 405.913 313.138C408.459 308.939 410.562 304.753 412.277 300.861C413.084 298.893 413.886 297.036 414.49 295.241C414.803 294.348 415.139 293.496 415.402 292.659C415.661 291.821 415.91 291.016 416.149 290.245C416.656 288.716 416.979 287.295 417.313 286.06C417.658 284.826 417.895 283.751 418.076 282.868C418.264 282.027 418.415 281.353 418.53 280.842C418.64 280.38 418.706 280.138 418.722 280.142Z" fill="#191B1F"/>
<path d="M356.757 258.205C361.592 265.553 381.165 295.317 386.953 304.119C387.592 305.089 386.796 306.358 385.644 306.213L350.87 301.838C350.499 301.792 350.162 301.594 349.941 301.291L316.727 255.928C316.041 254.992 316.768 253.681 317.925 253.767L353.704 256.414C354.946 256.505 356.073 257.165 356.757 258.205Z" fill="url(#paint2_linear_8122_18956)"/>
<path d="M356.756 258.206C356.756 258.206 356.685 258.05 356.479 257.789C356.271 257.534 355.924 257.164 355.354 256.842C354.798 256.498 353.97 256.312 353.037 256.279C352.095 256.202 351.014 256.113 349.802 256.013C344.903 255.629 337.863 255.076 329.176 254.395C326.998 254.228 324.718 254.053 322.34 253.871C321.152 253.78 319.939 253.687 318.704 253.594C318.383 253.575 318.113 253.534 317.745 253.534C317.379 253.542 317.016 253.699 316.745 253.949C316.187 254.438 316.045 255.358 316.481 255.992C319.51 260.147 322.745 264.583 326.149 269.252C332.968 278.576 340.462 288.824 348.328 299.58C348.833 300.262 349.282 300.903 349.829 301.611C350 301.795 350.212 301.94 350.448 302.029C350.693 302.126 350.934 302.136 351.122 302.162L352.35 302.317C353.983 302.521 355.604 302.725 357.214 302.927C360.435 303.331 363.608 303.729 366.727 304.119C372.963 304.897 378.979 305.649 384.711 306.365C385.084 306.404 385.393 306.464 385.815 306.488C386.241 306.493 386.674 306.314 386.967 306.008C387.269 305.708 387.438 305.289 387.442 304.864C387.459 304.447 387.216 304.002 387.024 303.751C386.249 302.576 385.484 301.418 384.732 300.276C383.225 297.993 381.761 295.777 380.346 293.634C377.514 289.351 374.876 285.362 372.465 281.716C367.645 274.457 363.739 268.575 361.02 264.482C359.671 262.472 358.618 260.904 357.885 259.812C357.532 259.299 357.258 258.899 357.057 258.606C356.865 258.336 356.764 258.201 356.756 258.206C356.748 258.212 356.832 258.358 357.005 258.639C357.194 258.939 357.453 259.35 357.784 259.877C358.496 260.982 359.519 262.571 360.83 264.606C363.511 268.724 367.365 274.639 372.121 281.942C374.513 285.599 377.132 289.602 379.942 293.899C381.35 296.047 382.805 298.27 384.304 300.558C385.054 301.702 385.815 302.862 386.586 304.039C386.809 304.35 386.906 304.562 386.915 304.866C386.911 305.148 386.795 305.436 386.59 305.638C386.389 305.846 386.105 305.962 385.816 305.958C385.521 305.942 385.12 305.876 384.776 305.837C379.046 305.111 373.031 304.348 366.796 303.558C363.678 303.164 360.505 302.763 357.285 302.357C355.674 302.155 354.052 301.95 352.42 301.744L351.193 301.59C350.974 301.56 350.794 301.551 350.653 301.491C350.502 301.434 350.364 301.338 350.253 301.219C349.769 300.562 349.282 299.902 348.795 299.24C340.915 288.493 333.409 278.255 326.58 268.938C323.166 264.288 319.921 259.869 316.883 255.732C316.575 255.291 316.671 254.65 317.065 254.297C317.257 254.121 317.504 254.009 317.765 254.003C318.023 254 318.373 254.04 318.669 254.057C319.905 254.145 321.117 254.232 322.306 254.318C324.683 254.487 326.965 254.649 329.144 254.805C337.837 255.41 344.882 255.899 349.784 256.239C350.999 256.32 352.081 256.39 353.023 256.453C353.971 256.472 354.735 256.628 355.297 256.946C356.42 257.567 356.721 258.249 356.756 258.206Z" fill="#026A9D"/>
<path d="M316.727 255.929C316.725 255.947 316.975 255.983 317.455 256.037C317.986 256.091 318.686 256.161 319.566 256.25C321.462 256.419 324.124 256.655 327.425 256.948C334.166 257.498 343.503 258.261 354.147 259.13L353.935 259.006C355.608 261.491 357.334 264.071 359.066 266.737C366.118 277.577 372.278 287.541 376.93 294.63C379.242 298.182 381.165 301.025 382.505 302.981C383.163 303.918 383.685 304.663 384.074 305.215C384.438 305.723 384.638 305.984 384.654 305.971C384.671 305.96 384.503 305.678 384.171 305.149C383.805 304.581 383.312 303.816 382.693 302.855C381.383 300.812 379.54 297.938 377.274 294.406C372.712 287.264 366.61 277.27 359.551 266.419C357.818 263.751 356.085 261.17 354.405 258.686L354.328 258.573L354.191 258.563C343.541 257.772 334.198 257.079 327.453 256.578C324.147 256.356 321.481 256.178 319.582 256.05C318.699 256.002 317.996 255.963 317.464 255.933C316.981 255.914 316.728 255.911 316.727 255.929Z" fill="#028ACE" fill-opacity="0.6"/>
<path d="M338.286 262.415H338.284C338.279 262.414 338.276 262.412 338.271 262.411L338.286 262.415Z" fill="white"/>
<path d="M337.426 262.934C337.513 262.521 337.902 262.348 338.285 262.415C338.697 262.538 338.908 262.634 339.218 262.939C339.531 263.249 339.664 263.788 339.387 264.13C339.04 264.559 338.326 264.402 337.907 264.041C337.588 263.765 337.339 263.348 337.426 262.934Z" fill="white"/>
<path d="M353.664 288.667C353.664 288.667 355.036 285.395 351.553 284.973C348.07 284.552 338.927 284.973 338.927 284.973C338.927 284.973 333.928 285.501 334.983 289.09C334.983 289.09 332.028 291.728 333.611 294.577C335.193 297.427 335.827 296.583 335.827 296.583C335.827 296.583 335.405 300.065 338.044 300.593C338.044 300.593 340.904 303.97 343.538 303.76C346.171 303.548 357.359 298.166 358.097 297.111C358.836 296.056 359.891 295.456 359.258 294.278C359.258 294.278 360.631 291.19 357.676 290.72C357.676 290.72 357.463 288.139 353.664 288.667Z" fill="#FFBE9D"/>
<path d="M337.795 289.848C337.796 289.928 338.695 289.987 340.148 290.018C341.601 290.047 343.606 290.049 345.822 290.016C348.033 289.943 350.044 290.029 351.521 289.677C353.023 289.33 353.612 288.448 353.541 288.429C353.48 288.355 352.847 289.058 351.436 289.277C350.054 289.509 348.025 289.366 345.813 289.438C343.597 289.472 341.593 289.534 340.141 289.609C338.691 289.682 337.794 289.769 337.795 289.848Z" fill="#FF9A6C"/>
<path d="M340.293 295.125C340.284 295.156 340.545 295.279 341.05 295.386C341.553 295.495 342.304 295.579 343.226 295.52C344.149 295.466 345.235 295.271 346.4 294.945C347.569 294.622 348.811 294.173 350.123 293.77C351.434 293.365 352.7 293.074 353.868 292.998C355.008 292.946 356.241 292.977 357.059 292.353C357.463 292.065 357.74 291.67 357.82 291.265C357.897 290.868 357.817 290.52 357.688 290.277C357.412 289.774 357.039 289.745 357.049 289.773C357.02 289.818 357.319 289.924 357.483 290.368C357.664 290.795 357.568 291.577 356.829 292.013C356.118 292.498 355.063 292.443 353.838 292.464C352.608 292.513 351.284 292.804 349.952 293.216C348.651 293.643 347.411 294.05 346.25 294.431C345.115 294.779 344.074 295.007 343.189 295.111C341.414 295.332 340.313 295.025 340.293 295.125Z" fill="#FF9A6C"/>
<path d="M344.032 299.588C344.053 299.664 344.951 299.494 346.381 299.133C347.811 298.772 349.771 298.213 351.91 297.513C354.049 296.812 355.961 296.104 357.327 295.55C358.694 294.995 359.518 294.6 359.491 294.527C359.431 294.373 355.994 295.569 351.729 296.962C347.469 298.359 343.989 299.428 344.032 299.588Z" fill="#FF9A6C"/>
<path d="M343.133 303.727C343.143 303.797 343.897 303.768 345.082 303.502C346.269 303.244 347.863 302.7 349.537 301.934C351.215 301.171 352.679 300.392 353.738 299.83C354.796 299.264 355.442 298.894 355.408 298.819C355.334 298.646 352.597 299.852 349.299 301.406C346.007 302.985 343.112 303.576 343.133 303.727Z" fill="#FF9A6C"/>
<path d="M454.326 272.256C454.326 272.256 447.216 300.742 438.332 311.256C429.729 321.439 416.245 316.758 411.576 303.584C406.907 290.41 398.588 260.318 398.588 260.318L408.805 252.506L426.458 286.716L434.412 263.395L454.326 272.256Z" fill="#FFBE9D"/>
<path d="M399.061 261.109L391.57 250.251C391.57 250.251 389.082 249.673 388.378 249.26C387.528 248.764 386.693 244.45 386.71 243.608C386.728 242.766 385.258 240.799 385.853 240.244C386.448 239.69 388.457 239.648 388.348 238.839C388.325 238.667 386.859 236.867 388.021 235.546C388.442 235.07 390.133 234.649 390.133 234.649L390.012 230.506C390.012 230.506 392.25 225.613 394.537 227.384C394.537 227.384 403.16 234.008 404.028 235.067C404.897 236.125 408.215 249.919 408.803 252.507" fill="#FFBE9D"/>
<path d="M408.803 252.507C408.82 252.503 408.781 252.252 408.687 251.776C408.575 251.252 408.427 250.563 408.244 249.701C407.84 247.903 407.237 245.303 406.42 242.099C406.006 240.498 405.551 238.744 404.977 236.875C404.824 236.409 404.678 235.936 404.478 235.455C404.292 234.909 403.835 234.544 403.461 234.204C402.677 233.513 401.85 232.835 400.997 232.144C399.291 230.763 397.48 229.337 395.59 227.869C395.103 227.525 394.702 227.079 394.012 226.827C393.315 226.599 392.574 226.892 392.067 227.289C391.028 228.117 390.354 229.227 389.77 230.393L389.743 230.445L389.746 230.512C389.757 230.912 389.77 231.345 389.782 231.78C389.811 232.749 389.839 233.71 389.867 234.656L390.068 234.391C389.546 234.529 389.047 234.683 388.549 234.903C388.303 235.022 388.051 235.13 387.813 235.383C387.635 235.611 387.466 235.862 387.396 236.149C387.222 236.719 387.342 237.305 387.527 237.798C387.62 238.05 387.739 238.284 387.866 238.51L388.056 238.836L388.095 238.904C388.085 238.891 388.091 238.861 388.087 238.888C388.087 238.914 388.09 238.939 388.075 238.959C388.053 239.054 387.851 239.18 387.649 239.262C387.441 239.349 387.211 239.417 386.98 239.488C386.748 239.56 386.511 239.628 386.271 239.723C386.033 239.836 385.782 239.891 385.552 240.228C385.381 240.582 385.477 240.866 385.532 241.11C385.602 241.357 385.691 241.586 385.786 241.805C385.973 242.244 386.182 242.66 386.335 243.07C386.41 243.28 386.465 243.462 386.465 243.652C386.469 243.911 386.503 244.13 386.532 244.36C386.597 244.812 386.68 245.252 386.771 245.687C386.961 246.552 387.169 247.392 387.474 248.191C387.642 248.588 387.769 248.984 388.132 249.345C388.547 249.658 388.917 249.714 389.301 249.858C390.06 250.095 390.799 250.28 391.52 250.447L391.4 250.366C393.712 253.652 395.602 256.336 396.948 258.252C397.591 259.144 398.104 259.855 398.487 260.387C398.844 260.872 399.04 261.121 399.057 261.11C399.073 261.099 398.909 260.827 398.584 260.321C398.223 259.774 397.739 259.042 397.134 258.124C395.822 256.185 393.983 253.466 391.731 250.138L391.689 250.075L391.611 250.056C390.905 249.882 390.169 249.69 389.433 249.451C389.087 249.328 388.647 249.203 388.423 249.014C388.204 248.803 388.037 248.398 387.898 248.031C387.615 247.27 387.415 246.44 387.234 245.591C387.149 245.165 387.07 244.732 387.011 244.295C386.983 244.08 386.952 243.85 386.952 243.654C386.954 243.387 386.876 243.126 386.797 242.904C386.631 242.452 386.423 242.036 386.246 241.613C386.155 241.401 386.075 241.189 386.018 240.982C385.958 240.78 385.937 240.553 385.996 240.472C386.03 240.401 386.26 240.269 386.457 240.198C386.666 240.117 386.895 240.051 387.128 239.98C387.362 239.909 387.602 239.841 387.847 239.739C388.079 239.627 388.379 239.532 388.555 239.157C388.599 239.065 388.606 238.967 388.604 238.866C388.611 238.83 388.591 238.742 388.556 238.673L388.504 238.579L388.319 238.26C388.203 238.051 388.096 237.837 388.015 237.618C387.854 237.184 387.77 236.713 387.901 236.301C387.951 236.09 388.078 235.908 388.212 235.733C388.325 235.608 388.549 235.488 388.767 235.39C389.214 235.193 389.709 235.039 390.197 234.911L390.404 234.857L390.397 234.647C390.37 233.701 390.342 232.74 390.315 231.771C390.301 231.336 390.289 230.905 390.277 230.503L390.253 230.621C390.796 229.527 391.477 228.433 392.384 227.717C392.836 227.368 393.375 227.175 393.86 227.334C394.322 227.484 394.797 227.937 395.273 228.285C397.165 229.746 398.982 231.16 400.692 232.528C401.546 233.212 402.377 233.884 403.155 234.558C403.546 234.909 403.924 235.204 404.066 235.638C404.256 236.086 404.408 236.557 404.562 237.013C405.15 238.859 405.626 240.607 406.061 242.198C406.889 245.351 407.562 247.916 408.045 249.753C408.269 250.604 408.448 251.286 408.584 251.803C408.712 252.268 408.785 252.511 408.803 252.507Z" fill="#FF9A6C"/>
<path d="M390.131 234.648C390.134 234.739 391.006 234.67 392.366 234.801C393.054 234.852 393.794 235.109 394.724 235.34C395.679 235.55 396.73 235.442 397.774 235.366C399.87 235.081 401.639 235.967 402.577 236.924C403.541 237.882 403.638 238.801 403.734 238.768C403.781 238.791 403.825 237.788 402.851 236.668C402.374 236.125 401.675 235.585 400.788 235.22C399.911 234.822 398.794 234.743 397.736 234.836C396.67 234.915 395.68 235.025 394.819 234.86C393.961 234.674 393.107 234.429 392.394 234.426C390.974 234.389 390.126 234.594 390.131 234.648Z" fill="#FF9A6C"/>
<path d="M393.181 234.424C393.309 234.489 393.657 233.985 393.612 233.269C393.571 232.553 393.165 232.094 393.046 232.174C392.915 232.249 393.052 232.723 393.08 233.301C393.122 233.877 393.043 234.364 393.181 234.424Z" fill="#FF9A6C"/>
<path d="M388.08 238.996C388.072 239.131 391.031 239.259 394.575 238.488C395.461 238.296 396.271 238.048 396.963 238.185C397.651 238.309 398.178 238.77 398.509 239.205C399.162 240.119 399.268 240.884 399.362 240.853C399.405 240.854 399.454 240.068 398.819 238.991C398.49 238.478 397.917 237.897 397.061 237.705C396.203 237.515 395.317 237.79 394.464 237.968C390.982 238.726 388.075 238.838 388.08 238.996Z" fill="#FF9A6C"/>
<path d="M386.936 242.914C386.936 242.982 387.551 243.044 388.533 242.922C389.514 242.813 390.83 242.475 392.266 242.193C392.987 242.061 393.673 241.95 394.276 241.993C394.881 242.027 395.385 242.224 395.723 242.515C396.433 243.113 396.349 243.792 396.428 243.782C396.459 243.788 396.533 243.638 396.517 243.343C396.499 243.052 396.352 242.622 395.979 242.241C395.615 241.852 394.998 241.567 394.317 241.505C393.632 241.43 392.904 241.538 392.168 241.671C390.69 241.962 389.411 242.353 388.468 242.552C387.529 242.764 386.933 242.836 386.936 242.914Z" fill="#FF9A6C"/>
<path d="M389.506 246.022C389.415 246.089 390.146 246.856 391.491 246.853L391.226 246.624C391.253 246.861 391.279 247.087 391.305 247.319C391.5 248.852 391.775 250.078 391.92 250.056C392.066 250.034 392.026 248.781 391.833 247.258C391.801 247.027 391.771 246.804 391.738 246.569L391.703 246.326L391.471 246.34C390.345 246.409 389.573 245.907 389.506 246.022Z" fill="#FF9A6C"/>
<path d="M443.064 243.406C443.064 243.406 457.627 246.935 457.597 266.246C457.566 285.483 453.198 295.098 453.198 295.098L426.354 280.487L432.344 265.447L443.064 243.406Z" fill="#5B7EFA"/>
<path d="M453.204 295.097C453.195 295.113 453.004 295.029 452.646 294.854C452.24 294.648 451.725 294.386 451.089 294.063C449.682 293.321 447.747 292.302 445.366 291.047C440.479 288.413 433.776 284.802 426.225 280.734L426.008 280.618L426.095 280.389C426.555 279.186 427.041 277.914 427.534 276.625C429.25 272.168 430.884 267.926 432.374 264.056C433.121 262.13 433.833 260.296 434.5 258.577C435.144 256.849 435.852 255.262 436.625 253.891C438.135 251.126 439.922 249.173 441.47 248.284C442.232 247.824 442.902 247.617 443.358 247.528C443.588 247.486 443.763 247.462 443.883 247.461C444.002 247.454 444.063 247.456 444.063 247.466C444.086 247.537 443.049 247.521 441.587 248.472C440.12 249.393 438.425 251.329 436.978 254.083C436.236 255.452 435.563 257.013 434.941 258.742C434.289 260.468 433.594 262.306 432.864 264.24C431.387 268.115 429.767 272.362 428.066 276.824C427.572 278.113 427.084 279.384 426.622 280.587L426.493 280.241C434.01 284.374 440.681 288.041 445.547 290.717C447.893 292.034 449.801 293.105 451.186 293.885C451.803 294.243 452.302 294.534 452.697 294.763C453.039 294.966 453.213 295.081 453.204 295.097Z" fill="#191B1F"/>
<path d="M104.33 361.869L76.4388 375.859C74.3539 376.747 73 378.795 73 381.062V394.108C73 405.764 76.2533 417.315 82.9454 427.512C87.969 435.167 94.632 444.952 105.718 450.545H110.723C123.064 446.781 132.276 436.748 137.908 428.167C144.601 417.97 147.853 406.42 147.853 394.763V381.062C147.853 378.795 146.5 376.747 144.414 375.859L112.643 362.321C111.228 361.718 105.746 361.265 104.33 361.869Z" fill="#4058AF"/>
<path d="M103.211 362.323L71.4388 375.86C69.3539 376.748 68 378.796 68 381.063V394.11C68 405.765 71.2533 417.316 77.9454 427.514C83.5773 436.095 92.2979 444.93 105.723 450.546C118.064 446.782 127.276 436.749 132.908 428.168C139.601 417.971 142.853 406.421 142.853 394.764V381.063C142.853 378.796 141.5 376.748 139.414 375.86L107.643 362.322C106.228 361.719 104.626 361.719 103.211 362.323Z" fill="#5B7EFA"/>
<path opacity="0.3" d="M112.958 421.491C123.682 417.332 129.004 405.266 124.844 394.542C120.685 383.819 108.62 378.497 97.8958 382.656C87.1719 386.816 81.8503 398.881 86.0097 409.605C90.169 420.329 102.234 425.65 112.958 421.491Z" fill="black"/>
<path d="M105.423 403.235C110.198 403.235 114.069 399.365 114.069 394.589C114.069 389.814 110.198 385.943 105.423 385.943C100.648 385.943 96.7773 389.814 96.7773 394.589C96.7773 399.365 100.648 403.235 105.423 403.235Z" fill="#5B7EFA"/>
<path d="M89.6348 415.66C89.6348 415.66 93.66 406.057 105.107 406.057C116.555 406.057 121.218 415.66 121.218 415.66C121.218 415.66 116.111 423.204 104.815 422.912C94.5865 422.648 89.6348 415.66 89.6348 415.66Z" fill="#5B7EFA"/>
<path d="M126.252 402.084C126.244 402.084 126.231 401.969 126.212 401.747C126.193 401.5 126.169 401.174 126.138 400.759C126.123 400.54 126.107 400.297 126.09 400.033C126.06 399.766 126.001 399.478 125.953 399.164C125.851 398.538 125.754 397.811 125.511 397.021C125.14 395.417 124.383 393.523 123.195 391.516C121.996 389.518 120.271 387.431 117.925 385.662C115.586 383.909 112.636 382.419 109.233 381.819C105.852 381.239 102.038 381.347 98.4057 382.728C97.481 383.024 96.6127 383.482 95.7189 383.911C94.8724 384.423 93.9813 384.895 93.1939 385.536C92.3565 386.11 91.6246 386.83 90.8581 387.522C90.1652 388.29 89.4378 389.04 88.8404 389.91C87.6148 391.612 86.5446 393.503 85.8981 395.584C85.2271 397.651 84.8652 399.846 84.8361 402.08C84.8661 404.315 85.2262 406.511 85.8972 408.58C86.5446 410.66 87.6148 412.552 88.8395 414.255C89.4369 415.126 90.1643 415.877 90.8571 416.644C91.6236 417.337 92.3556 418.056 93.193 418.631C93.9804 419.272 94.8724 419.744 95.7189 420.256C96.6127 420.685 97.481 421.143 98.4057 421.439C102.039 422.821 105.854 422.928 109.235 422.348C112.638 421.747 115.588 420.257 117.927 418.504C120.273 416.735 121.999 414.648 123.196 412.65C124.385 410.644 125.141 408.75 125.513 407.146C125.756 406.356 125.852 405.629 125.954 405.003C126.002 404.689 126.061 404.401 126.091 404.134C126.108 403.869 126.124 403.627 126.139 403.408C126.17 402.993 126.194 402.667 126.212 402.42C126.231 402.199 126.244 402.084 126.252 402.084C126.261 402.084 126.263 402.199 126.26 402.421C126.253 402.669 126.244 402.997 126.233 403.414C126.226 403.635 126.217 403.879 126.208 404.146C126.185 404.414 126.134 404.705 126.093 405.023C126.005 405.656 125.921 406.391 125.691 407.191C125.344 408.816 124.606 410.741 123.424 412.787C122.232 414.824 120.501 416.956 118.13 418.771C115.767 420.57 112.773 422.106 109.308 422.735C105.866 423.343 101.974 423.249 98.2575 421.85C97.3128 421.549 96.4227 421.086 95.5098 420.649C94.6433 420.129 93.7313 419.648 92.9248 418.995C92.0683 418.409 91.3172 417.676 90.5335 416.968C89.8233 416.186 89.0787 415.419 88.4667 414.53C87.2111 412.79 86.1154 410.856 85.4507 408.728C84.7624 406.613 84.3933 404.365 84.3633 402.08C84.3933 399.795 84.7634 397.55 85.4517 395.435C86.1163 393.308 87.212 391.373 88.4676 389.635C89.0796 388.746 89.8242 387.979 90.5344 387.197C91.319 386.489 92.0692 385.757 92.9257 385.17C93.7322 384.518 94.6442 384.036 95.5098 383.517C96.4236 383.081 97.3128 382.617 98.2575 382.316C101.973 380.918 105.864 380.823 109.306 381.431C112.771 382.061 115.765 383.596 118.128 385.394C120.5 387.21 122.231 389.342 123.423 391.379C124.605 393.423 125.343 395.349 125.691 396.974C125.922 397.774 126.005 398.51 126.093 399.143C126.134 399.459 126.186 399.75 126.208 400.019C126.217 400.286 126.226 400.53 126.233 400.751C126.244 401.168 126.253 401.497 126.26 401.744C126.263 401.97 126.261 402.084 126.252 402.084Z" fill="#7995F9"/>
<path d="M142.748 391.23C142.765 391.23 142.784 391.437 142.807 391.831C142.826 392.274 142.85 392.848 142.881 393.558C142.91 394.309 142.953 395.228 142.901 396.295C142.886 396.831 142.868 397.402 142.851 398.004C142.845 398.611 142.807 399.249 142.734 399.918C142.605 401.257 142.516 402.73 142.239 404.288C142.113 405.069 142.014 405.882 141.852 406.709C141.675 407.533 141.493 408.382 141.305 409.251C140.474 412.708 139.323 416.466 137.642 420.218C135.955 423.969 133.962 427.354 131.945 430.285C130.886 431.716 129.911 433.098 128.863 434.287C128.35 434.888 127.881 435.494 127.379 436.029C126.877 436.562 126.393 437.074 125.93 437.564C125.03 438.564 124.105 439.36 123.334 440.097C122.568 440.841 121.86 441.428 121.273 441.898C120.719 442.345 120.273 442.706 119.927 442.985C119.616 443.229 119.448 443.351 119.438 443.338C119.428 443.325 119.576 443.179 119.866 442.91C120.196 442.614 120.623 442.232 121.152 441.758C121.719 441.269 122.406 440.664 123.152 439.904C123.903 439.152 124.807 438.344 125.687 437.334C126.14 436.84 126.614 436.324 127.107 435.786C127.599 435.248 128.057 434.64 128.561 434.037C129.59 432.846 130.546 431.463 131.588 430.035C133.572 427.111 135.537 423.747 137.211 420.026C138.88 416.301 140.033 412.578 140.883 409.15C141.074 408.288 141.262 407.447 141.445 406.63C141.613 405.809 141.718 405.003 141.853 404.228C142.144 402.682 142.252 401.219 142.402 399.889C142.486 399.225 142.534 398.59 142.552 397.987C142.583 397.387 142.611 396.82 142.638 396.286C142.716 395.224 142.699 394.307 142.699 393.559C142.706 392.849 142.71 392.276 142.714 391.832C142.72 391.439 142.732 391.231 142.748 391.23Z" fill="#191B1F"/>
<path d="M291.283 142.516L283.58 150.725C282.985 151.286 282.781 152.147 283.063 152.915L284.688 157.333C286.139 161.28 288.678 164.786 292.214 167.406C294.868 169.372 298.343 171.856 302.793 172.37L304.488 171.747C308.198 168.936 310.069 164.392 310.907 160.785C311.904 156.499 311.567 152.183 310.116 148.236L308.41 143.596C308.128 142.829 307.415 142.304 306.598 142.263L294.154 141.634C293.6 141.606 291.687 142.135 291.283 142.516Z" fill="#5B7EFA" fill-opacity="0.5"/>
<path d="M290.957 142.807L281.884 151.346C281.289 151.907 281.086 152.768 281.368 153.536L282.992 157.954C284.443 161.901 286.983 165.407 290.518 168.027C293.493 170.232 297.547 172.138 302.792 172.368C306.502 169.558 308.373 165.013 309.211 161.406C310.208 157.12 309.871 152.804 308.42 148.857L306.714 144.218C306.432 143.45 305.719 142.925 304.902 142.884L292.459 142.255C291.904 142.227 291.362 142.426 290.957 142.807Z" fill="#5B7EFA" fill-opacity="0.5"/>
<path d="M307.949 147.674C307.955 147.672 307.987 147.74 308.045 147.87C308.107 148.02 308.187 148.21 308.286 148.446C308.389 148.696 308.519 149.002 308.634 149.37C308.748 149.738 308.916 150.146 309.03 150.618C309.153 151.087 309.306 151.597 309.407 152.159C309.461 152.439 309.529 152.727 309.577 153.027C309.62 153.329 309.664 153.638 309.709 153.956C309.858 155.23 309.936 156.647 309.834 158.127C309.73 159.607 309.476 161.002 309.158 162.246C308.977 162.862 308.819 163.452 308.612 163.985C308.513 164.252 308.43 164.515 308.326 164.759C308.222 165.003 308.122 165.236 308.026 165.46C307.846 165.911 307.631 166.295 307.462 166.641C307.295 166.988 307.128 167.275 306.988 167.507C306.856 167.726 306.75 167.903 306.666 168.042C306.591 168.163 306.55 168.225 306.544 168.222C306.539 168.219 306.571 168.15 306.636 168.024C306.711 167.881 306.807 167.699 306.927 167.473C307.058 167.236 307.215 166.946 307.373 166.596C307.533 166.247 307.738 165.861 307.91 165.41C308.002 165.186 308.098 164.952 308.198 164.709C308.297 164.465 308.377 164.202 308.472 163.936C308.672 163.404 308.824 162.817 308.999 162.204C309.306 160.967 309.552 159.583 309.656 158.115C309.757 156.647 309.685 155.242 309.546 153.976C309.503 153.66 309.462 153.353 309.422 153.053C309.377 152.754 309.313 152.468 309.262 152.189C309.168 151.629 309.023 151.12 308.908 150.651C308.803 150.18 308.645 149.771 308.54 149.402C308.434 149.033 308.315 148.725 308.222 148.471C308.136 148.23 308.067 148.036 308.012 147.884C307.965 147.749 307.944 147.677 307.949 147.674Z" fill="#5B7EFA" fill-opacity="0.5"/>
<path d="M298.036 162.218L290.061 159.58L290.981 156.797L296.329 158.566L299.886 149.581L302.611 150.661L298.036 162.218Z" fill="#CDD8FD"/>
<path d="M485.43 473.019C488.35 472.594 490.926 470.36 491.768 467.162C492.867 462.971 490.575 458.736 486.645 457.703C482.718 456.67 478.641 459.229 477.541 463.42C476.694 466.648 477.871 469.885 480.249 471.682C468.863 470.505 466.286 482.545 466.286 482.545L492.172 489.352C492.172 489.352 495.871 477.463 485.43 473.019Z" fill="#5B7EFA" fill-opacity="0.2"/>
<rect x="12.5215" y="12.4385" width="543.146" height="48.7173" rx="8.29231" fill="url(#paint3_linear_8122_18956)" fill-opacity="0.2"/>
<circle cx="36.0551" cy="37.0082" r="5.9125" fill="#6789FE" fill-opacity="0.5"/>
<circle cx="52.4281" cy="37.0082" r="5.9125" fill="#6789FE" fill-opacity="0.5"/>
<circle cx="68.8012" cy="37.0082" r="5.9125" fill="#6789FE" fill-opacity="0.5"/>
<defs>
<linearGradient id="paint0_linear_8122_18956" x1="284.012" y1="0" x2="284.012" y2="742.162" gradientUnits="userSpaceOnUse">
<stop stop-color="#5579F8"/>
<stop offset="1" stop-color="#999999" stop-opacity="0"/>
</linearGradient>
<linearGradient id="paint1_linear_8122_18956" x1="284.012" y1="0" x2="284.012" y2="717.695" gradientUnits="userSpaceOnUse">
<stop stop-color="#5579F8" stop-opacity="0.69"/>
<stop offset="1" stop-color="white" stop-opacity="0"/>
</linearGradient>
<linearGradient id="paint2_linear_8122_18956" x1="351.915" y1="268.784" x2="351.904" y2="253.763" gradientUnits="userSpaceOnUse">
<stop stop-color="#191B1F"/>
<stop offset="1" stop-color="#2C3036"/>
</linearGradient>
<linearGradient id="paint3_linear_8122_18956" x1="284.095" y1="12.4385" x2="284.095" y2="61.1558" gradientUnits="userSpaceOnUse">
<stop stop-color="#6B8BFF"/>
<stop offset="1" stop-color="#5579F8"/>
</linearGradient>
</defs>
</svg>
