<svg width="569" height="743" viewBox="0 0 569 743" fill="none" xmlns="http://www.w3.org/2000/svg">
<path d="M0 21.9728C0 9.83755 9.83758 0 21.9728 0H546.05C558.185 0 568.023 9.83758 568.023 21.9728V720.189C568.023 732.324 558.185 742.162 546.05 742.162H21.9728C9.83757 742.162 0 732.324 0 720.189V21.9728Z" fill="url(#paint0_linear_8122_18967)" fill-opacity="0.13"/>
<path d="M21.9727 1.93848H546.05C557.114 1.93848 566.084 10.9082 566.084 21.9727V720.188C566.084 731.253 557.114 740.223 546.05 740.223H21.9727C10.9082 740.223 1.93848 731.253 1.93848 720.188V21.9727C1.93857 10.9083 10.9083 1.93858 21.9727 1.93848Z" stroke="url(#paint1_linear_8122_18967)" stroke-opacity="0.5" stroke-width="3.87756"/>
<rect x="12.4395" y="12.4385" width="543.146" height="48.7173" rx="8.29231" fill="url(#paint2_linear_8122_18967)" fill-opacity="0.2"/>
<circle cx="35.973" cy="37.0082" r="5.9125" fill="#6789FE" fill-opacity="0.5"/>
<circle cx="52.3461" cy="37.0082" r="5.9125" fill="#6789FE" fill-opacity="0.5"/>
<circle cx="68.7191" cy="37.0082" r="5.9125" fill="#6789FE" fill-opacity="0.5"/>
<path d="M284.361 652.149C429.811 652.149 547.722 645.278 547.722 636.802C547.722 628.327 429.811 621.456 284.361 621.456C138.911 621.456 21 628.327 21 636.802C21 645.278 138.911 652.149 284.361 652.149Z" fill="#B5C4FD" fill-opacity="0.2"/>
<path d="M341.687 297.882L342.597 298.656C342.929 298.94 343.308 299.22 343.659 299.505C344.385 300.072 345.12 300.642 345.89 301.182C347.401 302.289 349.01 303.29 350.611 304.295C353.836 306.283 357.226 308.029 360.738 309.475C364.243 310.933 367.831 312.219 371.523 313.153C372.441 313.401 373.378 313.567 374.307 313.78L375.703 314.085C375.996 314.141 375.758 314.11 375.625 314.149C375.464 314.201 375.206 314.289 375.097 314.398C374.969 314.52 374.976 314.515 375.03 314.484C375.156 314.338 375.451 313.825 375.669 313.169C376.131 311.838 376.419 310.041 376.582 308.222C376.746 306.384 376.802 304.465 376.789 302.523C376.766 298.633 376.483 294.66 376.172 290.673C375.843 286.685 375.373 282.684 374.857 278.68C374.379 274.677 373.773 270.65 373.177 266.688L378.415 265.486C380.722 273.46 382.548 281.467 383.947 289.681C384.665 293.783 385.189 297.938 385.476 302.201C385.617 304.335 385.692 306.497 385.629 308.735C385.548 310.981 385.395 313.268 384.709 315.859C384.344 317.152 383.871 318.559 382.822 320.085C382.25 320.854 381.592 321.641 380.606 322.327C379.656 322.998 378.453 323.539 377.275 323.724C376.138 323.955 374.867 323.856 374.156 323.739L372.546 323.48C371.475 323.295 370.392 323.154 369.328 322.929C365.06 322.069 360.855 320.874 356.776 319.333C352.705 317.77 348.77 315.867 344.995 313.667C343.124 312.534 341.284 311.352 339.501 310.052C338.601 309.418 337.725 308.738 336.846 308.046C336.41 307.684 335.981 307.342 335.546 306.955C335.094 306.563 334.72 306.234 334.164 305.703L341.687 297.882Z" fill="#FFBE9D"/>
<path d="M326.534 291.535C341.83 289.458 354.191 301.825 354.191 301.825L340.161 323.465C340.161 323.465 325.13 313.84 322.495 307.292C319.75 300.474 318.685 292.6 326.534 291.535Z" fill="#5579F8"/>
<path d="M373.37 268.565L368.291 258.362L381.627 258.249C381.627 258.249 381.896 265.371 378.518 269.462L373.37 268.565Z" fill="#FFBE9D"/>
<path d="M370.657 247.391L380.574 249.154L381.627 258.248L368.291 258.361L370.657 247.391Z" fill="#FFBE9D"/>
<path d="M272.299 628.348L284.8 629.554L293.443 600.212L280.944 599.006L272.299 628.348Z" fill="#FFBE9D"/>
<path d="M192.881 584.966L202.14 593.66L222.13 571.692L212.871 562.997L192.881 584.966Z" fill="#FFBE9D"/>
<path d="M206.415 589.49L199.457 576.953C199.204 576.497 198.682 576.302 198.201 576.486L187.489 580.562C186.378 580.984 185.896 582.411 186.498 583.452C188.999 587.781 190.425 589.745 193.485 595.258C195.367 598.65 199.033 606.429 201.633 611.113C204.176 615.694 209.002 613.476 208.34 611.293C205.367 601.504 205.927 596.056 206.766 591.736C206.916 590.956 206.784 590.158 206.415 589.49Z" fill="#5579F8"/>
<path d="M286.262 625.742H271.122C270.571 625.742 270.074 626.124 269.926 626.662L266.635 638.642C266.293 639.884 267.208 641.027 268.482 641.038C273.817 641.085 276.346 641.063 283.004 641.063C287.1 641.063 297.697 641.063 303.353 641.063C308.886 641.063 310.043 635.47 307.754 634.964C297.49 632.693 291.573 629.561 288.406 626.572C287.834 626.032 287.068 625.742 286.262 625.742Z" fill="#5579F8"/>
<path d="M293.436 600.216L288.981 615.342H276.121L280.929 599.012L293.436 600.216Z" fill="#F5A57C"/>
<path d="M212.863 563.002L222.125 571.7L211.817 583.02L202.555 574.322L212.863 563.002Z" fill="#F5A57C"/>
<path d="M341.638 282.887C341.542 272.755 332.375 269.207 332.375 269.207C332.375 269.207 343.845 247.483 337.925 233.076C332.004 218.671 312.594 216.115 306.421 222.854C295.6 222.388 292.149 237.956 292.149 237.956C292.149 237.956 283.094 239.465 280.647 246.061C278.201 252.656 285.642 260.089 285.642 260.089C285.642 260.089 275.303 261.538 271.498 269.438C267.694 277.338 270.025 287.971 281.46 297.087C298.073 310.331 328.626 293.717 328.626 293.717C328.626 293.717 341.749 294.533 341.638 282.887Z" fill="#191B1F"/>
<path d="M339.62 292.964C339.62 292.964 345.161 295.402 326.574 368.959C306.082 367.188 284.905 365.356 274.933 364.493C277.618 343.551 278.762 330.593 272.447 286.592C272.447 286.592 283.47 285.174 294.626 285.599C303.351 285.932 310.496 286.27 318.074 287.627C328.068 289.419 339.62 292.964 339.62 292.964Z" fill="#5579F8"/>
<path d="M326.306 289.366C323.63 288.725 320.8 288.111 318.081 287.623C310.498 286.271 303.36 285.937 294.633 285.602C291.942 285.504 289.252 285.504 286.729 285.56L288.457 288.85C288.764 289.436 296.125 303.167 310.107 310.96L313.955 313.107L317.538 310.556C326.571 304.129 327.91 295.737 326.306 289.366Z" fill="#4361CD"/>
<path d="M299.234 259.397C300.061 267.07 300.341 281.022 294.627 285.601C294.627 285.601 301.161 297.997 313.504 304.872C324.443 297.089 318.077 287.629 318.077 287.629C309.838 284.892 310.595 278.668 312.567 272.933L299.234 259.397Z" fill="#FFBE9D"/>
<path d="M304.667 264.921L312.557 272.927C312.086 274.284 311.69 275.668 311.474 277.027C308.3 276.284 303.705 272.986 303.655 269.591C303.631 267.897 304.325 265.679 304.667 264.921Z" fill="#F0AF8E"/>
<path d="M298.911 241.965C297.401 254.541 296.494 259.831 301.609 267.363C309.301 278.692 325.078 277.797 330.316 265.925C335.029 255.239 336.706 236.468 325.438 229.294C314.335 222.224 300.421 229.389 298.911 241.965Z" fill="#FFBE9D"/>
<path d="M308.647 226.507C318.339 229.012 308.763 258.493 293.254 249.938C293.254 249.938 293.951 237.492 298.249 232.207C302.548 226.921 308.647 226.507 308.647 226.507Z" fill="#191B1F"/>
<path d="M307.598 228.141C311.78 234.937 342.801 247.832 332.373 233.194C321.946 218.557 307.598 228.141 307.598 228.141Z" fill="#191B1F"/>
<path d="M294.926 252.833C294.709 255.45 295.723 257.923 297.144 259.546C299.282 261.988 302.12 260.503 303.008 257.558C303.807 254.908 303.657 250.442 300.799 249.082C297.981 247.742 295.172 249.84 294.926 252.833Z" fill="#F0AF8E"/>
<path d="M326.574 368.962C326.574 368.962 344.046 446.252 332.383 500.741C324.572 537.236 296.399 610.959 296.399 610.959L274.373 610.393C274.373 610.393 295.698 533.025 300.108 502.6C307.65 450.555 288.759 365.691 288.759 365.691L326.574 368.962Z" fill="#191B1F"/>
<path d="M306.425 384.566L295.412 401.937C298.214 419.948 301.002 442.476 301.713 464.154C317.202 436.426 309.869 399.246 306.425 384.566Z" fill="#002C42"/>
<path d="M298.212 612.098L271.002 611.403L272.576 603.043L302.285 604.451L298.212 612.098Z" fill="#5579F8"/>
<path d="M315.285 368.137C315.285 368.137 305.036 450.104 282.817 494.853C264.871 530.997 216.984 582.45 216.984 582.45L204.74 569.836C204.74 569.836 237.086 513.917 250.424 489.907C283.128 431.033 256.401 386.108 274.936 364.491L315.285 368.137Z" fill="#191B1F"/>
<path d="M218.224 584.139L202.424 568.738L207.666 561.605L224.885 579.408L218.224 584.139Z" fill="#5579F8"/>
<path d="M274.425 361.398L271.697 365.819C271.485 366.162 271.878 366.565 272.475 366.617L326.63 371.301C327.096 371.341 327.502 371.146 327.556 370.856L328.422 366.274C328.482 365.956 328.101 365.65 327.592 365.606L275.299 361.083C274.914 361.05 274.56 361.177 274.425 361.398Z" fill="#5579F8"/>
<path d="M280.941 367.852L279.54 367.731C279.262 367.707 279.061 367.544 279.096 367.371L280.272 361.423C280.307 361.248 280.564 361.126 280.842 361.151L282.244 361.272C282.522 361.296 282.723 361.459 282.688 361.633L281.512 367.582C281.477 367.753 281.22 367.876 280.941 367.852Z" fill="#0F264C"/>
<path d="M322.65 371.458L321.249 371.336C320.971 371.313 320.77 371.15 320.805 370.977L321.981 365.028C322.016 364.854 322.273 364.731 322.551 364.755L323.953 364.876C324.231 364.9 324.432 365.063 324.397 365.236L323.221 371.184C323.186 371.36 322.929 371.483 322.65 371.458Z" fill="#0F264C"/>
<path d="M301.797 369.654L300.396 369.533C300.117 369.509 299.916 369.346 299.951 369.173L301.128 363.224C301.163 363.05 301.419 362.927 301.698 362.951L303.099 363.072C303.378 363.096 303.579 363.259 303.544 363.432L302.367 369.381C302.332 369.556 302.076 369.679 301.797 369.654Z" fill="#0F264C"/>
<path d="M317.136 248.888C316.951 249.9 317.338 250.821 317.999 250.94C318.66 251.06 319.347 250.338 319.533 249.326C319.718 248.314 319.33 247.394 318.67 247.274C318.009 247.153 317.322 247.876 317.136 248.888Z" fill="#013651"/>
<path d="M328.582 250.98C328.396 251.992 328.782 252.911 329.445 253.032C330.107 253.154 330.793 252.43 330.978 251.418C331.163 250.406 330.776 249.486 330.115 249.366C329.453 249.245 328.767 249.968 328.582 250.98Z" fill="#013651"/>
<path d="M329.816 249.368L332.377 249.111C332.377 249.111 330.781 250.783 329.816 249.368Z" fill="#013651"/>
<path d="M325.24 252.167C325.24 252.167 326.162 256.84 327.669 259.289C326.105 260.293 323.936 259.307 323.936 259.307L325.24 252.167Z" fill="#013651"/>
<path d="M319.694 262.598C319.679 262.598 319.664 262.596 319.65 262.593C314.911 261.728 313.336 258.086 313.272 257.932C313.217 257.803 313.279 257.657 313.407 257.603C313.531 257.547 313.68 257.608 313.735 257.737C313.75 257.771 315.278 261.283 319.74 262.099C319.877 262.124 319.968 262.255 319.944 262.39C319.919 262.513 319.814 262.598 319.694 262.598Z" fill="#013651"/>
<path d="M314.412 240.998C314.262 240.998 314.111 240.93 314.014 240.8C313.845 240.58 313.887 240.265 314.107 240.096C316.721 238.099 319.308 238.985 319.423 239.024C319.683 239.116 319.819 239.402 319.728 239.664C319.636 239.925 319.349 240.059 319.088 239.972C319 239.943 316.885 239.239 314.718 240.895C314.626 240.965 314.518 240.998 314.412 240.998Z" fill="#013651"/>
<path d="M335.041 247.138C334.896 247.138 334.751 247.075 334.652 246.954C332.91 244.83 330.639 245.05 330.614 245.051C330.34 245.078 330.092 244.881 330.06 244.606C330.03 244.33 330.228 244.082 330.504 244.052C330.619 244.042 333.344 243.773 335.429 246.317C335.605 246.532 335.574 246.848 335.358 247.024C335.265 247.102 335.153 247.138 335.041 247.138Z" fill="#013651"/>
<path d="M276.369 305.069C274.238 309.415 271.933 313.244 269.463 317.164C266.954 321.015 264.301 324.775 261.435 328.398C258.588 332.036 255.461 335.473 252.175 338.781C250.467 340.385 248.808 342.025 246.983 343.523L245.642 344.669L245.308 344.955L244.866 345.3C244.561 345.53 244.266 345.769 243.939 345.973C242.673 346.833 241.282 347.537 239.851 348.026C236.975 349.02 234.042 349.178 231.363 348.958C228.678 348.709 226.175 348.103 223.828 347.31C219.138 345.7 214.934 343.507 211.018 340.995C203.19 335.947 196.286 330.118 189.914 323.511L193.614 319.615C196.946 322.29 200.47 324.961 204.058 327.373C207.623 329.838 211.287 332.132 215.04 334.115C218.795 336.065 222.608 337.845 226.415 338.864C230.192 339.92 233.967 340.101 236.573 339.004C237.976 338.442 238.686 337.827 240.429 336.154C241.983 334.764 243.415 333.207 244.884 331.706C247.742 328.593 250.393 325.269 252.989 321.886C255.57 318.487 257.96 314.921 260.24 311.29C261.397 309.484 262.505 307.648 263.587 305.801C264.631 303.968 265.724 302.029 266.63 300.296L276.369 305.069Z" fill="#FFBE9D"/>
<path d="M197.031 321.317L192.067 311.058L183.818 321.538C183.818 321.538 189.287 326.108 194.59 325.938L197.031 321.317Z" fill="#FFBE9D"/>
<path d="M186.648 308.066L181.975 316.99L183.82 321.536L192.068 311.055L186.648 308.066Z" fill="#FFBE9D"/>
<path d="M272.447 286.592C266.118 287.712 257.246 305.87 257.246 305.87L274.62 321.584C274.62 321.584 285.897 306.459 285.221 298.21C284.644 291.207 280.51 285.166 272.447 286.592Z" fill="#5579F8"/>
<path d="M208.856 596.23C208.692 596.23 208.529 596.202 208.366 596.148C206.852 595.639 205.859 592.836 205.4 591.21C205.372 591.114 205.406 591.009 205.484 590.947C205.563 590.883 205.671 590.871 205.759 590.919C206.22 591.161 210.264 593.324 210.397 594.92C210.418 595.164 210.359 595.516 209.966 595.813C209.597 596.091 209.226 596.23 208.856 596.23ZM206.056 591.656C206.758 593.898 207.666 595.383 208.524 595.673C208.895 595.799 209.266 595.713 209.661 595.413C209.888 595.24 209.902 595.073 209.893 594.962C209.814 593.983 207.443 592.443 206.056 591.656Z" fill="#013651"/>
<path d="M209.481 592.289C208.045 592.289 206.284 591.831 205.511 591.359C205.434 591.311 205.388 591.228 205.391 591.139C205.392 591.049 205.442 590.967 205.52 590.925C205.657 590.85 208.858 589.089 210.584 589.701C211.034 589.86 211.352 590.161 211.527 590.596C211.802 591.271 211.502 591.663 211.299 591.836C210.914 592.159 210.244 592.289 209.481 592.289ZM206.194 591.143C207.565 591.727 210.225 592.087 210.971 591.452C211.097 591.346 211.219 591.175 211.06 590.784C210.939 590.486 210.727 590.287 210.415 590.177C209.241 589.76 207.105 590.692 206.194 591.143Z" fill="#013651"/>
<path d="M292.978 628.192C291.524 628.192 289.94 627.911 288.843 627.667C288.738 627.643 288.659 627.557 288.648 627.449C288.637 627.344 288.694 627.24 288.791 627.194C289.413 626.902 294.903 624.362 296.29 625.301C296.466 625.421 296.672 625.652 296.648 626.079C296.615 626.67 296.363 627.147 295.9 627.497C295.214 628.014 294.136 628.192 292.978 628.192ZM289.707 627.331C291.338 627.638 294.354 628.032 295.597 627.095C295.942 626.833 296.122 626.492 296.147 626.05C296.159 625.846 296.08 625.765 296.009 625.718C295.231 625.187 291.987 626.327 289.707 627.331Z" fill="#013651"/>
<path d="M288.898 627.675C288.84 627.675 288.782 627.654 288.735 627.615C288.664 627.554 288.632 627.459 288.653 627.367C288.706 627.136 289.958 621.713 292.933 622.065C293.678 622.155 293.883 622.524 293.922 622.82C294.109 624.198 290.645 626.978 288.992 627.656C288.962 627.668 288.93 627.675 288.898 627.675ZM292.664 622.552C290.762 622.552 289.65 625.704 289.282 626.966C291.072 626.029 293.546 623.769 293.426 622.886C293.418 622.822 293.391 622.627 292.874 622.564C292.802 622.556 292.732 622.552 292.664 622.552Z" fill="#013651"/>
<path d="M318.371 247.276L320.932 247.02C320.932 247.02 319.336 248.691 318.371 247.276Z" fill="#013651"/>
<path opacity="0.6" d="M213.5 167.826L172.643 431.922L402.554 467.492L443.412 203.395L213.5 167.826ZM307.963 318.073C278.509 313.516 258.32 285.937 262.877 256.483C267.436 227.017 295.013 206.839 324.467 211.397C353.931 215.955 374.112 243.522 369.553 272.987C364.996 302.441 337.427 322.632 307.963 318.073Z" fill="#97AEFF"/>
<path opacity="0.3" d="M395.6 457.46L395.256 457.407L165 421.784L165.053 421.44L205.964 157L206.308 157.053L436.564 192.674L436.511 193.019L395.6 457.46ZM165.795 421.202L395.017 456.664L435.769 193.257L206.546 157.795L165.795 421.202Z" fill="#5579F8" fill-opacity="0.71"/>
<path d="M316.247 320.804C313.407 320.804 310.533 320.588 307.641 320.141C277.091 315.413 256.083 286.713 260.809 256.164C263.099 241.363 271.015 228.339 283.098 219.495C295.181 210.651 309.986 207.04 324.784 209.331C355.334 214.058 376.343 242.757 371.618 273.308C367.338 300.965 343.408 320.804 316.247 320.804ZM308.281 316.007C336.547 320.382 363.11 300.939 367.485 272.668C371.858 244.398 352.415 217.839 324.144 213.464C310.45 211.345 296.749 214.687 285.569 222.87C274.385 231.055 267.061 243.107 264.942 256.803C260.569 285.074 280.011 311.633 308.281 316.007Z" fill="#91A9FF"/>
<path d="M263.505 334.427L212.863 326.592L211.102 337.972L261.744 345.808L263.505 334.427Z" fill="#5579F8"/>
<path d="M304.432 340.76L270.17 335.459L268.409 346.84L302.671 352.141L304.432 340.76Z" fill="#5579F8"/>
<path d="M392.434 377.983L209.299 349.647L207.538 361.028L390.673 389.364L392.434 377.983Z" fill="#5579F8"/>
<path d="M296.617 387.933L205.553 373.843L203.792 385.223L294.856 399.313L296.617 387.933Z" fill="#5579F8"/>
<path d="M373.113 399.768L312.197 390.343L310.436 401.723L371.352 411.149L373.113 399.768Z" fill="#5579F8"/>
<path d="M348.21 420.692L201.812 398.04L200.052 409.421L346.449 432.072L348.21 420.692Z" fill="#5579F8"/>
<path d="M478.89 352.228H477.496C477.496 348.758 477.068 345.305 476.227 341.968L477.578 341.628C478.448 345.077 478.89 348.643 478.89 352.228ZM473.425 334.215C470.375 327.83 465.712 322.268 459.938 318.13L460.749 316.997C466.713 321.27 471.531 327.018 474.683 333.613L473.425 334.215Z" fill="#5579F8"/>
<path d="M435.573 313.793C414.345 313.793 397.137 331.001 397.137 352.229C397.137 373.457 414.345 390.665 435.573 390.665C456.8 390.665 474.009 373.457 474.009 352.229C474.009 331.001 456.8 313.793 435.573 313.793ZM435.573 385.68C417.099 385.68 402.122 370.703 402.122 352.229C402.122 333.755 417.099 318.778 435.573 318.778C454.047 318.778 469.024 333.755 469.024 352.229C469.022 370.703 454.047 385.68 435.573 385.68Z" fill="#5579F8"/>
<path opacity="0.8" d="M435.572 385.678C454.046 385.678 469.023 370.702 469.023 352.227C469.023 333.753 454.046 318.776 435.572 318.776C417.098 318.776 402.121 333.753 402.121 352.227C402.121 370.702 417.098 385.678 435.572 385.678Z" fill="#5579F8"/>
<path d="M430.372 373.392L410.746 353.767L415.674 348.838L430.372 363.536L455.477 338.432L460.405 343.36L430.372 373.392Z" fill="white" fill-opacity="0.4"/>
<path d="M162.705 273.583C160.14 275.177 157.289 276.395 154.192 277.147C146.185 279.103 138.151 277.6 131.66 273.57C125.311 269.644 120.428 263.309 118.51 255.483C114.649 239.637 124.34 223.662 140.186 219.801C156.019 215.927 171.994 225.631 175.868 241.477C178.978 254.227 173.29 267.053 162.705 273.583Z" fill="#5579F8"/>
<path d="M156.163 245.099C156.163 250.06 152.142 254.081 147.181 254.081C142.22 254.081 138.199 250.059 138.199 245.099C138.199 240.138 142.221 236.117 147.181 236.117C152.142 236.116 156.163 240.138 156.163 245.099Z" fill="white" fill-opacity="0.52"/>
<path d="M162.705 269.878V273.583C160.14 275.177 157.288 276.395 154.192 277.147C146.185 279.103 138.151 277.6 131.66 273.571V269.878C131.66 261.326 138.605 254.355 147.181 254.355C155.76 254.357 162.705 261.327 162.705 269.878Z" fill="white" fill-opacity="0.52"/>
<path d="M123.279 151.035C124.338 150.378 125.663 150.414 126.73 151.059C127.019 151.233 127.314 151.401 127.614 151.563C127.918 151.726 128.223 151.88 128.53 152.025C129.653 152.555 130.414 153.634 130.453 154.876L130.585 159.12L144.407 158.69L144.276 154.449C144.237 153.204 144.919 152.064 146.012 151.467C146.613 151.139 147.198 150.778 147.764 150.384C148.783 149.677 150.103 149.578 151.196 150.165L154.928 152.166L161.466 139.975L157.735 137.974C156.641 137.388 155.994 136.234 156.019 134.993C156.033 134.305 156.01 133.618 155.951 132.935C155.843 131.694 156.415 130.496 157.473 129.839L161.079 127.601L153.79 115.849L150.165 118.094C149.111 118.747 147.793 118.71 146.73 118.069C146.441 117.894 146.146 117.727 145.846 117.566C145.545 117.405 145.242 117.251 144.936 117.107C143.809 116.576 143.046 115.492 143.009 114.247L142.882 110L129.06 110.429L129.193 114.661C129.233 115.905 128.553 117.046 127.461 117.643C126.857 117.973 126.27 118.337 125.703 118.732C124.684 119.442 123.362 119.541 122.268 118.954L118.538 116.954L112 129.144L115.731 131.144C116.825 131.731 117.474 132.887 117.447 134.128C117.432 134.82 117.454 135.51 117.513 136.195C117.619 137.436 117.045 138.633 115.987 139.288L112.387 141.518L119.677 153.269L123.279 151.035ZM126.743 129.208C129.7 123.696 136.574 121.62 142.087 124.577C147.6 127.534 149.665 134.403 146.709 139.916C143.752 145.428 136.892 147.499 131.379 144.542C125.867 141.586 123.787 134.722 126.743 129.208Z" fill="#5579F8"/>
<path d="M158.703 175.654C159.459 176.09 159.875 176.921 159.83 177.792C159.819 178.029 159.812 178.266 159.812 178.505C159.812 178.746 159.819 178.987 159.83 179.224C159.874 180.093 159.461 180.92 158.706 181.354L156.131 182.841L160.973 191.232L163.548 189.746C164.305 189.311 165.233 189.354 165.964 189.831C166.366 190.093 166.783 190.335 167.213 190.554C167.987 190.949 168.485 191.731 168.485 192.6V195.566H178.177V192.6C178.177 191.731 178.675 190.949 179.449 190.554C179.879 190.334 180.296 190.093 180.698 189.831C181.428 189.354 182.358 189.311 183.113 189.746L185.688 191.232L190.53 182.841L187.943 181.346C187.191 180.912 186.778 180.085 186.823 179.217C186.835 178.981 186.84 178.743 186.84 178.504C186.84 178.265 186.834 178.028 186.823 177.791C186.778 176.919 187.194 176.089 187.95 175.654L190.53 174.169L185.688 165.778L183.12 167.262C182.365 167.698 181.435 167.657 180.705 167.18C180.301 166.917 179.882 166.675 179.451 166.456C178.676 166.062 178.177 165.279 178.177 164.409V161.443H168.485V164.409C168.485 165.279 167.987 166.062 167.211 166.456C166.779 166.675 166.36 166.917 165.957 167.18C165.226 167.657 164.297 167.698 163.542 167.262L160.974 165.778L156.132 174.169L158.703 175.654ZM173.325 170.566C177.708 170.566 181.265 174.124 181.265 178.506C181.265 182.889 177.708 186.438 173.325 186.438C168.943 186.438 165.393 182.889 165.393 178.506C165.394 174.124 168.943 170.566 173.325 170.566Z" fill="#5579F8"/>
<defs>
<linearGradient id="paint0_linear_8122_18967" x1="284.012" y1="0" x2="284.012" y2="742.162" gradientUnits="userSpaceOnUse">
<stop stop-color="#5579F8"/>
<stop offset="1" stop-color="#999999" stop-opacity="0"/>
</linearGradient>
<linearGradient id="paint1_linear_8122_18967" x1="284.012" y1="0" x2="284.012" y2="717.695" gradientUnits="userSpaceOnUse">
<stop stop-color="#5579F8" stop-opacity="0.69"/>
<stop offset="1" stop-color="white" stop-opacity="0"/>
</linearGradient>
<linearGradient id="paint2_linear_8122_18967" x1="284.013" y1="12.4385" x2="284.013" y2="61.1558" gradientUnits="userSpaceOnUse">
<stop stop-color="#6B8BFF"/>
<stop offset="1" stop-color="#5579F8"/>
</linearGradient>
</defs>
</svg>
