<svg width="569" height="743" viewBox="0 0 569 743" fill="none" xmlns="http://www.w3.org/2000/svg">
<path d="M0.000244141 21.9728C0.000244141 9.83755 9.83782 0 21.9731 0H546.05C558.186 0 568.023 9.83758 568.023 21.9728V720.189C568.023 732.324 558.186 742.162 546.05 742.162H21.9731C9.83781 742.162 0.000244141 732.324 0.000244141 720.189V21.9728Z" fill="url(#paint0_linear_8_634)" fill-opacity="0.13"/>
<path d="M21.9729 1.93848H546.05C557.114 1.93848 566.084 10.9082 566.084 21.9727V720.188C566.084 731.253 557.115 740.223 546.05 740.223H21.9729C10.9085 740.223 1.93872 731.253 1.93872 720.188V21.9727C1.93881 10.9083 10.9085 1.93858 21.9729 1.93848Z" stroke="url(#paint1_linear_8_634)" stroke-opacity="0.5" stroke-width="3.87756"/>
<path d="M284.57 555.999C419.089 555.999 528.139 547.802 528.139 537.69C528.139 527.578 419.089 519.38 284.57 519.38C150.05 519.38 41.0007 527.578 41.0007 537.69C41.0007 547.802 150.05 555.999 284.57 555.999Z" fill="#5579F8" fill-opacity="0.13"/>
<path d="M264.526 206.966C264.526 206.966 266.741 196.964 258.08 194.046C258.08 194.046 254.632 186.857 245.357 186.752C236.083 186.648 231.551 195.92 231.551 195.92C231.551 195.92 219.308 198.212 222.121 210.611C222.121 210.611 213.89 211.549 213.787 222.542C213.787 222.542 192.532 232.387 207.744 255.934L282.864 248.954C282.864 248.954 285.886 230.2 275.571 225.929C275.571 225.929 277.541 209.089 264.526 206.966Z" fill="#26292F"/>
<path d="M252.964 538.908C252.646 538.908 195.057 539.717 193.663 538.908C192.805 538.419 193.981 529.261 195.057 522.013C195.792 517.19 196.454 513.199 196.454 513.199C196.454 513.199 220.056 512.734 222.163 513.199C223.804 513.567 241.261 528.526 249.145 535.456C251.469 537.488 252.964 538.835 252.964 538.908Z" fill="#191B1F"/>
<path opacity="0.3" d="M252.964 538.907C252.646 538.907 195.057 539.716 193.663 538.907C192.805 538.418 193.981 529.261 195.057 522.012C199.709 522.918 206.075 525.22 210.874 531.047C217.069 538.588 238.076 536.923 249.144 535.454C251.469 537.487 252.964 538.834 252.964 538.907Z" fill="white"/>
<path d="M324.017 537.802C323.699 537.802 266.111 538.611 264.716 537.802C264.03 537.411 264.667 531.461 265.475 525.388C266.38 518.826 267.532 512.093 267.532 512.093C267.532 512.093 291.111 511.627 293.241 512.093C294.857 512.461 311.997 527.151 319.979 534.154C322.424 536.309 324.017 537.729 324.017 537.802Z" fill="#191B1F"/>
<path opacity="0.3" d="M324.017 537.801C323.699 537.801 266.111 538.61 264.716 537.801C264.03 537.41 264.667 531.46 265.475 525.387C269.489 525.216 276.175 525.657 280.459 529.941C286.164 535.621 310.795 536.111 319.977 534.152C322.424 536.308 324.017 537.728 324.017 537.801Z" fill="white"/>
<path d="M294.217 513.886C270.663 515.943 266.917 513.886 266.917 513.886C266.917 513.886 266.281 508.327 265.276 499.416C265.007 497.091 264.737 494.544 264.394 491.802C259.889 451.94 250.732 372.023 250.046 372.023C249.433 372.488 235.085 450.496 227.74 490.627C227.226 493.369 226.762 495.939 226.344 498.291C224.581 507.864 223.48 513.887 223.48 513.887C205.238 516.555 195.763 513.887 195.763 513.887C195.763 513.887 196.449 507.423 197.526 497.091C197.77 494.814 198.04 492.341 198.31 489.696C202.374 451.083 210.038 377.777 211.899 357.602C211.899 357.577 211.899 357.577 211.899 357.553C214.445 329.885 215.915 326.751 215.915 326.751C254.894 331.917 277.959 324.939 277.959 324.939C278.35 325.65 279.11 331.794 280.064 341.441C283.443 375.377 289.516 452.773 292.478 491.262C292.698 493.932 292.87 496.404 293.066 498.657C293.776 508.156 294.217 513.886 294.217 513.886Z" fill="#5579F8"/>
<g opacity="0.4">
<path d="M227.74 490.624C227.226 493.367 226.761 495.937 226.344 498.288C222.597 498.778 219.022 498.974 215.644 498.974C208.42 498.974 202.177 498.069 197.525 497.088C197.77 494.812 198.04 492.338 198.309 489.694C204.897 491.138 215.693 492.558 227.74 490.624Z" fill="white"/>
</g>
<g opacity="0.4">
<path d="M293.068 498.656C287.436 499.806 282.075 500.222 277.129 500.222C272.771 500.222 268.78 499.904 265.278 499.413C265.009 497.088 264.739 494.542 264.396 491.799C271.643 492.949 281.658 493.538 292.481 491.26C292.7 493.931 292.872 496.404 293.068 498.656Z" fill="white"/>
</g>
<path opacity="0.2" d="M280.064 341.44C252.176 337.229 223.921 350.794 211.899 357.6C211.899 357.575 211.899 357.575 211.899 357.551C214.446 329.883 215.915 326.749 215.915 326.749C254.894 331.915 277.959 324.937 277.959 324.937C278.35 325.647 279.109 331.794 280.064 341.44Z" fill="black"/>
<path opacity="0.6" d="M250.049 372.021C250.049 372.021 252.18 355.123 252.961 355.123C253.742 355.123 257.492 355.123 257.492 355.123" stroke="black" stroke-width="0.491355" stroke-miterlimit="10"/>
<path d="M341.721 265.17C341.721 265.17 318.29 274.866 314.861 275.502C311.409 276.114 275.196 266.957 275.196 266.957C276.837 270.557 277.571 279.175 277.13 286.593C276.984 289.165 276.689 291.613 276.248 293.62C276.175 293.963 276.102 294.306 276.077 294.674C275.22 301.406 279.186 311.592 279.529 321.19C279.627 322.879 279.577 324.52 279.382 326.136C278.159 335.906 247.259 339.015 230.071 335.783C227.207 335.244 224.709 334.535 222.799 333.628C217.682 331.228 215.233 329.196 214.279 327.164C212.737 323.907 215.137 320.724 216.851 316.292C217.317 315.092 217.61 313.281 217.806 311.078C218.076 307.919 218.076 303.977 217.953 299.937C217.66 289.776 216.556 279.076 216.556 279.076L205.881 299.202C205.856 299.251 205.856 299.276 205.856 299.276L203.872 302.997L206.124 302.753L212.491 302.067C215.918 310.808 214.817 318.006 214.817 318.006C214.817 318.006 211.658 319.524 207.521 321.458C201.033 324.494 192.096 328.657 188.79 329.93C183.354 332.01 179.829 329.93 176.499 320.356C176.156 319.401 176.108 318.105 176.279 316.562C176.304 316.464 176.304 316.342 176.327 316.219C178.14 302.115 197.996 267.861 203.358 257.627C208.108 248.616 222.799 240.757 228.871 237.795C230.512 236.986 231.539 236.546 231.539 236.546C246.23 241.811 250.736 236.743 250.736 236.743C250.736 236.743 254.457 237.061 258.938 237.453H258.963C262.782 237.796 267.14 238.164 270.152 238.457C276.714 239.069 299.852 246.904 307.344 248.936C314.86 250.968 335.476 248.152 335.476 248.152L341.721 265.17Z" fill="#191B1F"/>
<path opacity="0.2" d="M279.382 326.137C277.962 337.546 236.094 339.873 222.799 333.63C217.681 331.23 215.233 329.197 214.279 327.165C212.736 323.908 215.136 320.726 216.851 316.294C217.316 315.094 217.61 313.283 217.806 311.079C218.711 299.988 216.557 279.079 216.557 279.079L205.882 299.206C206.593 297.614 217.88 272.077 219.152 267.841C219.152 267.841 228.456 336.74 279.532 321.193C279.627 322.881 279.579 324.521 279.382 326.137Z" fill="black"/>
<path opacity="0.2" d="M277.13 286.595C276.983 289.167 276.689 291.615 276.248 293.622C276.174 293.965 276.101 294.308 276.076 294.676C267.189 299.474 250.685 294.701 250.685 294.701C267.066 296.29 274.289 290.317 277.13 286.595Z" fill="black"/>
<path d="M250.244 245.681C236.385 255.01 228.869 237.797 228.869 237.797C230.51 236.988 231.537 236.549 231.537 236.549C246.228 241.813 250.734 236.745 250.734 236.745C250.734 236.745 254.455 237.063 258.936 237.455H258.961C261.091 249.354 250.244 245.681 250.244 245.681Z" fill="white"/>
<path opacity="0.6" d="M275.196 266.957C275.196 266.957 271.873 257.522 271.56 253.459" stroke="black" stroke-width="0.491355" stroke-miterlimit="10"/>
<path d="M212.055 302.941L220.689 301.144C220.689 301.144 225.768 290.165 228.66 289.931C231.553 289.698 227.723 298.643 227.723 298.643C227.723 298.643 234.599 294.814 236.983 292.041C239.366 289.266 241.319 290.674 241.046 293.134C241.046 293.134 243.976 292.704 242.492 298.37C242.492 298.37 244.641 299.386 242.727 303.917C240.812 308.449 231.709 314.388 224.208 311.966C224.208 311.966 216.589 316.303 212.995 317.749L212.055 302.941Z" fill="#FFBE9D"/>
<path d="M241.043 293.135C241.043 293.135 237.604 298.588 233.815 299.056" stroke="#191B1F" stroke-width="0.491355" stroke-miterlimit="10"/>
<path d="M242.488 298.37C242.488 298.37 239.728 304.618 234.101 305.502" stroke="#191B1F" stroke-width="0.491355" stroke-miterlimit="10"/>
<path d="M214.817 318.007C214.817 318.007 211.658 319.525 207.521 321.459C201.033 324.495 192.096 328.658 188.79 329.931C183.354 332.011 179.829 329.931 176.499 320.357C176.156 319.402 176.108 318.105 176.279 316.563C186.049 306.425 203.872 302.998 203.872 302.998L206.124 302.754L212.491 302.068C215.919 310.809 214.817 318.007 214.817 318.007Z" fill="#191B1F"/>
<path d="M248.189 245.683C239.839 245.486 231.539 236.55 231.539 236.55C231.539 236.55 233.571 235.914 235.31 235.546C236.021 235.4 236.51 232.975 236.878 230.184C237.417 226.145 237.612 221.345 237.612 221.345L251.25 230.257L250.76 236.354L250.735 236.746C255.339 237.016 256.562 245.879 248.189 245.683Z" fill="#FFBE9D"/>
<path opacity="0.3" d="M251.249 230.257L250.76 236.354C245.52 235.668 240.354 232.657 236.877 230.184C237.417 226.145 237.612 221.345 237.612 221.345L251.249 230.257Z" fill="black"/>
<path d="M233.138 219.202C233.138 219.202 239.22 234.451 250.413 232.071C261.607 229.692 263.458 204.659 255.614 197.52C247.77 190.38 232.522 202.103 233.138 219.202Z" fill="#FFBE9D"/>
<path d="M233.119 222.985C233.119 222.985 237.103 207.736 238.778 206.415C240.452 205.093 245.045 208.618 248.65 202.977C248.65 202.977 255.702 204.448 256.583 197.059C257.463 189.669 237.016 194.692 233.489 203.683C229.964 212.673 233.119 222.985 233.119 222.985Z" fill="#012435"/>
<path d="M237.101 216.207C237.101 216.207 235.407 212.586 232.776 214.201C230.146 215.815 233.375 223.448 237.23 224.176L237.101 216.207Z" fill="#FFBE9D"/>
<path d="M259.271 213.255C259.271 213.255 261.386 211.623 262.753 213.255C264.119 214.886 260.946 224.581 257.905 223.832L259.271 213.255Z" fill="#FFBE9D"/>
<path d="M244.397 214.123C244.397 215.368 243.887 216.378 243.258 216.378C242.629 216.378 242.118 215.368 242.118 214.123C242.118 212.877 242.629 211.868 243.258 211.868C243.887 211.868 244.397 212.877 244.397 214.123Z" fill="#191B1F"/>
<path d="M255.779 214.123C255.779 215.368 255.269 216.378 254.64 216.378C254.011 216.378 253.501 215.368 253.501 214.123C253.501 212.877 254.011 211.868 254.64 211.868C255.269 211.868 255.779 212.877 255.779 214.123Z" fill="#191B1F"/>
<path d="M249.313 213.788C249.313 213.788 249.014 218.519 250.383 220.414C251.751 222.31 248.163 223.149 248.163 223.149" stroke="#191B1F" stroke-width="0.491355" stroke-miterlimit="10"/>
<path d="M238.937 210.572C238.937 210.572 242.688 207.426 246.96 210.572" stroke="#191B1F" stroke-width="0.491355" stroke-miterlimit="10" stroke-linecap="round" stroke-linejoin="round"/>
<path d="M251.371 211.273C251.371 211.273 254.428 208.126 257.909 211.273" stroke="#191B1F" stroke-width="0.443529" stroke-miterlimit="10" stroke-linecap="round" stroke-linejoin="round"/>
<path d="M243.898 224.742C243.898 224.742 247.122 226.15 251.37 226.188C251.37 226.188 250.111 229.04 246.959 228.298C244.015 227.604 243.898 224.742 243.898 224.742Z" fill="white"/>
<path d="M232.765 216.538C232.765 216.538 235.617 214.629 235.852 218.982" stroke="#191B1F" stroke-width="0.491355" stroke-miterlimit="10"/>
<path d="M339.153 262.039C339.153 262.039 346.421 261.492 349.078 259.382C351.735 257.273 348.765 246.255 343.686 246.332L334.934 246.88L339.153 262.039Z" fill="#191B1F"/>
<path d="M347.124 265.087C347.124 265.087 351.004 261.311 350.797 255.163" stroke="black" stroke-width="0.491355" stroke-miterlimit="10"/>
<path d="M356.09 260.28C356.09 260.28 356.835 257.04 356.732 255.894" stroke="black" stroke-width="0.491355" stroke-miterlimit="10"/>
<path d="M387.437 291.5C387.437 291.5 386.776 286.829 388.377 284.736" stroke="black" stroke-width="0.491355" stroke-miterlimit="10"/>
<path d="M396.117 316.126L394.128 319.051L390.178 291.849C390.178 291.849 397.29 283.409 397.211 280.44C397.133 277.47 394.592 278.251 389.24 283.331C389.24 282.979 386.739 265.045 384.238 264.928C381.737 264.81 384.589 276.258 383.457 276.376C382.323 276.493 380.096 263.092 376.698 263.95C373.299 264.81 379.043 276.96 378.613 277.508C378.183 278.055 376.96 277.117 375.617 272.859C374.276 268.599 373.299 267.662 371.814 268.717C370.329 269.772 374.549 288.252 377.558 293.292C377.558 293.292 379.525 338.345 383.509 342.095C387.495 345.846 397.913 346.312 402.055 335.685C406.198 325.059 399.557 316.881 396.117 316.126Z" fill="#FFBE9D"/>
<path d="M394.129 319.052C394.129 319.052 396.225 325.178 395.157 331.585" stroke="#191B1F" stroke-width="0.491355" stroke-miterlimit="10"/>
<path d="M182.626 300.328C182.626 300.328 190.388 312.4 190.544 315.526C190.701 318.652 179.813 354.089 179.813 354.089C179.813 354.089 171.841 372.531 173.366 375.032C174.89 377.532 180.595 365.655 180.595 365.655C180.595 365.655 180.52 398.214 180.793 398.526C181.065 398.839 185.962 395.817 185.753 387.691C185.544 379.563 185.544 365.707 185.962 364.768C186.378 363.831 207.328 321.256 207.953 315.526C208.578 309.796 197.11 287.877 197.11 287.877L182.626 300.328Z" fill="#FFBE9D"/>
<path d="M91.8288 277.591L87.7658 284.467C87.7658 284.467 75.8879 257.196 75.2631 254.93L64.1663 257.508C64.1663 257.508 70.2614 293.141 80.4195 307.676C90.5777 322.211 100.737 306.582 105.581 294.86L91.8288 277.591Z" fill="#FFBE9D"/>
<path d="M75.2628 254.929C75.2628 254.929 77.2949 249.382 79.4819 246.725C81.6703 244.068 84.4836 237.895 81.904 238.129C79.3257 238.364 77.1373 246.1 74.4029 242.583C71.6684 239.066 70.0275 223.906 67.058 224.922C64.0885 225.938 68.699 238.362 68.3077 239.301C67.9165 240.238 66.9018 239.522 64.166 232.379C61.4315 225.236 58.5616 226.301 58.227 227.893C57.7556 230.14 63.0724 240.161 62.525 241.256C61.9776 242.349 60.5716 242.505 57.7584 237.661C54.9451 232.816 53.7728 231.801 52.7567 233.598C51.7406 235.396 57.2109 244.46 57.992 245.71C58.7731 246.96 60.9615 254.618 64.1646 257.509L75.2628 254.929Z" fill="#FFBE9D"/>
<path d="M87.7664 284.468C87.7664 284.468 91.0289 290.798 90.7261 295.642" stroke="#191B1F" stroke-width="0.491355" stroke-miterlimit="10"/>
<path d="M72.1395 245.318C72.1395 245.318 70.1861 246.022 69.6387 252.819" stroke="#191B1F" stroke-width="0.491355" stroke-miterlimit="10"/>
<path d="M116.434 537.424H77.5283L78.6785 532.306L83.2571 512.01C83.2571 512.01 108.231 511.618 108.868 512.01C109.309 512.279 112.932 524.962 115.013 532.306C115.847 535.319 116.434 537.424 116.434 537.424Z" fill="#5579F8"/>
<path opacity="0.3" d="M116.434 537.423H77.5283L78.6785 532.305H115.013C115.847 535.318 116.434 537.423 116.434 537.423Z" fill="white"/>
<path d="M89.9526 518.715C89.9526 518.715 97.1413 515.902 105.19 518.715" stroke="#191B1F" stroke-width="1.47395" stroke-miterlimit="10" stroke-linecap="round" stroke-linejoin="round"/>
<path d="M89.9526 523.602C89.9526 523.602 97.1413 520.789 105.19 523.602" stroke="#191B1F" stroke-width="1.47395" stroke-miterlimit="10" stroke-linecap="round" stroke-linejoin="round"/>
<path d="M216.606 537.523C216.606 537.523 155.174 538.037 154.512 537.523C154.243 537.327 154.243 533.582 154.341 529.003C154.512 521.535 154.928 511.839 154.928 511.839H179.291L210.313 533.189L216.606 537.523Z" fill="#5579F8"/>
<path opacity="0.3" d="M216.606 537.523C216.606 537.523 155.174 538.037 154.512 537.523C154.243 537.326 154.243 533.581 154.341 529.003L210.313 533.19L216.606 537.523Z" fill="white"/>
<path d="M181.855 520.692C181.855 520.692 184.512 517.055 190.295 518.092" stroke="#191B1F" stroke-width="1.47395" stroke-miterlimit="10" stroke-linecap="round" stroke-linejoin="round"/>
<path d="M187.595 524.795C187.595 524.795 190.252 521.158 196.035 522.195" stroke="#191B1F" stroke-width="1.47395" stroke-miterlimit="10" stroke-linecap="round" stroke-linejoin="round"/>
<path d="M180.436 513.088C162.734 514.508 155.021 513.088 155.021 513.088L144.591 376.024L109.283 512.722C96.2581 513.554 83.1333 512.722 83.1333 512.722C83.1333 512.722 102.917 394.265 105.585 375.045C105.807 373.502 106.051 371.936 106.344 370.418C109.478 353.059 116.212 338 116.212 338L176.077 336.238C176.077 336.238 178.648 341.771 179.847 348.995C180.165 350.954 180.386 353.059 180.435 355.189C180.657 365.177 180.436 513.088 180.436 513.088Z" fill="#191B1F"/>
<path opacity="0.2" d="M179.849 348.992C149.659 348.649 121.061 362.116 106.346 370.416C109.48 353.057 116.214 337.998 116.214 337.998L176.079 336.235C176.079 336.235 178.649 341.769 179.849 348.992Z" fill="black"/>
<path opacity="0.6" d="M144.588 376.023C144.588 376.023 146.213 364.302 147.099 364.146C147.985 363.99 150.849 364.146 150.849 364.146" stroke="black" stroke-width="0.491355" stroke-miterlimit="10"/>
<path d="M198.458 287.779C196.377 296.52 183.351 303.204 183.351 303.204L177.622 296.324C177.915 301.636 179.409 321.151 181.025 328.178C181.172 328.863 181.343 329.451 181.491 329.867C183.254 334.544 182.52 342.673 149.196 343.823C115.848 344.973 114.38 339.758 112.421 337.676C110.437 335.595 114.698 318.726 115.432 314.342C116.166 309.96 114.183 286.406 113.864 286.21C113.375 286.21 105.319 296.837 105.319 296.837C103.678 296.053 102.234 295.122 100.937 294.07C92.6118 287.46 90.7275 276.931 90.7275 276.931C90.7275 276.931 110.535 250.268 112.421 249.263C113.669 248.602 121.994 245.37 127.258 243.338C129.78 242.359 131.616 241.673 131.616 241.673C139.548 243.02 155.807 242.555 155.807 242.555C156.198 242.53 158.23 243.216 160.802 244.318C163.666 245.566 167.168 247.305 169.812 249.116C174.806 252.546 198.458 287.779 198.458 287.779Z" fill="#5579F8"/>
<path opacity="0.3" d="M153.556 257.982C141.877 258.496 130.638 247.11 127.259 243.34C129.781 242.361 131.617 241.676 131.617 241.676C139.549 243.022 155.808 242.558 155.808 242.558C156.199 242.533 158.231 243.219 160.803 244.32C162.322 248.799 163.913 257.516 153.556 257.982Z" fill="white"/>
<path opacity="0.6" d="M177.622 296.325C177.622 296.325 176.693 269.385 172.472 263.602" stroke="black" stroke-width="0.491355" stroke-miterlimit="10"/>
<path opacity="0.2" d="M149.194 343.823C115.846 344.973 114.377 339.759 112.418 337.677C110.435 335.595 114.695 318.727 115.429 314.343C116.163 309.961 114.181 286.407 113.862 286.21C113.372 286.21 105.317 296.837 105.317 296.837C103.676 296.053 102.231 295.123 100.935 294.071C105.17 288.93 115.21 276.295 116.678 270.174C116.678 270.174 118.122 346.688 181.023 328.178C181.17 328.864 181.341 329.451 181.489 329.868C183.252 334.544 182.518 342.673 149.194 343.823Z" fill="black"/>
<path d="M161.389 215.356C160.777 216.334 160.336 216.922 160.336 216.922C138.764 212.441 134.137 231.563 134.137 231.563C118.442 223.949 119.251 215.109 121.455 210.163C122.507 207.763 123.878 206.295 123.878 206.295C124.392 197.236 133.917 185.091 143.612 183.989C153.309 182.913 151.227 189.89 151.227 189.89C163.664 188.225 160.8 200.002 160.8 200.002C168.562 202.5 163.739 211.657 161.389 215.356Z" fill="#191B1F"/>
<path d="M152.306 253.454C142.634 254.433 131.372 241.775 131.372 241.775L134.897 240.453L135.288 240.307L135.753 230.758L153.26 238.96C153.26 238.96 153.186 241.923 153.504 242.412C153.822 242.878 155.806 242.559 155.806 242.559C155.806 242.559 156.026 242.926 156.345 243.514C157.595 246.011 160.141 252.646 152.306 253.454Z" fill="#FFBE9D"/>
<path opacity="0.3" d="M156.347 243.512C149.466 248.189 140.554 244.125 134.898 240.452L135.289 240.305L135.754 230.757L153.261 238.959C153.261 238.959 153.188 241.921 153.506 242.411C153.824 242.876 155.808 242.557 155.808 242.557C155.808 242.557 156.029 242.925 156.347 243.512Z" fill="black"/>
<path d="M153.644 203.901C153.644 203.901 163.881 212.965 162.708 229.141C161.536 245.317 143.954 243.129 133.717 231.095C123.482 219.061 146.455 203.901 153.644 203.901Z" fill="#FFBE9D"/>
<path d="M134.706 227.088C134.706 227.088 136.686 228.282 136.582 217.447C136.582 217.447 152.107 212.029 154.919 202.548C157.732 193.067 129.705 208.175 129.392 216.509C129.081 224.844 134.706 227.088 134.706 227.088Z" fill="#191B1F"/>
<path d="M140.362 220.912C140.362 220.912 141.881 216.123 146.512 216.888" stroke="#191B1F" stroke-width="0.491355" stroke-miterlimit="10" stroke-linecap="round" stroke-linejoin="round"/>
<path d="M152.487 215.409C152.487 215.409 154.979 213.006 157.748 214.882" stroke="#191B1F" stroke-width="0.491355" stroke-miterlimit="10" stroke-linecap="round" stroke-linejoin="round"/>
<path d="M145.964 223.168C145.964 224.413 145.454 225.422 144.825 225.422C144.196 225.422 143.686 224.413 143.686 223.168C143.686 221.922 144.196 220.913 144.825 220.913C145.454 220.911 145.964 221.922 145.964 223.168Z" fill="#191B1F"/>
<path d="M156.572 220.044C156.572 221.29 156.062 222.299 155.433 222.299C154.804 222.299 154.294 221.29 154.294 220.044C154.294 218.799 154.804 217.789 155.433 217.789C156.061 217.789 156.572 218.799 156.572 220.044Z" fill="#191B1F"/>
<path d="M151.168 220.468C151.168 220.468 152.151 225.105 153.977 226.563C155.804 228.022 152.573 229.793 152.573 229.793" stroke="#191B1F" stroke-width="0.491355" stroke-miterlimit="10"/>
<path d="M146.968 233.338C146.968 233.338 149.484 234.992 155.12 234.008" stroke="#191B1F" stroke-width="0.491355" stroke-miterlimit="10"/>
<path d="M135.437 225.861C135.437 225.861 133.484 221.041 129.238 221.901C124.993 222.761 128.51 234.352 135.855 232.086L135.437 225.861Z" fill="#FFBE9D"/>
<path d="M129.38 225.131C129.38 225.131 131.714 223.721 133.756 228.517" stroke="#191B1F" stroke-width="0.491355" stroke-miterlimit="10"/>
<path d="M96.3765 197.437C94.2342 198.769 91.853 199.786 89.2667 200.414C82.5799 202.047 75.8704 200.792 70.4493 197.427C65.1468 194.148 61.0681 188.857 59.4666 182.321C56.2418 169.087 64.3356 155.746 77.5696 152.521C90.7923 149.286 104.134 157.39 107.37 170.624C109.967 181.272 105.217 191.984 96.3765 197.437Z" fill="#5579F8" fill-opacity="0.21"/>
<path d="M90.9163 173.649C90.9163 177.792 87.5581 181.15 83.4148 181.15C79.2716 181.15 75.9133 177.791 75.9133 173.649C75.9133 169.506 79.2724 166.147 83.4148 166.147C87.5581 166.147 90.9163 169.506 90.9163 173.649Z" fill="#5579F8" fill-opacity="0.32"/>
<path d="M96.3774 194.341V197.436C94.2351 198.767 91.8538 199.784 89.2676 200.412C82.5808 202.046 75.8713 200.791 70.4502 197.426V194.341C70.4502 187.199 76.2499 181.378 83.4129 181.378C90.5777 181.379 96.3774 187.2 96.3774 194.341Z" fill="#5579F8" fill-opacity="0.32"/>
<path d="M401.286 205.052C398.899 205.866 396.349 206.32 393.688 206.349C386.805 206.434 380.551 203.698 376.028 199.198C371.602 194.808 368.821 188.733 368.734 182.005C368.575 168.384 379.468 157.211 393.088 157.053C406.7 156.881 417.872 167.785 418.041 181.407C418.171 192.366 411.128 201.732 401.286 205.052Z" fill="#5579F8" fill-opacity="0.21"/>
<path d="M401.329 180.644C400.395 184.681 396.366 187.195 392.33 186.261C388.293 185.327 385.778 181.298 386.712 177.262C387.646 173.225 391.676 170.711 395.712 171.645C399.749 172.578 402.263 176.607 401.329 180.644Z" fill="#5579F8" fill-opacity="0.32"/>
<path d="M401.986 202.035L401.288 205.051C398.901 205.864 396.352 206.318 393.691 206.347C386.808 206.432 380.554 203.696 376.031 199.196L376.726 196.191C378.336 189.232 385.299 184.868 392.278 186.483C399.258 188.099 403.596 195.078 401.986 202.035Z" fill="#5579F8" fill-opacity="0.32"/>
<path d="M278.226 159.345C277.49 160.296 276.595 161.147 275.543 161.859C272.825 163.702 269.617 164.257 266.633 163.655C263.717 163.072 261.013 161.385 259.209 158.73C255.565 153.35 256.963 146.038 262.343 142.394C267.716 138.747 275.029 140.149 278.678 145.528C281.612 149.856 281.271 155.435 278.226 159.345Z" fill="#5579F8" fill-opacity="0.21"/>
<path d="M271.825 149.62C272.515 151.473 271.572 153.533 269.72 154.222C267.867 154.912 265.807 153.969 265.118 152.117C264.428 150.265 265.371 148.204 267.223 147.515C269.075 146.825 271.135 147.768 271.825 149.62Z" fill="#5579F8" fill-opacity="0.32"/>
<path d="M277.71 157.962L278.225 159.345C277.489 160.297 276.594 161.148 275.542 161.859C272.825 163.702 269.616 164.258 266.632 163.656L266.119 162.277C264.93 159.084 266.554 155.516 269.757 154.324C272.96 153.132 276.522 154.769 277.71 157.962Z" fill="#5579F8" fill-opacity="0.32"/>
<path d="M284.429 290.101C284.429 290.101 281.251 302.916 281.486 310.888C281.721 318.859 289.013 363.451 294.223 373.454L298.971 339.037C298.971 339.037 297.556 303.022 297.14 299.48C296.724 295.937 284.429 290.101 284.429 290.101Z" fill="#FFBE9D"/>
<path d="M339.445 503.273C339.152 503.615 338.857 503.933 338.563 504.251C330.164 512.968 316.6 513.017 316.306 513.017C316.306 513.017 292.971 433.05 290.23 422.841C288.467 416.304 291.919 382.491 294.637 359.083C296.155 346.008 297.453 336.165 297.453 336.165L324.852 338.858L324.9 340.156C324.973 341.797 325.072 344.858 325.218 348.58C325.659 360.185 326.32 378.157 326.32 379.283C326.32 379.503 326.247 380.434 326.148 381.878C325.389 391.353 322.598 423.111 322.99 426.147C323.308 428.938 333.37 475.36 337.606 494.801C338.734 500.016 339.445 503.273 339.445 503.273Z" fill="#191B1F"/>
<path d="M361.725 513.018C354.233 514.854 339.445 513.018 339.445 513.018L338.563 504.252L337.608 494.801L326.149 381.879L326.05 380.9L325.12 348.58L324.9 340.157L324.852 338.858L361.113 331.783C361.113 331.783 366.524 337.415 368.263 344.392C368.361 344.784 368.434 345.641 368.459 346.939C369.119 368.877 361.725 513.018 361.725 513.018Z" fill="#191B1F"/>
<g opacity="0.6">
<path d="M350.068 326.348C350.068 326.348 350.469 327.138 351.119 328.555" stroke="white" stroke-width="0.491355" stroke-linecap="round" stroke-linejoin="round"/>
<path d="M353.097 333.125C356.65 341.806 361.96 357.426 361.114 371.596C360.011 390.079 356.615 485.96 355.81 508.899" stroke="white" stroke-width="0.491355" stroke-linecap="round" stroke-linejoin="round" stroke-dasharray="4 4"/>
<path d="M355.723 511.391C355.668 512.975 355.637 513.834 355.637 513.834" stroke="white" stroke-width="0.491355" stroke-linecap="round" stroke-linejoin="round"/>
</g>
<path opacity="0.2" d="M368.457 346.939C352.444 344.637 337.728 345.885 325.217 348.58H325.119C312.215 351.371 301.711 355.656 294.636 359.084C296.154 346.008 297.452 336.166 297.452 336.166L324.851 338.858L361.112 331.783C361.112 331.783 366.523 337.415 368.262 344.392C368.358 344.784 368.433 345.641 368.457 346.939Z" fill="black"/>
<path d="M359.982 374.601C348.285 370.291 346.967 355.451 346.917 354.822L349.358 354.625C349.369 354.763 350.612 368.538 360.83 372.303L359.982 374.601Z" fill="#5579F8"/>
<path opacity="0.6" d="M326.139 381.787C326.139 381.787 325.4 357.695 324.854 357.539C324.306 357.382 320.947 356.734 320.947 356.734" stroke="black" stroke-width="0.491355" stroke-miterlimit="10"/>
<path d="M363.611 336.167C325.317 347.039 297.772 339.375 296.817 338.126C296.523 337.71 296.328 333.939 296.205 328.944C296.156 327.401 296.106 325.712 296.082 323.974C296.033 321.819 296.008 319.567 295.983 317.389C295.959 315.674 295.935 313.985 295.91 312.394V312.026C295.885 306.419 295.885 302.183 295.885 302.183C288.491 299.685 283.276 291.361 283.276 291.361C283.594 271.136 290.94 255.884 296.107 252.211C301.248 248.538 314.274 245.771 314.274 245.771C318.608 247.07 337.682 245.771 339.126 246.188C340.596 246.604 345.101 248.636 345.101 248.636C343.73 259.189 350.905 289.402 356.732 311.39C357.148 313.031 357.589 314.597 357.98 316.14C358.519 318.099 359.034 319.985 359.523 321.722C359.571 321.919 359.621 322.114 359.694 322.31C360.086 323.779 360.478 325.151 360.821 326.423C362.51 332.421 363.611 336.167 363.611 336.167Z" fill="#5579F8"/>
<path opacity="0.2" d="M363.609 336.167C325.315 347.039 297.77 339.375 296.815 338.126C296.521 337.71 296.326 333.939 296.203 328.944C296.154 327.401 296.104 325.712 296.08 323.974C296.031 321.819 296.006 319.567 295.981 317.388C295.957 315.674 295.933 313.985 295.908 312.394V312.026C308.64 318.833 332.855 328.528 359.691 322.31C360.082 323.779 360.475 325.151 360.818 326.423C362.508 332.421 363.609 336.167 363.609 336.167Z" fill="black"/>
<g opacity="0.5">
<g opacity="0.6">
<path d="M357.981 316.14C346.448 318.76 335.087 319.665 324.78 319.665C313.517 319.665 303.551 318.564 295.987 317.389C295.962 315.674 295.938 313.985 295.913 312.394C309.894 314.696 332.983 316.728 356.734 311.39C357.148 313.031 357.589 314.597 357.981 316.14Z" fill="white"/>
</g>
<g opacity="0.6">
<path d="M360.821 326.424C347.844 329.828 334.941 330.978 323.385 330.978C312.93 330.978 303.553 330.048 296.208 328.946C296.159 327.403 296.11 325.714 296.085 323.976C311.045 326.278 335.21 328.065 359.525 321.724C359.989 323.413 360.43 324.98 360.821 326.424Z" fill="white"/>
</g>
</g>
<path opacity="0.6" d="M295.885 302.183C295.885 302.183 296.93 274.174 302.766 266.094" stroke="black" stroke-width="0.491355" stroke-miterlimit="10"/>
<path opacity="0.6" d="M353.405 307.086C353.405 307.086 348.049 294.217 346.686 276.142" stroke="black" stroke-width="0.491355" stroke-miterlimit="10"/>
<path d="M354.079 304.323C354.079 304.558 358.287 317.23 358.454 317.846C358.623 318.463 349.858 359.101 349.858 359.101C349.858 359.101 349.65 365.951 357.36 371.995C357.36 371.995 379.031 320.942 377.363 310.524C375.696 300.104 374.629 297.291 374.629 297.291L354.079 304.323Z" fill="#FFBE9D"/>
<path d="M345.101 248.646C345.101 248.646 358.927 254.052 362.156 259.365C365.385 264.678 371.846 279.472 376.326 298.123C376.326 298.123 370.803 302.916 353.404 307.084C353.404 307.084 341.422 273.886 345.101 248.646Z" fill="#5579F8"/>
<path d="M344.685 247.396C344.685 247.396 348.983 246.302 353.906 247.396C358.828 248.489 362.267 253.412 362.11 257.398C361.954 261.383 358.829 268.495 356.563 268.495C354.297 268.495 356.094 261.462 356.094 261.462C356.094 261.462 353.125 269.511 348.123 266.15C348.123 266.15 345.076 266.854 345.153 264.197C345.232 261.54 348.279 250.757 347.654 249.974C347.028 249.193 344.685 247.396 344.685 247.396Z" fill="#FFBE9D"/>
<path d="M341.892 513.85C341.892 513.973 341.917 514.12 341.892 514.243C342.235 521.196 335.159 538.409 335.159 538.409H294.22L299.435 532.361L316.892 512.137L336.578 502.809C336.578 502.809 341.255 507.19 341.892 513.85Z" fill="#5579F8"/>
<path opacity="0.3" d="M341.892 514.242C342.235 521.196 335.159 538.408 335.159 538.408H294.22L299.435 532.36C310.282 531.478 331.362 529.299 333.616 527.658C335.38 526.338 339.15 519.531 341.892 514.242Z" fill="white"/>
<path d="M375.485 538.407C375.485 538.824 335.16 538.407 335.16 538.407L336.31 531.993L339.86 512.136C339.86 512.136 359.766 511.5 360.696 511.596C361.332 511.67 368.066 524.084 372.228 531.992C374.137 535.591 375.485 538.261 375.485 538.407Z" fill="#5579F8"/>
<path opacity="0.3" d="M375.485 538.408C375.485 538.825 335.16 538.408 335.16 538.408L336.31 531.994H372.228C374.137 535.592 375.485 538.262 375.485 538.408Z" fill="white"/>
<path opacity="0.6" d="M339.441 513.023L337.336 492.251" stroke="black" stroke-width="0.491355" stroke-miterlimit="10"/>
<path opacity="0.6" d="M338.392 520.371L335.588 538.592" stroke="black" stroke-width="0.491355" stroke-miterlimit="10"/>
<path d="M339.127 246.184C338.05 249.27 327.766 259.259 322.723 259.357C317.655 259.48 314.276 245.768 314.276 245.768C314.276 245.768 315.06 245.4 316.015 244.936C317.263 244.348 318.781 243.589 319.076 243.32C319.59 242.854 319.345 239.255 319.345 239.255L334.942 234.457C334.942 234.457 334.77 238.668 334.894 241.043C334.918 241.263 334.918 241.459 334.942 241.655C335.112 243.834 339.127 246.184 339.127 246.184Z" fill="#FFBE9D"/>
<path opacity="0.3" d="M334.891 241.043C330.63 246.405 324.191 250.788 316.014 244.936C317.262 244.348 318.78 243.589 319.075 243.32C319.589 242.854 319.344 239.255 319.344 239.255L334.941 234.457C334.941 234.457 334.769 238.668 334.891 241.043Z" fill="black"/>
<path d="M338.377 230.712C338.377 230.712 348.308 229.581 350.075 217.123C351.843 204.664 342.506 204.873 342.506 204.873C342.506 204.873 342.575 193.1 332.309 191.849C322.043 190.599 318.814 197.788 318.814 197.788C318.814 197.788 310.27 193.65 307.145 203.533C304.019 213.416 315.272 225.28 315.272 225.28L338.377 230.712Z" fill="#191B1F"/>
<path d="M323.842 205.861C323.842 205.861 312.322 211.152 314.187 230.636C315.945 249.013 337.882 240.682 340.591 224.651C340.591 224.651 340.955 207.997 323.842 205.861Z" fill="#FFBE9D"/>
<path d="M314.855 221.439C314.855 221.439 314.066 219.014 311.886 220.293C309.776 221.53 310.74 229.096 314.595 229.149L314.855 221.439Z" fill="#FFBE9D"/>
<path d="M338.921 230.711C338.921 230.711 336.434 229.512 339.135 222.115C339.135 222.115 331.002 219.875 328.71 214.456C326.418 209.038 324.126 206.121 322.146 205.86C320.167 205.6 325.116 201.641 334.284 204.661C343.454 207.685 345.797 227.585 338.921 230.711Z" fill="#191B1F"/>
<path d="M334.292 222.979C334.292 222.979 332.773 218.19 328.141 218.955" stroke="#191B1F" stroke-width="0.491355" stroke-miterlimit="10" stroke-linecap="round" stroke-linejoin="round"/>
<path d="M322.168 217.475C322.168 217.475 319.675 215.073 316.906 216.949" stroke="#191B1F" stroke-width="0.491355" stroke-miterlimit="10" stroke-linecap="round" stroke-linejoin="round"/>
<path d="M329.834 227.489C330.463 227.489 330.973 226.48 330.973 225.234C330.973 223.989 330.463 222.979 329.834 222.979C329.205 222.979 328.695 223.989 328.695 225.234C328.695 226.48 329.205 227.489 329.834 227.489Z" fill="#191B1F"/>
<path d="M318.082 222.111C318.082 223.357 318.592 224.366 319.221 224.366C319.85 224.366 320.36 223.357 320.36 222.111C320.36 220.865 319.85 219.856 319.221 219.856C318.593 219.855 318.082 220.865 318.082 222.111Z" fill="#191B1F"/>
<path d="M323.488 222.535C323.488 222.535 322.505 227.171 320.679 228.63C318.853 230.088 322.083 231.859 322.083 231.859" stroke="#191B1F" stroke-width="0.491355" stroke-miterlimit="10"/>
<path d="M320.641 234.462L327.289 233.369C327.289 233.369 326.353 235.661 324.807 236.13C322.785 236.745 320.641 234.462 320.641 234.462Z" fill="white"/>
<path d="M337.151 228.419C337.151 228.419 340.954 225.918 342.881 227.741C344.808 229.565 340.329 236.337 334.936 234.461L337.151 228.419Z" fill="#FFBE9D"/>
<path d="M480.097 511.262L462.125 512.683L441.412 451.741L438.205 442.289L464.623 435.9L465.823 441.727L480.097 511.262Z" fill="#FFBE9D"/>
<path opacity="0.3" d="M465.823 441.726C459.016 446.745 450.373 449.855 441.412 451.74L438.205 442.288L464.623 435.897L465.823 441.726Z" fill="black"/>
<path d="M495.164 538.267H456.258L457.262 533.982L462.158 512.851C462.158 512.851 479.469 510.867 480.082 511.26C480.548 511.553 488.725 526.44 492.839 533.982C494.234 536.553 495.164 538.267 495.164 538.267Z" fill="#5579F8"/>
<path opacity="0.3" d="M495.164 538.267H456.258L457.262 533.981H492.838C494.234 536.552 495.164 538.267 495.164 538.267Z" fill="white"/>
<path d="M466.098 519.559C466.098 519.559 473.286 516.745 481.335 519.559" stroke="#191B1F" stroke-width="1.47395" stroke-miterlimit="10" stroke-linecap="round" stroke-linejoin="round"/>
<path d="M466.098 524.446C466.098 524.446 473.286 521.632 481.335 524.446" stroke="#191B1F" stroke-width="1.47395" stroke-miterlimit="10" stroke-linecap="round" stroke-linejoin="round"/>
<path d="M425.179 442.927L424.249 453.968L419.352 512.683H401.845V439.18L425.179 442.927Z" fill="#FFBE9D"/>
<path opacity="0.3" d="M401.845 439.18L425.179 442.927L424.249 453.969C415.826 454.509 407.942 454.312 401.845 453.921V439.18Z" fill="black"/>
<path d="M419.809 538.366C419.148 538.88 368.513 538.366 368.513 538.366L372.505 535.305L401.837 512.682H419.393C419.393 512.682 419.662 518.657 419.834 524.85C420.053 531.363 420.152 538.097 419.809 538.366Z" fill="#5579F8"/>
<path opacity="0.3" d="M419.809 538.365C419.148 538.88 368.513 538.365 368.513 538.365L372.505 535.305C383.033 535.844 406.293 536.308 408.937 530.139C411.264 524.753 416.528 524.385 419.834 524.849C420.053 531.362 420.152 538.096 419.809 538.365Z" fill="white"/>
<path d="M400.585 520.141C400.585 520.141 397.928 516.503 392.145 517.54" stroke="#191B1F" stroke-width="1.47395" stroke-miterlimit="10" stroke-linecap="round" stroke-linejoin="round"/>
<path d="M394.85 524.244C394.85 524.244 392.193 520.606 386.41 521.643" stroke="#191B1F" stroke-width="1.47395" stroke-miterlimit="10" stroke-linecap="round" stroke-linejoin="round"/>
<path d="M423.104 226.742C423.104 226.742 431.444 218.5 445.093 225.792C458.742 233.086 456.241 248.297 458.951 252.36C461.66 256.423 482.81 272.469 464.993 296.953C447.176 321.437 409.461 283.72 407.481 272.676C405.501 261.632 413.733 252.696 413.003 248.308C412.273 243.921 409.867 225.919 423.104 226.742Z" fill="#26292F"/>
<path d="M438.942 399.32C438.942 399.32 444.829 396.715 446.236 390.099" stroke="black" stroke-width="0.491355" stroke-miterlimit="10"/>
<path d="M443.239 400.96C443.239 400.96 449.178 397.834 450.35 392.676" stroke="black" stroke-width="0.491355" stroke-miterlimit="10"/>
<path d="M468.871 418.489C470.78 426.741 472.054 432.298 472.054 432.298C431.409 456.367 398.624 442.288 398.624 442.288C397.081 425.271 396.983 408.205 397.522 392.805C398.649 360.951 402.59 336.099 402.762 333.21C402.885 331.251 402.615 328.754 402.321 326.574C401.953 323.979 401.513 321.874 401.513 321.874C401.39 321.825 401.269 321.775 401.146 321.702C401.121 321.702 401.073 321.677 401.073 321.677C394.585 318.836 395.172 317.515 395.172 317.515C395.172 317.515 401.269 290.631 404.476 284.289C407.683 277.973 419.094 273.761 419.094 273.761C427.174 278.731 444.925 274.128 444.925 274.128C444.925 274.128 456.139 277.777 461.134 282.6C466.128 287.448 472.054 320.797 472.054 320.797C464.389 325.865 455.355 323.123 455.355 323.123L452.687 310.073C449.871 324.152 449.259 336.345 453.935 355.1C457.192 368.076 464.611 400.003 468.871 418.489Z" fill="#191B1F"/>
<path opacity="0.2" d="M442.183 324.787C440.371 325.228 420.808 329.83 402.322 326.575C401.954 323.98 401.515 321.875 401.515 321.875C401.392 321.826 401.27 321.776 401.147 321.703C402.738 322.143 426.194 327.089 442.183 324.787Z" fill="black"/>
<path opacity="0.2" d="M472.052 432.299C431.407 456.367 398.623 442.288 398.623 442.288C397.08 425.272 396.982 408.205 397.521 392.805C412.702 409.43 437.75 429.654 468.869 418.489C470.779 426.74 472.052 432.299 472.052 432.299Z" fill="black"/>
<path opacity="0.6" d="M401.515 321.873C401.515 321.873 399.56 308.31 403.832 302.684C408.104 297.057 408.521 287.264 408.521 287.264" stroke="black" stroke-width="0.491355" stroke-miterlimit="10"/>
<path opacity="0.6" d="M452.687 310.072C452.687 310.072 450.98 298.469 455.46 290.017" stroke="black" stroke-width="0.491355" stroke-miterlimit="10"/>
<path opacity="0.3" d="M425.915 294.418C427.062 294.418 427.992 293.489 427.992 292.342C427.992 291.195 427.062 290.266 425.915 290.266C424.769 290.266 423.839 291.195 423.839 292.342C423.839 293.489 424.769 294.418 425.915 294.418Z" fill="white"/>
<path opacity="0.3" d="M425.164 310.07C426.311 310.07 427.24 309.141 427.24 307.994C427.24 306.847 426.311 305.917 425.164 305.917C424.017 305.917 423.087 306.847 423.087 307.994C423.087 309.141 424.017 310.07 425.164 310.07Z" fill="white"/>
<path d="M444.921 274.13C444.921 274.13 430.646 284.291 425.701 282.357C420.754 280.446 419.09 273.762 419.09 273.762C419.09 273.762 420.411 273.273 421.71 272.537C422.885 271.877 424.011 271.044 424.133 270.236C424.403 268.521 424.133 266.784 424.133 266.784L439.607 258.557C439.607 258.557 437.06 264.36 438.676 267.959V267.984C440.294 271.584 444.921 274.13 444.921 274.13Z" fill="#FFBE9D"/>
<path opacity="0.3" d="M438.801 267.961C434.222 273.225 427.831 277.852 421.833 272.54C423.008 271.879 424.135 271.047 424.256 270.238C424.526 268.524 424.256 266.786 424.256 266.786L439.73 258.559C439.73 258.559 437.185 264.361 438.801 267.961Z" fill="black"/>
<path d="M423.104 234.452C423.104 234.452 414.351 245.692 416.227 259.029C418.103 272.365 434.018 271.323 445.608 252.36C445.608 252.36 436.961 234.985 423.104 234.452Z" fill="#FFBE9D"/>
<path d="M423.105 234.452C423.105 234.452 422.481 242.097 435.399 247.176C435.399 247.176 434.983 257.396 443.422 257.482C451.861 257.569 444.984 236.002 440.296 232.771C435.608 229.543 423.105 234.452 423.105 234.452Z" fill="#012435"/>
<path d="M437.968 257.528C437.968 257.349 438.702 253.338 442.976 253.482C447.251 253.626 443.945 263.723 438.569 261.038L437.835 257.278" fill="#FFBE9D"/>
<path d="M434.75 251.184C434.75 251.184 433.552 246.699 429.246 247.207" stroke="#191B1F" stroke-width="0.453848" stroke-miterlimit="10" stroke-linecap="round" stroke-linejoin="round"/>
<path d="M423.793 245.586C423.793 245.586 421.595 243.263 418.96 244.876" stroke="#191B1F" stroke-width="0.453848" stroke-miterlimit="10" stroke-linecap="round" stroke-linejoin="round"/>
<path d="M429.486 253.026C429.432 254.175 429.86 255.129 430.441 255.156C431.021 255.184 431.536 254.273 431.59 253.124C431.644 251.975 431.215 251.022 430.634 250.994C430.054 250.968 429.539 251.877 429.486 253.026Z" fill="#191B1F"/>
<path d="M419.827 249.691C419.773 250.839 420.201 251.793 420.782 251.821C421.363 251.848 421.877 250.937 421.931 249.789C421.983 248.64 421.556 247.686 420.976 247.658C420.394 247.631 419.879 248.54 419.827 249.691Z" fill="#191B1F"/>
<path d="M424.794 250.311C424.794 250.311 423.688 254.547 421.941 255.816C420.192 257.084 423.099 258.857 423.099 258.857" stroke="#191B1F" stroke-width="0.453848" stroke-miterlimit="10"/>
<path d="M421.376 262.051C421.376 262.051 424.719 263.536 428.366 261.491" stroke="#191B1F" stroke-width="0.491355" stroke-miterlimit="10"/>
<path d="M439.61 258.555C439.61 258.555 440.446 254.682 443.421 255.328" stroke="#191B1F" stroke-width="0.453848" stroke-miterlimit="10"/>
<path d="M455.09 321.853L458.528 339.36L448.942 374.888C448.942 374.888 444.748 377.935 442.092 378.795C439.435 379.655 434.409 384.109 435.685 386.063C436.961 388.016 442.743 385.152 443.291 385.385C443.838 385.619 439.38 393.773 433.612 396.43C433.612 396.43 433.003 399.32 438.942 399.32C438.942 399.32 438.864 401.586 443.24 400.961C443.24 400.961 443.865 403.993 449.256 401.07C454.648 398.148 458.868 387.521 457.227 383.458C457.227 383.458 473.715 347.512 473.715 343.372C473.715 339.23 470.981 320.242 470.981 320.242L455.09 321.853Z" fill="#FFBE9D"/>
<path d="M472.052 320.797C464.388 325.865 455.354 323.123 455.354 323.123L452.685 310.073C452.685 310.073 452.073 286.862 461.132 282.602C466.127 287.45 472.052 320.797 472.052 320.797Z" fill="#191B1F"/>
<rect x="12.521" y="12.4385" width="543.146" height="48.7173" rx="8.29231" fill="url(#paint2_linear_8_634)" fill-opacity="0.2"/>
<circle cx="36.0548" cy="37.0092" r="5.9125" fill="#6789FE" fill-opacity="0.5"/>
<circle cx="52.4279" cy="37.0092" r="5.9125" fill="#6789FE" fill-opacity="0.5"/>
<circle cx="68.8009" cy="37.0092" r="5.9125" fill="#6789FE" fill-opacity="0.5"/>
<defs>
<linearGradient id="paint0_linear_8_634" x1="284.012" y1="0" x2="284.012" y2="742.162" gradientUnits="userSpaceOnUse">
<stop stop-color="#5579F8"/>
<stop offset="1" stop-color="#999999" stop-opacity="0"/>
</linearGradient>
<linearGradient id="paint1_linear_8_634" x1="284.012" y1="0" x2="284.012" y2="717.695" gradientUnits="userSpaceOnUse">
<stop stop-color="#5579F8" stop-opacity="0.69"/>
<stop offset="1" stop-color="white" stop-opacity="0"/>
</linearGradient>
<linearGradient id="paint2_linear_8_634" x1="284.094" y1="12.4385" x2="284.094" y2="61.1558" gradientUnits="userSpaceOnUse">
<stop stop-color="#6B8BFF"/>
<stop offset="1" stop-color="#5579F8"/>
</linearGradient>
</defs>
</svg>
