
<svg width="54" height="54" viewBox="0 0 54 54" fill="none" xmlns="http://www.w3.org/2000/svg">
<path d="M22 2.88675C25.094 1.10042 28.906 1.10042 32 2.88675L45.3827 10.6132C48.4767 12.3996 50.3827 15.7008 50.3827 19.2735V34.7265C50.3827 38.2992 48.4767 41.6004 45.3827 43.3868L32 51.1132C28.906 52.8996 25.094 52.8996 22 51.1132L8.61731 43.3868C5.5233 41.6004 3.61731 38.2992 3.61731 34.7265V19.2735C3.61731 15.7008 5.5233 12.3996 8.61731 10.6132L22 2.88675Z" fill="url(#paint0_linear_234_7827)"/>
<path d="M25.4322 25.4347C28.3137 25.4347 30.6496 23.0989 30.6496 20.2174C30.6496 17.3359 28.3137 15 25.4322 15C22.5507 15 20.2148 17.3359 20.2148 20.2174C20.2148 23.0989 22.5507 25.4347 25.4322 25.4347Z" fill="white"/>
<path d="M31.4877 28.8317C30.3834 29.3113 29.6077 30.4222 29.6077 31.6954C27.8861 31.6954 26.4772 33.1042 26.4772 34.8259C26.4772 35.1912 26.5399 35.5458 26.665 35.8694H20.2164C18.5775 35.8694 17.1613 34.6062 17.0909 32.9688C16.9625 29.9846 19.3471 27.5215 22.3033 27.5215H28.5642C29.6685 27.5215 30.6987 27.8681 31.5442 28.4659C31.6797 28.5617 31.6399 28.7656 31.4877 28.8317ZM36.912 34.8259C36.912 35.3996 36.4425 35.8694 35.8685 35.8694H33.7816V37.9563C33.7816 38.53 33.3121 38.9998 32.7381 38.9998C32.1641 38.9998 31.6946 38.53 31.6946 37.9563V35.8694H29.6076C29.0337 35.8694 28.5642 35.3996 28.5642 34.8259C28.5642 34.2522 29.0337 33.7824 29.6076 33.7824H31.6946V31.6954C31.6946 31.1217 32.1641 30.6519 32.7381 30.6519C33.3121 30.6519 33.7816 31.1217 33.7816 31.6954V33.7824H35.8685C36.4425 33.7824 36.912 34.2521 36.912 34.8259Z" fill="white"/>
<defs>
<linearGradient id="paint0_linear_234_7827" x1="49.5" y1="42" x2="0" y2="0" gradientUnits="userSpaceOnUse">
<stop stop-color="#727272"/>
<stop offset="1" stop-color="#9A9A9A"/>
</linearGradient>
</defs>
</svg>
