<svg width="569" height="743" viewBox="0 0 569 743" fill="none" xmlns="http://www.w3.org/2000/svg">
<path d="M0.0820312 21.9728C0.0820312 9.83755 9.91961 0 22.0549 0H546.132C558.268 0 568.105 9.83758 568.105 21.9728V720.189C568.105 732.324 558.268 742.162 546.132 742.162H22.0549C9.9196 742.162 0.0820312 732.324 0.0820312 720.189V21.9728Z" fill="url(#paint0_linear_8122_18923)" fill-opacity="0.13"/>
<path d="M22.0547 1.93848H546.132C557.196 1.93848 566.166 10.9082 566.166 21.9727V720.188C566.166 731.253 557.196 740.223 546.132 740.223H22.0547C10.9903 740.223 2.02051 731.253 2.02051 720.188V21.9727C2.0206 10.9083 10.9903 1.93858 22.0547 1.93848Z" stroke="url(#paint1_linear_8122_18923)" stroke-opacity="0.5" stroke-width="3.87756"/>
<rect x="12.5205" y="12.4385" width="543.146" height="48.7173" rx="8.29231" fill="url(#paint2_linear_8122_18923)" fill-opacity="0.2"/>
<circle cx="36.0541" cy="37.0082" r="5.9125" fill="#6789FE" fill-opacity="0.5"/>
<circle cx="52.4271" cy="37.0082" r="5.9125" fill="#6789FE" fill-opacity="0.5"/>
<circle cx="68.8002" cy="37.0082" r="5.9125" fill="#6789FE" fill-opacity="0.5"/>
<path d="M110.693 365.742C15.1002 420.933 15.1024 510.416 110.699 565.607C206.295 620.798 361.284 620.798 456.877 565.607C552.47 510.416 552.468 420.933 456.872 365.742C361.277 310.551 206.287 310.551 110.693 365.742Z" fill="#597CF9" fill-opacity="0.1"/>
<path d="M373.134 156.812C379.485 160.628 383.774 166.58 385.662 173.202L386.364 176.34C387.412 182.688 386.31 189.428 382.742 195.365C374.764 208.642 357.472 212.954 344.194 204.976C338.256 201.409 334.119 195.975 332.065 189.878L331.21 186.778C329.769 180.044 330.761 172.776 334.578 166.424C342.559 153.143 359.851 148.831 373.134 156.812Z" fill="#1A1C20"/>
<path d="M333.352 164.82C324.722 179.24 329.433 197.994 343.854 206.624C356.792 214.366 373.209 211.362 382.681 200.25L392.013 201.847C393.607 202.12 394.702 200.29 393.709 199.015L387.891 191.546C393.205 177.947 388.094 162.061 375.157 154.319C360.735 145.689 341.981 150.4 333.352 164.82ZM373.934 156.361C380.293 160.166 384.591 166.111 386.492 172.729L387.198 175.866C388.258 182.211 387.168 188.953 383.61 194.897C375.657 208.188 358.371 212.531 345.08 204.577C339.135 201.02 334.988 195.594 332.924 189.501L332.064 186.402C330.61 179.671 331.59 172.402 335.396 166.043C343.351 152.746 360.637 148.404 373.934 156.361Z" fill="#1A1C20"/>
<path d="M356.496 194.859C355.492 194.859 354.528 194.423 353.838 193.648L345.585 184.383C344.21 182.84 344.286 180.418 345.754 178.973C347.222 177.527 349.526 177.608 350.9 179.15L356.26 185.167L368.942 168.279C370.186 166.619 372.475 166.335 374.057 167.647C375.635 168.957 375.905 171.365 374.658 173.024L359.354 193.404C358.696 194.28 357.709 194.81 356.65 194.856C356.599 194.858 356.546 194.859 356.496 194.859Z" fill="#5579F8"/>
<path d="M420.968 534.572C457.955 534.572 487.939 517.261 487.939 495.906C487.939 474.551 457.955 457.239 420.968 457.239C383.98 457.239 353.996 474.551 353.996 495.906C353.996 517.261 383.98 534.572 420.968 534.572Z" fill="white" fill-opacity="0.23"/>
<path d="M405.892 488.896L402.082 486.9L405.955 485.996L405.892 488.896Z" fill="#263238"/>
<path d="M367.1 494.496C367.1 494.496 413.705 475.974 414.161 479.005C414.261 479.673 414.217 480.271 414.068 480.814C414.109 480.761 414.16 480.709 414.198 480.657L413.137 486.242C413.137 486.242 409.754 488.85 405.892 488.898C405.898 488.627 405.934 486.954 405.955 485.999C404.691 486.463 403.387 487.02 401.832 487.945C398.822 489.736 396.806 492.982 393.541 496.719C391.161 499.443 387.06 500.608 381.026 501.225C374.533 501.889 368.887 500.477 367.347 498.73C366.119 497.336 366.853 494.88 367.1 494.496Z" fill="#263238"/>
<path d="M368.406 493.499C368.865 493.065 370.567 491.368 372.852 489.535C374.849 487.932 377.186 485.898 379.676 484.278C380.67 483.632 382.197 482.594 383.062 481.754C383.893 480.946 384.692 480.106 385.438 479.224C387.503 476.779 389.252 474.095 390.773 471.304C392.082 468.901 392.426 467.194 392.412 464.475C392.378 457.821 392.074 451.157 391.177 444.557L413.267 444.906C412.5 448.283 412.048 454.054 411.566 457.906C410.832 463.764 410.621 465.065 412.749 471.01C413.376 472.761 414.347 474.456 414.365 476.309C414.395 479.319 411.873 481.83 409.107 483.203C406.815 484.341 404.21 484.773 401.982 485.994C399.637 487.278 397.778 489.275 396.067 491.252C394.451 493.12 393.125 495.348 390.91 496.622C388.454 498.035 386.149 498.421 383.347 498.871C380.125 499.39 376.02 499.312 373.297 499.006C368.552 498.473 365.072 496.66 368.406 493.499Z" fill="#FFBDA7"/>
<path d="M386.649 484.942C383.381 483.116 380.332 483.709 379.562 484.059C376.082 486.545 373.196 488.764 371.159 490.312C368.686 492.193 366.519 493.913 366.521 496.165C366.525 499.702 380.565 501.267 388.56 498.198C392.709 496.947 394.3 493.657 394.3 493.657C394.3 493.657 393.328 488.673 386.649 484.942ZM413.891 473.209C412.775 470.894 412.361 469.719 412.361 469.719C409.572 471.069 404.562 477.56 406.49 484.334C408.999 483.787 411.469 482.95 413.561 480.015C415.144 477.797 415.006 475.524 413.891 473.209Z" fill="#5579F8"/>
<path d="M447.963 477.725C446.664 479.746 448.348 487.369 448.051 492.795C447.781 497.725 446.425 506.318 447.988 511.189C449.841 516.962 453.609 523.659 460.612 518.251C464.954 514.9 467.442 510.567 468.034 503.47C468.445 498.537 466.414 491.714 464.669 485.664C462.631 478.596 461.855 474.817 461.855 474.817L447.963 477.725Z" fill="#263238"/>
<path d="M462.341 441.355C462.842 452.856 461.46 460.931 461.381 468.297C461.459 471.727 461.694 474.622 462.463 478.243C463.46 482.941 465.152 489.475 465.864 492.521C466.858 496.776 467.611 499.458 466.093 504.231C465.975 504.602 465.798 504.959 465.597 505.308C463.476 509.241 458.086 512.212 456.36 511.736C455.878 512.512 454.655 512.98 453.325 512.764C453.136 512.734 452.943 512.688 452.751 512.628C452.558 512.568 452.366 512.494 452.174 512.403C451.028 511.857 449.938 510.732 449.304 508.788C449.198 508.464 449.106 508.118 449.028 507.747C447.773 501.822 448.684 497.994 448.802 495.677C448.938 493.003 448.777 489.598 448.534 485.283C448.291 480.968 447.231 467.42 445.684 460.942C444.535 456.421 443.102 450.75 441.592 444.704L462.341 441.355Z" fill="#FFBDA7"/>
<path d="M466.912 498.063C462.66 496.246 450.336 495.993 448.371 501.805C448.32 507.277 448.286 510.986 451.854 515.748C456.594 522.075 462.78 515.367 465.151 511.108C467.522 506.849 467.491 501.01 466.912 498.063Z" fill="#5579F8"/>
<path d="M446.267 291.146C452.272 301.572 457.116 310.361 458.679 337.905C460.444 368.99 460.181 380.828 460.335 384.58C460.488 388.332 462.985 395.212 465.104 413.686C467.224 432.16 464.991 476.947 464.991 476.947C464.991 476.947 463.49 479.964 456.198 480.65C449.469 481.282 445.519 478.994 445.519 478.994C445.519 478.994 432.526 422.953 429.953 411.822C426.317 396.09 420.965 364.91 420.965 364.91L417.678 391.118C417.678 391.118 419.808 401.306 417.877 417.533C415.946 433.76 412.365 464.801 412.365 464.801C412.365 464.801 408.135 467.683 402.411 468.304C395.911 469.007 391.529 466.029 391.529 466.029C391.529 466.029 385.01 401.713 384.872 383.337C384.733 364.961 386.198 319.107 391.963 291.859L446.267 291.146Z" fill="#1A1C20"/>
<path d="M395.786 318.214C398.703 325.783 409.151 331.022 413.734 332.052L418.429 364.529L417.678 391.116L420.965 364.909L415.581 326.095C415.581 326.095 402.889 325.307 395.786 318.214ZM439.148 314.206C439.92 317.183 440.621 320.18 441.368 323.173C442.099 326.171 442.834 329.166 443.623 332.184C443.67 329.066 443.364 325.963 442.919 322.89C442.484 319.813 441.859 316.765 441.112 313.742C440.328 310.73 439.435 307.737 438.301 304.821C437.176 301.907 435.861 299.038 434.12 296.413C435.1 299.377 435.974 302.324 436.805 305.287C437.615 308.253 438.413 311.22 439.148 314.206ZM444.497 308.426C445.543 310.215 446.536 312.03 447.539 313.845L450.499 319.391C450.298 317.276 449.724 315.214 448.982 313.229C448.249 311.236 447.305 309.326 446.263 307.476C445.189 305.643 444.019 303.863 442.695 302.192C441.381 300.517 439.951 298.924 438.32 297.507C439.284 299.412 440.336 301.222 441.381 303.029C442.416 304.839 443.484 306.619 444.497 308.426ZM440.363 392.374C438.461 382.867 437.087 373.253 435.727 363.63C434.403 354.003 433.086 344.363 431.63 334.738C432.309 344.443 433.104 354.136 434.166 363.811C435.207 373.486 436.501 383.153 438.377 392.742C440.379 402.306 442.394 411.793 444.532 421.297C446.64 430.798 448.876 440.275 451.242 449.731C449.649 440.131 447.928 430.549 446.079 420.992C444.259 411.441 442.313 401.869 440.363 392.374ZM394.466 360.351L395.913 334.991C394.629 343.375 393.642 351.801 392.898 360.246C392.18 368.702 391.494 377.123 391.532 385.691C391.892 394.214 392.624 402.627 393.403 411.072C394.177 419.51 395.118 427.931 396.209 436.341C395.901 427.87 395.488 419.411 394.978 410.96L394.223 398.286C393.971 394.069 393.673 389.831 393.554 385.645C393.45 381.478 393.677 377.238 393.844 373.022C394.007 368.798 394.256 364.576 394.466 360.351Z" fill="#EDF1FF" fill-opacity="0.08"/>
<path d="M323.955 262.273C324.673 262.129 325.299 262.435 326.799 262.63C325.12 261.96 322.713 260.943 321.256 259.218C321.038 258.96 320.785 258.531 320.743 258.195C320.704 257.878 320.735 256.961 321.204 256.7C321.204 256.7 320.291 255.973 319.488 255.361C318.833 254.861 317.434 253.6 318.447 252.851C319.249 252.258 320.564 252.483 322.036 253.018C321.248 252.424 320.689 251.867 320.619 251.437C320.408 250.15 321.133 249.353 323.821 250.194C326.509 251.034 333.244 253.459 338.293 252.822C339.202 252.707 341.049 252.714 341.724 252.012C342.653 251.043 340.957 249.848 340.25 249.336C339.572 248.845 338.927 248.311 338.318 247.738C337.639 247.097 336.994 246.39 336.613 245.537C336.233 244.684 336.147 243.657 336.577 242.827C336.808 242.38 337.224 241.996 337.71 242.275C339.648 243.383 341.624 244.423 343.567 245.52C345.409 246.561 347.373 247.564 349.007 248.916C350.886 250.472 352.535 252.757 355.249 254.9C357.963 257.043 360.813 258.91 367.302 262.156C370.884 263.949 376.924 267.313 376.924 267.313C376.924 267.313 384.301 251.317 387.247 244.959C393.356 231.776 398.723 227.446 412.36 224.53L404.191 249.28C404.191 249.28 398.493 274.851 395.946 283.328C393.399 291.806 389.884 293.864 386.915 294.164C377.598 294.988 368.39 284.767 351.989 270.475C350.653 269.311 347.548 267.146 343.151 267.69C341.428 267.902 339.479 268.008 338.337 268.093C336.956 268.195 334.419 268.004 333.048 267.805C330.151 267.384 330.155 267.598 325.756 265.361C325.214 265.084 322.996 263.801 323.04 263.194C323.079 262.682 323.452 262.373 323.955 262.273Z" fill="#FFBDA7"/>
<path d="M326.799 262.629C328.148 262.97 329.47 263.254 330.83 263.381C332.18 263.568 333.551 263.591 334.934 263.781C333.56 264.015 332.164 264.021 330.771 263.887C329.391 263.701 327.995 263.364 326.799 262.629Z" fill="#F0997A"/>
<path d="M351.274 260.541C351.203 260.284 351.105 260.032 350.972 259.801C350.716 259.354 350.354 258.947 349.975 258.6C349.219 257.909 348.283 257.396 347.297 257.116C345.166 256.511 342.565 257.065 340.987 258.654C340.943 258.698 340.925 258.913 341.033 258.869C342.985 258.057 344.968 257.345 347.102 257.94C348.866 258.431 350.208 259.891 351.077 261.455C351.159 261.601 351.314 261.519 351.313 261.371C351.314 261.067 351.359 260.842 351.274 260.541Z" fill="#F0997A"/>
<path d="M335.362 256.371C333.131 256.152 330.874 255.57 328.701 255.026C326.618 254.504 324.562 253.829 322.514 253.189C322.489 253.182 322.472 253.242 322.493 253.252C324.565 254.362 326.742 255.092 329.026 255.642C331.13 256.148 333.204 256.26 335.351 256.419C335.369 256.419 335.381 256.372 335.362 256.371Z" fill="#F0997A"/>
<path d="M336.028 260.12C333.797 259.901 331.539 259.318 329.367 258.774C328.532 258.565 327.703 258.332 326.878 258.086C326.069 257.846 325.237 257.628 324.459 257.305C324.218 257.205 323.978 257.105 323.737 257.005C323.428 256.877 323.144 256.721 322.813 256.648C322.476 256.574 322.124 256.56 321.782 256.613C321.751 256.618 321.709 256.646 321.729 256.672C322.164 256.673 322.593 256.785 322.997 256.949C323.268 257.059 323.528 257.19 323.783 257.329C324.015 257.455 324.243 257.546 324.482 257.654C325.221 257.989 325.979 258.284 326.748 258.546C327.714 258.875 328.698 259.151 329.691 259.391C331.795 259.898 333.868 260.008 336.016 260.167C336.036 260.168 336.048 260.122 336.028 260.12Z" fill="#F0997A"/>
<path d="M412.362 224.53C399.385 226.043 393.69 230.914 388.818 239.995C385.272 246.604 376.573 266.731 376.573 266.731L366.13 261.563C366.13 261.563 367.304 264.081 365.391 269.621C363.479 275.16 358.716 276.89 358.716 276.89C358.716 276.89 365.998 284.148 372.341 288.772C378.683 293.395 384.75 296.523 389.863 293.514C394.978 290.505 396.329 284.622 398.151 277.65C399.973 270.678 404.755 249.015 404.755 249.015L412.362 224.53Z" fill="#5579F8"/>
<path d="M389.558 280.64C387.145 274.991 381.748 268.591 376.572 266.73C376.572 266.73 377.024 265.69 377.657 264.236C385.634 267.418 388.423 275.267 389.558 280.64Z" fill="#263238"/>
<path d="M453.312 231.78H431.615C430.95 222.172 431.414 212.514 432.13 202.906C432.642 196.048 433.275 189.199 434.042 182.365C434.236 180.631 434.459 178.84 435.355 177.343C437.319 174.06 442.133 174.545 445.236 175.64C448.802 176.897 451.904 179.573 453.472 183.037C455.074 186.579 455.129 190.601 455.104 194.488C455.028 206.935 454.426 219.381 453.312 231.78Z" fill="#1A1C20"/>
<path d="M420.644 217.346C420.807 217.493 420.933 217.607 421.004 217.674C422.055 218.673 423.276 219.398 424.664 219.877C425.947 220.319 426.93 220.107 428.206 220.118C430.098 220.132 432.164 220.834 434.025 220.263C434.837 220.013 435.063 219.458 435.577 218.824C436.283 217.954 437.026 217.113 437.741 216.251C440.594 212.81 443.34 209.254 445.555 205.361C448.509 200.166 450.5 194.267 450.231 188.296C450.116 185.734 449.555 183.118 448.096 181.01C446.636 178.901 444.156 177.384 441.598 177.572C441.296 175.909 439.722 172.846 438.444 171.741C432.806 166.866 428.665 166.951 422.924 166.826C418.491 166.731 412.187 168.344 408.408 170.665C404.631 172.985 401.787 177.457 400.872 181.796C399.82 186.785 401.934 190.957 404.953 194.205C407.65 197.107 412.101 199.235 412.995 203.452C413.273 204.771 413.156 206.148 413.412 207.472C413.931 210.154 415.894 212.289 417.774 214.27C417.722 214.721 419.745 216.536 420.644 217.346Z" fill="#1A1C20"/>
<path d="M414.742 226.282C414.742 226.282 415.906 225.179 417.302 224.98C418.295 224.839 418.671 224.128 418.671 222.422C418.671 220.715 418.664 219.326 418.664 219.326C415.17 219.507 412.255 218.725 409.815 216.643C406.13 213.5 404.103 207.2 404.377 200.393C404.559 195.873 405.701 193.746 405.624 192.729C405.169 186.677 405.627 185.597 407.003 182.451C409.479 177.436 415.849 175.546 418.66 180.867C426.481 174.623 435.304 182.613 435.074 191.955C434.095 199.674 436.473 200.03 437.976 200.063C440.139 195.233 445.119 195.248 447.249 198.331C449.176 201.119 449.281 205.547 445.56 209.432C442.04 213.108 438.176 210.763 437.989 209.441C437.989 209.441 437.525 220.507 437.467 222.581C437.411 224.655 437.849 226.948 440.436 227.771C440.428 227.767 440.444 227.773 440.436 227.771C443.074 228.608 443.7 229.163 443.7 229.163C443.7 229.163 443.126 229.589 442.728 230.035C441.812 231.13 440.444 232.1 437.046 236.211C428.312 239.601 417.892 244.302 411.74 248.066C409.607 242.938 407.594 234.559 407.594 234.559C410.813 229.783 414.742 226.282 414.742 226.282Z" fill="#FFBDA7"/>
<path d="M439.703 207.49C439.703 208.498 440.52 209.314 441.527 209.314C442.535 209.314 443.351 208.497 443.351 207.49C443.351 206.482 442.534 205.666 441.527 205.666C440.519 205.665 439.703 206.482 439.703 207.49Z" fill="white"/>
<path d="M409.128 187.994L413.635 186.717C413.326 185.45 412.067 184.708 410.823 185.06C409.579 185.414 408.82 186.728 409.128 187.994Z" fill="#263238"/>
<path d="M429.862 188.973L425.498 187.116C425.969 185.882 427.328 185.297 428.534 185.81C429.738 186.324 430.334 187.74 429.862 188.973Z" fill="#263238"/>
<path d="M416.985 206.683L423.67 204.809C424.261 206.649 423.244 208.562 421.398 209.079C419.552 209.596 417.575 208.524 416.985 206.683Z" fill="#B16668"/>
<path d="M423.821 205.775C423.863 207.276 422.921 208.654 421.398 209.081C420.893 209.223 420.379 209.234 419.885 209.154C420.393 207.339 421.939 206.006 423.821 205.775Z" fill="#F28F8F"/>
<path d="M413.02 194.097C413.062 195.141 412.24 196.045 411.183 196.116C410.127 196.187 409.237 195.398 409.195 194.353C409.153 193.308 409.975 192.404 411.03 192.334C412.088 192.262 412.979 193.052 413.02 194.097Z" fill="#263238"/>
<path d="M426.794 194.892C426.837 195.959 425.998 196.881 424.919 196.954C423.841 197.026 422.932 196.22 422.89 195.154C422.847 194.087 423.687 193.165 424.764 193.092C425.842 193.021 426.751 193.827 426.794 194.892Z" fill="#263238"/>
<path d="M418.666 219.323C426.112 218.844 433.307 217.061 435.281 212.591C435.281 212.591 435.17 216.619 430.827 218.768C424.558 221.871 418.67 221.606 418.67 221.606L418.666 219.323Z" fill="#F0997A"/>
<path d="M401.645 189.826C401.627 190.579 402.073 191.298 402.309 191.601C402.433 191.761 402.541 191.969 402.583 192.235C402.774 193.434 402.81 195.696 403.289 196.983C403.771 198.271 404.841 200.324 408.414 200.547C409.109 200.593 409.732 200.565 410.289 200.479C410.337 200.473 410.385 200.464 410.432 200.457C411.024 200.356 411.543 200.187 412 199.968C412.432 199.761 412.871 199.479 413.233 199.151C413.817 198.641 414.263 198.032 414.63 197.415C415.586 195.804 415.617 193.496 416.941 193.284C416.99 193.276 417.045 193.27 417.099 193.269C417.152 193.266 417.208 193.267 417.267 193.269C419.028 193.365 418.577 195.862 419.38 197.689C420.182 199.52 421.636 201.333 425.455 201.539C426.846 201.619 428.309 201.415 429.491 200.698C429.725 200.558 429.934 200.407 430.139 200.236C430.77 199.708 431.179 199.11 431.468 198.622C432.189 197.405 432.574 195.163 432.989 194.004C433.1 193.696 433.226 193.485 433.351 193.34C433.633 193.01 434.284 192.445 434.384 191.695C434.484 190.944 433.979 190.267 433.469 190.176C433.173 190.124 432.863 190.072 432.543 190.023C429.559 189.561 425.637 189.251 423.222 189.745C420.194 190.371 419.081 191.204 417.436 191.116C415.901 191.019 414.994 190.07 412.284 189.11C410.121 188.347 406.44 188.217 403.606 188.339C403.303 188.351 403.008 188.368 402.727 188.387C402.243 188.419 401.663 189.073 401.645 189.826ZM420.892 192.331C422.282 191.151 424.509 190.885 426.312 190.777C429.176 190.679 430.886 191.373 431.476 191.938C432.088 192.526 431.537 194.944 431.141 196.167C430.863 197.066 430.469 197.988 429.828 198.709C429.025 199.624 427.752 200.371 425.677 200.28C423.626 200.192 422.385 199.486 421.63 198.628L421.628 198.627C420.883 197.771 420.614 196.769 420.507 196.077C420.299 194.678 420.261 193.059 420.892 192.331ZM404.304 190.358C404.475 190.226 404.72 190.093 405.041 189.98C406.5 189.486 408.03 189.577 409.553 189.83C411.553 190.185 413.581 191.141 414.055 191.934C414.528 192.727 414.241 194.325 413.836 195.688C413.755 195.957 413.643 196.269 413.485 196.596C413.307 196.978 413.08 197.336 412.809 197.662C412.002 198.633 410.655 199.444 408.406 199.273C407.558 199.214 406.873 199.008 406.327 198.714C404.409 197.684 404.109 195.567 403.969 194.586C403.792 193.33 403.648 190.87 404.304 190.358Z" fill="#37474F"/>
<path d="M411.559 200.52L418.307 203.271L419.019 196.478C418.68 194.964 418.654 193.433 417.381 193.282L411.559 200.52Z" fill="#F0997A"/>
<path d="M433.254 191.11L442.908 196.201C442.142 196.309 441.426 196.413 440.386 197.065L432.97 193.13L433.254 191.11Z" fill="#37474F"/>
<path d="M393.306 277.765C393.469 274.578 393.579 270.046 393.229 265.985C393.229 265.985 388.373 260.95 388.372 254.452C388.37 247.639 391.358 242.985 398.49 236.233C405.808 229.305 411.924 225.692 411.924 225.692L417.626 224.9C417.626 224.9 413.792 232.42 415.885 236.664C427.059 235.825 436.64 231.014 440.567 227.671L449.867 229.501C449.867 229.501 455.536 241.412 453.259 251.268C452.026 256.602 449.574 265.637 447.585 272.803C445.658 279.744 446.334 287.148 449.49 293.623C449.779 294.216 450.066 294.808 450.349 295.394C453.034 300.942 456.584 311.144 456.584 311.144C456.584 311.144 440.97 318.139 415.322 315.028C389.674 311.917 387.553 307.39 387.553 307.39L392.339 285.072C392.857 282.666 393.179 280.225 393.306 277.765Z" fill="#1A1C20"/>
<path d="M435.964 266.191C435.964 266.191 433.284 274.4 423.271 275.207C414.112 275.947 409.617 268.63 409.617 268.63C409.617 268.63 411.165 279.068 423.551 277.716C435.919 276.366 435.964 266.191 435.964 266.191Z" fill="#03496B"/>
<path d="M437.478 223.521C437.478 223.521 428.196 244.627 424.714 254.818C421.232 265.009 422.516 273.315 422.966 292.016C423.312 306.418 424.054 328.15 424.054 328.15C424.054 328.15 451.317 328.8 460.151 316.972C458.2 309.745 451.848 292.826 450.218 288.203C448.589 283.58 449.628 279.59 452.943 269.164C456.256 258.739 461.16 253.155 461.321 245.354C461.482 237.553 454.393 230.502 452.46 229.082C442.024 226.664 437.913 225.978 437.478 223.521Z" fill="#5579F8"/>
<path d="M417.627 224.903C417.627 224.903 398.464 242.732 396.472 261.093C394.478 279.454 391.786 319.744 391.786 319.744C391.786 319.744 389.809 318.739 386.068 314.315C387.213 305.987 391.362 273.067 390.726 269.251C390.09 265.434 381.405 256.479 390.136 244.501C398.867 232.524 412.361 224.531 412.361 224.531L418.594 223.521C418.595 224.172 418.199 224.745 417.627 224.903Z" fill="#5579F8"/>
<path d="M409.546 228.78C408.331 229.794 407.125 230.817 405.951 231.877C403.599 233.993 401.259 236.123 398.995 238.337C397.871 239.453 396.747 240.567 395.658 241.723C395.109 242.298 394.57 242.883 394.044 243.493C393.538 244.089 392.945 244.739 392.661 245.637C392.382 246.493 392.374 247.346 392.415 248.17C392.449 248.999 392.606 249.8 392.773 250.591C393.109 252.072 393.57 253.494 394.127 254.904C392.85 256.426 391.619 257.964 390.814 259.892C390.714 260.147 390.634 260.43 390.586 260.717C390.571 261.01 390.548 261.318 390.578 261.57C390.602 262.107 390.673 262.617 390.732 263.133C390.872 264.158 391.033 265.173 391.212 266.184C391.916 270.231 392.8 274.233 393.763 278.218C393.126 274.169 392.475 270.123 391.904 266.076C391.766 265.065 391.644 264.052 391.544 263.042C391.506 262.539 391.455 262.032 391.452 261.544C391.431 261.045 391.48 260.666 391.669 260.215C392.42 258.457 393.752 256.83 395.056 255.333L395.259 255.1L395.145 254.809C394.585 253.379 394.119 251.872 393.799 250.368C393.642 249.615 393.523 248.854 393.478 248.105C393.428 247.36 393.439 246.6 393.648 245.947C393.827 245.321 394.305 244.745 394.811 244.144C395.309 243.552 395.834 242.967 396.369 242.392C397.432 241.236 398.538 240.112 399.642 238.988C401.852 236.741 404.076 234.499 406.35 232.311C408.626 230.124 410.871 227.901 413.283 225.858C411.982 226.758 410.763 227.771 409.546 228.78Z" fill="#5579F8"/>
<path d="M441.085 254.452L441.177 251.946L441.361 246.932C441.554 240.246 441.73 234.747 441.756 228.043C441.212 234.722 440.82 240.227 440.442 246.924L440.199 251.947L440.078 254.459L440.046 255.078C440.041 255.235 440.013 255.391 439.967 255.545C439.864 255.854 439.667 256.151 439.422 256.425C438.393 257.521 436.841 258.218 435.345 258.837C433.823 259.438 432.223 259.92 430.631 260.29L430.08 260.417L430.264 260.943C430.983 263 431.649 265.103 432.123 267.219C432.238 267.747 432.345 268.279 432.412 268.802C432.488 269.315 432.519 269.878 432.42 270.255L432.386 270.392L432.287 270.573L430.903 273.111C429.854 275.048 428.78 276.973 427.758 278.925L424.677 284.778L428.13 279.135C429.286 277.255 430.391 275.347 431.52 273.452L432.362 272.029L432.783 271.318L433.099 270.784L433.195 270.527C433.394 269.845 433.336 269.275 433.286 268.704C433.237 268.131 433.133 267.578 433.02 267.029C432.591 265.015 432.01 263.068 431.369 261.128C432.851 260.781 434.301 260.363 435.727 259.82C437.308 259.191 438.917 258.48 440.196 257.113C440.503 256.76 440.781 256.349 440.938 255.858C441.012 255.61 441.055 255.353 441.058 255.089L441.085 254.452Z" fill="#5579F8"/>
<path d="M281.349 236.126L287.693 239.789V257.848L281.349 254.185V236.126Z" fill="#1A1C20"/>
<path opacity="0.3" d="M281.349 236.126L287.693 239.789V257.848L281.349 254.185V236.126Z" fill="white"/>
<path d="M281.349 236.127L287.693 239.789L290 238.458L283.656 234.795L281.349 236.127Z" fill="#1A1C20"/>
<path d="M287.692 257.85L290.035 256.518L289.999 238.459L287.692 239.791V257.85Z" fill="#1A1C20"/>
<path d="M292.744 242.725L299.088 246.387V253.843L292.744 250.181V242.725Z" fill="#1A1C20"/>
<path opacity="0.3" d="M292.744 242.725L299.088 246.387V253.843L292.744 250.181V242.725Z" fill="white"/>
<path d="M292.744 242.725L299.088 246.388L301.395 245.056L295.051 241.394L292.744 242.725Z" fill="#1A1C20"/>
<path d="M299.088 253.844L301.431 252.513L301.395 245.057L299.088 246.388V253.844Z" fill="#1A1C20"/>
<path d="M305.621 250.181V242.857L276.502 225.99V233.316L305.621 250.181Z" fill="#1A1C20"/>
<path opacity="0.3" d="M305.621 250.181V242.857L276.502 225.99V233.316L305.621 250.181Z" fill="white"/>
<path d="M305.621 250.183V242.858L307.928 241.525V248.851L305.621 250.183Z" fill="#1A1C20"/>
<path d="M276.502 225.991L278.809 224.659L307.928 241.525L305.621 242.857L276.502 225.991Z" fill="#1A1C20"/>
<path opacity="0.3" d="M276.502 225.991L278.809 224.659L307.928 241.525L305.621 242.857L276.502 225.991Z" fill="white"/>
<path d="M380.356 276.454L375.789 284.359L274.689 225.964C274.621 225.941 274.553 225.896 274.485 225.85C273.861 225.441 273.463 224.487 273.463 223.159C273.463 220.83 274.689 218.241 276.2 217.366C276.756 217.048 277.279 217.002 277.711 217.195C277.767 217.217 277.824 217.252 277.881 217.286L380.356 276.454Z" fill="#1A1C20"/>
<path opacity="0.3" d="M380.356 276.454L375.789 284.359L274.689 225.964C274.621 225.941 274.553 225.896 274.485 225.85C273.861 225.441 273.463 224.487 273.463 223.159C273.463 220.83 274.689 218.241 276.2 217.366C276.756 217.048 277.279 217.002 277.711 217.195C277.767 217.217 277.824 217.252 277.881 217.286L380.356 276.454Z" fill="white"/>
<path opacity="0.6" d="M273.506 222.478C273.484 222.706 273.463 222.934 273.463 223.158C273.463 224.487 273.861 225.441 274.485 225.85C274.554 225.895 274.622 225.94 274.689 225.964L375.789 284.359L377.013 282.241L273.506 222.478Z" fill="#1A1C20"/>
<path d="M300.027 233.541V226.216L284.404 217.154V224.48L300.027 233.541Z" fill="#1A1C20"/>
<path opacity="0.5" d="M300.027 233.541V226.216L284.404 217.154V224.48L300.027 233.541Z" fill="white"/>
<path d="M300.027 233.541V226.216L302.334 224.883V232.208L300.027 233.541Z" fill="#1A1C20"/>
<path d="M284.404 217.155L286.711 215.823L302.334 224.883L300.027 226.216L284.404 217.155Z" fill="#1A1C20"/>
<path opacity="0.3" d="M284.404 217.155L286.711 215.823L302.334 224.883L300.027 226.216L284.404 217.155Z" fill="white"/>
<path d="M408.025 328.491C404.57 328.491 400.899 327.423 397.222 325.3C383.927 317.623 373.512 297.903 373.512 280.405C373.512 270.436 377.043 262.679 383.2 259.124C388.56 256.031 395.16 256.431 401.783 260.253C415.078 267.929 425.493 287.65 425.493 305.148C425.493 315.117 421.962 322.874 415.805 326.43C413.421 327.806 410.791 328.491 408.025 328.491ZM391.009 266.187C389.897 266.187 388.792 266.427 387.759 267.023C384.548 268.877 382.632 273.88 382.632 280.405C382.632 294.465 391.402 311.407 401.781 317.4C404.386 318.904 408.141 320.32 411.243 318.53C414.453 316.676 416.37 311.673 416.37 305.148C416.37 291.087 407.601 274.145 397.221 268.153C395.484 267.151 393.234 266.187 391.009 266.187Z" fill="#1A1C20"/>
<path opacity="0.3" d="M401.779 260.257C395.157 256.429 388.559 256.032 383.197 259.121C377.041 262.677 373.509 270.434 373.509 280.407C373.509 297.898 383.924 317.628 397.224 325.294C400.904 327.418 404.573 328.486 408.025 328.486C410.797 328.486 413.421 327.804 415.805 326.431C421.961 322.875 425.494 315.117 425.494 305.145C425.495 287.654 415.08 267.935 401.779 260.257ZM411.24 318.524C408.139 320.319 404.391 318.899 401.779 317.4C391.409 311.403 382.629 294.468 382.629 280.406C382.629 273.875 384.549 268.877 387.762 267.025C388.796 266.424 389.898 266.185 391.011 266.185C393.236 266.185 395.485 267.151 397.223 268.15C407.605 274.147 416.373 291.082 416.373 305.144C416.375 311.676 414.455 316.673 411.24 318.524Z" fill="white"/>
<path opacity="0.6" d="M401.78 317.401C391.41 311.404 382.63 294.469 382.63 280.407C382.63 273.876 384.549 268.878 387.763 267.027C388.324 266.699 388.906 266.488 389.498 266.355C388.449 266.547 387.408 266.913 386.412 267.547C382.684 269.899 380.303 275.385 380.042 282.233C379.479 296.977 388.781 313.61 400.328 318.572C403.029 319.721 406.846 320.669 410.257 318.976C407.375 320.017 404.121 318.744 401.78 317.401Z" fill="#1A1C20"/>
<path opacity="0.2" d="M390.463 258.626C398.408 257.587 420.286 269.355 423.818 300.07C419.545 283.743 410.258 265.575 390.463 258.626Z" fill="white"/>
<path d="M452.886 288.82C446.755 290.55 440.038 292.368 438.712 292.795C435.843 293.72 434.352 292.91 432.67 291.824C430.616 290.5 428.203 288.811 427.232 288.084C426.236 287.338 424.408 285.946 423.047 285.922C421.941 285.903 419.315 287.528 416.944 288.806C414.573 290.084 413.211 291.307 412.179 292.432C411.148 293.559 408.593 297.568 408.548 298.966C408.502 300.363 409.952 300.857 411.461 300.042C412.785 299.327 414.459 296.503 416.005 295.552C417.552 294.601 421.738 292.595 421.738 292.595C421.738 292.595 416.775 295.909 416.141 296.462C415.506 297.015 413.7 299.311 413.079 300.031C412.456 300.752 411.72 302.613 412.078 303.172C412.437 303.732 413.404 304.604 414.057 304.426C414.709 304.25 415.187 303.918 415.187 303.918C415.187 303.918 415.357 304.569 415.716 305.128C416.074 305.688 416.382 305.823 416.382 305.823C416.382 305.823 416.32 306.704 417.208 307.339C417.897 307.83 418.616 307.844 419.182 307.843C420.821 307.839 421.705 307.617 423.428 307.202C426.585 306.443 428.008 306.386 431.146 307.92C433.57 309.104 436.665 309.421 439.039 308.749C440.499 308.335 443.57 307.412 449.663 306.828C450.66 306.732 451.746 306.648 452.887 306.567L452.886 288.82Z" fill="#FFBDA7"/>
<path d="M414.055 304.427C413.772 304.503 413.432 304.378 413.105 304.171C413.115 304.171 413.71 304.152 414.802 303.413C415.904 302.666 418.479 300.023 420.397 298.967C422.316 297.911 424.56 296.981 425.19 296.153C424.831 296.82 422.855 298.213 420.648 299.531C418.441 300.849 415.186 303.919 415.186 303.919C415.186 303.919 414.708 304.25 414.055 304.427Z" fill="#F0997A"/>
<path d="M418.917 305.091C419.694 304.83 422.919 302.971 424.121 302.321C425.322 301.671 427.196 300.436 427.196 300.436C427.196 300.436 425.961 301.682 424.861 302.336C423.762 302.991 420.529 304.846 419.202 305.386C417.873 305.926 417.02 305.936 416.382 305.826C416.382 305.826 416.074 305.689 415.715 305.13C416.681 305.745 418.139 305.352 418.917 305.091Z" fill="#F0997A"/>
<path d="M452.458 229.081C461.649 230.696 465.297 236.304 469.338 248.24C474.858 264.547 479.704 280.609 480.749 288.774L459.068 282.845L447.472 259.505C447.472 259.505 443.121 240.756 452.458 229.081Z" fill="#5579F8"/>
<path d="M480.749 288.775C481.01 292.618 480.331 294.632 478.556 296.288C476.781 297.943 469.472 301.389 464.983 302.954C460.493 304.52 448.715 307.704 446.46 308.122C448.799 304.468 447.599 299.389 445.615 296.152C443.631 292.915 441.312 292.043 441.312 292.043L459.068 282.845L460.285 273.294L480.749 288.775Z" fill="#5579F8"/>
<path d="M134.387 562.342C127.94 562.342 121.829 560.864 117.182 558.179L100.428 548.522C95.2238 545.517 92.3574 541.327 92.3574 536.727C92.3574 532.124 95.2238 527.936 100.428 524.932L234.935 447.312C239.584 444.627 245.694 443.149 252.142 443.149C258.588 443.149 264.699 444.627 269.346 447.31L286.104 456.971C291.309 459.977 294.174 464.167 294.174 468.767C294.174 473.368 291.309 477.557 286.104 480.561L151.591 558.181C146.943 560.865 140.835 562.342 134.387 562.342Z" fill="white" fill-opacity="0.23"/>
<path d="M279.836 330.26C279.836 327.336 277.904 324.412 274.04 322.181L262.644 315.602C254.916 311.139 242.384 311.139 234.655 315.602L131.363 375.239C127.495 377.473 125.563 380.401 125.568 383.329L125.569 519.752C125.559 522.683 127.49 525.616 131.364 527.852L142.756 534.431C150.485 538.893 163.016 538.893 170.746 534.431L274.041 474.795C277.905 472.564 279.837 469.64 279.837 466.716V330.26H279.836Z" fill="#5579F8"/>
<path opacity="0.3" d="M142.754 397.975L131.362 391.398C123.633 386.936 123.634 379.7 131.362 375.238L234.653 315.602C242.382 311.139 254.914 311.139 262.643 315.602L274.038 322.181C281.768 326.643 281.768 333.878 274.038 338.341L170.743 397.977C163.015 402.438 150.483 402.438 142.754 397.975Z" fill="white"/>
<path d="M249.121 331.909C253.736 334.573 253.736 338.894 249.121 341.558C244.506 344.222 237.024 344.222 232.409 341.558C227.793 338.894 227.793 334.573 232.409 331.909C237.024 329.244 244.506 329.244 249.121 331.909Z" fill="#5579F8"/>
<path opacity="0.2" d="M249.121 331.909C253.736 334.573 253.736 338.894 249.121 341.558C244.506 344.222 237.024 344.222 232.409 341.558C227.793 338.894 227.793 334.573 232.409 331.909C237.024 329.244 244.506 329.244 249.121 331.909Z" fill="#002B40"/>
<path opacity="0.2" d="M232.407 341.442C232.375 341.46 232.348 341.481 232.316 341.5C232.348 341.518 232.375 341.539 232.407 341.557C237.022 344.222 244.504 344.222 249.119 341.557C249.151 341.539 249.178 341.518 249.21 341.5C249.178 341.481 249.151 341.46 249.119 341.442C244.504 338.777 237.022 338.777 232.407 341.442Z" fill="#002B40"/>
<path opacity="0.2" d="M156.766 401.319V537.773C151.691 537.773 146.617 536.673 142.771 534.443L131.362 527.85C127.485 525.62 125.546 522.678 125.578 519.738V383.317C125.578 386.259 127.485 389.167 131.362 391.398L142.771 397.99C146.617 400.221 151.691 401.319 156.766 401.319Z" fill="#002B40"/>
<path d="M231.934 468.812L207.27 483.052L211.092 438.437C208.142 436.878 206.263 433.04 206.263 427.528C206.263 417.705 212.236 406.293 219.604 402.038C226.971 397.785 232.944 402.3 232.944 412.124C232.944 417.634 231.064 423.643 228.114 428.609L231.934 468.812Z" fill="#012232"/>
<path d="M231.934 468.811L209.595 455.914L207.271 483.05L231.934 468.811Z" fill="#002B40"/>
<path d="M219.604 402.038C214.783 404.822 210.572 410.673 208.229 417.135L228.114 428.616V428.609C231.064 423.643 232.945 417.634 232.945 412.124C232.943 402.3 226.97 397.785 219.604 402.038Z" fill="#002B40"/>
<path d="M251.923 268.774V250.512C251.923 233.616 245.537 220.239 234.404 213.811C223.778 207.676 210.637 208.507 197.396 216.15C173.078 230.191 154.028 264.45 154.028 294.143V377.217H154.024C154.025 378.865 155.124 380.512 157.302 381.77C161.658 384.285 168.72 384.285 173.077 381.77C175.254 380.512 176.354 378.864 176.354 377.217L176.353 294.143C176.353 272.426 191.101 245.563 208.558 235.484C214.51 232.048 219.861 231.195 223.242 233.144C227.222 235.443 229.599 241.935 229.599 250.512V268.774H229.597C229.597 268.777 229.599 268.779 229.599 268.781V268.812H229.604C229.621 270.447 230.714 272.08 232.875 273.327C237.231 275.842 244.292 275.843 248.649 273.327C250.81 272.08 251.903 270.448 251.92 268.812H251.924V268.791C251.924 268.786 251.927 268.78 251.927 268.774H251.923Z" fill="#5579F8"/>
<path d="M219.029 211.478C224.25 211.478 229.132 212.767 233.537 215.311C244.12 221.422 250.191 234.252 250.191 250.513V268.436L250.187 268.795C250.176 269.847 249.299 270.952 247.782 271.827C245.961 272.879 243.402 273.482 240.762 273.482C238.12 273.482 235.562 272.879 233.74 271.827C232.223 270.952 231.347 269.846 231.335 268.794L231.331 268.451V250.513C231.331 241.172 228.698 234.295 224.106 231.644C222.658 230.809 220.937 230.385 218.989 230.385C215.676 230.385 211.769 231.63 207.692 233.984C189.765 244.333 174.621 271.883 174.621 294.142L174.621 377.216C174.621 378.271 173.743 379.384 172.21 380.269C170.389 381.32 167.83 381.923 165.19 381.923C162.548 381.923 159.989 381.32 158.168 380.269C156.691 379.416 155.821 378.35 155.761 377.328V377.216V294.142C155.761 265.009 174.429 231.409 198.262 217.65C205.357 213.554 212.344 211.478 219.029 211.478ZM219.029 209.745C212.127 209.745 204.777 211.889 197.396 216.15C173.078 230.191 154.028 264.45 154.028 294.143V377.217H154.024C154.025 378.865 155.124 380.512 157.302 381.77C159.48 383.027 162.334 383.656 165.19 383.656C168.044 383.656 170.899 383.027 173.077 381.77C175.254 380.512 176.354 378.864 176.354 377.217L176.353 294.143C176.353 272.426 191.101 245.563 208.558 235.485C212.411 233.26 216.012 232.118 218.99 232.118C220.613 232.118 222.05 232.456 223.242 233.144C227.222 235.443 229.599 241.936 229.599 250.513V268.774H229.597C229.597 268.777 229.599 268.779 229.599 268.782V268.813H229.604C229.621 270.447 230.714 272.08 232.875 273.327C235.053 274.585 237.907 275.214 240.762 275.214C243.616 275.214 246.471 274.585 248.649 273.327C250.81 272.08 251.903 270.448 251.92 268.813H251.924V268.792C251.924 268.786 251.927 268.78 251.927 268.774H251.924V250.513C251.924 233.617 245.538 220.24 234.405 213.811C229.701 211.096 224.506 209.745 219.029 209.745Z" fill="#1A1C20"/>
<path d="M207.606 213.403C206.424 213.961 204.157 215.262 202.976 215.95C178.665 229.993 160.688 264.813 160.688 294.505V374.548C160.688 376.221 161.772 377.862 163.969 379.109C166.824 380.749 170.793 381.34 174.402 380.815C174.041 381.176 173.582 381.471 173.09 381.766C168.726 384.292 161.672 384.292 157.308 381.766C155.111 380.52 154.027 378.879 154.027 377.206V297.13C154.027 267.437 173.09 232.012 197.401 217.968C200.813 216.001 204.226 214.42 207.606 213.403Z" fill="#1A1C20"/>
<path d="M138.615 532.018L121.098 542.13C121.332 535.878 121.876 526.58 121.013 520.321C115.724 482.035 100.81 469.413 93.7172 450.779C86.2493 431.156 95.3581 424.841 107.189 428.369C117.74 431.516 133.007 447.13 137.815 475.698C141.012 494.708 140.446 515.349 138.615 532.018Z" fill="#5579F8"/>
<path opacity="0.51" d="M138.615 532.018L121.098 542.13C121.332 535.878 121.876 526.58 121.013 520.321C115.724 482.035 100.81 469.413 93.7172 450.779C86.2493 431.156 95.3581 424.841 107.189 428.369C117.74 431.516 133.007 447.13 137.815 475.698C141.012 494.708 140.446 515.349 138.615 532.018Z" fill="white"/>
<path d="M129.329 537.378L127.576 538.389C133.841 493.754 118.58 455.043 103.518 439.055C103.228 438.751 103.243 438.264 103.547 437.973C103.865 437.683 104.346 437.698 104.636 438.002C119.691 453.997 134.945 492.969 129.329 537.378Z" fill="white"/>
<path d="M126.02 539.287L116.162 544.979H116.155C110.915 529.549 105.534 523.369 98.8509 513.221C92.7622 503.986 85.6832 498.265 81.9218 491.773C78.5915 486.023 76.0876 478.803 81.0378 474.433C88.9156 467.474 99.1977 474.835 106.269 482.791C112.379 489.673 124.669 507.974 126.02 539.287Z" fill="#5579F8"/>
<path opacity="0.3" d="M126.02 539.287L116.162 544.979H116.155C110.915 529.549 105.534 523.369 98.8509 513.221C92.7622 503.986 85.6832 498.265 81.9218 491.773C78.5915 486.023 76.0876 478.803 81.0378 474.433C88.9156 467.474 99.1977 474.835 106.269 482.791C112.379 489.673 124.669 507.974 126.02 539.287Z" fill="white"/>
<path d="M121.975 541.62L120.539 542.455C116.402 518.051 99.8266 489.815 89.5234 483.146C89.1629 482.912 89.0567 482.425 89.2974 482.057C89.5308 481.689 90.0112 481.583 90.3791 481.823C101.043 488.739 117.583 516.842 121.975 541.62Z" fill="white"/>
<defs>
<linearGradient id="paint0_linear_8122_18923" x1="284.094" y1="0" x2="284.094" y2="742.162" gradientUnits="userSpaceOnUse">
<stop stop-color="#5579F8"/>
<stop offset="1" stop-color="#999999" stop-opacity="0"/>
</linearGradient>
<linearGradient id="paint1_linear_8122_18923" x1="284.094" y1="0" x2="284.094" y2="717.695" gradientUnits="userSpaceOnUse">
<stop stop-color="#5579F8" stop-opacity="0.69"/>
<stop offset="1" stop-color="white" stop-opacity="0"/>
</linearGradient>
<linearGradient id="paint2_linear_8122_18923" x1="284.094" y1="12.4385" x2="284.094" y2="61.1558" gradientUnits="userSpaceOnUse">
<stop stop-color="#6B8BFF"/>
<stop offset="1" stop-color="#5579F8"/>
</linearGradient>
</defs>
</svg>
