<svg width="593" height="743" viewBox="0 0 593 743" fill="none" xmlns="http://www.w3.org/2000/svg">
<path d="M0.0820312 21.9728C0.0820312 9.83755 9.91961 0 22.0549 0H546.132C558.268 0 568.105 9.83758 568.105 21.9728V720.189C568.105 732.324 558.268 742.162 546.132 742.162H22.0549C9.9196 742.162 0.0820312 732.324 0.0820312 720.189V21.9728Z" fill="url(#paint0_linear_8122_18912)" fill-opacity="0.13"/>
<path d="M22.0547 1.93848H546.132C557.196 1.93848 566.166 10.9082 566.166 21.9727V720.188C566.166 731.253 557.196 740.223 546.132 740.223H22.0547C10.9903 740.223 2.02051 731.253 2.02051 720.188V21.9727C2.0206 10.9083 10.9903 1.93858 22.0547 1.93848Z" stroke="url(#paint1_linear_8122_18912)" stroke-opacity="0.5" stroke-width="3.87756"/>
<rect x="12.5205" y="12.4385" width="543.146" height="48.7173" rx="8.29231" fill="url(#paint2_linear_8122_18912)" fill-opacity="0.2"/>
<circle cx="36.0541" cy="37.0082" r="5.9125" fill="#6789FE" fill-opacity="0.5"/>
<circle cx="52.4271" cy="37.0082" r="5.9125" fill="#6789FE" fill-opacity="0.5"/>
<circle cx="68.8002" cy="37.0082" r="5.9125" fill="#6789FE" fill-opacity="0.5"/>
<path d="M524.351 589.664H300.548C296.009 589.664 292.328 585.984 292.328 581.445V375.54C292.328 371.001 296.008 367.32 300.548 367.32H524.351C528.891 367.32 532.57 371 532.57 375.54V581.444C532.571 585.983 528.891 589.664 524.351 589.664Z" fill="#C7D3FE"/>
<path d="M524.352 589.664C524.352 589.664 524.551 589.643 524.943 589.618C525.334 589.592 525.919 589.51 526.663 589.295C527.399 589.064 528.301 588.686 529.218 587.997C530.127 587.312 531.072 586.318 531.707 584.947C532.418 583.593 532.562 581.882 532.49 580.011C532.485 578.138 532.48 576.09 532.475 573.872C532.467 569.435 532.456 564.316 532.445 558.554C532.42 535.494 532.385 502.141 532.341 460.93C532.329 440.321 532.316 417.748 532.301 393.515C532.29 387.463 532.279 381.306 532.267 375.052C532.122 372.018 530.028 369.161 527.124 368.114C525.687 367.515 524.112 367.611 522.5 367.608C520.899 367.609 519.29 367.609 517.678 367.61C504.77 367.614 491.484 367.619 477.861 367.624C423.366 367.631 363.455 367.64 300.571 367.65C298.678 367.653 296.807 368.344 295.385 369.583C293.952 370.807 292.994 372.564 292.744 374.424C292.615 375.339 292.667 376.326 292.655 377.302V380.226C292.655 382.175 292.655 384.119 292.655 386.06C292.655 393.825 292.654 401.539 292.654 409.197C292.653 424.513 292.65 439.604 292.649 454.433C292.643 484.09 292.637 512.697 292.63 539.948C292.625 553.574 292.622 566.86 292.617 579.769C292.623 580.571 292.595 581.397 292.652 582.16C292.737 582.929 292.894 583.695 293.193 584.41C293.771 585.846 294.777 587.092 296.036 587.971C297.3 588.843 298.808 589.34 300.334 589.374C301.909 589.378 303.479 589.383 305.041 589.386C311.303 589.389 317.466 589.393 323.525 589.395C347.758 589.409 370.332 589.423 390.942 589.435C432.153 589.479 465.503 589.514 488.56 589.539C500.079 589.565 509.024 589.587 515.101 589.601C518.129 589.614 520.439 589.626 522.003 589.633C523.555 589.642 524.352 589.664 524.352 589.664C524.352 589.664 523.555 589.687 522 589.698C520.437 589.706 518.126 589.716 515.098 589.731C509.023 589.745 500.076 589.766 488.558 589.792C465.5 589.817 432.151 589.852 390.939 589.896C370.33 589.909 347.756 589.921 323.522 589.936C317.463 589.939 311.3 589.943 305.039 589.945C303.471 589.943 301.897 589.939 300.317 589.936C298.684 589.901 297.064 589.37 295.71 588.437C294.359 587.497 293.281 586.163 292.66 584.624C292.341 583.857 292.169 583.037 292.079 582.211C292.018 581.368 292.048 580.583 292.04 579.771C292.035 566.861 292.032 553.575 292.027 539.949C292.02 512.698 292.014 484.09 292.008 454.434C292.007 439.605 292.004 424.513 292.003 409.199C292.003 401.541 292.001 393.826 292.001 386.061C292.001 384.119 292.001 382.175 292.001 380.228V377.303C292.014 376.333 291.956 375.357 292.097 374.334C292.367 372.32 293.406 370.417 294.956 369.092C296.493 367.752 298.525 367 300.568 367C363.453 367.009 423.364 367.018 477.858 367.025C491.482 367.03 504.767 367.034 517.675 367.039C519.289 367.039 520.896 367.04 522.498 367.04C524.065 367.045 525.775 366.942 527.32 367.586C530.431 368.713 532.668 371.771 532.822 375.021C532.829 381.288 532.834 387.454 532.84 393.518C532.825 417.751 532.812 440.323 532.8 460.933C532.756 502.144 532.721 535.496 532.696 558.556C532.685 564.318 532.674 569.437 532.666 573.875C532.659 576.092 532.654 578.141 532.651 580.014C532.712 581.869 532.554 583.646 531.823 585.008C531.167 586.396 530.201 587.396 529.274 588.08C528.34 588.769 527.424 589.14 526.678 589.363C525.925 589.569 525.335 589.639 524.942 589.654C524.551 589.666 524.352 589.664 524.352 589.664Z" fill="#5579F8" fill-opacity="0.15"/>
<path d="M310.459 382.729C310.459 385.023 308.6 386.883 306.306 386.883C304.012 386.883 302.152 385.023 302.152 382.729C302.152 380.435 304.012 378.576 306.306 378.576C308.6 378.576 310.459 380.435 310.459 382.729Z" fill="white" fill-opacity="0.36"/>
<path d="M318.438 386.883C320.732 386.883 322.592 385.023 322.592 382.729C322.592 380.436 320.732 378.576 318.438 378.576C316.145 378.576 314.285 380.436 314.285 382.729C314.285 385.023 316.145 386.883 318.438 386.883Z" fill="white" fill-opacity="0.36"/>
<path d="M330.567 386.883C332.861 386.883 334.72 385.023 334.72 382.729C334.72 380.436 332.861 378.576 330.567 378.576C328.274 378.576 326.414 380.436 326.414 382.729C326.414 385.023 328.274 386.883 330.567 386.883Z" fill="white" fill-opacity="0.36"/>
<path d="M532.571 394.512C532.571 394.693 478.786 394.838 412.455 394.838C346.102 394.838 292.328 394.691 292.328 394.512C292.328 394.333 346.101 394.187 412.455 394.187C478.786 394.187 532.571 394.333 532.571 394.512Z" fill="white"/>
<path d="M446.387 478.271C446.387 478.271 446.482 478.138 446.674 477.885C446.722 477.821 446.776 477.751 446.835 477.672C446.89 477.59 446.939 477.493 446.998 477.391C447.115 477.187 447.26 476.954 447.364 476.661C447.42 476.517 447.489 476.368 447.547 476.204C447.593 476.037 447.641 475.861 447.692 475.676C447.751 475.493 447.782 475.296 447.814 475.09C447.84 474.883 447.896 474.67 447.904 474.443C448.002 473.541 447.941 472.489 447.761 471.326C447.401 468.995 446.413 466.25 444.899 463.267C443.389 460.276 441.309 457.06 438.753 453.707C436.196 450.353 433.121 446.891 429.588 443.413C426.05 439.938 422.045 436.449 417.556 433.142C415.31 431.49 412.94 429.889 410.444 428.382C407.949 426.87 405.318 425.46 402.543 424.239C399.768 423.032 396.84 421.981 393.752 421.483C392.213 421.246 390.626 421.131 389.064 421.367C388.284 421.488 387.52 421.699 386.798 422.023C386.089 422.368 385.437 422.829 384.898 423.412C384.38 424.013 383.993 424.714 383.729 425.457C383.49 426.21 383.363 426.994 383.333 427.782C383.274 429.361 383.569 430.925 383.98 432.428C384.825 435.439 386.203 438.23 387.717 440.85C389.247 443.469 390.947 445.923 392.732 448.23C394.515 450.54 396.375 452.712 398.272 454.756C402.069 458.84 405.992 462.423 409.846 465.543C413.703 468.659 417.495 471.319 421.118 473.477C424.74 475.635 428.171 477.335 431.314 478.496C434.449 479.66 437.29 480.329 439.646 480.422C440.821 480.468 441.874 480.408 442.758 480.209C442.983 480.176 443.188 480.096 443.39 480.046C443.592 479.992 443.784 479.938 443.959 479.858C444.135 479.787 444.304 479.719 444.465 479.654C444.62 479.577 444.762 479.493 444.898 479.421C445.178 479.284 445.392 479.114 445.582 478.975C445.676 478.905 445.768 478.845 445.843 478.781C445.914 478.713 445.978 478.65 446.036 478.595C446.265 478.381 446.387 478.271 446.387 478.271C446.387 478.271 446.275 478.388 446.048 478.614C445.992 478.67 445.928 478.733 445.858 478.803C445.784 478.868 445.693 478.93 445.6 479.001C445.411 479.143 445.196 479.317 444.917 479.457C444.78 479.532 444.639 479.618 444.484 479.695C444.322 479.762 444.153 479.832 443.975 479.904C443.799 479.986 443.607 480.041 443.404 480.097C443.201 480.149 442.994 480.231 442.768 480.265C441.879 480.472 440.821 480.538 439.641 480.497C437.273 480.416 434.423 479.754 431.276 478.596C428.123 477.443 424.681 475.747 421.049 473.594C417.416 471.439 413.616 468.782 409.748 465.667C405.884 462.549 401.952 458.965 398.146 454.877C396.245 452.832 394.379 450.657 392.59 448.343C390.799 446.031 389.094 443.572 387.558 440.946C386.037 438.317 384.652 435.517 383.799 432.48C383.386 430.965 383.086 429.384 383.146 427.778C383.176 426.976 383.305 426.175 383.551 425.402C383.822 424.636 384.221 423.914 384.756 423.292C385.314 422.689 385.988 422.213 386.717 421.857C387.457 421.524 388.239 421.309 389.032 421.186C390.621 420.945 392.225 421.063 393.777 421.302C396.889 421.805 399.828 422.862 402.612 424.074C405.395 425.3 408.032 426.715 410.531 428.231C413.033 429.744 415.406 431.349 417.654 433.005C422.148 436.321 426.154 439.821 429.692 443.304C433.227 446.792 436.3 450.264 438.854 453.628C441.408 456.991 443.484 460.218 444.99 463.219C446.498 466.215 447.479 468.971 447.83 471.315C448.005 472.483 448.06 473.541 447.956 474.448C447.949 474.676 447.89 474.891 447.862 475.098C447.83 475.306 447.796 475.504 447.736 475.689C447.683 475.874 447.633 476.049 447.586 476.217C447.527 476.38 447.457 476.53 447.398 476.675C447.29 476.969 447.142 477.201 447.022 477.405C446.96 477.506 446.91 477.603 446.854 477.684C446.793 477.762 446.737 477.832 446.687 477.895C446.492 478.145 446.387 478.271 446.387 478.271Z" fill="#5579F8"/>
<path d="M457.758 450.815C457.758 450.815 457.741 450.652 457.716 450.335C457.71 450.257 457.703 450.168 457.694 450.069C457.681 449.971 457.653 449.866 457.629 449.75C457.579 449.52 457.534 449.25 457.415 448.962C457.361 448.817 457.312 448.66 457.247 448.5C457.171 448.345 457.089 448.182 457.005 448.01C456.928 447.835 456.82 447.667 456.706 447.491C456.588 447.32 456.489 447.123 456.343 446.949C455.815 446.211 455.07 445.466 454.161 444.719C452.341 443.219 449.776 441.829 446.661 440.61C443.542 439.384 439.85 438.368 435.711 437.568C431.57 436.767 426.971 436.228 422.018 435.985C417.066 435.748 411.754 435.81 406.202 436.331C403.427 436.594 400.593 436.976 397.725 437.514C394.858 438.046 391.956 438.747 389.072 439.681C386.198 440.628 383.314 441.792 380.678 443.476C379.371 444.323 378.111 445.295 377.104 446.511C376.602 447.118 376.173 447.786 375.849 448.508C375.551 449.238 375.371 450.016 375.357 450.81C375.371 451.605 375.549 452.384 375.847 453.114C376.17 453.836 376.597 454.505 377.1 455.113C378.106 456.33 379.367 457.301 380.674 458.15C383.31 459.835 386.195 461 389.07 461.947C391.954 462.883 394.856 463.582 397.724 464.116C400.592 464.653 403.427 465.035 406.202 465.298C411.755 465.818 417.067 465.881 422.02 465.643C426.972 465.4 431.573 464.861 435.713 464.06C439.851 463.26 443.545 462.244 446.662 461.019C449.776 459.8 452.342 458.409 454.161 456.909C455.07 456.162 455.814 455.416 456.341 454.679C456.488 454.505 456.587 454.31 456.705 454.137C456.819 453.961 456.928 453.793 457.004 453.618C457.089 453.446 457.17 453.283 457.246 453.128C457.311 452.968 457.36 452.811 457.414 452.666C457.532 452.378 457.578 452.108 457.628 451.878C457.651 451.762 457.679 451.657 457.693 451.559C457.701 451.462 457.708 451.373 457.715 451.293C457.741 450.978 457.758 450.815 457.758 450.815C457.758 450.815 457.753 450.978 457.735 451.296C457.73 451.377 457.725 451.466 457.718 451.565C457.706 451.662 457.679 451.769 457.658 451.885C457.612 452.117 457.568 452.389 457.453 452.68C457.4 452.826 457.352 452.984 457.289 453.146C457.212 453.302 457.133 453.468 457.049 453.64C456.973 453.817 456.865 453.988 456.751 454.164C456.633 454.338 456.534 454.536 456.389 454.712C455.863 455.457 455.117 456.211 454.209 456.966C452.387 458.48 449.82 459.885 446.701 461.116C443.58 462.354 439.881 463.38 435.738 464.19C431.593 465 426.987 465.546 422.028 465.797C417.07 466.041 411.75 465.985 406.187 465.469C403.407 465.207 400.567 464.826 397.693 464.29C394.818 463.757 391.908 463.057 389.014 462.12C386.13 461.17 383.232 460.002 380.575 458.305C379.258 457.449 377.983 456.469 376.958 455.232C376.447 454.613 376.01 453.929 375.678 453.188C375.371 452.436 375.187 451.632 375.173 450.812C375.187 449.991 375.373 449.187 375.68 448.436C376.011 447.696 376.451 447.013 376.962 446.394C377.988 445.157 379.262 444.176 380.58 443.323C383.237 441.627 386.134 440.459 389.018 439.511C391.912 438.574 394.82 437.873 397.695 437.342C400.569 436.806 403.408 436.425 406.188 436.163C411.75 435.647 417.07 435.591 422.028 435.835C426.987 436.086 431.593 436.632 435.738 437.441C439.881 438.25 443.58 439.277 446.701 440.514C449.82 441.746 452.387 443.149 454.209 444.665C455.117 445.419 455.863 446.173 456.389 446.919C456.534 447.094 456.633 447.292 456.751 447.466C456.865 447.643 456.973 447.813 457.049 447.991C457.133 448.164 457.213 448.33 457.289 448.486C457.352 448.648 457.401 448.806 457.453 448.952C457.568 449.243 457.612 449.515 457.658 449.747C457.679 449.863 457.707 449.968 457.718 450.067C457.725 450.166 457.73 450.255 457.735 450.335C457.753 450.652 457.758 450.815 457.758 450.815Z" fill="#5579F8"/>
<path d="M442.688 416.643C442.688 416.643 442.549 416.557 442.284 416.383C442.217 416.339 442.142 416.29 442.061 416.236C441.975 416.187 441.875 416.145 441.77 416.093C441.558 415.992 441.316 415.863 441.016 415.779C440.868 415.732 440.714 415.675 440.547 415.628C440.378 415.595 440.199 415.558 440.011 415.519C439.826 415.473 439.625 415.456 439.417 415.439C439.209 415.427 438.992 415.385 438.766 415.394C437.859 415.359 436.812 415.491 435.666 415.751C433.366 416.271 430.695 417.446 427.822 419.161C424.943 420.874 421.877 423.172 418.71 425.952C415.54 428.733 412.297 432.04 409.071 435.804C405.848 439.573 402.643 443.809 399.653 448.516C398.161 450.87 396.726 453.344 395.394 455.94C394.058 458.534 392.834 461.255 391.806 464.108C390.794 466.959 389.947 469.952 389.663 473.067C389.532 474.619 389.527 476.21 389.871 477.751C390.043 478.519 390.308 479.268 390.681 479.965C391.075 480.649 391.581 481.268 392.198 481.765C392.835 482.24 393.559 482.577 394.319 482.79C395.087 482.977 395.878 483.049 396.666 483.024C398.245 482.974 399.786 482.573 401.257 482.06C404.203 481.009 406.892 479.441 409.401 477.751C411.908 476.045 414.239 474.18 416.417 472.24C418.6 470.302 420.638 468.296 422.546 466.264C426.36 462.194 429.664 458.034 432.51 453.973C435.353 449.91 437.745 445.945 439.649 442.181C441.552 438.42 443.012 434.878 443.954 431.664C444.898 428.455 445.371 425.576 445.301 423.218C445.267 422.043 445.134 420.997 444.873 420.129C444.826 419.907 444.732 419.708 444.668 419.51C444.6 419.312 444.533 419.124 444.442 418.955C444.358 418.783 444.279 418.619 444.203 418.464C444.117 418.315 444.023 418.179 443.941 418.048C443.786 417.778 443.6 417.577 443.449 417.396C443.372 417.307 443.306 417.221 443.237 417.151C443.164 417.084 443.098 417.024 443.039 416.971C442.806 416.756 442.688 416.643 442.688 416.643C442.688 416.643 442.814 416.747 443.054 416.956C443.114 417.009 443.182 417.068 443.256 417.133C443.326 417.203 443.394 417.288 443.471 417.377C443.625 417.557 443.815 417.757 443.974 418.026C444.058 418.158 444.153 418.292 444.242 418.442C444.32 418.599 444.401 418.763 444.486 418.935C444.579 419.104 444.648 419.293 444.718 419.491C444.784 419.69 444.88 419.889 444.93 420.112C445.197 420.986 445.336 422.035 445.376 423.216C445.457 425.584 444.994 428.473 444.056 431.692C443.123 434.917 441.669 438.468 439.769 442.24C437.87 446.013 435.481 449.988 432.639 454.061C429.794 458.13 426.49 462.3 422.674 466.379C420.763 468.416 418.724 470.427 416.538 472.37C414.355 474.317 412.02 476.188 409.505 477.9C406.987 479.598 404.29 481.173 401.319 482.233C399.836 482.75 398.28 483.157 396.674 483.209C395.872 483.234 395.062 483.16 394.274 482.968C393.493 482.75 392.745 482.403 392.087 481.911C391.447 481.397 390.925 480.757 390.521 480.054C390.137 479.338 389.868 478.573 389.691 477.79C389.342 476.221 389.349 474.614 389.481 473.049C389.768 469.909 390.62 466.905 391.637 464.045C392.669 461.183 393.899 458.456 395.239 455.857C396.576 453.257 398.015 450.78 399.511 448.423C402.511 443.711 405.725 439.473 408.957 435.703C412.193 431.937 415.446 428.632 418.626 425.852C421.805 423.073 424.882 420.779 427.772 419.071C430.656 417.36 433.34 416.191 435.652 415.68C436.805 415.424 437.857 415.296 438.769 415.338C438.997 415.33 439.214 415.373 439.425 415.387C439.634 415.405 439.834 415.424 440.021 415.472C440.209 415.512 440.388 415.549 440.558 415.586C440.725 415.633 440.88 415.694 441.028 415.741C441.329 415.828 441.571 415.96 441.783 416.066C441.888 416.12 441.988 416.163 442.073 416.213C442.155 416.27 442.229 416.32 442.295 416.365C442.557 416.547 442.688 416.643 442.688 416.643Z" fill="#5579F8"/>
<path d="M374.815 467.841C375.413 468.44 375.413 469.409 374.815 470.007C374.217 470.605 373.246 470.605 372.648 470.007C372.051 469.409 372.051 468.438 372.648 467.841C373.247 467.243 374.217 467.243 374.815 467.841Z" fill="#5579F8"/>
<path d="M461.244 420.371C461.244 421.217 460.559 421.903 459.712 421.903C458.866 421.903 458.18 421.218 458.18 420.371C458.18 419.525 458.865 418.839 459.712 418.839C460.558 418.839 461.244 419.525 461.244 420.371Z" fill="#5579F8"/>
<path d="M384.489 472.878C384.489 473.093 384.315 473.268 384.1 473.268C383.884 473.268 383.71 473.093 383.71 472.878C383.71 472.662 383.884 472.488 384.1 472.488C384.315 472.488 384.489 472.662 384.489 472.878Z" fill="#5579F8"/>
<path d="M392.799 429.952C392.799 430.168 392.625 430.342 392.409 430.342C392.194 430.342 392.02 430.168 392.02 429.952C392.02 429.737 392.194 429.562 392.409 429.562C392.625 429.562 392.799 429.737 392.799 429.952Z" fill="#5579F8"/>
<path d="M453.55 450.816C453.55 451.032 453.376 451.206 453.16 451.206C452.945 451.206 452.771 451.032 452.771 450.816C452.771 450.601 452.945 450.427 453.16 450.427C453.376 450.428 453.55 450.602 453.55 450.816Z" fill="#5579F8"/>
<path d="M458.959 432.666C458.959 432.881 458.785 433.056 458.569 433.056C458.354 433.056 458.18 432.881 458.18 432.666C458.18 432.451 458.354 432.276 458.569 432.276C458.785 432.276 458.959 432.451 458.959 432.666Z" fill="#5579F8"/>
<path d="M432.724 459.376H430.79C429.199 459.376 427.909 458.087 427.909 456.496V433.173C427.909 427.005 422.892 421.988 416.724 421.988C410.556 421.988 405.538 427.005 405.538 433.173V456.969C405.538 458.299 404.461 459.376 403.131 459.376C401.801 459.376 400.724 458.299 400.724 456.969V433.173C400.724 424.35 407.901 417.173 416.723 417.173C425.544 417.173 432.723 424.35 432.723 433.173V459.375C432.723 459.376 432.723 459.376 432.724 459.376Z" fill="url(#paint3_linear_8122_18912)"/>
<path d="M435.021 475.206H397.54C395.982 475.206 394.719 473.943 394.719 472.384V450.36C394.719 448.802 395.982 447.539 397.54 447.539H435.021C436.579 447.539 437.842 448.802 437.842 450.36V472.384C437.842 473.942 436.579 475.206 435.021 475.206Z" fill="#5579F8"/>
<g opacity="0.3">
<path d="M420.327 457.947C420.327 455.956 418.713 454.343 416.723 454.343C414.732 454.343 413.118 455.956 413.118 457.947C413.118 459.595 414.229 460.969 415.739 461.399V466.787H417.706V461.399C419.216 460.969 420.327 459.595 420.327 457.947Z" fill="black"/>
</g>
<path d="M397.461 472.763C397.362 472.763 397.282 468.148 397.282 462.458C397.282 456.766 397.362 452.153 397.461 452.153C397.56 452.153 397.641 456.766 397.641 462.458C397.639 468.148 397.559 472.763 397.461 472.763Z" fill="#FAFAFA"/>
<path d="M413.902 462.569C413.891 462.587 413.733 462.513 413.48 462.33C413.226 462.148 412.888 461.836 412.551 461.383C411.878 460.501 411.264 458.9 411.662 457.171C412.081 455.446 413.349 454.29 414.345 453.803C414.848 453.549 415.291 453.422 415.6 453.373C415.909 453.323 416.082 453.328 416.085 453.348C416.1 453.416 415.401 453.481 414.466 454.025C413.545 454.545 412.396 455.659 412.011 457.252C411.641 458.848 412.168 460.361 412.758 461.238C413.351 462.145 413.946 462.515 413.902 462.569Z" fill="#FAFAFA"/>
<path d="M480.747 523.88H347.97C341.523 523.88 336.297 518.655 336.297 512.208V510.77C336.297 504.323 341.523 499.098 347.97 499.098H480.747C487.194 499.098 492.42 504.323 492.42 510.77V512.208C492.42 518.653 487.194 523.88 480.747 523.88Z" fill="url(#paint4_linear_8122_18912)"/>
<path d="M481.897 557.862H349.12C342.673 557.862 337.447 552.636 337.447 546.189V544.752C337.447 538.305 342.673 533.079 349.12 533.079H481.897C488.345 533.079 493.57 538.305 493.57 544.752V546.189C493.57 552.636 488.343 557.862 481.897 557.862Z" fill="url(#paint5_linear_8122_18912)"/>
<path d="M360.972 511.294V507.704H362.456V511.238C362.456 512.456 362.988 512.96 363.885 512.96C364.792 512.96 365.314 512.456 365.314 511.238V507.704H366.779V511.294C366.779 513.179 365.699 514.224 363.877 514.224C362.053 514.224 360.972 513.18 360.972 511.294Z" fill="white"/>
<path d="M367.667 513.655L368.143 512.629C368.583 512.913 369.251 513.105 369.854 513.105C370.513 513.105 370.762 512.931 370.762 512.657C370.762 511.851 367.786 512.675 367.786 510.706C367.786 509.771 368.629 509.112 370.066 509.112C370.743 509.112 371.494 509.268 371.962 509.543L371.486 510.559C371 510.285 370.515 510.194 370.066 510.194C369.425 510.194 369.15 510.395 369.15 510.652C369.15 511.494 372.127 510.68 372.127 512.62C372.127 513.536 371.275 514.186 369.802 514.186C368.966 514.186 368.124 513.957 367.667 513.655Z" fill="white"/>
<path d="M377.804 512.054H374.077C374.214 512.668 374.735 513.043 375.487 513.043C376.009 513.043 376.385 512.888 376.723 512.567L377.482 513.391C377.025 513.914 376.337 514.188 375.449 514.188C373.746 514.188 372.638 513.117 372.638 511.651C372.638 510.176 373.764 509.115 375.267 509.115C376.713 509.115 377.831 510.086 377.831 511.67C377.832 511.78 377.813 511.935 377.804 512.054ZM374.06 511.221H376.486C376.386 510.599 375.919 510.195 375.277 510.195C374.627 510.195 374.16 510.589 374.06 511.221Z" fill="white"/>
<path d="M381.843 509.115V510.434C381.722 510.426 381.632 510.416 381.522 510.416C380.734 510.416 380.211 510.845 380.211 511.789V514.114H378.783V509.188H380.148V509.838C380.495 509.362 381.081 509.115 381.843 509.115Z" fill="white"/>
<path d="M387.731 511.292V514.112H386.303V511.512C386.303 510.715 385.935 510.349 385.304 510.349C384.617 510.349 384.123 510.77 384.123 511.677V514.112H382.694V509.186H384.059V509.763C384.443 509.342 385.021 509.112 385.689 509.112C386.853 509.114 387.731 509.791 387.731 511.292Z" fill="white"/>
<path d="M393.381 511.304V514.115H392.046V513.501C391.78 513.95 391.268 514.188 390.544 514.188C389.39 514.188 388.703 513.547 388.703 512.696C388.703 511.826 389.316 511.221 390.818 511.221H391.953C391.953 510.607 391.586 510.25 390.818 510.25C390.295 510.25 389.756 510.424 389.398 510.709L388.886 509.71C389.426 509.326 390.222 509.115 391.01 509.115C392.511 509.115 393.381 509.811 393.381 511.304ZM391.953 512.558V512.054H390.973C390.306 512.054 390.095 512.301 390.095 512.631C390.095 512.988 390.397 513.226 390.901 513.226C391.375 513.226 391.788 513.007 391.953 512.558Z" fill="white"/>
<path d="M402.994 511.292V514.112H401.566V511.512C401.566 510.715 401.209 510.349 400.631 510.349C399.99 510.349 399.542 510.761 399.542 511.639V514.112H398.113V511.512C398.113 510.715 397.773 510.349 397.179 510.349C396.547 510.349 396.098 510.761 396.098 511.639V514.112H394.67V509.186H396.034V509.754C396.4 509.333 396.949 509.112 397.582 509.112C398.268 509.112 398.854 509.378 399.203 509.918C399.596 509.414 400.236 509.112 400.979 509.112C402.152 509.114 402.994 509.791 402.994 511.292Z" fill="white"/>
<path d="M409.13 512.054H405.403C405.54 512.668 406.061 513.043 406.813 513.043C407.335 513.043 407.711 512.888 408.049 512.567L408.808 513.391C408.351 513.914 407.663 514.188 406.775 514.188C405.072 514.188 403.965 513.117 403.965 511.651C403.965 510.176 405.09 509.115 406.593 509.115C408.039 509.115 409.157 510.086 409.157 511.67C409.157 511.78 409.139 511.935 409.13 512.054ZM405.386 511.221H407.811C407.711 510.599 407.244 510.195 406.602 510.195C405.953 510.195 405.486 510.589 405.386 511.221Z" fill="white"/>
<path d="M418.571 511.604C418.571 513.243 417.821 514.178 416.695 514.178C416.072 514.178 415.632 513.903 415.44 513.381C415.12 513.894 414.597 514.178 413.874 514.178C412.693 514.178 411.758 513.243 411.758 511.861C411.758 510.487 412.683 509.553 413.874 509.553C414.478 509.553 414.954 509.764 415.285 510.157V509.616H416.529V512.583C416.529 513.022 416.722 513.169 416.97 513.169C417.391 513.169 417.648 512.684 417.648 511.622C417.648 509.764 416.274 508.481 414.24 508.481C412.198 508.481 410.834 509.873 410.834 511.787C410.834 513.738 412.171 515.121 414.204 515.121C414.781 515.121 415.43 515.002 416.008 514.718L416.3 515.559C415.742 515.844 414.927 515.999 414.203 515.999C411.557 515.999 409.808 514.204 409.808 511.787C409.808 509.397 411.574 507.611 414.239 507.611C416.814 507.611 418.571 509.305 418.571 511.604ZM415.304 511.861C415.304 511.064 414.818 510.616 414.159 510.616C413.491 510.616 413.024 511.083 413.024 511.861C413.024 512.648 413.491 513.124 414.159 513.124C414.818 513.124 415.304 512.667 415.304 511.861Z" fill="white"/>
<path d="M427.912 511.292V514.112H426.484V511.512C426.484 510.715 426.127 510.349 425.549 510.349C424.907 510.349 424.46 510.761 424.46 511.639V514.112H423.031V511.512C423.031 510.715 422.691 510.349 422.097 510.349C421.465 510.349 421.016 510.761 421.016 511.639V514.112H419.588V509.186H420.952V509.754C421.318 509.333 421.867 509.112 422.5 509.112C423.186 509.112 423.772 509.378 424.121 509.918C424.514 509.414 425.154 509.112 425.897 509.112C427.07 509.114 427.912 509.791 427.912 511.292Z" fill="white"/>
<path d="M433.553 511.304V514.115H432.218V513.501C431.952 513.95 431.44 514.188 430.715 514.188C429.562 514.188 428.875 513.547 428.875 512.696C428.875 511.826 429.488 511.221 430.99 511.221H432.125C432.125 510.607 431.759 510.25 430.99 510.25C430.467 510.25 429.927 510.424 429.57 510.709L429.058 509.71C429.598 509.326 430.393 509.115 431.182 509.115C432.684 509.115 433.553 509.811 433.553 511.304ZM432.125 512.558V512.054H431.145C430.477 512.054 430.267 512.301 430.267 512.631C430.267 512.988 430.569 513.226 431.073 513.226C431.547 513.226 431.96 513.007 432.125 512.558Z" fill="white"/>
<path d="M434.674 507.704C434.674 507.256 435.031 506.907 435.562 506.907C436.093 506.907 436.45 507.237 436.45 507.676C436.45 508.153 436.093 508.501 435.562 508.501C435.031 508.501 434.674 508.153 434.674 507.704ZM434.847 509.187H436.275V514.114H434.847V509.187Z" fill="white"/>
<path d="M437.602 507.318H439.03V514.113H437.602V507.318Z" fill="white"/>
<path d="M440.008 513.289C440.008 512.757 440.401 512.409 440.896 512.409C441.392 512.409 441.784 512.757 441.784 513.289C441.784 513.81 441.391 514.186 440.896 514.186C440.402 514.186 440.008 513.81 440.008 513.289Z" fill="white"/>
<path d="M442.324 511.651C442.324 510.168 443.469 509.115 445.072 509.115C446.107 509.115 446.922 509.564 447.279 510.369L446.17 510.964C445.905 510.497 445.511 510.287 445.062 510.287C444.339 510.287 443.771 510.79 443.771 511.651C443.771 512.512 444.339 513.015 445.062 513.015C445.51 513.015 445.905 512.814 446.17 512.338L447.279 512.941C446.922 513.728 446.107 514.187 445.072 514.187C443.469 514.188 442.324 513.134 442.324 511.651Z" fill="white"/>
<path d="M447.674 511.651C447.674 510.168 448.818 509.115 450.384 509.115C451.95 509.115 453.085 510.168 453.085 511.651C453.085 513.134 451.95 514.188 450.384 514.188C448.818 514.188 447.674 513.134 447.674 511.651ZM451.639 511.651C451.639 510.799 451.099 510.287 450.385 510.287C449.671 510.287 449.121 510.799 449.121 511.651C449.121 512.503 449.671 513.015 450.385 513.015C451.099 513.015 451.639 512.503 451.639 511.651Z" fill="white"/>
<path d="M462.363 511.292V514.112H460.935V511.512C460.935 510.715 460.578 510.349 460 510.349C459.359 510.349 458.911 510.761 458.911 511.639V514.112H457.482V511.512C457.482 510.715 457.142 510.349 456.549 510.349C455.916 510.349 455.467 510.761 455.467 511.639V514.112H454.039V509.186H455.403V509.754C455.769 509.333 456.318 509.112 456.951 509.112C457.637 509.112 458.224 509.378 458.572 509.918C458.964 509.414 459.606 509.112 460.348 509.112C461.521 509.114 462.363 509.791 462.363 511.292Z" fill="white"/>
<path d="M380.107 545.604L382.426 546.859L381.383 548.605L379.043 547.221L379.086 549.796H377.085L377.107 547.2L374.767 548.605L373.746 546.859L376.065 545.604L373.746 544.327L374.767 542.582L377.107 543.987L377.085 541.391H379.086L379.043 543.987L381.383 542.582L382.426 544.327L380.107 545.604Z" fill="white"/>
<path d="M389.761 545.604L392.08 546.859L391.038 548.605L388.697 547.221L388.74 549.796H386.739L386.762 547.2L384.421 548.605L383.4 546.859L385.721 545.604L383.4 544.327L384.421 542.582L386.762 543.987L386.739 541.391H388.74L388.697 543.987L391.038 542.582L392.08 544.327L389.761 545.604Z" fill="white"/>
<path d="M399.416 545.604L401.735 546.859L400.693 548.605L398.353 547.221L398.395 549.796H396.395L396.417 547.2L394.077 548.605L393.056 546.859L395.376 545.604L393.056 544.327L394.077 542.582L396.417 543.987L396.395 541.391H398.395L398.353 543.987L400.693 542.582L401.735 544.327L399.416 545.604Z" fill="white"/>
<path d="M409.072 545.604L411.391 546.859L410.348 548.605L408.008 547.221L408.051 549.796H406.05L406.072 547.2L403.732 548.605L402.711 546.859L405.031 545.604L402.711 544.327L403.732 542.582L406.072 543.987L406.05 541.391H408.051L408.008 543.987L410.348 542.582L411.391 544.327L409.072 545.604Z" fill="white"/>
<path d="M418.729 545.604L421.048 546.859L420.006 548.605L417.665 547.221L417.708 549.796H415.707L415.73 547.2L413.389 548.605L412.368 546.859L414.688 545.604L412.368 544.327L413.389 542.582L415.73 543.987L415.707 541.391H417.708L417.665 543.987L420.006 542.582L421.048 544.327L418.729 545.604Z" fill="white"/>
<path d="M428.382 545.604L430.702 546.859L429.659 548.605L427.319 547.221L427.361 549.796H425.361L425.382 547.2L423.042 548.605L422.021 546.859L424.341 545.604L422.021 544.327L423.042 542.582L425.382 543.987L425.361 541.391H427.361L427.319 543.987L429.659 542.582L430.702 544.327L428.382 545.604Z" fill="white"/>
<path d="M438.038 545.604L440.358 546.859L439.315 548.605L436.975 547.221L437.017 549.796H435.017L435.039 547.2L432.699 548.605L431.678 546.859L433.998 545.604L431.678 544.327L432.699 542.582L435.039 543.987L435.017 541.391H437.017L436.975 543.987L439.315 542.582L440.358 544.327L438.038 545.604Z" fill="white"/>
<path d="M447.695 545.604L450.013 546.859L448.97 548.605L446.63 547.221L446.673 549.796H444.672L444.694 547.2L442.354 548.605L441.333 546.859L443.653 545.604L441.333 544.327L442.354 542.582L444.694 543.987L444.672 541.391H446.673L446.63 543.987L448.97 542.582L450.013 544.327L447.695 545.604Z" fill="white"/>
<path d="M582.155 256.629H354.658C349.282 256.629 344.922 252.269 344.922 246.893V129.134C344.922 123.757 349.28 119.397 354.658 119.397H582.155C587.532 119.397 591.892 123.757 591.892 129.134V246.893C591.892 252.271 587.532 256.629 582.155 256.629Z" fill="#C7D3FE"/>
<path d="M582.156 256.629C582.153 256.586 582.82 256.641 584.076 256.397C585.303 256.126 587.198 255.488 588.978 253.727C589.853 252.847 590.659 251.678 591.184 250.24C591.469 249.529 591.617 248.736 591.729 247.91C591.791 247.081 591.779 246.201 591.774 245.285C591.764 241.621 591.752 237.399 591.738 232.646C591.707 213.613 591.665 186.097 591.611 152.1C591.607 147.849 591.602 143.498 591.597 139.048C591.596 136.824 591.593 134.574 591.591 132.301C591.536 130.025 591.831 127.697 590.9 125.616C590.059 123.532 588.436 121.749 586.386 120.722C585.364 120.206 584.242 119.878 583.093 119.76C581.957 119.675 580.719 119.731 579.525 119.716C574.701 119.719 569.789 119.724 564.791 119.727C544.796 119.737 523.433 119.751 500.953 119.763C455.991 119.772 406.561 119.783 354.677 119.794C353.118 119.801 351.573 120.195 350.204 120.923C348.854 121.684 347.667 122.748 346.832 124.05C346.007 125.352 345.456 126.845 345.359 128.388C345.282 129.93 345.337 131.582 345.32 133.17C345.32 139.577 345.319 145.941 345.319 152.259C345.317 164.896 345.314 177.347 345.313 189.582C345.31 201.816 345.307 213.835 345.302 225.604C345.301 231.489 345.298 237.311 345.296 243.068C345.307 244.499 345.272 245.961 345.317 247.355C345.381 248.73 345.752 250.083 346.392 251.292C347.677 253.716 350.057 255.493 352.706 256.053C354.014 256.361 355.411 256.233 356.818 256.262C358.215 256.262 359.607 256.264 360.995 256.264C363.77 256.265 366.527 256.267 369.266 256.268C374.743 256.271 380.147 256.274 385.472 256.278C396.123 256.285 406.464 256.291 416.461 256.297C436.456 256.316 455.08 256.331 472.084 256.346C506.081 256.4 533.594 256.442 552.626 256.473C562.124 256.505 569.502 256.531 574.523 256.548C577.016 256.564 578.919 256.578 580.217 256.587C581.499 256.603 582.156 256.629 582.156 256.629C582.156 256.629 581.499 256.656 580.215 256.67C578.918 256.679 577.013 256.691 574.521 256.71C569.5 256.726 562.123 256.752 552.624 256.784C533.593 256.815 506.079 256.858 472.083 256.911C455.079 256.926 436.455 256.942 416.46 256.96C406.462 256.966 396.121 256.972 385.47 256.98C380.144 256.983 374.742 256.986 369.265 256.989C366.526 256.99 363.769 256.992 360.994 256.993C359.606 256.993 358.214 256.995 356.817 256.995C355.44 256.966 354.002 257.105 352.553 256.774C349.696 256.171 347.128 254.258 345.739 251.643C345.047 250.338 344.646 248.875 344.575 247.393C344.525 245.927 344.56 244.517 344.549 243.07C344.548 237.313 344.545 231.489 344.543 225.606C344.54 213.836 344.537 201.817 344.534 189.584C344.533 177.35 344.53 164.898 344.528 152.261C344.528 145.942 344.527 139.578 344.527 133.171C344.545 131.556 344.485 129.996 344.566 128.327C344.673 126.656 345.269 125.03 346.165 123.618C347.073 122.204 348.358 121.049 349.824 120.226C351.309 119.435 352.991 119.008 354.677 119C406.56 119.011 455.99 119.021 500.953 119.031C523.433 119.043 544.796 119.055 564.791 119.067C569.789 119.07 574.703 119.075 579.525 119.078C580.742 119.096 581.907 119.038 583.156 119.131C584.383 119.258 585.58 119.611 586.668 120.163C588.853 121.262 590.578 123.164 591.469 125.386C591.924 126.494 592.162 127.682 592.182 128.865C592.185 130.016 592.188 131.161 592.193 132.299C592.191 134.572 592.188 136.821 592.187 139.047C592.182 143.497 592.177 147.849 592.173 152.099C592.119 186.095 592.077 213.612 592.046 232.645C592.032 237.397 592.02 241.621 592.01 245.283C592.008 246.198 592.016 247.077 591.944 247.932C591.823 248.776 591.665 249.584 591.368 250.307C590.82 251.77 589.988 252.954 589.089 253.838C587.262 255.61 585.332 256.227 584.091 256.474C583.453 256.574 582.971 256.63 582.644 256.622C582.32 256.635 582.156 256.629 582.156 256.629Z" fill="#5579F8" fill-opacity="0.3"/>
<path d="M430.968 167.888V169.603H423.822V160.373H430.796V162.087H425.944V164.092H430.229V165.754H425.944V167.888H430.968Z" fill="#1A1C20"/>
<path d="M441.136 160.373V169.603H439.383L434.781 163.999V169.603H432.671V160.373H434.437L439.026 165.977V160.373H441.136Z" fill="#1A1C20"/>
<path d="M445.239 162.113H442.285V160.371H450.329V162.113H447.375V169.601H445.239V162.113Z" fill="#1A1C20"/>
<path d="M458.621 167.888V169.603H451.476V160.373H458.449V162.087H453.597V164.092H457.883V165.754H453.597V167.888H458.621Z" fill="#1A1C20"/>
<path d="M466.204 169.603L464.424 167.03H464.32H462.461V169.603H460.325V160.373H464.32C466.784 160.373 468.327 161.652 468.327 163.722C468.327 165.105 467.628 166.121 466.43 166.635L468.498 169.601H466.204V169.603ZM464.201 162.113H462.461V165.33H464.201C465.506 165.33 466.166 164.722 466.166 163.721C466.166 162.707 465.506 162.113 464.201 162.113Z" fill="#1A1C20"/>
<path d="M473.168 164.987C473.168 162.206 475.304 160.214 478.178 160.214C479.773 160.214 481.105 160.794 481.975 161.849L480.604 163.114C479.984 162.401 479.206 162.034 478.282 162.034C476.555 162.034 475.328 163.246 475.328 164.987C475.328 166.728 476.555 167.941 478.282 167.941C479.204 167.941 479.983 167.572 480.604 166.847L481.975 168.112C481.105 169.179 479.773 169.759 478.164 169.759C475.304 169.759 473.168 167.769 473.168 164.987Z" fill="#1A1C20"/>
<path d="M482.638 164.987C482.638 162.244 484.773 160.214 487.688 160.214C490.588 160.214 492.737 162.23 492.737 164.987C492.737 167.743 490.59 169.759 487.688 169.759C484.773 169.759 482.638 167.729 482.638 164.987ZM490.574 164.987C490.574 163.233 489.336 162.034 487.686 162.034C486.039 162.034 484.798 163.232 484.798 164.987C484.798 166.74 486.039 167.941 487.686 167.941C489.336 167.941 490.574 166.741 490.574 164.987Z" fill="#1A1C20"/>
<path d="M494.351 160.373H498.543C501.562 160.373 503.632 162.193 503.632 164.988C503.632 167.783 501.564 169.601 498.543 169.601H494.351V160.373ZM498.439 167.849C500.271 167.849 501.47 166.754 501.47 164.988C501.47 163.222 500.271 162.127 498.439 162.127H496.488V167.849H498.439Z" fill="#1A1C20"/>
<path d="M512.388 167.888V169.603H505.242V160.373H512.216V162.087H507.364V164.092H511.649V165.754H507.364V167.888H512.388Z" fill="#1A1C20"/>
<path d="M395.951 231.315H373.535C370.202 231.315 367.502 228.614 367.502 225.282V190.371C367.502 187.038 370.202 184.338 373.535 184.338H395.951C399.283 184.338 401.984 187.04 401.984 190.371V225.282C401.984 228.613 399.282 231.315 395.951 231.315Z" fill="url(#paint6_linear_8122_18912)"/>
<path d="M439.01 231.315H416.594C413.261 231.315 410.561 228.614 410.561 225.282V190.371C410.561 187.038 413.261 184.338 416.594 184.338H439.01C442.342 184.338 445.042 187.04 445.042 190.371V225.282C445.042 228.613 442.342 231.315 439.01 231.315Z" fill="url(#paint7_linear_8122_18912)"/>
<path d="M482.07 231.315H459.655C456.323 231.315 453.622 228.614 453.622 225.282V190.371C453.622 187.038 456.324 184.338 459.655 184.338H482.07C485.402 184.338 488.103 187.04 488.103 190.371V225.282C488.104 228.613 485.402 231.315 482.07 231.315Z" fill="url(#paint8_linear_8122_18912)"/>
<path d="M525.132 231.315H502.716C499.383 231.315 496.683 228.614 496.683 225.282V190.371C496.683 187.038 499.385 184.338 502.716 184.338H525.132C528.464 184.338 531.165 187.04 531.165 190.371V225.282C531.165 228.613 528.464 231.315 525.132 231.315Z" fill="url(#paint9_linear_8122_18912)"/>
<path d="M568.191 231.315H545.775C542.443 231.315 539.742 228.614 539.742 225.282V190.371C539.742 187.038 542.443 184.338 545.775 184.338H568.191C571.524 184.338 574.224 187.04 574.224 190.371V225.282C574.226 228.613 571.524 231.315 568.191 231.315Z" fill="url(#paint10_linear_8122_18912)"/>
<path d="M392.255 211.456C392.255 214.81 389.661 216.986 386.149 216.986C381.328 216.986 378.786 213.526 378.786 207.788C378.786 201.578 382.088 198.38 386.936 198.38C388.507 198.38 389.976 198.642 391.102 199.323L390.551 200.398C389.609 199.795 388.324 199.558 386.936 199.558C382.822 199.558 380.122 202.259 380.122 207.577C380.122 208.127 380.149 208.941 380.281 209.779C381.041 207.368 383.346 206.005 386.124 206.005C389.793 206.005 392.255 208.154 392.255 211.456ZM390.918 211.481C390.918 208.861 389.032 207.158 385.94 207.158C382.925 207.158 380.855 209.07 380.855 211.534C380.855 213.682 382.664 215.83 386.097 215.83C388.953 215.832 390.918 214.129 390.918 211.481Z" fill="white"/>
<path d="M434.851 211.768H430.999V216.852H429.689V211.768H419.232V210.797L429.19 198.507H430.683L420.91 210.588H429.715V206.106H430.999V210.588H434.851V211.768Z" fill="white"/>
<path d="M479.261 219.456C479.261 219.675 475.683 219.852 471.271 219.852C466.856 219.852 463.279 219.674 463.279 219.456C463.279 219.236 466.856 219.059 471.271 219.059C475.683 219.059 479.261 219.237 479.261 219.456Z" fill="white"/>
<path d="M361.218 137.474C363.283 137.474 364.957 135.8 364.957 133.736C364.957 131.671 363.283 129.997 361.218 129.997C359.153 129.997 357.479 131.671 357.479 133.736C357.479 135.8 359.153 137.474 361.218 137.474Z" fill="#5579F8" fill-opacity="0.2"/>
<path d="M375.735 133.736C375.735 135.801 374.062 137.474 371.996 137.474C369.931 137.474 368.258 135.8 368.258 133.736C368.258 131.672 369.931 129.997 371.996 129.997C374.062 129.997 375.735 131.67 375.735 133.736Z" fill="#5579F8" fill-opacity="0.2"/>
<path d="M382.575 137.474C384.64 137.474 386.314 135.8 386.314 133.736C386.314 131.671 384.64 129.997 382.575 129.997C380.511 129.997 378.837 131.671 378.837 133.736C378.837 135.8 380.511 137.474 382.575 137.474Z" fill="#5579F8" fill-opacity="0.2"/>
<path d="M592.262 143.628C592.262 143.848 536.967 144.025 468.772 144.025C400.555 144.025 345.271 143.847 345.271 143.628C345.271 143.409 400.553 143.231 468.772 143.231C536.967 143.23 592.262 143.409 592.262 143.628Z" fill="#5579F8" fill-opacity="0.3"/>
<path d="M66.6059 659.49H56.3821L52.5908 613.468H64.6304L66.6059 659.49Z" fill="#263238"/>
<path d="M155.21 659.49H165.435L169.225 613.468H157.186L155.21 659.49Z" fill="#263238"/>
<path d="M176.413 616.956C176.321 618.281 175.234 619.318 173.906 619.35L47.1692 622.325C45.7723 622.357 44.6045 621.269 44.5388 619.873L40.6522 537.387C40.2605 529.065 46.9021 522.103 55.2337 522.103H167.352C175.812 522.103 182.5 529.272 181.914 537.711L176.413 616.956Z" fill="url(#paint11_linear_8122_18912)"/>
<path d="M182.998 537.096C182.998 537.107 182.874 537.117 182.631 537.128C182.355 537.136 182 537.147 181.551 537.16C180.564 537.175 179.174 537.196 177.404 537.223C173.762 537.237 168.56 537.255 162.149 537.278C149.269 537.3 131.473 537.155 111.832 537.61C92.1805 538.264 74.3707 538.152 61.493 537.956C55.0524 537.855 49.8417 537.729 46.2412 537.621C44.4723 537.56 43.0837 537.512 42.0959 537.479C41.6483 537.457 41.2931 537.44 41.0179 537.427C40.7747 537.412 40.6514 537.398 40.6514 537.388C40.6514 537.377 40.7758 537.369 41.0191 537.365C41.2943 537.364 41.6506 537.361 42.0982 537.358C43.086 537.365 44.4757 537.375 46.2458 537.388C49.8874 537.423 55.0878 537.472 61.4976 537.534C74.3776 537.622 92.1691 537.666 111.817 537.014C131.474 536.559 149.271 536.77 162.15 536.856C168.561 536.911 173.761 536.958 177.404 536.989C179.174 537.01 180.564 537.027 181.551 537.038C181.999 537.05 182.355 537.058 182.631 537.064C182.874 537.076 182.998 537.086 182.998 537.096Z" fill="#263238"/>
<path d="M88.6515 523.432C88.6881 523.631 84.528 523.702 80.1075 525.996C75.6539 528.23 73.1565 531.556 73.0172 531.41C72.9646 531.371 73.5036 530.495 74.6467 529.296C75.783 528.097 77.5781 526.624 79.838 525.466C82.1013 524.316 84.3464 523.727 85.984 523.511C87.6249 523.29 88.6515 523.367 88.6515 523.432Z" fill="#263238"/>
<path d="M142.778 368.894L158.865 398.279L182.431 385.099L193.89 388.881C193.89 388.881 164.978 420.229 160.287 421.825C155.597 423.421 146.714 423.713 141.635 417.358C137.01 411.571 123.551 381.187 123.551 381.187L142.778 368.894Z" fill="#FFBE9D"/>
<path d="M209.005 349.71C208.586 349.192 207.927 348.931 207.267 349.022L196.06 350.563C195.077 350.715 194.206 351.278 193.663 352.112L170.392 387.88L172.181 388.88L184.572 388.491L209.357 350.149L209.005 349.71Z" fill="#191B1F"/>
<path d="M201.073 354.357C201.312 354.567 201.732 354.478 202.012 354.159C202.29 353.84 202.323 353.412 202.085 353.203C201.846 352.994 201.426 353.082 201.146 353.401C200.866 353.719 200.834 354.148 201.073 354.357Z" fill="white"/>
<path d="M209.357 350.146C209.363 350.193 208.591 350.343 207.191 350.575C205.675 350.809 203.673 351.119 201.251 351.494C199.985 351.68 198.612 351.881 197.146 352.097C196.44 352.161 195.815 352.525 195.414 353.117C194.983 353.785 194.541 354.47 194.088 355.172C192.255 357.998 190.25 361.089 188.145 364.333C183.912 370.824 180.049 376.678 177.224 380.897C175.848 382.927 174.71 384.605 173.849 385.875C173.04 387.042 172.574 387.675 172.535 387.649C172.496 387.624 172.888 386.942 173.629 385.731C174.444 384.431 175.521 382.714 176.824 380.636C179.546 376.351 183.347 370.455 187.58 363.964C189.701 360.73 191.721 357.649 193.567 354.832C194.031 354.132 194.483 353.448 194.924 352.781C195.415 352.047 196.275 351.597 197.056 351.543C198.528 351.357 199.907 351.182 201.178 351.021C203.615 350.732 205.63 350.494 207.154 350.313C208.567 350.164 209.35 350.101 209.357 350.146Z" fill="#455A64"/>
<path d="M196.927 362.933C196.927 362.933 195.928 362.753 195.381 365.486C194.834 368.219 193.073 376.056 193.073 376.056L187.839 373.275L181.293 374.128C181.293 374.128 179.864 375.448 180.911 376.165C181.96 376.881 186.098 377.621 186.098 377.621L189.15 382.01L180.391 377.787C180.391 377.787 177.468 378.549 178.324 380.332C179.18 382.116 185.086 387.697 185.086 387.697L180.698 387.364L175.479 384.196C175.479 384.196 173.878 384.269 174.475 385.632C175.072 386.996 180.499 391.923 180.499 391.923L187.08 395.116C187.08 395.116 190.673 394.834 191.017 393.779C191.362 392.724 191.45 391.219 191.45 391.219C191.45 391.219 193.357 390.705 193.714 389.78C194.07 388.855 193.84 387.392 193.84 387.392C193.84 387.392 196.833 387.917 197.206 386.249C197.578 384.58 197.265 381.293 196.964 380.009C196.662 378.726 198.24 366.795 198.117 366.435C197.994 366.073 198.803 362.143 196.927 362.933Z" fill="#FFBE9D"/>
<path d="M191.247 393.793C191.268 393.871 190.632 394.151 189.53 394.327C188.432 394.506 186.86 394.523 185.193 394.129C183.526 393.73 182.131 393.006 181.232 392.351C180.326 391.698 179.884 391.161 179.939 391.102C180.064 390.933 182.148 392.738 185.35 393.473C188.536 394.259 191.211 393.586 191.247 393.793Z" fill="#EB996E"/>
<path d="M189.688 391.432C189.586 391.584 188.42 390.973 187.175 389.951C185.928 388.93 185.1 387.907 185.229 387.777C185.362 387.642 186.381 388.431 187.602 389.43C188.822 390.431 189.795 391.276 189.688 391.432Z" fill="#EB996E"/>
<path d="M193.149 385.754C193.05 385.905 191.892 385.309 190.725 384.228C189.555 383.15 188.868 382.043 189.012 381.933C189.161 381.814 190.055 382.695 191.183 383.733C192.307 384.775 193.257 385.596 193.149 385.754Z" fill="#EB996E"/>
<path d="M196.79 381.18C196.611 381.256 195.95 380.021 194.906 378.675C193.874 377.321 192.851 376.365 192.969 376.211C193.071 376.065 194.344 376.83 195.441 378.264C196.546 379.693 196.958 381.119 196.79 381.18Z" fill="#EB996E"/>
<path d="M201.241 592.968C201.28 592.966 201.318 592.579 201.209 591.886C201.096 591.199 200.814 590.196 200.115 589.132C199.936 588.872 199.758 588.592 199.463 588.337C199.185 588.083 198.703 587.889 198.238 588.06C198.007 588.134 197.777 588.346 197.697 588.605C197.61 588.868 197.653 589.128 197.722 589.339C197.874 589.775 198.101 590.086 198.292 590.445C198.717 591.159 199.067 591.871 199.61 592.676C199.884 593.088 200.5 593.427 201.063 593.33C201.617 593.259 202.065 592.992 202.468 592.708C203.25 592.14 203.939 591.494 204.531 590.807C204.827 590.463 205.098 590.108 205.344 589.748C205.577 589.392 205.851 589.029 205.955 588.532C206.06 588.053 205.879 587.424 205.335 587.206C204.784 587.007 204.335 587.284 204.028 587.502C203.404 588.019 203.03 588.55 202.649 589.063C201.924 590.088 201.525 591.028 201.299 591.685C201.077 592.346 201.024 592.728 201.063 592.739C201.175 592.786 201.546 591.261 203.017 589.336C203.383 588.879 203.836 588.324 204.342 587.937C204.6 587.752 204.923 587.633 205.118 587.732C205.325 587.807 205.439 588.116 205.372 588.414C205.308 588.723 205.076 589.053 204.836 589.396C204.598 589.734 204.336 590.068 204.053 590.392C203.485 591.038 202.826 591.649 202.09 592.184C201.735 592.438 201.35 592.649 200.99 592.692C200.629 592.736 200.346 592.594 200.109 592.285C199.658 591.63 199.225 590.819 198.808 590.145C198.608 589.794 198.367 589.452 198.262 589.159C198.152 588.849 198.213 588.649 198.429 588.564C198.924 588.359 199.406 588.919 199.741 589.394C201.133 591.368 201.115 593.008 201.241 592.968Z" fill="#191B1F"/>
<path d="M173.18 593.928L159.246 624.126L136.76 613.739L151.172 576.363L173.18 593.928Z" fill="#FFBE9D"/>
<path d="M161.877 622.112L153.736 637.636C153.736 637.636 174.576 659.184 172.618 664L123.629 640.512L137.088 609.372L161.877 622.112Z" fill="#455A64"/>
<path d="M139.603 628.251C138.531 628.055 137.365 628.807 137.125 629.87C136.887 630.933 137.64 632.126 138.709 632.34C139.778 632.555 141.206 631.695 141.324 630.611C141.443 629.527 140.48 628.175 139.392 628.224" fill="#E0E0E0"/>
<g opacity="0.6">
<path d="M123.629 640.511L125.667 636.606L171.876 660.587C171.876 660.587 173.603 662.582 172.619 663.999L123.629 640.511Z" fill="white"/>
</g>
<path d="M154.648 637.767C154.526 638.002 153.278 637.537 151.731 637.743C150.181 637.907 149.076 638.653 148.902 638.452C148.704 638.3 149.746 637.04 151.622 636.826C153.496 636.593 154.806 637.571 154.648 637.767Z" fill="#191B1F"/>
<path d="M158.77 642.355C158.714 642.613 157.483 642.523 156.184 643.145C154.869 643.73 154.139 644.725 153.906 644.6C153.663 644.53 154.17 643.049 155.797 642.307C157.419 641.55 158.874 642.124 158.77 642.355Z" fill="#191B1F"/>
<path d="M158.739 649.905C158.497 649.852 158.738 648.497 159.981 647.482C161.216 646.458 162.592 646.482 162.598 646.73C162.639 646.991 161.576 647.346 160.569 648.196C159.541 649.019 158.988 649.996 158.739 649.905Z" fill="#191B1F"/>
<path d="M156.986 631.789C156.782 631.959 155.842 631.102 154.446 630.546C153.06 629.961 151.791 629.91 151.764 629.645C151.708 629.405 153.161 629.013 154.796 629.692C156.436 630.357 157.194 631.656 156.986 631.789Z" fill="#191B1F"/>
<path d="M166.468 618.08L203.198 526.159C203.198 526.159 202.372 510.475 199.483 505.523C196.594 500.57 109.097 471.679 109.097 471.679C109.097 471.679 86.8096 466.313 71.9517 471.679C57.0939 477.044 45.9496 495.616 48.0131 505.935C50.0766 516.253 58.7851 523.833 58.7851 523.833L123.129 525.745L158.199 538.54L134.582 606.226L166.468 618.08Z" fill="#1A1C20"/>
<path d="M199.136 555.267L199.965 588.516L175.203 589.121L171.636 549.222L199.136 555.267Z" fill="#FFBE9D"/>
<path d="M201.438 585.544L200.986 603.069C200.986 603.069 229.197 613.203 229.568 618.389L175.241 618.939L173.57 585.057L201.438 585.544Z" fill="#455A64"/>
<path d="M184.164 600.885C183.115 601.183 182.401 602.373 182.655 603.433C182.91 604.493 184.113 605.23 185.168 604.95C186.22 604.671 187.123 603.27 186.751 602.244C186.379 601.22 184.919 600.432 183.964 600.956" fill="#E0E0E0"/>
<g opacity="0.6">
<path d="M175.241 618.938L175.346 614.535L227.395 615.654C227.395 615.654 229.824 616.682 229.568 618.388L175.241 618.938Z" fill="white"/>
</g>
<path d="M201.864 602.782C201.858 603.047 200.532 603.181 199.236 604.047C197.917 604.88 197.255 606.036 197.011 605.933C196.765 605.884 197.145 604.294 198.734 603.273C200.312 602.237 201.919 602.538 201.864 602.782Z" fill="#191B1F"/>
<path d="M207.586 605.082C207.649 605.338 206.505 605.801 205.615 606.932C204.693 608.037 204.478 609.252 204.213 609.243C203.964 609.288 203.766 607.736 204.898 606.351C206.019 604.956 207.578 604.83 207.586 605.082Z" fill="#191B1F"/>
<path d="M210.891 611.869C210.65 611.929 210.268 610.606 210.935 609.147C211.591 607.682 212.836 607.096 212.95 607.316C213.102 607.533 212.305 608.32 211.776 609.527C211.22 610.722 211.155 611.841 210.891 611.869Z" fill="#191B1F"/>
<path d="M201.322 596.386C201.213 596.629 199.993 596.275 198.494 596.393C196.994 596.479 195.833 596.994 195.691 596.768C195.536 596.578 196.665 595.585 198.432 595.472C200.197 595.344 201.451 596.177 201.322 596.386Z" fill="#191B1F"/>
<path d="M184.678 462.959C184.678 462.959 199.514 461.772 201.164 477.869C202.815 493.966 204.436 569.083 204.436 569.083L169.766 571.972L164.401 495.205L109.096 471.68C109.096 471.68 174.772 460.895 184.678 462.959Z" fill="#1A1C20"/>
<path d="M123.529 441.238C123.529 441.238 132.533 466.482 130.818 469.296C129.103 472.11 105.95 483.686 105.95 483.686L48.0142 505.936C48.0142 505.936 42.0635 496.471 42.0635 481.931C42.0635 467.392 62.2154 441.238 62.2154 441.238H123.529Z" fill="#1A1C20"/>
<path d="M106.357 470.391C106.353 470.4 106.444 470.449 106.628 470.537C106.841 470.635 107.111 470.761 107.451 470.917C108.214 471.258 109.287 471.734 110.659 472.345C113.504 473.584 117.589 475.363 122.702 477.591C133.036 482.039 147.519 488.274 164.279 495.489L164.092 495.225C164.617 502.807 165.186 510.997 165.774 519.47C167.183 539.278 168.483 557.54 169.511 571.987L169.529 572.249L169.789 572.226C180.334 571.301 188.987 570.542 195.046 570.01C198.025 569.731 200.365 569.513 202 569.36C202.77 569.28 203.373 569.217 203.817 569.171C204.227 569.125 204.437 569.094 204.436 569.081C204.435 569.067 204.222 569.073 203.81 569.094C203.364 569.122 202.758 569.16 201.986 569.208C200.349 569.328 198.004 569.5 195.021 569.718C188.957 570.197 180.297 570.88 169.745 571.713L170.023 571.952C169.031 557.501 167.778 539.235 166.418 519.426C165.822 510.954 165.246 502.764 164.711 495.182L164.697 494.993L164.523 494.919C147.726 487.789 133.211 481.628 122.855 477.232C117.711 475.075 113.602 473.352 110.742 472.153C109.352 471.583 108.267 471.138 107.493 470.819C107.144 470.682 106.866 470.572 106.649 470.488C106.459 470.415 106.36 470.383 106.357 470.391Z" fill="white" fill-opacity="0.12"/>
<path d="M60.2806 472.917C60.2954 472.959 60.8744 472.798 61.9067 472.473C63.0578 472.102 64.5206 471.63 66.2689 471.066C69.9494 469.899 75.0562 468.271 80.8676 467.378C86.6789 466.481 92.0563 466.757 95.8122 467.569C99.5852 468.349 101.754 469.426 101.802 469.304C101.818 469.27 101.294 468.974 100.294 468.541C99.2974 468.105 97.8072 467.576 95.9104 467.122C92.1271 466.182 86.6538 465.828 80.7705 466.737C74.8895 467.642 69.7724 469.352 66.1216 470.632C64.2945 471.281 62.8294 471.837 61.821 472.234C60.815 472.634 60.2657 472.875 60.2806 472.917Z" fill="white" fill-opacity="0.12"/>
<path d="M68.4689 459.612C68.4848 459.715 70.409 459.339 73.5345 459.584C75.0944 459.692 76.9512 459.932 79.0181 460.171C81.0816 460.416 83.3473 460.694 85.6928 461.138C90.3999 461.976 94.4504 463.617 97.0449 465.349C99.6645 467.054 100.892 468.608 100.981 468.52C101.006 468.5 100.741 468.083 100.14 467.431C99.5389 466.781 98.6082 465.879 97.3007 464.97C94.7199 463.102 90.5792 461.349 85.8138 460.503C83.4386 460.053 81.1547 459.791 79.0832 459.578C77.0129 459.371 75.1435 459.178 73.5574 459.126C71.9735 459.069 70.6854 459.16 69.8083 459.292C68.9302 459.426 68.4609 459.575 68.4689 459.612Z" fill="white" fill-opacity="0.12"/>
<path d="M94.0571 256.748C87.3905 255.616 81.5311 258.183 75.9082 261.94C70.2864 265.698 66.0521 271.369 63.6083 277.673C61.0332 284.314 60.4074 291.786 62.3853 298.628C64.3643 305.47 69.0497 311.594 75.4 314.82C84.072 319.224 95.1614 317.688 102.92 311.822C110.678 305.956 115.113 296.257 115.486 286.538C115.742 279.843 114.142 272.993 110.401 267.434C106.658 261.876 100.687 257.723 94.0571 256.748Z" fill="#191B1F"/>
<path d="M75.0986 279.417C76.0738 276.867 75.6958 274.019 76.0818 271.316C76.9314 265.364 81.7276 260.591 87.274 258.271C92.4333 256.112 98.7357 256.583 104.951 258.593C109.212 259.97 113.222 262.371 116.062 265.832C119.832 270.427 121.161 276.916 119.499 282.621L89.0451 278.186C86.1937 280.545 83.2749 282.943 79.8171 284.259C78.8019 284.645 77.7102 284.935 76.6379 284.766C75.5656 284.596 74.523 283.867 74.2695 282.811C73.992 281.659 74.6749 280.526 75.0986 279.417Z" fill="#191B1F"/>
<path d="M105.603 267L79.0149 272.633C76.4432 272.805 74.43 274.916 74.3809 277.494L74.7006 335.032C74.7223 338.962 76.0401 342.776 78.4485 345.881L80.9836 349.152C86.7653 356.607 98.4759 355.856 102.892 347.52C103.2 346.938 103.414 346.427 103.504 346.014C103.593 345.496 103.73 345.155 103.754 344.715L104.261 339.106C104.52 333.983 104.556 328.777 104.557 328.825C104.557 328.825 115.437 327.45 118.225 313.432C119.611 306.46 119.706 294.945 119.477 285.52C119.273 277.036 114.069 266.435 105.603 267Z" fill="#FFBE9D"/>
<path d="M115.433 296.317C115.43 297.274 114.616 298.06 113.618 298.075C112.621 298.09 111.813 297.328 111.816 296.371C111.82 295.414 112.633 294.627 113.63 294.612C114.629 294.599 115.436 295.362 115.433 296.317Z" fill="#191B1F"/>
<path d="M116.752 291.406C116.519 291.633 115.187 290.566 113.24 290.495C111.297 290.397 109.829 291.343 109.627 291.097C109.527 290.987 109.773 290.57 110.412 290.141C111.042 289.714 112.103 289.316 113.316 289.368C114.528 289.421 115.531 289.908 116.1 290.388C116.68 290.871 116.866 291.305 116.752 291.406Z" fill="#191B1F"/>
<path d="M97.9845 295.88C97.9811 296.837 97.1681 297.622 96.17 297.637C95.1731 297.652 94.3657 296.89 94.3692 295.935C94.3726 294.978 95.1856 294.191 96.1826 294.176C97.1806 294.16 97.988 294.923 97.9845 295.88Z" fill="#191B1F"/>
<path d="M98.2644 290.932C98.0303 291.159 96.6976 290.091 94.7517 290.021C92.8082 289.923 91.3408 290.869 91.1386 290.622C91.0393 290.512 91.2825 290.096 91.9243 289.667C92.5546 289.24 93.6155 288.842 94.8283 288.893C96.0399 288.947 97.0425 289.433 97.6123 289.913C98.1913 290.396 98.3786 290.83 98.2644 290.932Z" fill="#191B1F"/>
<path d="M104.106 305.736C104.102 305.625 105.319 305.463 107.29 305.288C107.789 305.256 108.264 305.176 108.36 304.839C108.491 304.484 108.304 303.94 108.086 303.354C107.666 302.133 107.225 300.853 106.762 299.511C104.931 294.043 103.624 289.554 103.846 289.482C104.066 289.41 105.731 293.784 107.563 299.253C108.002 300.6 108.423 301.886 108.824 303.115C108.99 303.687 109.288 304.34 109.006 305.076C108.858 305.442 108.482 305.697 108.16 305.771C107.838 305.856 107.558 305.85 107.312 305.856C105.334 305.885 104.11 305.846 104.106 305.736Z" fill="#191B1F"/>
<path d="M104.556 328.825C104.556 328.825 95.0426 329.069 85.8613 323.053C85.8613 323.053 90.2316 333.001 104.401 332.229L104.556 328.825Z" fill="#EB996E"/>
<path d="M103.099 310.395C102.434 309.443 101.228 308.887 100.005 308.97C99.1567 309.028 98.2877 309.402 97.7475 310.071C97.2074 310.739 97.0623 311.712 97.5031 312.386C97.9999 313.145 99.0904 313.357 100.03 313.13C100.97 312.902 101.792 312.322 102.576 311.742C102.793 311.581 103.014 311.414 103.153 311.188C103.294 310.962 103.334 310.661 103.179 310.464" fill="#EB996E"/>
<path d="M98.3253 306.862C98.6428 306.855 98.564 308.969 100.316 310.539C102.062 312.114 104.324 311.964 104.329 312.26C104.352 312.393 103.811 312.651 102.86 312.64C101.926 312.635 100.576 312.284 99.5049 311.323C98.4372 310.361 98.0101 309.115 97.9724 308.246C97.9256 307.357 98.1814 306.844 98.3253 306.862Z" fill="#191B1F"/>
<path d="M98.1565 285.153C97.9441 285.675 96.0096 285.348 93.7154 285.535C91.4167 285.676 89.5496 286.273 89.2641 285.787C89.1374 285.554 89.4788 285.069 90.2428 284.585C91.001 284.102 92.1978 283.661 93.5738 283.562C94.951 283.465 96.198 283.731 97.0168 284.102C97.8424 284.472 98.2478 284.905 98.1565 285.153Z" fill="#191B1F"/>
<path d="M116.514 282.872C116.154 283.3 114.832 282.789 113.219 282.705C111.61 282.564 110.23 282.886 109.934 282.411C109.805 282.182 110.037 281.747 110.65 281.352C111.254 280.958 112.251 280.655 113.357 280.732C114.464 280.81 115.408 281.248 115.952 281.723C116.505 282.198 116.674 282.662 116.514 282.872Z" fill="#191B1F"/>
<path d="M70.2249 275.313C72.9815 267.217 85.0165 256.186 93.5342 256.951L106.993 265.392C106.076 270.017 102.412 273.987 97.8748 275.271C95.4516 275.956 92.5476 276.1 91.0745 278.143C89.5694 280.228 90.3631 283.325 88.9585 285.479C87.0115 288.464 81.8579 288.218 80.3779 291.46C79.7316 292.878 80.0205 294.59 79.3479 295.995C78.4526 297.867 73.6244 300.165 71.6591 299.5C69.695 298.834 69.7555 295.466 69.1446 293.689C68.0997 290.653 68.5862 289.1 68.9836 287.424C69.9234 283.452 68.9105 279.175 70.2249 275.313Z" fill="#191B1F"/>
<path d="M77.4601 301.28C77.4978 300.23 76.3799 297.706 75.3487 297.504C72.5955 296.965 67.5937 296.993 67.274 304.027C66.8378 313.642 76.5808 312.097 76.6105 311.822C76.6322 311.607 77.3277 304.907 77.4601 301.28Z" fill="#FFBE9D"/>
<path d="M73.8388 308.046C73.7977 308.013 73.6664 308.155 73.3775 308.272C73.0954 308.385 72.617 308.451 72.1236 308.241C71.1244 307.822 70.3422 306.171 70.3742 304.436C70.389 303.559 70.6106 302.735 70.952 302.059C71.2774 301.369 71.7548 300.897 72.2698 300.831C72.7837 300.736 73.132 301.058 73.237 301.335C73.3535 301.61 73.2838 301.799 73.3341 301.818C73.3592 301.844 73.5476 301.666 73.4883 301.266C73.4563 301.073 73.3546 300.841 73.1377 300.646C72.915 300.448 72.5804 300.337 72.2218 300.359C71.4784 300.378 70.7796 301.029 70.405 301.771C69.9893 302.514 69.7198 303.44 69.7027 304.425C69.6764 306.365 70.5854 308.223 71.9581 308.688C72.6261 308.894 73.2005 308.716 73.502 308.503C73.8114 308.278 73.8708 308.065 73.8388 308.046Z" fill="#EB996E"/>
<path d="M68.1664 272.818C68.1984 269.81 64.4414 267.842 61.5111 267.16C58.5809 266.48 55.4828 267.371 52.8449 268.816C51.301 269.661 49.7468 270.865 49.4019 272.59C49.0559 274.316 50.7175 276.372 52.3653 275.755C49.2078 276.835 47.6068 281.052 49.2512 283.956C50.8956 286.86 55.3355 287.656 57.8854 285.505C57.0621 288.26 55.2647 290.714 52.886 292.33C57.8318 293.035 63.0836 290.923 66.1634 286.989C69.2444 283.055 70.0357 277.45 68.1664 272.818Z" fill="#191B1F"/>
<path d="M61.4922 288.111C61.4237 288.121 61.1668 287.031 61.1325 285.225C61.0937 283.426 61.3609 280.909 62.2402 278.287C63.1275 275.666 64.4385 273.501 65.5576 272.092C66.6767 270.675 67.5411 269.962 67.5902 270.011C67.7672 270.136 64.5412 273.331 62.8443 278.49C61.0743 283.622 61.7092 288.119 61.4922 288.111Z" fill="#199EE0"/>
<path d="M104.201 262.483C105.086 266.397 111.036 271.417 113.647 274.465C118.631 280.28 119.613 282.211 119.564 295.211C121.916 290.721 123.718 286.322 123.538 281.256C123.357 276.191 121.491 271.116 117.97 267.471C114.449 263.824 109.218 261.755 104.201 262.483Z" fill="#191B1F"/>
<path d="M143.92 370.798C144.593 370.013 144.639 368.897 144.105 368.012C141.545 363.777 134.108 351.567 131.742 348.691C129.046 345.413 125.572 343.481 123.253 342.466C121.962 341.902 120.606 341.514 119.218 341.273L107.436 338.663C105.832 338.308 104.252 339.54 103.778 341.113C102.861 344.158 100.373 348.376 93.6294 348.774C85.023 349.282 77.5147 339.7 74.9422 335.991C74.3478 335.134 73.3276 334.659 72.2984 334.829C67.853 335.561 55.9847 337.627 52.6576 339.338C48.5374 341.458 42.0626 344.149 38.5009 361.99L36.3837 376.765C36.175 378.222 37.2284 379.557 38.6939 379.692L63.4999 381.985C64.7607 382.102 65.7494 383.118 65.8307 384.382L68.4509 425.068C68.5013 425.85 68.9052 426.566 69.5482 427.014L82.8772 436.296C83.127 436.47 83.4015 436.597 83.696 436.673C88.1116 437.821 124.235 447.214 126.683 447.873C129.071 448.515 129.997 392.941 130.137 383.532C130.149 382.671 130.585 381.91 131.296 381.424C133.868 379.67 140.183 375.163 143.92 370.798Z" fill="url(#paint12_linear_8122_18912)"/>
<path d="M125.439 362.045C125.478 362.03 125.68 362.484 126.013 363.319C126.352 364.15 126.785 365.375 127.267 366.908C128.234 369.969 129.295 374.298 129.895 379.17C130.487 384.044 130.502 388.502 130.302 391.706C130.204 393.308 130.079 394.602 129.95 395.491C129.828 396.38 129.741 396.869 129.701 396.864C129.66 396.86 129.669 396.363 129.721 395.47C129.779 394.578 129.838 393.284 129.882 391.689C129.973 388.497 129.892 384.079 129.305 379.243C128.709 374.41 127.722 370.103 126.862 367.028C126.435 365.489 126.065 364.249 125.793 363.396C125.53 362.54 125.401 362.059 125.439 362.045Z" fill="#455A64"/>
<path d="M124.172 434.312L68.2712 422.145L65.6881 382.189L40.8291 379.892C40.8291 379.892 41.7484 407.206 42.7053 415.327C44.0802 427.006 50.9844 442.943 55.0223 446.128C59.0614 449.312 126.682 447.876 126.682 447.876L124.172 434.312Z" fill="#FFBE9D"/>
<path d="M155.904 441.556C155.511 442.336 154.693 442.844 153.823 442.769C153.649 442.754 153.468 442.72 153.282 442.659C152.045 442.263 152.161 439.745 152.161 439.745L146.237 438.778C146.237 438.778 138.533 443.745 135.793 447.038C133.052 450.331 126.06 447.664 126.06 447.664L123.637 435.038L134.541 425.177C134.541 425.177 133.872 425.764 134.623 423.92C135.376 422.075 138.802 422.773 138.802 422.773C139.335 421.861 141.573 421.534 141.573 421.534L151.138 422.636C153.109 422.863 154.871 423.971 155.931 425.647L159.976 432.05C159.976 432.05 162.112 436.659 161.769 437.732C161.25 439.349 159.539 438.989 159.539 438.989C159.539 438.989 159.069 442.02 158.273 442.125C157.477 442.23 155.904 441.556 155.904 441.556Z" fill="#FFBE9D"/>
<path d="M135.546 432.484C135.556 432.585 136.828 432.467 138.871 432.555C140.91 432.654 143.729 433.012 146.677 434.016C148.15 434.511 149.509 435.11 150.701 435.737C151.856 436.388 153.062 436.922 153.432 437.764C153.618 438.176 153.535 438.595 153.328 438.903C153.126 439.212 152.851 439.414 152.607 439.513C152.104 439.72 151.779 439.578 151.768 439.636C151.744 439.65 152.065 439.899 152.684 439.737C152.983 439.656 153.329 439.456 153.607 439.1C153.891 438.762 154.055 438.158 153.833 437.603C153.626 437.045 153.151 436.614 152.643 436.258C152.122 435.917 151.577 435.569 150.969 435.241C149.765 434.573 148.38 433.945 146.872 433.437C143.855 432.409 140.953 432.112 138.88 432.122C136.799 432.146 135.536 432.418 135.546 432.484Z" fill="#EB996E"/>
<path d="M134.875 438.585C134.886 438.766 138.778 438.603 143.561 438.884C148.345 439.147 152.194 439.749 152.225 439.57C152.238 439.492 151.292 439.239 149.734 438.965C148.178 438.691 146.007 438.412 143.595 438.274C141.184 438.138 138.996 438.169 137.418 438.265C135.84 438.362 134.87 438.505 134.875 438.585Z" fill="#EB996E"/>
<path d="M155.847 441.314C155.879 441.308 155.921 440.955 155.966 440.295C156.006 439.637 156.046 438.68 155.972 437.494C155.932 436.901 155.868 436.249 155.705 435.554C155.553 434.855 155.22 434.119 154.765 433.47C153.903 432.166 152.705 430.813 151.181 429.799C149.662 428.798 148.143 427.952 146.606 427.487C145.08 427.026 143.654 426.911 142.474 426.858C141.291 426.817 140.339 426.842 139.681 426.867C139.023 426.894 138.66 426.929 138.659 426.971C138.655 427.069 140.117 427.118 142.447 427.288C143.606 427.394 144.991 427.553 146.438 428.023C147.874 428.483 149.366 429.332 150.835 430.301C152.305 431.284 153.425 432.522 154.302 433.787C155.227 434.993 155.399 436.377 155.542 437.53C155.774 439.847 155.715 441.317 155.847 441.314Z" fill="#EB996E"/>
<path d="M142.031 423.962C142.03 424.054 143.462 424.091 145.748 424.354C147.949 424.691 151.471 424.853 153.477 427.886C155.649 430.645 157.497 433.251 158.304 435.389C159.16 437.511 159.085 438.98 159.21 438.97C159.243 438.971 159.299 438.61 159.265 437.956C159.238 437.302 159.098 436.35 158.708 435.239C157.974 432.984 156.138 430.28 153.953 427.505C153.396 426.808 152.793 426.147 152.094 425.625C151.397 425.093 150.588 424.783 149.843 424.568C148.335 424.142 146.947 424.017 145.789 423.923C143.467 423.769 142.03 423.886 142.031 423.962Z" fill="#EB996E"/>
<path d="M137.883 444.998C137.895 445.012 138.09 444.863 138.45 444.564C138.86 444.235 139.391 443.809 140.051 443.278C141.464 442.186 143.564 440.631 146.338 438.948L146.202 438.974C147.968 439.275 149.961 439.615 152.119 439.982L151.916 439.732C151.903 440.215 151.931 440.687 152.027 441.178C152.126 441.66 152.28 442.18 152.698 442.602C152.915 442.808 153.227 442.93 153.484 442.963C153.748 443.031 154.033 443.057 154.316 443.012C154.882 442.931 155.413 442.634 155.789 442.197C155.886 442.09 155.97 441.97 156.047 441.846L156.101 441.752L156.127 441.704L156.141 441.68L156.142 441.676C156.219 441.647 155.481 441.917 155.795 441.803L155.802 441.805L155.815 441.81L156.002 441.886C156.252 441.986 156.505 442.076 156.767 442.157C157.028 442.238 157.296 442.31 157.578 442.359C157.719 442.383 157.863 442.404 158.017 442.407C158.161 442.413 158.335 442.417 158.565 442.301C158.899 442.063 159.019 441.783 159.146 441.518C159.264 441.249 159.36 440.977 159.44 440.703C159.604 440.154 159.722 439.601 159.82 439.027L159.474 439.267C160.243 439.402 161.149 439.217 161.681 438.514C161.921 438.188 162.117 437.785 162.087 437.322C162.068 436.908 161.975 436.544 161.877 436.177C161.463 434.724 160.877 433.33 160.244 431.917L160.236 431.901L160.225 431.883C159.537 430.794 158.806 429.637 158.069 428.467C157.61 427.74 157.153 427.019 156.701 426.303C156.246 425.61 155.839 424.83 155.2 424.207C154.586 423.586 153.848 423.1 153.053 422.781C152.264 422.44 151.387 422.356 150.614 422.273C147.445 421.917 144.424 421.577 141.598 421.259L141.56 421.255L141.528 421.261C140.974 421.354 140.455 421.484 139.946 421.677C139.45 421.877 138.925 422.103 138.572 422.638L138.903 422.534C137.891 422.118 136.718 422.114 135.832 422.705C134.941 423.291 134.53 424.238 134.312 425.127L134.384 425.003C131.252 427.819 128.697 430.116 126.869 431.761C126.026 432.537 125.352 433.157 124.844 433.626C124.386 434.058 124.152 434.292 124.167 434.31C124.182 434.327 124.444 434.123 124.931 433.724C125.459 433.278 126.159 432.688 127.035 431.949C128.895 430.343 131.496 428.095 134.683 425.342L134.734 425.297L134.755 425.216C134.956 424.432 135.36 423.568 136.095 423.114C136.81 422.632 137.837 422.647 138.685 423.002L138.894 423.09L139.018 422.898C139.222 422.58 139.677 422.34 140.132 422.173C140.594 422.002 141.103 421.878 141.605 421.797L141.536 421.798C144.359 422.132 147.379 422.488 150.546 422.862C151.353 422.951 152.108 423.025 152.828 423.337C153.547 423.628 154.214 424.069 154.769 424.632C155.333 425.176 155.716 425.908 156.186 426.628C156.638 427.344 157.094 428.065 157.553 428.793C158.293 429.962 159.023 431.119 159.711 432.207L159.693 432.173C160.315 433.555 160.902 434.951 161.3 436.334C161.394 436.677 161.48 437.031 161.493 437.345C161.525 437.617 161.387 437.91 161.211 438.157C160.868 438.642 160.174 438.795 159.591 438.7L159.293 438.651L159.245 438.939C159.155 439.48 159.041 440.027 158.89 440.542C158.747 441.03 158.534 441.624 158.271 441.822C158.257 441.829 158.156 441.861 158.03 441.849C157.915 441.848 157.79 441.832 157.668 441.811C157.421 441.77 157.171 441.705 156.926 441.631C156.68 441.556 156.436 441.472 156.198 441.379L156.022 441.309L156.012 441.304L156.008 441.302C156.319 441.188 155.579 441.456 155.656 441.43L155.655 441.432L155.644 441.451L155.624 441.489L155.583 441.564C155.522 441.661 155.457 441.756 155.382 441.842C155.087 442.19 154.671 442.423 154.24 442.489C154.024 442.526 153.807 442.506 153.589 442.452C153.353 442.419 153.195 442.352 153.048 442.226C152.483 441.637 152.402 440.588 152.399 439.752L152.398 439.533L152.196 439.501C150.033 439.163 148.036 438.851 146.264 438.575L146.188 438.563L146.127 438.601C143.354 440.347 141.289 441.954 139.911 443.106C139.224 443.686 138.709 444.152 138.372 444.477C138.039 444.807 137.869 444.985 137.883 444.998Z" fill="#EB996E"/>
<path d="M228.433 404.822L154.801 405.421C152.412 405.421 150.131 406.568 149.772 408.93L141.725 462.596H103.799C102.578 462.596 101.588 463.586 101.588 464.806C101.588 466.027 102.578 467.017 103.799 467.017H141.062H148.135H224.929L233.207 410.378C233.653 407.454 231.389 404.822 228.433 404.822Z" fill="#56545E"/>
<path d="M228.433 404.823C228.433 404.823 228.834 404.771 229.593 404.931C230.33 405.103 231.491 405.558 232.406 406.796C232.862 407.402 233.209 408.212 233.316 409.146C233.436 410.094 233.164 411.094 233.045 412.175C232.737 414.343 232.382 416.842 231.983 419.649C230.363 430.9 228.028 447.115 225.156 467.05L225.127 467.244H224.93C193.585 467.262 152.394 467.287 107.414 467.313C106.358 467.313 105.304 467.313 104.251 467.313C103.763 467.334 103.084 467.306 102.578 466.995C102.055 466.707 101.649 466.224 101.445 465.666C101.005 464.542 101.531 463.166 102.588 462.608C103.093 462.303 103.766 462.276 104.248 462.296H105.805C109.954 462.297 114.06 462.297 118.113 462.298C126.22 462.3 134.115 462.304 141.724 462.306L141.441 462.55C144.337 443.332 147.039 425.403 149.463 409.319C149.546 408.3 150.008 407.198 150.825 406.515C151.625 405.806 152.636 405.429 153.64 405.273C154.665 405.117 155.64 405.201 156.609 405.168C157.581 405.161 158.545 405.154 159.501 405.148C163.324 405.122 167.022 405.098 170.586 405.074C177.711 405.028 184.301 404.987 190.286 404.95C202.241 404.888 211.771 404.84 218.333 404.806C221.593 404.8 224.112 404.795 225.836 404.792C226.678 404.797 227.322 404.799 227.774 404.801C228.21 404.808 228.433 404.823 228.433 404.823C228.433 404.823 228.212 404.841 227.775 404.854C227.323 404.863 226.68 404.877 225.839 404.894C224.115 404.919 221.596 404.955 218.336 405.002C211.774 405.075 202.245 405.181 190.291 405.314C184.307 405.373 177.717 405.438 170.591 405.509C167.027 405.543 163.33 405.579 159.506 405.614C158.551 405.623 157.587 405.632 156.615 405.642C155.647 405.675 154.65 405.599 153.719 405.748C152.783 405.895 151.855 406.249 151.151 406.881C150.427 407.511 150.044 408.389 149.953 409.394C147.553 425.482 144.878 443.414 142.009 462.637L141.973 462.882H141.726C134.118 462.884 126.221 462.887 118.115 462.89C114.063 462.891 109.956 462.891 105.808 462.892H104.25C103.701 462.877 103.291 462.899 102.878 463.129C102.071 463.556 101.669 464.606 102.006 465.462C102.16 465.887 102.471 466.258 102.87 466.476C103.285 466.712 103.698 466.735 104.255 466.719C105.306 466.719 106.36 466.719 107.418 466.719C152.398 466.745 193.589 466.77 224.933 466.788L224.708 466.982C227.662 447.06 230.066 430.855 231.733 419.61C232.155 416.805 232.529 414.311 232.855 412.145C232.985 411.06 233.263 410.065 233.155 409.162C233.061 408.258 232.736 407.469 232.301 406.873C231.427 405.654 230.301 405.186 229.58 404.995C228.834 404.818 228.431 404.853 228.433 404.823Z" fill="#56545E"/>
<path d="M188.495 439.847C191.041 439.847 193.105 437.783 193.105 435.237C193.105 432.691 191.041 430.627 188.495 430.627C185.949 430.627 183.885 432.691 183.885 435.237C183.885 437.783 185.949 439.847 188.495 439.847Z" fill="white"/>
<path d="M144.711 466.522C144.815 466.539 147.159 452.873 149.944 436.004C152.732 419.128 154.906 405.438 154.802 405.42C154.698 405.403 152.355 419.065 149.567 435.941C146.782 452.812 144.607 466.505 144.711 466.522Z" fill="#191B1F"/>
<path d="M299.032 250.65H158.469C154.431 250.65 151.157 253.924 151.157 257.962V321.998C151.157 326.037 154.431 329.31 158.469 329.31H216.182C216.975 329.31 217.723 329.676 218.211 330.301L227.744 342.526C228.831 343.92 230.967 343.828 231.93 342.346L239.641 330.481C240.116 329.751 240.928 329.31 241.799 329.31H299.034C303.072 329.31 306.346 326.037 306.346 321.998V257.962C306.344 253.924 303.071 250.65 299.032 250.65Z" fill="url(#paint13_linear_8122_18912)"/>
<path d="M202.433 266.382V268.753H200.884V266.366L198.295 262.065H199.939L201.725 265.036L203.512 262.065H205.031L202.433 266.382Z" fill="white"/>
<path d="M204.98 265.407C204.98 263.422 206.529 261.949 208.64 261.949C210.742 261.949 212.3 263.411 212.3 265.407C212.3 267.404 210.742 268.866 208.64 268.866C206.529 268.866 204.98 267.395 204.98 265.407ZM210.731 265.407C210.731 264.136 209.835 263.266 208.638 263.266C207.444 263.266 206.545 264.134 206.545 265.407C206.545 266.677 207.444 267.549 208.638 267.549C209.835 267.547 210.731 266.677 210.731 265.407Z" fill="white"/>
<path d="M213.416 265.81V262.065H214.964V265.754C214.964 267.024 215.518 267.549 216.455 267.549C217.4 267.549 217.945 267.024 217.945 265.754V262.065H219.474V265.81C219.474 267.778 218.346 268.867 216.444 268.867C214.544 268.867 213.416 267.777 213.416 265.81Z" fill="white"/>
<path d="M225.269 268.753L223.979 266.891H223.903H222.555V268.753H221.007V262.065H223.903C225.69 262.065 226.806 262.993 226.806 264.492C226.806 265.496 226.299 266.232 225.431 266.604L226.931 268.753H225.269ZM223.816 263.325H222.555V265.656H223.816C224.762 265.656 225.24 265.218 225.24 264.491C225.24 263.754 224.764 263.325 223.816 263.325Z" fill="white"/>
<path d="M230.323 265.407C230.323 263.391 231.871 261.949 233.954 261.949C235.111 261.949 236.074 262.368 236.706 263.133L235.711 264.05C235.262 263.535 234.697 263.266 234.03 263.266C232.779 263.266 231.89 264.145 231.89 265.407C231.89 266.668 232.779 267.549 234.03 267.549C234.699 267.549 235.262 267.282 235.711 266.756L236.706 267.673C236.074 268.449 235.111 268.868 233.945 268.868C231.872 268.866 230.323 267.422 230.323 265.407Z" fill="white"/>
<path d="M237.19 265.407C237.19 263.422 238.739 261.949 240.85 261.949C242.952 261.949 244.509 263.411 244.509 265.407C244.509 267.404 242.952 268.866 240.85 268.866C238.739 268.866 237.19 267.395 237.19 265.407ZM242.943 265.407C242.943 264.136 242.045 263.266 240.85 263.266C239.655 263.266 238.757 264.134 238.757 265.407C238.757 266.677 239.655 267.549 240.85 267.549C242.045 267.547 242.943 266.677 242.943 265.407Z" fill="white"/>
<path d="M245.684 262.062H248.722C250.911 262.062 252.411 263.38 252.411 265.404C252.411 267.431 250.911 268.75 248.722 268.75H245.684V262.062ZM248.647 267.48C249.975 267.48 250.844 266.687 250.844 265.404C250.844 264.125 249.975 263.333 248.647 263.333H247.232V267.48H248.647Z" fill="white"/>
<path d="M258.762 267.51V268.753H253.583V262.065H258.637V263.307H255.122V264.76H258.228V265.963H255.122V267.51H258.762Z" fill="white"/>
<path d="M285.427 314.988H172.29C168.757 314.988 165.894 312.125 165.894 308.591V284.691C165.894 281.158 168.757 278.294 172.29 278.294H285.427C288.96 278.294 291.824 281.158 291.824 284.691V308.591C291.824 312.123 288.96 314.988 285.427 314.988Z" fill="white" fill-opacity="0.22"/>
<path d="M191.81 300.322C191.81 303.572 189.296 305.679 185.895 305.679C181.223 305.679 178.762 302.328 178.762 296.767C178.762 290.751 181.959 287.654 186.656 287.654C188.179 287.654 189.601 287.909 190.693 288.567L190.159 289.609C189.246 289.026 188.001 288.797 186.656 288.797C182.672 288.797 180.056 291.411 180.056 296.565C180.056 297.099 180.081 297.884 180.207 298.698C180.943 296.363 183.177 295.044 185.868 295.044C189.424 295.042 191.81 297.124 191.81 300.322ZM190.516 300.349C190.516 297.81 188.688 296.161 185.693 296.161C182.773 296.161 180.768 298.012 180.768 300.401C180.768 302.482 182.52 304.564 185.844 304.564C188.612 304.562 190.516 302.913 190.516 300.349Z" fill="white"/>
<path d="M215.397 300.627H211.666V305.553H210.395V300.627H200.267V299.688L209.913 287.782H211.361L201.891 299.484H210.42V295.143H211.664V299.484H215.395L215.397 300.627Z" fill="white"/>
<path d="M235.127 300.551C235.127 303.496 232.995 305.679 228.907 305.679C226.293 305.679 223.88 304.716 222.637 303.294L223.297 302.303C224.389 303.546 226.469 304.486 228.907 304.486C232.107 304.486 233.807 302.963 233.807 300.551C233.807 298.165 232.182 296.615 228.628 296.615H227.511V295.677L232.765 288.948H223.295V287.782H234.44V288.695L229.109 295.525C233.146 295.626 235.127 297.658 235.127 300.551Z" fill="white"/>
<path d="M256.61 287.782V288.695L248.968 305.553H247.546L255.112 288.95H245.135V292.353H243.866V287.784H256.61V287.782Z" fill="white"/>
<path d="M265.677 296.668C265.677 291.108 268.546 287.656 272.631 287.656C276.718 287.656 279.588 291.108 279.588 296.668C279.588 302.228 276.718 305.68 272.631 305.68C268.546 305.68 265.677 302.228 265.677 296.668ZM278.294 296.668C278.294 291.718 275.984 288.849 272.631 288.849C269.28 288.849 266.971 291.718 266.971 296.668C266.971 301.618 269.28 304.487 272.631 304.487C275.984 304.487 278.294 301.618 278.294 296.668Z" fill="white"/>
<defs>
<linearGradient id="paint0_linear_8122_18912" x1="284.094" y1="0" x2="284.094" y2="742.162" gradientUnits="userSpaceOnUse">
<stop stop-color="#5579F8"/>
<stop offset="1" stop-color="#999999" stop-opacity="0"/>
</linearGradient>
<linearGradient id="paint1_linear_8122_18912" x1="284.094" y1="0" x2="284.094" y2="717.695" gradientUnits="userSpaceOnUse">
<stop stop-color="#5579F8" stop-opacity="0.69"/>
<stop offset="1" stop-color="white" stop-opacity="0"/>
</linearGradient>
<linearGradient id="paint2_linear_8122_18912" x1="284.094" y1="12.4385" x2="284.094" y2="61.1558" gradientUnits="userSpaceOnUse">
<stop stop-color="#6B8BFF"/>
<stop offset="1" stop-color="#5579F8"/>
</linearGradient>
<linearGradient id="paint3_linear_8122_18912" x1="416.724" y1="417.173" x2="416.724" y2="459.376" gradientUnits="userSpaceOnUse">
<stop stop-color="#6B8BFF"/>
<stop offset="1" stop-color="#5579F8"/>
</linearGradient>
<linearGradient id="paint4_linear_8122_18912" x1="414.358" y1="499.098" x2="414.358" y2="523.88" gradientUnits="userSpaceOnUse">
<stop stop-color="#6B8BFF"/>
<stop offset="1" stop-color="#5579F8"/>
</linearGradient>
<linearGradient id="paint5_linear_8122_18912" x1="415.509" y1="533.079" x2="415.509" y2="557.862" gradientUnits="userSpaceOnUse">
<stop stop-color="#6B8BFF"/>
<stop offset="1" stop-color="#5579F8"/>
</linearGradient>
<linearGradient id="paint6_linear_8122_18912" x1="384.743" y1="184.338" x2="384.743" y2="231.315" gradientUnits="userSpaceOnUse">
<stop stop-color="#6B8BFF"/>
<stop offset="1" stop-color="#5579F8"/>
</linearGradient>
<linearGradient id="paint7_linear_8122_18912" x1="427.802" y1="184.338" x2="427.802" y2="231.315" gradientUnits="userSpaceOnUse">
<stop stop-color="#6B8BFF"/>
<stop offset="1" stop-color="#5579F8"/>
</linearGradient>
<linearGradient id="paint8_linear_8122_18912" x1="470.862" y1="184.338" x2="470.862" y2="231.315" gradientUnits="userSpaceOnUse">
<stop stop-color="#6B8BFF"/>
<stop offset="1" stop-color="#5579F8"/>
</linearGradient>
<linearGradient id="paint9_linear_8122_18912" x1="513.924" y1="184.338" x2="513.924" y2="231.315" gradientUnits="userSpaceOnUse">
<stop stop-color="#6B8BFF"/>
<stop offset="1" stop-color="#5579F8"/>
</linearGradient>
<linearGradient id="paint10_linear_8122_18912" x1="556.983" y1="184.338" x2="556.983" y2="231.315" gradientUnits="userSpaceOnUse">
<stop stop-color="#6B8BFF"/>
<stop offset="1" stop-color="#5579F8"/>
</linearGradient>
<linearGradient id="paint11_linear_8122_18912" x1="110.699" y1="538.136" x2="110.975" y2="622.385" gradientUnits="userSpaceOnUse">
<stop stop-color="#6B8BFF"/>
<stop offset="1" stop-color="#5579F8"/>
</linearGradient>
<linearGradient id="paint12_linear_8122_18912" x1="90.032" y1="352.674" x2="90.4902" y2="447.879" gradientUnits="userSpaceOnUse">
<stop stop-color="#6B8BFF"/>
<stop offset="1" stop-color="#5579F8"/>
</linearGradient>
<linearGradient id="paint13_linear_8122_18912" x1="228.751" y1="250.65" x2="228.751" y2="345.372" gradientUnits="userSpaceOnUse">
<stop stop-color="#6B8BFF"/>
<stop offset="1" stop-color="#5579F8"/>
</linearGradient>
</defs>
</svg>
