
<svg width="54" height="54" viewBox="0 0 54 54" fill="none" xmlns="http://www.w3.org/2000/svg">
<path d="M22 2.88675C25.094 1.10042 28.906 1.10042 32 2.88675L45.3827 10.6132C48.4767 12.3996 50.3827 15.7008 50.3827 19.2735V34.7265C50.3827 38.2992 48.4767 41.6004 45.3827 43.3868L32 51.1132C28.906 52.8996 25.094 52.8996 22 51.1132L8.61731 43.3868C5.5233 41.6004 3.61731 38.2992 3.61731 34.7265V19.2735C3.61731 15.7008 5.5233 12.3996 8.61731 10.6132L22 2.88675Z" fill="url(#paint0_linear_236_7856)"/>
<path d="M33 16H21C19.6744 16.0016 18.4036 16.5289 17.4662 17.4662C16.5289 18.4036 16.0016 19.6744 16 21V29C16.0015 30.1522 16.4001 31.2687 17.1287 32.1613C17.8573 33.0538 18.8714 33.6679 20 33.9V37C20 37.181 20.0491 37.3587 20.1421 37.514C20.2352 37.6693 20.3686 37.7965 20.5282 37.8819C20.6879 37.9673 20.8677 38.0078 21.0485 37.999C21.2293 37.9902 21.4044 37.9325 21.555 37.832L27.3 34H33C34.3256 33.9984 35.5964 33.4711 36.5338 32.5338C37.4711 31.5964 37.9984 30.3256 38 29V21C37.9984 19.6744 37.4711 18.4036 36.5338 17.4662C35.5964 16.5289 34.3256 16.0016 33 16ZM31 28H23C22.7348 28 22.4804 27.8946 22.2929 27.7071C22.1054 27.5196 22 27.2652 22 27C22 26.7348 22.1054 26.4804 22.2929 26.2929C22.4804 26.1054 22.7348 26 23 26H31C31.2652 26 31.5196 26.1054 31.7071 26.2929C31.8946 26.4804 32 26.7348 32 27C32 27.2652 31.8946 27.5196 31.7071 27.7071C31.5196 27.8946 31.2652 28 31 28ZM33 24H21C20.7348 24 20.4804 23.8946 20.2929 23.7071C20.1054 23.5196 20 23.2652 20 23C20 22.7348 20.1054 22.4804 20.2929 22.2929C20.4804 22.1054 20.7348 22 21 22H33C33.2652 22 33.5196 22.1054 33.7071 22.2929C33.8946 22.4804 34 22.7348 34 23C34 23.2652 33.8946 23.5196 33.7071 23.7071C33.5196 23.8946 33.2652 24 33 24Z" fill="white"/>
<defs>
<linearGradient id="paint0_linear_236_7856" x1="49.5" y1="42" x2="0" y2="0" gradientUnits="userSpaceOnUse">
<stop stop-color="#E23625"/>
<stop offset="1" stop-color="#FF7466"/>
</linearGradient>
</defs>
</svg>
