
<svg width="54" height="54" viewBox="0 0 54 54" fill="none" xmlns="http://www.w3.org/2000/svg">
<path d="M22 2.88675C25.094 1.10042 28.906 1.10042 32 2.88675L45.3827 10.6132C48.4767 12.3996 50.3827 15.7008 50.3827 19.2735V34.7265C50.3827 38.2992 48.4767 41.6004 45.3827 43.3868L32 51.1132C28.906 52.8996 25.094 52.8996 22 51.1132L8.61731 43.3868C5.5233 41.6004 3.61731 38.2992 3.61731 34.7265V19.2735C3.61731 15.7008 5.5233 12.3996 8.61731 10.6132L22 2.88675Z" fill="url(#paint0_linear_236_7849)"/>
<path d="M24.7669 23.6997C25.4054 24.1253 26.1707 24.3744 26.9949 24.3744C27.8235 24.3744 28.5933 24.1253 29.2318 23.6997C29.794 23.3303 30.2556 22.8269 30.5749 22.2349C30.8943 21.6428 31.0614 20.9807 31.0613 20.308C31.0613 18.0665 29.2409 16.2461 26.9949 16.2461C24.7579 16.2461 22.9375 18.0665 22.9375 20.308C22.9374 20.9807 23.1045 21.6428 23.4238 22.2349C23.7432 22.8269 24.2047 23.3303 24.7669 23.6997Z" fill="white"/>
<path d="M30.1413 23.8535C29.9737 24.0029 29.7926 24.1388 29.6024 24.2656C28.8326 24.7818 27.9315 25.0535 26.9941 25.0535C26.0658 25.0535 25.1647 24.7818 24.3903 24.2656C24.2001 24.1388 24.019 24.0029 23.856 23.8535C22.1488 24.3335 20.8809 25.8731 20.813 27.7162H33.1843C33.1164 25.8731 31.8484 24.3335 30.1413 23.8535ZM35.3647 37.0762H34.5518L35.3488 29.7856C35.3896 29.4324 35.2764 29.0792 35.0364 28.812C34.8009 28.5494 34.4567 28.3954 34.1035 28.3954H19.8937C19.5405 28.3954 19.1964 28.5494 18.9609 28.812C18.7209 29.0792 18.6077 29.4324 18.6484 29.7856L19.4454 37.0762H18.6326C18.5425 37.0762 18.4561 37.1119 18.3924 37.1756C18.3288 37.2393 18.293 37.3257 18.293 37.4158C18.293 37.5059 18.3288 37.5922 18.3924 37.6559C18.4561 37.7196 18.5425 37.7554 18.6326 37.7554H35.3647C35.4547 37.7554 35.5411 37.7196 35.6048 37.6559C35.6685 37.5922 35.7043 37.5059 35.7043 37.4158C35.7043 37.3257 35.6685 37.2393 35.6048 37.1756C35.5411 37.1119 35.4547 37.0762 35.3647 37.0762ZM26.9986 30.6596C27.6394 30.6596 28.2538 30.9141 28.7069 31.3671C29.16 31.8202 29.4145 32.4347 29.4145 33.0754C29.4145 33.7161 29.16 34.3306 28.7069 34.7837C28.2538 35.2367 27.6394 35.4913 26.9986 35.4913C26.3579 35.4913 25.7434 35.2367 25.2904 34.7837C24.8373 34.3306 24.5828 33.7161 24.5828 33.0754C24.5828 32.4347 24.8373 31.8202 25.2904 31.3671C25.7434 30.9141 26.3579 30.6596 26.9986 30.6596Z" fill="white"/>
<defs>
<linearGradient id="paint0_linear_236_7849" x1="49.5" y1="42" x2="0" y2="0" gradientUnits="userSpaceOnUse">
<stop stop-color="#282828"/>
<stop offset="1" stop-color="#5A5A5A"/>
</linearGradient>
</defs>
</svg>
