
<svg width="54" height="54" viewBox="0 0 54 54" fill="none" xmlns="http://www.w3.org/2000/svg">
<path d="M22 2.88675C25.094 1.10042 28.906 1.10042 32 2.88675L45.3827 10.6132C48.4767 12.3996 50.3827 15.7008 50.3827 19.2735V34.7265C50.3827 38.2992 48.4767 41.6004 45.3827 43.3868L32 51.1132C28.906 52.8996 25.094 52.8996 22 51.1132L8.61731 43.3868C5.5233 41.6004 3.61731 38.2992 3.61731 34.7265V19.2735C3.61731 15.7008 5.5233 12.3996 8.61731 10.6132L22 2.88675Z" fill="url(#paint0_linear_236_7834)"/>
<g clip-path="url(#clip0_236_7834)">
<path d="M27 23.4844C26.224 23.4844 25.5938 24.1153 25.5938 24.8906C25.5938 25.6659 26.224 26.2969 27 26.2969C27.776 26.2969 28.4062 25.6659 28.4062 24.8906C28.4062 24.1153 27.776 23.4844 27 23.4844ZM27 29.1094C25.4497 29.1094 24.1875 30.3708 24.1875 31.9219V34.1972C25.0605 34.5396 26.007 34.7344 27 34.7344C27.993 34.7344 28.9395 34.5396 29.8125 34.1972V31.9219C29.8125 30.3708 28.5503 29.1094 27 29.1094Z" fill="white"/>
<path d="M36.1875 33.375C35.6675 33.375 35.1861 33.5266 34.7679 33.7736L32.9282 31.9345C34.0481 30.5938 34.7344 28.8798 34.7344 27C34.7344 25.1201 34.0589 23.3959 32.9395 22.0541L34.7679 20.2264C35.1861 20.4734 35.6675 20.625 36.1875 20.625C37.7378 20.625 39 19.3636 39 17.8125C39 16.2614 37.7378 15 36.1875 15C34.6372 15 33.375 16.2614 33.375 17.8125C33.375 18.3325 33.5264 18.8139 33.7736 19.2321L31.9451 21.06C30.6033 19.9411 28.8794 19.2656 27 19.2656C25.1206 19.2656 23.3967 19.9411 22.0549 21.06L20.2264 19.2321C20.4736 18.8139 20.625 18.3325 20.625 17.8125C20.625 16.2614 19.3628 15 17.8125 15C16.2622 15 15 16.2614 15 17.8125C15 19.3636 16.2622 20.625 17.8125 20.625C18.3325 20.625 18.8139 20.4734 19.2321 20.2264L21.0604 22.0541C19.9411 23.3959 19.2656 25.1201 19.2656 27C19.2656 28.8798 19.9519 30.5938 21.0718 31.9345L19.2323 33.7736C18.8139 33.5266 18.3325 33.375 17.8125 33.375C16.2622 33.375 15 34.6364 15 36.1875C15 37.7386 16.2622 39 17.8125 39C19.3628 39 20.625 37.7386 20.625 36.1875C20.625 35.6675 20.4736 35.1861 20.2264 34.7679L22.0587 32.9363C22.2892 33.1282 22.5293 33.3091 22.7812 33.4739V31.9219C22.7812 29.5955 24.6736 27.7031 27 27.7031C25.4497 27.7031 24.1875 26.4417 24.1875 24.8906C24.1875 23.3395 25.4497 22.0781 27 22.0781C28.5503 22.0781 29.8125 23.3395 29.8125 24.8906C29.8125 26.4417 28.5503 27.7031 27 27.7031C29.3264 27.7031 31.2188 29.5955 31.2188 31.9219V33.4739C31.4707 33.3091 31.7108 33.1282 31.9413 32.9363L33.7736 34.7679C33.5264 35.1861 33.375 35.6675 33.375 36.1875C33.375 37.7386 34.6372 39 36.1875 39C37.7378 39 39 37.7386 39 36.1875C39 34.6364 37.7378 33.375 36.1875 33.375Z" fill="white"/>
</g>
<defs>
<linearGradient id="paint0_linear_236_7834" x1="49.5" y1="42" x2="0" y2="0" gradientUnits="userSpaceOnUse">
<stop stop-color="#F8A955"/>
<stop offset="1" stop-color="#FFC281"/>
</linearGradient>
<clipPath id="clip0_236_7834">
<rect width="24" height="24" fill="white" transform="translate(15 15)"/>
</clipPath>
</defs>
</svg>
