<svg width="53" height="11" viewBox="0 0 53 11" fill="none" xmlns="http://www.w3.org/2000/svg">
	<path d="M16.1971 2.46971C16.2917 2.46971 16.3738 2.47918 16.4432 2.49811C16.5189 2.51703 16.5788 2.56435 16.623 2.64007C16.6671 2.70947 16.6892 2.82304 16.6892 2.98078C16.6892 3.13852 16.6671 3.25524 16.623 3.33095C16.5788 3.40036 16.5189 3.44452 16.4432 3.46345C16.3674 3.47607 16.2823 3.48238 16.1876 3.48238H14.4462V8.52679C14.4462 8.63405 14.4336 8.73185 14.4084 8.82018C14.3894 8.9022 14.339 8.96845 14.2569 9.01893C14.1812 9.0694 14.0519 9.09464 13.8689 9.09464C13.6985 9.09464 13.5724 9.06625 13.4903 9.00946C13.4083 8.95899 13.3578 8.89274 13.3389 8.81072C13.32 8.72238 13.3105 8.62459 13.3105 8.51733V3.48238H11.5502C11.4618 3.48238 11.3798 3.47292 11.3041 3.45399C11.2284 3.43506 11.1653 3.39089 11.1148 3.32149C11.0707 3.25209 11.0486 3.13852 11.0486 2.98078C11.0486 2.82304 11.0707 2.70947 11.1148 2.64007C11.159 2.56435 11.2189 2.51703 11.2946 2.49811C11.3767 2.47918 11.4618 2.46971 11.5502 2.46971H16.1971ZM18.5833 9.15143C18.1732 9.15143 17.8136 9.08518 17.5044 8.95268C17.2016 8.82018 16.946 8.64036 16.7378 8.41322C16.5359 8.17977 16.3813 7.92108 16.2741 7.63716C16.1731 7.34692 16.1226 7.04722 16.1226 6.73806C16.1226 6.28378 16.2267 5.87997 16.435 5.52664C16.6432 5.17331 16.9302 4.8957 17.2962 4.6938C17.6685 4.49189 18.0943 4.39094 18.5739 4.39094C18.9146 4.39094 19.2143 4.44457 19.473 4.55183C19.7316 4.65909 19.9462 4.80106 20.1165 4.97772C20.2932 5.14808 20.4257 5.33736 20.514 5.54557C20.6087 5.75378 20.656 5.95569 20.656 6.15128C20.656 6.48568 20.574 6.7286 20.4099 6.88002C20.2522 7.03145 20.0534 7.10716 19.8137 7.10716H17.3151C17.3214 7.32168 17.3877 7.50781 17.5139 7.66555C17.6464 7.82329 17.8104 7.94632 18.006 8.03465C18.2079 8.11668 18.413 8.15769 18.6212 8.15769C18.7789 8.15769 18.9177 8.14822 19.0376 8.1293C19.1638 8.11037 19.2711 8.08828 19.3594 8.06305C19.4477 8.0315 19.5234 7.99995 19.5865 7.9684C19.6559 7.93686 19.719 7.90846 19.7758 7.88323C19.8326 7.85799 19.8862 7.84221 19.9367 7.83591C20.0061 7.8296 20.0755 7.84537 20.1449 7.88323C20.2143 7.92108 20.2711 7.98733 20.3153 8.08197C20.3531 8.14507 20.3784 8.20501 20.391 8.26179C20.4099 8.31227 20.4194 8.36274 20.4194 8.41322C20.4194 8.53941 20.3437 8.65929 20.1922 8.77286C20.0408 8.88012 19.8263 8.96845 19.5487 9.03786C19.2774 9.11357 18.9556 9.15143 18.5833 9.15143ZM17.3151 6.43521H19.2553C19.3625 6.43521 19.4446 6.41943 19.5013 6.38789C19.5581 6.35003 19.5865 6.27431 19.5865 6.16074C19.5865 6.01563 19.5424 5.88628 19.454 5.77271C19.3657 5.65283 19.2458 5.56135 19.0944 5.49825C18.943 5.42885 18.7663 5.39415 18.5644 5.39415C18.3309 5.39415 18.1196 5.44147 17.9303 5.53611C17.741 5.62444 17.5896 5.74748 17.476 5.90521C17.3688 6.06295 17.3151 6.23961 17.3151 6.43521ZM25.3129 9.07571C25.13 9.07571 24.9943 9.04101 24.906 8.97161C24.8177 8.9022 24.7735 8.80756 24.7735 8.68768L24.8397 8.37536C24.7893 8.45739 24.7041 8.55518 24.5842 8.66875C24.4643 8.77601 24.3066 8.87381 24.111 8.96214C23.9154 9.04417 23.6788 9.08518 23.4012 9.08518C23.1046 9.08518 22.8239 9.02524 22.5589 8.90536C22.3002 8.77917 22.0699 8.60881 21.868 8.39429C21.6724 8.17346 21.5147 7.92424 21.3948 7.64662C21.2812 7.3627 21.2244 7.05984 21.2244 6.73806C21.2244 6.4289 21.2812 6.13866 21.3948 5.86735C21.5147 5.58974 21.6755 5.34367 21.8774 5.12915C22.0794 4.91463 22.3096 4.74743 22.5683 4.62755C22.8333 4.50136 23.1109 4.43826 23.4012 4.43826C23.6599 4.43826 23.8775 4.47297 24.0542 4.54237C24.2372 4.61177 24.3918 4.70011 24.518 4.80737C24.6441 4.90832 24.7483 5.01558 24.8303 5.12915L24.7735 4.85469C24.7735 4.71588 24.8177 4.61177 24.906 4.54237C24.9943 4.46666 25.1331 4.4288 25.3224 4.4288C25.4991 4.4288 25.6253 4.45719 25.701 4.51398C25.7767 4.56445 25.824 4.63701 25.8429 4.73165C25.8619 4.81999 25.8713 4.92094 25.8713 5.03451V8.4984C25.8713 8.60566 25.8619 8.70346 25.8429 8.79179C25.824 8.88012 25.7735 8.94952 25.6915 9C25.6158 9.05048 25.4896 9.07571 25.3129 9.07571ZM23.5715 7.97787C23.7861 7.97787 23.9785 7.92424 24.1489 7.81698C24.3192 7.70972 24.4549 7.5646 24.5558 7.38162C24.6631 7.19234 24.7167 6.98413 24.7167 6.75699C24.7167 6.51092 24.6631 6.2964 24.5558 6.11342C24.4486 5.93045 24.3066 5.78849 24.1299 5.68754C23.9596 5.58027 23.7671 5.52664 23.5526 5.52664C23.3192 5.52664 23.1109 5.58343 22.928 5.697C22.745 5.80426 22.5999 5.95253 22.4926 6.14182C22.3917 6.32479 22.3412 6.533 22.3412 6.76645C22.3412 6.99359 22.3948 7.19865 22.5021 7.38162C22.6093 7.5646 22.7545 7.70972 22.9374 7.81698C23.1267 7.92424 23.3381 7.97787 23.5715 7.97787ZM27.3699 9.08518C27.1995 9.08518 27.0733 9.05994 26.9913 9.00946C26.9156 8.95899 26.8683 8.88958 26.8493 8.80125C26.8304 8.71292 26.8209 8.61828 26.8209 8.51733V4.97772C26.8209 4.87677 26.8304 4.78528 26.8493 4.70326C26.8683 4.62124 26.9187 4.55499 27.0008 4.50451C27.0828 4.45404 27.2121 4.4288 27.3888 4.4288C27.5718 4.4288 27.7043 4.46666 27.7863 4.54237C27.8746 4.61808 27.9188 4.73796 27.9188 4.90201L27.8336 5.16701C27.8651 5.0976 27.9188 5.02189 27.9945 4.93986C28.0702 4.85784 28.1617 4.77582 28.269 4.6938C28.3825 4.61177 28.5087 4.54552 28.6475 4.49505C28.7863 4.44457 28.9314 4.41933 29.0829 4.41933C29.2911 4.41933 29.4804 4.45404 29.6507 4.52344C29.8274 4.59284 29.982 4.6938 30.1145 4.82629C30.2533 4.95879 30.3732 5.11968 30.4741 5.30897C30.5814 5.14492 30.7012 4.99665 30.8337 4.86415C30.9662 4.72534 31.1208 4.61808 31.2975 4.54237C31.4742 4.46035 31.6729 4.41933 31.8937 4.41933C32.2597 4.41933 32.5657 4.51082 32.8118 4.6938C33.0641 4.87677 33.2534 5.13861 33.3796 5.47932C33.5121 5.81372 33.5784 6.21438 33.5784 6.68127V8.51733C33.5784 8.62459 33.5657 8.72238 33.5405 8.81072C33.5216 8.89274 33.4711 8.95899 33.3891 9.00946C33.3134 9.05994 33.1872 9.08518 33.0105 9.08518C32.8338 9.08518 32.7045 9.05679 32.6225 9C32.5405 8.94952 32.49 8.88328 32.4711 8.80125C32.4521 8.71292 32.4427 8.61512 32.4427 8.50786V6.67181C32.4427 6.43836 32.4143 6.23646 32.3575 6.0661C32.3007 5.89575 32.2155 5.76325 32.1019 5.66861C31.9947 5.57397 31.8527 5.52664 31.6761 5.52664C31.4868 5.52664 31.3227 5.57397 31.1839 5.66861C31.0514 5.75694 30.9473 5.88628 30.8716 6.05664C30.7959 6.22699 30.758 6.43521 30.758 6.68127V8.52679C30.758 8.63405 30.7423 8.735 30.7107 8.82964C30.6792 8.91798 30.6161 8.98423 30.5214 9.02839C30.4331 9.07887 30.3038 9.0978 30.1334 9.08518C29.9757 9.07887 29.8589 9.04732 29.7832 8.99054C29.7138 8.93375 29.6697 8.86435 29.6507 8.78232C29.6381 8.69399 29.6318 8.6025 29.6318 8.50786V6.67181C29.6318 6.43836 29.6034 6.23646 29.5466 6.0661C29.4898 5.88944 29.4047 5.75694 29.2911 5.66861C29.1838 5.57397 29.0387 5.52664 28.8557 5.52664C28.6601 5.52664 28.4929 5.57712 28.3541 5.67807C28.2216 5.77902 28.1207 5.91468 28.0513 6.08503C27.9819 6.25539 27.9472 6.45098 27.9472 6.67181V8.52679C27.9472 8.62774 27.9346 8.72238 27.9093 8.81072C27.8904 8.89905 27.8399 8.9653 27.7579 9.00946C27.6822 9.05994 27.5528 9.08518 27.3699 9.08518ZM35.9461 9.08518C35.8199 9.08518 35.719 9.05994 35.6433 9.00946C35.5738 8.9653 35.5202 8.90851 35.4824 8.83911C35.4508 8.7697 35.4224 8.70661 35.3972 8.64983L34.0059 5.12915C33.9681 5.00927 33.9492 4.90832 33.9492 4.82629C33.9555 4.74427 33.987 4.67487 34.0438 4.61808C34.1069 4.55499 34.1984 4.50136 34.3183 4.45719C34.5202 4.37517 34.6779 4.35309 34.7915 4.39094C34.9114 4.4288 34.9997 4.53606 35.0565 4.71272L35.9556 7.0977L36.7695 4.81683C36.7884 4.76005 36.8168 4.70011 36.8547 4.63701C36.8925 4.57392 36.9462 4.52029 37.0156 4.47612C37.0913 4.42564 37.1922 4.40041 37.3184 4.40041C37.4509 4.40041 37.555 4.42564 37.6307 4.47612C37.7064 4.52029 37.7632 4.57392 37.8011 4.63701C37.8453 4.70011 37.8736 4.76005 37.8863 4.81683L38.7002 7.11663L39.5614 4.7979C39.6371 4.60231 39.7318 4.47297 39.8454 4.40987C39.9589 4.34678 40.1135 4.35309 40.3091 4.4288C40.4858 4.50451 40.6056 4.59915 40.6687 4.71272C40.7318 4.81999 40.7255 4.96195 40.6498 5.13861L39.2491 8.64983C39.2239 8.71292 39.1923 8.77917 39.1545 8.84857C39.1229 8.91167 39.0693 8.9653 38.9936 9.00946C38.9242 9.05994 38.8295 9.08518 38.7096 9.08518C38.5835 9.08518 38.4825 9.06309 38.4068 9.01893C38.3374 8.98107 38.2838 8.92744 38.2459 8.85804C38.208 8.78863 38.1765 8.71607 38.1513 8.64036L37.3279 6.30271L36.5045 8.64036C36.4666 8.72869 36.4319 8.80756 36.4004 8.87697C36.3688 8.94637 36.3184 8.99685 36.249 9.02839C36.1796 9.06625 36.0786 9.08518 35.9461 9.08518ZM41.9926 9.09464C41.8223 9.09464 41.6961 9.06625 41.614 9.00946C41.532 8.95899 41.4815 8.89274 41.4626 8.81072C41.4437 8.72238 41.4342 8.62459 41.4342 8.51733V4.99665C41.4342 4.8957 41.4437 4.80421 41.4626 4.72219C41.4879 4.63386 41.5383 4.56445 41.614 4.51398C41.6961 4.4635 41.8254 4.43826 42.0021 4.43826C42.1787 4.43826 42.3049 4.4635 42.3806 4.51398C42.4627 4.56445 42.5131 4.63386 42.5321 4.72219C42.551 4.81052 42.5605 4.90832 42.5605 5.01558V8.52679C42.5605 8.63405 42.551 8.73185 42.5321 8.82018C42.5131 8.9022 42.4627 8.96845 42.3806 9.01893C42.3049 9.0694 42.1756 9.09464 41.9926 9.09464ZM41.9926 3.52024C41.8096 3.52024 41.674 3.495 41.5856 3.44452C41.5036 3.38774 41.45 3.31203 41.4248 3.21738C41.4058 3.12274 41.3964 3.01864 41.3964 2.90507C41.3964 2.78519 41.4058 2.68108 41.4248 2.59275C41.45 2.50441 41.5068 2.43501 41.5951 2.38453C41.6834 2.32775 41.8191 2.29936 42.0021 2.29936C42.1914 2.29936 42.327 2.32775 42.409 2.38453C42.4911 2.44132 42.5447 2.51703 42.5699 2.61168C42.5952 2.70001 42.6078 2.80411 42.6078 2.92399C42.6078 3.03125 42.5952 3.13221 42.5699 3.22685C42.5447 3.32149 42.4911 3.39405 42.409 3.44452C42.327 3.495 42.1882 3.52024 41.9926 3.52024ZM45.2142 9.15143C45.0502 9.15143 44.8766 9.1325 44.6937 9.09464C44.5107 9.06309 44.334 9.01577 44.1637 8.95268C43.9933 8.88328 43.8451 8.80441 43.7189 8.71607C43.599 8.62143 43.5233 8.51733 43.4917 8.40376C43.4665 8.34066 43.457 8.28072 43.4633 8.22394C43.4696 8.16084 43.4886 8.09775 43.5201 8.03465C43.5517 7.96525 43.599 7.89585 43.6621 7.82644C43.7189 7.75704 43.7756 7.71918 43.8324 7.71287C43.8955 7.70025 43.9744 7.71918 44.069 7.76966C44.1511 7.8012 44.2394 7.84221 44.334 7.89269C44.435 7.94317 44.5359 7.99364 44.6369 8.04412C44.7441 8.09459 44.8514 8.1356 44.9587 8.16715C45.0722 8.1987 45.1827 8.21447 45.2899 8.21447C45.5234 8.21447 45.7095 8.17662 45.8483 8.1009C45.9871 8.01888 46.0565 7.90531 46.0565 7.76019C46.0565 7.67817 46.0344 7.60561 45.9903 7.54252C45.9461 7.47942 45.8862 7.42895 45.8104 7.39109C45.741 7.34692 45.6559 7.30907 45.5549 7.27752C45.4603 7.23966 45.3562 7.20811 45.2426 7.18288C45.1353 7.15133 45.0218 7.11663 44.9019 7.07877C44.7441 7.0346 44.5864 6.98097 44.4287 6.91788C44.2709 6.85478 44.129 6.77276 44.0028 6.67181C43.8829 6.57086 43.7851 6.44467 43.7094 6.29324C43.6337 6.14182 43.5958 5.95253 43.5958 5.72539C43.5958 5.44147 43.6621 5.20171 43.7946 5.00611C43.9334 4.80421 44.1321 4.64963 44.3908 4.54237C44.6495 4.43511 44.9618 4.38148 45.3278 4.38148C45.454 4.38148 45.5738 4.39094 45.6874 4.40987C45.8073 4.4288 45.9209 4.45719 46.0281 4.49505C46.1417 4.5266 46.249 4.56761 46.3499 4.61808C46.4572 4.66856 46.5581 4.72534 46.6528 4.78844C46.8105 4.87677 46.8925 4.98088 46.8988 5.10076C46.9051 5.21433 46.861 5.33736 46.7663 5.46986C46.6969 5.55819 46.6275 5.62129 46.5581 5.65914C46.4887 5.69069 46.4162 5.69069 46.3404 5.65914C46.2395 5.60867 46.1291 5.55504 46.0092 5.49825C45.8956 5.43516 45.7757 5.38153 45.6496 5.33736C45.5297 5.29319 45.4035 5.27111 45.271 5.27111C45.1448 5.27111 45.0312 5.29004 44.9303 5.3279C44.8293 5.36575 44.7536 5.41938 44.7031 5.48879C44.6527 5.55819 44.6274 5.64021 44.6274 5.73486C44.6274 5.82319 44.6527 5.89575 44.7031 5.95253C44.7536 6.00932 44.8199 6.05664 44.9019 6.0945C44.9839 6.13235 45.0817 6.16705 45.1953 6.1986C45.3088 6.22384 45.4287 6.24908 45.5549 6.27431C45.7316 6.31217 45.9114 6.35949 46.0944 6.41628C46.2773 6.47306 46.4445 6.55193 46.596 6.65288C46.7537 6.75383 46.8799 6.88949 46.9745 7.05984C47.0692 7.22389 47.1165 7.43841 47.1165 7.70341C47.1165 8.164 46.9461 8.52048 46.6054 8.77286C46.271 9.02524 45.8073 9.15143 45.2142 9.15143ZM50.1922 9.15143C49.7821 9.15143 49.4225 9.08518 49.1133 8.95268C48.8104 8.82018 48.5549 8.64036 48.3467 8.41322C48.1448 8.17977 47.9902 7.92108 47.883 7.63716C47.782 7.34692 47.7315 7.04722 47.7315 6.73806C47.7315 6.28378 47.8356 5.87997 48.0438 5.52664C48.2521 5.17331 48.5391 4.8957 48.9051 4.6938C49.2773 4.49189 49.7032 4.39094 50.1828 4.39094C50.5235 4.39094 50.8232 4.44457 51.0818 4.55183C51.3405 4.65909 51.5551 4.80106 51.7254 4.97772C51.9021 5.14808 52.0346 5.33736 52.1229 5.54557C52.2176 5.75378 52.2649 5.95569 52.2649 6.15128C52.2649 6.48568 52.1828 6.7286 52.0188 6.88002C51.8611 7.03145 51.6623 7.10716 51.4226 7.10716H48.924C48.9303 7.32168 48.9966 7.50781 49.1228 7.66555C49.2553 7.82329 49.4193 7.94632 49.6149 8.03465C49.8168 8.11668 50.0219 8.15769 50.2301 8.15769C50.3878 8.15769 50.5266 8.14822 50.6465 8.1293C50.7727 8.11037 50.8799 8.08828 50.9683 8.06305C51.0566 8.0315 51.1323 7.99995 51.1954 7.9684C51.2648 7.93686 51.3279 7.90846 51.3847 7.88323C51.4415 7.85799 51.4951 7.84221 51.5456 7.83591C51.615 7.8296 51.6844 7.84537 51.7538 7.88323C51.8232 7.92108 51.88 7.98733 51.9242 8.08197C51.962 8.14507 51.9873 8.20501 51.9999 8.26179C52.0188 8.31227 52.0283 8.36274 52.0283 8.41322C52.0283 8.53941 51.9526 8.65929 51.8011 8.77286C51.6497 8.88012 51.4352 8.96845 51.1576 9.03786C50.8863 9.11357 50.5645 9.15143 50.1922 9.15143ZM48.924 6.43521H50.8642C50.9714 6.43521 51.0535 6.41943 51.1102 6.38789C51.167 6.35003 51.1954 6.27431 51.1954 6.16074C51.1954 6.01563 51.1513 5.88628 51.0629 5.77271C50.9746 5.65283 50.8547 5.56135 50.7033 5.49825C50.5519 5.42885 50.3752 5.39415 50.1733 5.39415C49.9398 5.39415 49.7285 5.44147 49.5392 5.53611C49.3499 5.62444 49.1985 5.74748 49.0849 5.90521C48.9776 6.06295 48.924 6.23961 48.924 6.43521Z" fill="white" />
	<circle cx="1.87508" cy="2.46371" r="1.33065" fill="url(#paint0_linear_82_2)" />
	<circle cx="8.95174" cy="2.46371" r="1.33065" fill="url(#paint1_linear_82_2)" />
	<path d="M3.87098 4.82263H0C1.23992 8.23998 3.78025 7.78635 5.17139 7.3932C4.08267 6.69159 3.85082 5.38715 3.87098 4.82263Z" fill="url(#paint2_linear_82_2)" />
	<path d="M10.9174 4.82263H7.04639C5.95768 9.51619 2.33872 8.33071 0.665325 7.15127C3.13307 11.0706 6.85486 10.115 8.40728 9.14724L10.7359 9.96378L9.70769 7.99804C10.5787 7.0303 10.8771 5.47788 10.9174 4.82263Z" fill="url(#paint3_linear_82_2)" />
	<defs>
		<linearGradient id="paint0_linear_82_2" x1="1.87508" y1="1.13306" x2="1.87508" y2="3.79436" gradientUnits="userSpaceOnUse">
			<stop stop-color="#004567" />
			<stop offset="1" stop-color="#146B96" />
		</linearGradient>
		<linearGradient id="paint1_linear_82_2" x1="8.95174" y1="1.13306" x2="8.95174" y2="3.79436" gradientUnits="userSpaceOnUse">
			<stop stop-color="#004567" />
			<stop offset="1" stop-color="#146B96" />
		</linearGradient>
		<linearGradient id="paint2_linear_82_2" x1="5.45869" y1="4.82263" x2="8.78173" y2="10.1981" gradientUnits="userSpaceOnUse">
			<stop stop-color="#199EE0" />
			<stop offset="1" stop-color="#55C2F8" />
		</linearGradient>
		<linearGradient id="paint3_linear_82_2" x1="5.45869" y1="4.82263" x2="8.78173" y2="10.1981" gradientUnits="userSpaceOnUse">
			<stop stop-color="#199EE0" />
			<stop offset="1" stop-color="#55C2F8" />
		</linearGradient>
	</defs>
</svg>
