<svg width="20" height="20" viewBox="0 0 20 20" fill="none" xmlns="http://www.w3.org/2000/svg">
<g clip-path="url(#clip0_8067_15939)">
<path d="M16.6667 7.50098H9.16667C8.24619 7.50098 7.5 8.24717 7.5 9.16764V16.6676C7.5 17.5881 8.24619 18.3343 9.16667 18.3343H16.6667C17.5871 18.3343 18.3333 17.5881 18.3333 16.6676V9.16764C18.3333 8.24717 17.5871 7.50098 16.6667 7.50098Z" stroke="#282828" stroke-width="1.66667" stroke-linecap="round" stroke-linejoin="round"/>
<path d="M4.16638 12.5006H3.33305C2.89102 12.5006 2.4671 12.325 2.15454 12.0124C1.84198 11.6999 1.66638 11.2759 1.66638 10.8339V3.3339C1.66638 2.89188 1.84198 2.46795 2.15454 2.15539C2.4671 1.84283 2.89102 1.66724 3.33305 1.66724H10.833C11.2751 1.66724 11.699 1.84283 12.0116 2.15539C12.3241 2.46795 12.4997 2.89188 12.4997 3.3339V4.16724" stroke="#282828" stroke-width="1.66667" stroke-linecap="round" stroke-linejoin="round"/>
</g>
<defs>
<clipPath id="clip0_8067_15939">
<rect width="20" height="20" fill="white"/>
</clipPath>
</defs>
</svg>
