<svg width="24" height="24" viewBox="0 0 24 24" fill="none" xmlns="http://www.w3.org/2000/svg">
<path fill-rule="evenodd" clip-rule="evenodd" d="M12.502 5.72206C12.502 4.18706 14.336 3.39606 15.452 4.44906L21.3 9.96006C21.523 10.1704 21.7007 10.4241 21.8222 10.7056C21.9437 10.9871 22.0063 11.2905 22.0063 11.5971C22.0063 11.9037 21.9437 12.207 21.8222 12.4885C21.7007 12.77 21.523 13.0237 21.3 13.2341L15.454 18.7501C14.338 19.8031 12.503 19.0111 12.503 17.4771V15.5021C11.344 15.2927 10.1494 15.4204 9.06091 15.8702C7.97248 16.3199 7.03606 17.0727 6.36296 18.0391L5.56096 19.1911C4.46896 20.7601 2.00696 19.9871 2.00696 18.0761V17.6071C2.00696 11.8391 6.84096 7.31506 12.503 7.58606L12.502 5.72206ZM14.423 5.54006C14.3874 5.50673 14.3429 5.48451 14.2949 5.47614C14.2469 5.46778 14.1975 5.47362 14.1528 5.49295C14.108 5.51229 14.0699 5.54428 14.0431 5.58498C14.0163 5.62569 14.002 5.67333 14.002 5.72206V8.31006C14.002 8.81006 13.564 9.19806 13.068 9.13806C7.98495 8.52006 3.50596 12.4871 3.50596 17.6081V18.0761C3.50596 18.5181 4.07596 18.6971 4.32896 18.3341L5.13196 17.1821C6.03232 15.8893 7.30986 14.906 8.79005 14.3665C10.2702 13.8271 11.8809 13.7577 13.402 14.1681C13.5742 14.2147 13.7263 14.3167 13.8348 14.4584C13.9432 14.6001 14.002 14.7736 14.002 14.9521V17.4761C14.002 17.5248 14.0163 17.5724 14.0431 17.6131C14.0699 17.6538 14.108 17.6858 14.1528 17.7052C14.1975 17.7245 14.2469 17.7303 14.2949 17.722C14.3429 17.7136 14.3874 17.6914 14.423 17.6581L20.27 12.1431C20.3443 12.073 20.4035 11.9884 20.4439 11.8946C20.4844 11.8008 20.5052 11.6997 20.5052 11.5976C20.5052 11.4954 20.4844 11.3943 20.4439 11.3005C20.4035 11.2067 20.3443 11.1222 20.27 11.0521L14.423 5.54006Z" fill="#282828"/>
</svg>
